<?xml version="1.0" encoding="UTF-8" standalone="no"?>
<!DOCTYPE svg PUBLIC "-//W3C//DTD SVG 1.1//EN"
 "http://www.w3.org/Graphics/SVG/1.1/DTD/svg11.dtd">
<!-- Generated by graphviz version 2.43.0 (0)
 -->
<!-- Title: G Pages: 1 -->
<svg width="502pt" height="46pt"
 viewBox="0.00 0.00 502.00 46.00" xmlns="http://www.w3.org/2000/svg" xmlns:xlink="http://www.w3.org/1999/xlink">
<g id="graph0" class="graph" transform="scale(1 1) rotate(0) translate(4 42)">
<title>G</title>
<polygon fill="white" stroke="transparent" points="-4,4 -4,-42 498,-42 498,4 -4,4"/>
<!-- depNode_0 -->
<g id="node1" class="node">
<title>depNode_0</title>
<text text-anchor="middle" x="27" y="-15.3" font-family="Times,serif" font-size="14.00">&#39;Entry&#39;</text>
</g>
<!-- depNode_2 -->
<g id="node2" class="node">
<title>depNode_2</title>
<polygon fill="white" stroke="#000000" points="274,-38 122,-38 118,-34 118,0 270,0 274,-4 274,-38"/>
<polyline fill="none" stroke="#000000" points="270,-34 118,-34 "/>
<polyline fill="none" stroke="#000000" points="270,-34 270,0 "/>
<polyline fill="none" stroke="#000000" points="270,-34 274,-38 "/>
<text text-anchor="middle" x="196" y="-22.8" font-family="Times,serif" font-size="14.00">&lt;&lt;execution container&gt;&gt;</text>
<text text-anchor="middle" x="196" y="-7.8" font-family="Times,serif" font-size="14.00">SRV0</text>
</g>
<!-- depNode_0&#45;&gt;depNode_2 -->
<g id="edge1" class="edge">
<title>depNode_0&#45;&gt;depNode_2</title>
<path fill="none" stroke="#000000" d="M54.09,-19C68.78,-19 88.06,-19 107.62,-19"/>
<polygon fill="#000000" stroke="#000000" points="117.85,-19 107.85,-23.5 112.85,-19 107.85,-19 107.85,-19 107.85,-19 112.85,-19 107.85,-14.5 117.85,-19 117.85,-19"/>
<text text-anchor="middle" x="86" y="-22.8" font-family="Times,serif" font-size="14.00">1635</text>
</g>
<!-- depNode_1 -->
<g id="node3" class="node">
<title>depNode_1</title>
<polygon fill="white" stroke="#000000" points="494,-38 342,-38 338,-34 338,0 490,0 494,-4 494,-38"/>
<polyline fill="none" stroke="#000000" points="490,-34 338,-34 "/>
<polyline fill="none" stroke="#000000" points="490,-34 490,0 "/>
<polyline fill="none" stroke="#000000" points="490,-34 494,-38 "/>
<text text-anchor="middle" x="416" y="-22.8" font-family="Times,serif" font-size="14.00">&lt;&lt;execution container&gt;&gt;</text>
<text text-anchor="middle" x="416" y="-7.8" font-family="Times,serif" font-size="14.00">SRV1</text>
</g>
<!-- depNode_2&#45;&gt;depNode_1 -->
<g id="edge2" class="edge">
<title>depNode_2&#45;&gt;depNode_1</title>
<path fill="none" stroke="#000000" d="M274.17,-19C291.47,-19 309.95,-19 327.63,-19"/>
<polygon fill="#000000" stroke="#000000" points="337.94,-19 327.94,-23.5 332.94,-19 327.94,-19 327.94,-19 327.94,-19 332.94,-19 327.94,-14.5 337.94,-19 337.94,-19"/>
<text text-anchor="middle" x="306" y="-22.8" font-family="Times,serif" font-size="14.00">2154</text>
</g>
</g>
</svg>
