<?xml version="1.0" encoding="UTF-8" standalone="no"?>
<!DOCTYPE svg PUBLIC "-//W3C//DTD SVG 1.1//EN"
 "http://www.w3.org/Graphics/SVG/1.1/DTD/svg11.dtd">
<!-- Generated by graphviz version 2.43.0 (0)
 -->
<!-- Title: G Pages: 1 -->
<svg width="200pt" height="311pt"
 viewBox="0.00 0.00 200.00 311.00" xmlns="http://www.w3.org/2000/svg" xmlns:xlink="http://www.w3.org/1999/xlink">
<g id="graph0" class="graph" transform="scale(1 1) rotate(0) translate(4 307)">
<title>G</title>
<polygon fill="white" stroke="transparent" points="-4,4 -4,-307 196,-307 196,4 -4,4"/>
<!-- 0 -->
<g id="node1" class="node">
<title>0</title>
<text text-anchor="middle" x="69.5" y="-281.3" font-family="Times,serif" font-size="14.00">&#39;Entry&#39;</text>
</g>
<!-- 1 -->
<g id="node2" class="node">
<title>1</title>
<text text-anchor="middle" x="69.5" y="-200.8" font-family="Times,serif" font-size="14.00">@3:..Bookstore</text>
<text text-anchor="middle" x="69.5" y="-185.8" font-family="Times,serif" font-size="14.00">.searchBook()</text>
</g>
<!-- 0&#45;&gt;1 -->
<g id="edge1" class="edge">
<title>0&#45;&gt;1</title>
<path fill="none" stroke="black" d="M69.5,-266.6C69.5,-251.97 69.5,-231.13 69.5,-216.27"/>
<text text-anchor="middle" x="83.5" y="-237.8" font-family="Times,serif" font-size="14.00">1635</text>
</g>
<!-- 2 -->
<g id="node3" class="node">
<title>2</title>
<text text-anchor="middle" x="44.5" y="-111.8" font-family="Times,serif" font-size="14.00">@1:..Catalog</text>
<text text-anchor="middle" x="44.5" y="-96.8" font-family="Times,serif" font-size="14.00">.getBook(..)</text>
</g>
<!-- 1&#45;&gt;2 -->
<g id="edge2" class="edge">
<title>1&#45;&gt;2</title>
<path fill="none" stroke="black" d="M64.32,-177.97C60.03,-163.04 53.96,-141.93 49.67,-127"/>
<text text-anchor="middle" x="72.5" y="-148.8" font-family="Times,serif" font-size="14.00">1635</text>
</g>
<!-- 3 -->
<g id="node4" class="node">
<title>3</title>
<text text-anchor="middle" x="147.5" y="-111.8" font-family="Times,serif" font-size="14.00">@2:..CRM</text>
<text text-anchor="middle" x="147.5" y="-96.8" font-family="Times,serif" font-size="14.00">.getOffers()</text>
</g>
<!-- 1&#45;&gt;3 -->
<g id="edge3" class="edge">
<title>1&#45;&gt;3</title>
<path fill="none" stroke="black" d="M85.66,-177.97C99.05,-163.04 117.98,-141.93 131.36,-127"/>
<text text-anchor="middle" x="126.5" y="-148.8" font-family="Times,serif" font-size="14.00">1635</text>
</g>
<!-- 4 -->
<g id="node5" class="node">
<title>4</title>
<text text-anchor="middle" x="147.5" y="-22.8" font-family="Times,serif" font-size="14.00">@1:..Catalog</text>
<text text-anchor="middle" x="147.5" y="-7.8" font-family="Times,serif" font-size="14.00">.getBook(..)</text>
</g>
<!-- 3&#45;&gt;4 -->
<g id="edge4" class="edge">
<title>3&#45;&gt;4</title>
<path fill="none" stroke="black" d="M147.5,-88.97C147.5,-74.04 147.5,-52.93 147.5,-38"/>
<text text-anchor="middle" x="161.5" y="-59.8" font-family="Times,serif" font-size="14.00">1635</text>
</g>
</g>
</svg>
