<?xml version="1.0" encoding="UTF-8" standalone="no"?>
<!DOCTYPE svg PUBLIC "-//W3C//DTD SVG 1.1//EN"
 "http://www.w3.org/Graphics/SVG/1.1/DTD/svg11.dtd">
<!-- Generated by graphviz version 2.43.0 (0)
 -->
<!-- Title: G Pages: 1 -->
<svg width="707pt" height="150pt"
 viewBox="0.00 0.00 707.47 150.00" xmlns="http://www.w3.org/2000/svg" xmlns:xlink="http://www.w3.org/1999/xlink">
<g id="graph0" class="graph" transform="scale(1 1) rotate(0) translate(4 146)">
<title>G</title>
<polygon fill="white" stroke="transparent" points="-4,4 -4,-146 703.47,-146 703.47,4 -4,4"/>
<g id="clust1" class="cluster">
<title>cluster_component_2</title>
<polygon fill="white" stroke="black" points="322.69,-44 322.69,-134 486.78,-134 486.78,-44 322.69,-44"/>
<text text-anchor="middle" x="404.74" y="-118.8" font-family="Times,serif" font-size="14.00">&lt;&lt;assembly component&gt;&gt;</text>
<text text-anchor="middle" x="404.74" y="-103.8" font-family="Times,serif" font-size="14.00">@2:..CRM</text>
</g>
<g id="clust2" class="cluster">
<title>cluster_component_1</title>
<polygon fill="white" stroke="black" points="534.78,-12 534.78,-102 699.47,-102 699.47,-12 534.78,-12"/>
<text text-anchor="middle" x="617.13" y="-86.8" font-family="Times,serif" font-size="14.00">&lt;&lt;assembly component&gt;&gt;</text>
<text text-anchor="middle" x="617.13" y="-71.8" font-family="Times,serif" font-size="14.00">@1:..Catalog</text>
</g>
<g id="clust3" class="cluster">
<title>cluster_component_3</title>
<polygon fill="white" stroke="black" points="110,-8 110,-98 274.69,-98 274.69,-8 110,-8"/>
<text text-anchor="middle" x="192.34" y="-82.8" font-family="Times,serif" font-size="14.00">&lt;&lt;assembly component&gt;&gt;</text>
<text text-anchor="middle" x="192.34" y="-67.8" font-family="Times,serif" font-size="14.00">@3:..Bookstore</text>
</g>
<!-- depNode_0 -->
<g id="node1" class="node">
<title>depNode_0</title>
<text text-anchor="middle" x="27" y="-30.3" font-family="Times,serif" font-size="14.00">&#39;Entry&#39;</text>
</g>
<!-- depNode_1 -->
<g id="node4" class="node">
<title>depNode_1</title>
<ellipse fill="white" stroke="#000000" cx="191.84" cy="-34" rx="57.69" ry="18"/>
<text text-anchor="middle" x="191.84" y="-30.3" font-family="Times,serif" font-size="14.00">searchBook()</text>
</g>
<!-- depNode_0&#45;&gt;depNode_1 -->
<g id="edge1" class="edge">
<title>depNode_0&#45;&gt;depNode_1</title>
<path fill="none" stroke="#000000" d="M54.16,-34C72.89,-34 98.99,-34 123.37,-34"/>
<polygon fill="#000000" stroke="#000000" points="133.69,-34 123.69,-38.5 128.69,-34 123.69,-34 123.69,-34 123.69,-34 128.69,-34 123.69,-29.5 133.69,-34 133.69,-34"/>
<text text-anchor="middle" x="86" y="-37.8" font-family="Times,serif" font-size="14.00">1635</text>
</g>
<!-- depNode_3 -->
<g id="node2" class="node">
<title>depNode_3</title>
<ellipse fill="white" stroke="#000000" cx="404.74" cy="-70" rx="50.09" ry="18"/>
<text text-anchor="middle" x="404.74" y="-66.3" font-family="Times,serif" font-size="14.00">getOffers()</text>
</g>
<!-- depNode_2 -->
<g id="node3" class="node">
<title>depNode_2</title>
<ellipse fill="white" stroke="#000000" cx="617.13" cy="-38" rx="51.19" ry="18"/>
<text text-anchor="middle" x="617.13" y="-34.3" font-family="Times,serif" font-size="14.00">getBook(..)</text>
</g>
<!-- depNode_3&#45;&gt;depNode_2 -->
<g id="edge4" class="edge">
<title>depNode_3&#45;&gt;depNode_2</title>
<path fill="none" stroke="#000000" d="M451.13,-63.1C482.88,-58.27 525.5,-51.78 559.48,-46.62"/>
<polygon fill="#000000" stroke="#000000" points="569.72,-45.06 560.51,-51.01 564.78,-45.81 559.84,-46.56 559.84,-46.56 559.84,-46.56 564.78,-45.81 559.16,-42.11 569.72,-45.06 569.72,-45.06"/>
<text text-anchor="middle" x="510.78" y="-58.8" font-family="Times,serif" font-size="14.00">1635</text>
</g>
<!-- depNode_1&#45;&gt;depNode_3 -->
<g id="edge3" class="edge">
<title>depNode_1&#45;&gt;depNode_3</title>
<path fill="none" stroke="#000000" d="M242.82,-42.53C274.83,-48 316.38,-55.09 349.24,-60.7"/>
<polygon fill="#000000" stroke="#000000" points="359.14,-62.39 348.52,-65.14 354.21,-61.55 349.28,-60.7 349.28,-60.7 349.28,-60.7 354.21,-61.55 350.04,-56.27 359.14,-62.39 359.14,-62.39"/>
<text text-anchor="middle" x="298.69" y="-57.8" font-family="Times,serif" font-size="14.00">1635</text>
</g>
<!-- depNode_1&#45;&gt;depNode_2 -->
<g id="edge2" class="edge">
<title>depNode_1&#45;&gt;depNode_2</title>
<path fill="none" stroke="#000000" d="M247.77,-29.35C270.88,-27.61 298.07,-25.85 322.69,-25 395.58,-22.48 413.94,-21.35 486.78,-25 510.33,-26.18 536.21,-28.56 558.59,-30.97"/>
<polygon fill="#000000" stroke="#000000" points="568.6,-32.07 558.17,-35.45 563.63,-31.53 558.66,-30.98 558.66,-30.98 558.66,-30.98 563.63,-31.53 559.16,-26.51 568.6,-32.07 568.6,-32.07"/>
<text text-anchor="middle" x="404.74" y="-28.8" font-family="Times,serif" font-size="14.00">1635</text>
</g>
</g>
</svg>
