<?xml version="1.0" encoding="UTF-8" standalone="no"?>
<svg
   xmlns:dc="http://purl.org/dc/elements/1.1/"
   xmlns:cc="http://creativecommons.org/ns#"
   xmlns:rdf="http://www.w3.org/1999/02/22-rdf-syntax-ns#"
   xmlns:svg="http://www.w3.org/2000/svg"
   xmlns="http://www.w3.org/2000/svg"
   xmlns:sodipodi="http://sodipodi.sourceforge.net/DTD/sodipodi-0.dtd"
   xmlns:inkscape="http://www.inkscape.org/namespaces/inkscape"
   shape-rendering="auto"
   width="412.37448"
   text-rendering="auto"
   contentScriptType="text/ecmascript"
   color-interpolation="auto"
   color-rendering="auto"
   preserveAspectRatio="xMidYMid meet"
   font-size="12"
   viewBox="0 0 412.37448 336.5"
   image-rendering="auto"
   stroke-miterlimit="10"
   zoomAndPan="magnify"
   version="1.0"
   contentStyleType="text/css"
   font-style="normal"
   height="336.5"
   font-weight="normal"
   id="svg2"
   inkscape:version="0.47 r22583"
   sodipodi:docname="kieker_SequenceDiagram-manually-changed.svg"
   style="font-size:12px;font-style:normal;font-weight:normal;fill:#000000;fill-opacity:1;stroke:#000000;stroke-width:1;stroke-linecap:square;stroke-linejoin:miter;stroke-miterlimit:10;stroke-opacity:1;stroke-dasharray:none;stroke-dashoffset:0;font-family:Dialog">
  <line
     clip-path="url(#clipPath24)"
     x1="105"
     x2="415"
     y1="237"
     y2="237"
     id="line321"
     style="font-size:10px;fill:none;stroke:#000000;stroke-width:1.23720896;stroke-linejoin:round;stroke-miterlimit:0;font-family:Arial"
     transform="matrix(0.65330188,0,0,1,108.42755,-43)" />
  <line
     clip-path="url(#clipPath24)"
     x1="214"
     x2="105"
     y1="220"
     y2="220"
     id="line193"
     style="font-size:10px;fill:none;stroke:#000000;stroke-linejoin:round;stroke-miterlimit:0;stroke-dasharray:3, 3;font-family:Arial"
     transform="translate(-35.625522,89.39)" />
  <metadata
     id="metadata351">
    <rdf:RDF>
      <cc:Work
         rdf:about="">
        <dc:format>image/svg+xml</dc:format>
        <dc:type
           rdf:resource="http://purl.org/dc/dcmitype/StillImage" />
      </cc:Work>
    </rdf:RDF>
  </metadata>
  <sodipodi:namedview
     pagecolor="#ffffff"
     bordercolor="#666666"
     borderopacity="1"
     objecttolerance="10"
     gridtolerance="10"
     guidetolerance="10"
     inkscape:pageopacity="0"
     inkscape:pageshadow="2"
     inkscape:window-width="1016"
     inkscape:window-height="741"
     id="namedview349"
     showgrid="false"
     inkscape:zoom="0.84598535"
     inkscape:cx="174.20476"
     inkscape:cy="119.74541"
     inkscape:window-x="0"
     inkscape:window-y="0"
     inkscape:window-maximized="1"
     inkscape:current-layer="svg2" />
  <!--Generated by the Batik Graphics2D SVG Generator-->
  <line
     clip-path="url(#clipPath24)"
     x1="415"
     x2="105"
     y1="348"
     y2="348"
     id="line243"
     style="font-size:10px;fill:none;stroke:#000000;stroke-width:1.26814246;stroke-linejoin:round;stroke-miterlimit:0;stroke-dasharray:3.80442744, 3.80442744;font-family:Arial"
     transform="matrix(0.62181887,0,0,1,121.50874,-43)" />
  <defs
     id="genericDefs">
    <inkscape:perspective
       sodipodi:type="inkscape:persp3d"
       inkscape:vp_x="0 : 272 : 1"
       inkscape:vp_y="0 : 1000 : 0"
       inkscape:vp_z="792 : 272 : 1"
       inkscape:persp3d-origin="396 : 181.33333 : 1"
       id="perspective353" />
    <defs
       id="defs1">
      <clipPath
         id="clipPath1"
         clipPathUnits="userSpaceOnUse">
        <path
           id="path9"
           d="m 37,9 70,0 0,26 -70,0 0,-26 z" />
      </clipPath>
      <clipPath
         id="clipPath2"
         clipPathUnits="userSpaceOnUse">
        <path
           id="path12"
           d="m 42,14 60,0 0,16 -60,0 0,-16 z" />
      </clipPath>
      <clipPath
         id="clipPath3"
         clipPathUnits="userSpaceOnUse">
        <path
           id="path15"
           d="m 37,32 746,0 0,503 -746,0 0,-503 z" />
      </clipPath>
      <clipPath
         id="clipPath4"
         clipPathUnits="userSpaceOnUse">
        <path
           id="path18"
           d="m 383,42 66,0 0,25 -66,0 0,-25 z" />
      </clipPath>
      <clipPath
         id="clipPath5"
         clipPathUnits="userSpaceOnUse">
        <path
           id="path21"
           d="m 393,47 47,0 0,16 -47,0 0,-16 z" />
      </clipPath>
      <clipPath
         id="clipPath6"
         clipPathUnits="userSpaceOnUse">
        <path
           id="path24"
           d="m 383,64 66,0 0,308 -66,0 0,-308 z" />
      </clipPath>
      <clipPath
         id="clipPath7"
         clipPathUnits="userSpaceOnUse">
        <path
           id="path27"
           d="m 278,42 98,0 0,25 -98,0 0,-25 z" />
      </clipPath>
      <clipPath
         id="clipPath8"
         clipPathUnits="userSpaceOnUse">
        <path
           id="path30"
           d="m 288,47 79,0 0,16 -79,0 0,-16 z" />
      </clipPath>
      <clipPath
         id="clipPath9"
         clipPathUnits="userSpaceOnUse">
        <path
           id="path33"
           d="m 278,64 98,0 0,308 -98,0 0,-308 z" />
      </clipPath>
      <clipPath
         id="clipPath10"
         clipPathUnits="userSpaceOnUse">
        <path
           id="path36"
           d="m 158,42 113,0 0,25 -113,0 0,-25 z" />
      </clipPath>
      <clipPath
         id="clipPath11"
         clipPathUnits="userSpaceOnUse">
        <path
           id="path39"
           d="m 167,47 95,0 0,16 -95,0 0,-16 z" />
      </clipPath>
      <clipPath
         id="clipPath12"
         clipPathUnits="userSpaceOnUse">
        <path
           id="path42"
           d="m 158,64 113,0 0,308 -113,0 0,-308 z" />
      </clipPath>
      <clipPath
         id="clipPath13"
         clipPathUnits="userSpaceOnUse">
        <path
           id="path45"
           d="m 53,42 98,0 0,25 -98,0 0,-25 z" />
      </clipPath>
      <clipPath
         id="clipPath14"
         clipPathUnits="userSpaceOnUse">
        <path
           id="path48"
           d="m 62,47 79,0 0,16 -79,0 0,-16 z" />
      </clipPath>
      <clipPath
         id="clipPath15"
         clipPathUnits="userSpaceOnUse">
        <path
           id="path51"
           d="m 53,64 98,0 0,317 -98,0 0,-317 z" />
      </clipPath>
      <clipPath
         id="clipPath16"
         clipPathUnits="userSpaceOnUse">
        <path
           id="path54"
           d="m 95,110 13,0 0,255 -13,0 0,-255 z" />
      </clipPath>
      <clipPath
         id="clipPath17"
         clipPathUnits="userSpaceOnUse">
        <path
           id="path57"
           d="m 208,119 13,0 0,103 -13,0 0,-103 z" />
      </clipPath>
      <clipPath
         id="clipPath18"
         clipPathUnits="userSpaceOnUse">
        <path
           id="path60"
           d="m 321,145 13,0 0,53 -13,0 0,-53 z" />
      </clipPath>
      <clipPath
         id="clipPath19"
         clipPathUnits="userSpaceOnUse">
        <path
           id="path63"
           d="m 410,236 12,0 0,114 -12,0 0,-114 z" />
      </clipPath>
      <clipPath
         id="clipPath20"
         clipPathUnits="userSpaceOnUse">
        <path
           id="path66"
           d="m 321,264 13,0 0,57 -13,0 0,-57 z" />
      </clipPath>
      <clipPath
         id="clipPath21"
         clipPathUnits="userSpaceOnUse">
        <path
           id="path69"
           d="M 36,8 784,8 784,536 36,536 36,8 z" />
      </clipPath>
      <clipPath
         id="clipPath22"
         clipPathUnits="userSpaceOnUse">
        <path
           id="path72"
           d="m 30,105 14,0 0,14 -14,0 0,-14 z" />
      </clipPath>
      <clipPath
         id="clipPath23"
         clipPathUnits="userSpaceOnUse">
        <path
           id="path75"
           d="m 30,357 14,0 0,14 -14,0 0,-14 z" />
      </clipPath>
      <clipPath
         id="clipPath24"
         clipPathUnits="userSpaceOnUse">
        <path
           id="path78"
           d="m -1,-1 794,0 0,546 -794,0 0,-546 z" />
      </clipPath>
      <clipPath
         id="clipPath25"
         clipPathUnits="userSpaceOnUse">
        <path
           id="path81"
           d="m 104,215 11,0 0,10 -11,0 0,-10 z" />
      </clipPath>
      <clipPath
         id="clipPath26"
         clipPathUnits="userSpaceOnUse">
        <path
           id="path84"
           d="m 121,100 78,0 0,16 -78,0 0,-16 z" />
      </clipPath>
      <clipPath
         id="clipPath27"
         clipPathUnits="userSpaceOnUse">
        <path
           id="path87"
           d="m 204,115 12,0 0,10 -12,0 0,-10 z" />
      </clipPath>
      <clipPath
         id="clipPath28"
         clipPathUnits="userSpaceOnUse">
        <path
           id="path90"
           d="m 217,191 11,0 0,10 -11,0 0,-10 z" />
      </clipPath>
      <clipPath
         id="clipPath29"
         clipPathUnits="userSpaceOnUse">
        <path
           id="path93"
           d="m 227,217 66,0 0,16 -66,0 0,-16 z" />
      </clipPath>
      <clipPath
         id="clipPath30"
         clipPathUnits="userSpaceOnUse">
        <path
           id="path96"
           d="m 405,232 12,0 0,10 -12,0 0,-10 z" />
      </clipPath>
      <clipPath
         id="clipPath31"
         clipPathUnits="userSpaceOnUse">
        <path
           id="path99"
           d="m 36,359 11,0 0,10 -11,0 0,-10 z" />
      </clipPath>
      <clipPath
         id="clipPath32"
         clipPathUnits="userSpaceOnUse">
        <path
           id="path102"
           d="m 49,92 39,0 0,16 -39,0 0,-16 z" />
      </clipPath>
      <clipPath
         id="clipPath33"
         clipPathUnits="userSpaceOnUse">
        <path
           id="path105"
           d="m 91,106 12,0 0,10 -12,0 0,-10 z" />
      </clipPath>
      <clipPath
         id="clipPath34"
         clipPathUnits="userSpaceOnUse">
        <path
           id="path108"
           d="m 104,343 11,0 0,10 -11,0 0,-10 z" />
      </clipPath>
      <clipPath
         id="clipPath35"
         clipPathUnits="userSpaceOnUse">
        <path
           id="path111"
           d="m 400,314 12,0 0,10 -12,0 0,-10 z" />
      </clipPath>
      <clipPath
         id="clipPath36"
         clipPathUnits="userSpaceOnUse">
        <path
           id="path114"
           d="m 339,247 71,0 0,16 -71,0 0,-16 z" />
      </clipPath>
      <clipPath
         id="clipPath37"
         clipPathUnits="userSpaceOnUse">
        <path
           id="path117"
           d="m 324,260 13,0 0,10 -13,0 0,-10 z" />
      </clipPath>
      <clipPath
         id="clipPath38"
         clipPathUnits="userSpaceOnUse">
        <path
           id="path120"
           d="m 237,126 71,0 0,16 -71,0 0,-16 z" />
      </clipPath>
      <clipPath
         id="clipPath39"
         clipPathUnits="userSpaceOnUse">
        <path
           id="path123"
           d="m 316,141 12,0 0,10 -12,0 0,-10 z" />
      </clipPath>
    </defs>
    <inkscape:perspective
       id="perspective3469"
       inkscape:persp3d-origin="0.5 : 0.33333333 : 1"
       inkscape:vp_z="1 : 0.5 : 1"
       inkscape:vp_y="0 : 1000 : 0"
       inkscape:vp_x="0 : 0.5 : 1"
       sodipodi:type="inkscape:persp3d" />
    <clipPath
       id="clipPath27-4"
       clipPathUnits="userSpaceOnUse">
      <path
         id="path87-9"
         d="m 204,115 12,0 0,10 -12,0 0,-10 z" />
    </clipPath>
    <clipPath
       id="clipPath3475"
       clipPathUnits="userSpaceOnUse">
      <path
         id="path3477"
         d="m 204,115 12,0 0,10 -12,0 0,-10 z" />
    </clipPath>
    <clipPath
       id="clipPath24-5"
       clipPathUnits="userSpaceOnUse">
      <path
         id="path78-0"
         d="m -1,-1 794,0 0,546 -794,0 0,-546 z" />
    </clipPath>
    <clipPath
       id="clipPath3481"
       clipPathUnits="userSpaceOnUse">
      <path
         id="path3483"
         d="m 204,115 12,0 0,10 -12,0 0,-10 z" />
    </clipPath>
    <clipPath
       id="clipPath3485"
       clipPathUnits="userSpaceOnUse">
      <path
         id="path3487"
         d="m 204,115 12,0 0,10 -12,0 0,-10 z" />
    </clipPath>
    <clipPath
       id="clipPath3489"
       clipPathUnits="userSpaceOnUse">
      <path
         id="path3491"
         d="m -1,-1 794,0 0,546 -794,0 0,-546 z" />
    </clipPath>
    <inkscape:perspective
       id="perspective3563"
       inkscape:persp3d-origin="0.5 : 0.33333333 : 1"
       inkscape:vp_z="1 : 0.5 : 1"
       inkscape:vp_y="0 : 1000 : 0"
       inkscape:vp_x="0 : 0.5 : 1"
       sodipodi:type="inkscape:persp3d" />
    <clipPath
       id="clipPath25-7"
       clipPathUnits="userSpaceOnUse">
      <path
         id="path81-7"
         d="m 104,215 11,0 0,10 -11,0 0,-10 z" />
    </clipPath>
    <clipPath
       id="clipPath3569"
       clipPathUnits="userSpaceOnUse">
      <path
         id="path3571"
         d="m 104,215 11,0 0,10 -11,0 0,-10 z" />
    </clipPath>
    <clipPath
       id="clipPath24-1"
       clipPathUnits="userSpaceOnUse">
      <path
         id="path78-1"
         d="m -1,-1 794,0 0,546 -794,0 0,-546 z" />
    </clipPath>
    <clipPath
       id="clipPath3575"
       clipPathUnits="userSpaceOnUse">
      <path
         id="path3577"
         d="m 104,215 11,0 0,10 -11,0 0,-10 z" />
    </clipPath>
    <clipPath
       id="clipPath3579"
       clipPathUnits="userSpaceOnUse">
      <path
         id="path3581"
         d="m 104,215 11,0 0,10 -11,0 0,-10 z" />
    </clipPath>
    <clipPath
       id="clipPath3583"
       clipPathUnits="userSpaceOnUse">
      <path
         id="path3585"
         d="m -1,-1 794,0 0,546 -794,0 0,-546 z" />
    </clipPath>
  </defs>
  <rect
     x="384"
     y="43"
     clip-path="url(#clipPath4)"
     width="64"
     height="23"
     id="rect135"
     style="font-size:10px;fill:#ffffff;stroke:none;font-family:Arial"
     transform="translate(-35.625522,-43)" />
  <text
     x="394"
     y="58"
     clip-path="url(#clipPath5)"
     xml:space="preserve"
     id="text137"
     style="font-size:10px;fill:#000000;stroke:none;font-family:Arial"
     transform="translate(-35.625522,-43)">crm:CRM</text>
  <rect
     x="385"
     y="44"
     clip-path="url(#clipPath4)"
     width="62"
     height="20"
     id="rect139"
     style="font-size:10px;fill:none;stroke:#000000;stroke-linejoin:round;stroke-miterlimit:0;font-family:Arial"
     transform="translate(-35.625522,-43)" />
  <line
     clip-path="url(#clipPath6)"
     x1="416"
     x2="416"
     y1="65"
     y2="370"
     id="line141"
     style="font-size:10px;fill:none;stroke:#000000;stroke-linejoin:round;stroke-miterlimit:0;stroke-dasharray:20, 8;font-family:Arial"
     transform="translate(-35.625522,-43)" />
  <rect
     x="279"
     y="43"
     clip-path="url(#clipPath7)"
     width="96"
     height="23"
     id="rect143"
     style="font-size:10px;fill:#ffffff;stroke:none;font-family:Arial"
     transform="translate(-35.625522,-43)" />
  <text
     x="289"
     y="58"
     clip-path="url(#clipPath8)"
     xml:space="preserve"
     id="text145"
     style="font-size:10px;fill:#000000;stroke:none;font-family:Arial"
     transform="translate(-35.625522,-43)">catalog:Catalog</text>
  <rect
     x="280"
     y="44"
     clip-path="url(#clipPath7)"
     width="94"
     height="20"
     id="rect147"
     style="font-size:10px;fill:none;stroke:#000000;stroke-linejoin:round;stroke-miterlimit:0;font-family:Arial"
     transform="translate(-35.625522,-43)" />
  <line
     clip-path="url(#clipPath9)"
     x1="327"
     x2="327"
     y1="65"
     y2="370"
     id="line149"
     style="font-size:10px;fill:none;stroke:#000000;stroke-linejoin:round;stroke-miterlimit:0;stroke-dasharray:20, 8;font-family:Arial"
     transform="translate(-35.625522,-43)" />
  <rect
     x="159"
     y="43"
     clip-path="url(#clipPath10)"
     width="111"
     height="23"
     id="rect151"
     style="font-size:10px;fill:#ffffff;stroke:none;font-family:Arial"
     transform="translate(-35.625522,-43)" />
  <text
     x="168"
     y="58"
     clip-path="url(#clipPath11)"
     xml:space="preserve"
     id="text153"
     style="font-size:10px;fill:#000000;stroke:none;font-family:Arial"
     transform="translate(-35.625522,-43)">bookstore:Bookstore</text>
  <rect
     x="159"
     y="44"
     clip-path="url(#clipPath10)"
     width="110"
     height="20"
     id="rect155"
     style="font-size:10px;fill:none;stroke:#000000;stroke-linejoin:round;stroke-miterlimit:0;font-family:Arial"
     transform="translate(-35.625522,-43)" />
  <line
     clip-path="url(#clipPath12)"
     x1="214"
     x2="214"
     y1="65"
     y2="370"
     id="line157"
     style="font-size:10px;fill:none;stroke:#000000;stroke-linejoin:round;stroke-miterlimit:0;stroke-dasharray:20, 8;font-family:Arial"
     transform="translate(-35.625522,-43)" />
  <rect
     x="54"
     y="43"
     clip-path="url(#clipPath13)"
     width="95"
     height="23"
     id="rect159"
     style="font-size:10px;fill:#ffffff;stroke:none;font-family:Arial"
     transform="translate(-35.625522,-43)" />
  <text
     x="63"
     y="58"
     clip-path="url(#clipPath14)"
     xml:space="preserve"
     id="text161"
     style="font-size:10px;fill:#000000;stroke:none;font-family:Arial"
     transform="translate(-35.625522,-43)">BookstoreStarter</text>
  <rect
     x="54"
     y="44"
     clip-path="url(#clipPath13)"
     width="94"
     height="20"
     id="rect163"
     style="font-size:10px;fill:none;stroke:#000000;stroke-linejoin:round;stroke-miterlimit:0;font-family:Arial"
     transform="translate(-35.625522,-43)" />
  <line
     clip-path="url(#clipPath15)"
     x1="101"
     x2="101"
     y1="65"
     y2="379"
     id="line165"
     style="font-size:10px;fill:none;stroke:#000000;stroke-width:2.55428052;stroke-linejoin:round;stroke-miterlimit:0;stroke-dasharray:51.08560974, 20.4342439;font-family:Arial"
     transform="matrix(0.1641619,0,0,0.93366364,49.212045,-38.721305)" />
  <rect
     x="97"
     y="112"
     clip-path="url(#clipPath16)"
     width="9"
     height="251"
     id="rect167"
     style="font-size:10px;fill:#ffffff;stroke:none;font-family:Arial"
     transform="translate(-35.625522,-43)" />
  <rect
     x="97"
     y="112"
     clip-path="url(#clipPath16)"
     width="8"
     height="251"
     id="rect169"
     style="font-size:10px;fill:none;stroke:#000000;stroke-linejoin:round;stroke-miterlimit:0;font-family:Arial"
     transform="translate(-35.625522,-43)" />
  <rect
     x="210"
     y="121"
     clip-path="url(#clipPath17)"
     width="9"
     height="99"
     id="rect171"
     style="font-size:10px;fill:#ffffff;stroke:none;font-family:Arial"
     transform="translate(-35.625522,-43)" />
  <rect
     x="210"
     y="121"
     clip-path="url(#clipPath17)"
     width="8"
     height="99"
     id="rect173"
     style="font-size:10px;fill:#ffffff;fill-opacity:1;stroke:#000000;stroke-width:0.65078562;stroke-linejoin:round;stroke-miterlimit:0;font-family:Arial"
     transform="matrix(1,0,0,2.3611526,-35.625522,-207.69946)" />
  <rect
     x="323"
     y="147"
     clip-path="url(#clipPath18)"
     width="9"
     height="49"
     id="rect175"
     style="font-size:10px;fill:#ffffff;stroke:none;font-family:Arial"
     transform="translate(-35.625522,-43)" />
  <rect
     x="322"
     y="146"
     clip-path="url(#clipPath18)"
     width="9"
     height="49"
     id="rect177"
     style="font-size:10px;fill:none;stroke:#000000;stroke-linejoin:round;stroke-miterlimit:0;font-family:Arial"
     transform="translate(-35.625522,-43)" />
  <rect
     x="412"
     y="238"
     clip-path="url(#clipPath19)"
     width="8"
     height="110"
     id="rect179"
     style="font-size:10px;fill:#ffffff;stroke:none;font-family:Arial"
     transform="translate(-35.625522,-43)" />
  <rect
     x="411"
     y="238"
     clip-path="url(#clipPath19)"
     width="9"
     height="110"
     id="rect181"
     style="font-size:10px;fill:none;stroke:#000000;stroke-linejoin:round;stroke-miterlimit:0;font-family:Arial"
     transform="translate(-35.625522,-43)" />
  <rect
     x="323"
     y="266"
     clip-path="url(#clipPath20)"
     width="9"
     height="53"
     id="rect183"
     style="font-size:10px;fill:#ffffff;stroke:none;font-family:Arial"
     transform="translate(-35.625522,-43)" />
  <rect
     x="322"
     y="266"
     clip-path="url(#clipPath20)"
     width="9"
     height="52"
     id="rect185"
     style="font-size:10px;fill:none;stroke:#000000;stroke-linejoin:round;stroke-miterlimit:0;font-family:Arial"
     transform="translate(-35.625522,-43)" />
  <polygon
     clip-path="url(#clipPath25)"
     points="113,223 105,220 113,216 "
     id="polygon195"
     style="font-size:10px;fill:#000000;stroke:none;font-family:Arial"
     transform="translate(-35.625522,89.39)" />
  <polygon
     clip-path="url(#clipPath25)"
     points="113,223 105,220 113,216 "
     id="polygon197"
     style="font-size:10px;fill:none;stroke:#000000;stroke-linejoin:round;stroke-miterlimit:0;font-family:Arial"
     transform="translate(-35.625522,89.39)" />
  <line
     clip-path="url(#clipPath24)"
     x1="105"
     x2="214"
     y1="120"
     y2="120"
     id="line199"
     style="font-size:10px;fill:none;stroke:#000000;stroke-linejoin:round;stroke-miterlimit:0;font-family:Arial"
     transform="translate(-35.625522,-43)" />
  <text
     x="122"
     y="111"
     clip-path="url(#clipPath26)"
     xml:space="preserve"
     id="text201"
     style="font-size:10px;fill:#000000;stroke:none;font-family:Arial"
     transform="translate(-24.685581,-39)">searchBook</text>
  <polygon
     clip-path="url(#clipPath27)"
     points="205,123 205,116 214,120 "
     id="polygon203"
     style="font-size:10px;fill:#000000;stroke:none;font-family:Arial"
     transform="translate(-35.625522,-43)" />
  <polygon
     clip-path="url(#clipPath27)"
     points="205,123 205,116 214,120 "
     id="polygon205"
     style="font-size:10px;fill:none;stroke:#000000;stroke-linejoin:round;stroke-miterlimit:0;font-family:Arial"
     transform="translate(-35.625522,-43)" />
  <line
     clip-path="url(#clipPath24)"
     x1="326"
     x2="218"
     y1="196"
     y2="196"
     id="line207"
     style="font-size:10px;fill:none;stroke:#000000;stroke-linejoin:round;stroke-miterlimit:0;stroke-dasharray:3, 3;font-family:Arial"
     transform="translate(-35.625522,-43)" />
  <polygon
     clip-path="url(#clipPath28)"
     points="226,192 226,199 218,196 "
     id="polygon209"
     style="font-size:10px;fill:#000000;stroke:none;font-family:Arial"
     transform="translate(-35.625522,-43)" />
  <polygon
     clip-path="url(#clipPath28)"
     points="226,192 226,199 218,196 "
     id="polygon211"
     style="font-size:10px;fill:none;stroke:#000000;stroke-linejoin:round;stroke-miterlimit:0;font-family:Arial"
     transform="translate(-35.625522,-43)" />
  <text
     x="228"
     y="228"
     clip-path="url(#clipPath29)"
     xml:space="preserve"
     id="text215"
     style="font-size:10px;fill:#000000;stroke:none;font-family:Arial"
     transform="translate(-17.625522,-39)">getOffers</text>
  <polygon
     clip-path="url(#clipPath30)"
     points="406,240 406,233 415,237 "
     id="polygon217"
     style="font-size:10px;fill:#000000;stroke:none;font-family:Arial"
     transform="translate(-35.625522,-43)" />
  <polygon
     clip-path="url(#clipPath30)"
     points="406,240 406,233 415,237 "
     id="polygon219"
     style="font-size:10px;fill:none;stroke:#000000;stroke-linejoin:round;stroke-miterlimit:0;font-family:Arial"
     transform="translate(-35.625522,-43)" />
  <text
     x="50"
     y="103"
     clip-path="url(#clipPath32)"
     xml:space="preserve"
     id="text237"
     style="font-size:10px;fill:#000000;stroke:none;font-family:Arial"
     transform="translate(-27.794538,-39)">main</text>
  <line
     clip-path="url(#clipPath24)"
     x1="326"
     x2="410"
     y1="319"
     y2="319"
     id="line249"
     style="font-size:10px;fill:none;stroke:#000000;stroke-linejoin:round;stroke-miterlimit:0;stroke-dasharray:3, 3;font-family:Arial"
     transform="translate(-35.625522,-43)" />
  <polygon
     clip-path="url(#clipPath35)"
     points="401,322 401,315 410,319 "
     id="polygon251"
     style="font-size:10px;fill:#000000;stroke:none;font-family:Arial"
     transform="translate(-35.625522,-43)" />
  <polygon
     clip-path="url(#clipPath35)"
     points="401,322 401,315 410,319 "
     id="polygon253"
     style="font-size:10px;fill:none;stroke:#000000;stroke-linejoin:round;stroke-miterlimit:0;font-family:Arial"
     transform="translate(-35.625522,-43)" />
  <line
     clip-path="url(#clipPath24)"
     x1="410"
     x2="326"
     y1="265"
     y2="265"
     id="line255"
     style="font-size:10px;fill:none;stroke:#000000;stroke-linejoin:round;stroke-miterlimit:0;font-family:Arial"
     transform="translate(-35.625522,-43)" />
  <text
     x="340"
     y="258"
     clip-path="url(#clipPath36)"
     xml:space="preserve"
     id="text257"
     style="font-size:10px;fill:#000000;stroke:none;font-family:Arial"
     transform="translate(-26.126499,-41)">getBook</text>
  <polygon
     clip-path="url(#clipPath37)"
     points="334,261 334,268 326,265 "
     id="polygon259"
     style="font-size:10px;fill:#000000;stroke:none;font-family:Arial"
     transform="translate(-35.625522,-43)" />
  <polygon
     clip-path="url(#clipPath37)"
     points="334,261 334,268 326,265 "
     id="polygon261"
     style="font-size:10px;fill:none;stroke:#000000;stroke-linejoin:round;stroke-miterlimit:0;font-family:Arial"
     transform="translate(-35.625522,-43)" />
  <line
     clip-path="url(#clipPath24)"
     x1="218"
     x2="326"
     y1="146"
     y2="146"
     id="line263"
     style="font-size:10px;fill:none;stroke:#000000;stroke-linejoin:round;stroke-miterlimit:0;font-family:Arial"
     transform="translate(-35.625522,-43)" />
  <text
     x="238"
     y="137"
     clip-path="url(#clipPath38)"
     xml:space="preserve"
     id="text265"
     style="font-size:10px;fill:#000000;stroke:none;font-family:Arial"
     transform="translate(-20.126499,-39)">getBook</text>
  <polygon
     clip-path="url(#clipPath39)"
     points="317,149 317,142 326,146 "
     id="polygon267"
     style="font-size:10px;fill:#000000;stroke:none;font-family:Arial"
     transform="translate(-35.625522,-43)" />
  <polygon
     clip-path="url(#clipPath39)"
     points="317,149 317,142 326,146 "
     id="polygon269"
     style="font-size:10px;fill:none;stroke:#000000;stroke-linejoin:round;stroke-miterlimit:0;font-family:Arial"
     transform="translate(-35.625522,-43)" />
  <polygon
     clip-path="url(#clipPath27)"
     points="205,123 205,116 214,120 "
     id="polygon297"
     style="font-size:10px;fill:#000000;stroke:none;font-family:Arial"
     transform="translate(-35.625522,-43)" />
  <polygon
     clip-path="url(#clipPath27)"
     points="205,123 205,116 214,120 "
     id="polygon299"
     style="font-size:10px;fill:none;stroke:#000000;stroke-linejoin:round;stroke-miterlimit:0;font-family:Arial"
     transform="translate(-35.625522,-43)" />
  <polygon
     clip-path="url(#clipPath25)"
     points="113,223 105,220 113,216 "
     id="polygon303"
     style="font-size:10px;fill:#000000;stroke:none;font-family:Arial"
     transform="translate(-35.625522,89.39)" />
  <polygon
     clip-path="url(#clipPath25)"
     points="113,223 105,220 113,216 "
     id="polygon305"
     style="font-size:10px;fill:none;stroke:#000000;stroke-linejoin:round;stroke-miterlimit:0;font-family:Arial"
     transform="translate(-35.625522,89.39)" />
  <polygon
     clip-path="url(#clipPath39)"
     points="317,149 317,142 326,146 "
     id="polygon311"
     style="font-size:10px;fill:#000000;stroke:none;font-family:Arial"
     transform="translate(-35.625522,-43)" />
  <polygon
     clip-path="url(#clipPath39)"
     points="317,149 317,142 326,146 "
     id="polygon313"
     style="font-size:10px;fill:none;stroke:#000000;stroke-linejoin:round;stroke-miterlimit:0;font-family:Arial"
     transform="translate(-35.625522,-43)" />
  <polygon
     clip-path="url(#clipPath28)"
     points="226,192 226,199 218,196 "
     id="polygon317"
     style="font-size:10px;fill:#000000;stroke:none;font-family:Arial"
     transform="translate(-35.625522,-43)" />
  <polygon
     clip-path="url(#clipPath28)"
     points="226,192 226,199 218,196 "
     id="polygon319"
     style="font-size:10px;fill:none;stroke:#000000;stroke-linejoin:round;stroke-miterlimit:0;font-family:Arial"
     transform="translate(-35.625522,-43)" />
  <polygon
     clip-path="url(#clipPath30)"
     points="406,240 406,233 415,237 "
     id="polygon325"
     style="font-size:10px;fill:#000000;stroke:none;font-family:Arial"
     transform="translate(-35.625522,-43)" />
  <polygon
     clip-path="url(#clipPath30)"
     points="406,240 406,233 415,237 "
     id="polygon327"
     style="font-size:10px;fill:none;stroke:#000000;stroke-linejoin:round;stroke-miterlimit:0;font-family:Arial"
     transform="translate(-35.625522,-43)" />
  <g
     id="g3771"
     transform="translate(114.06817,0)">
    <polygon
       transform="translate(-35.625522,-43)"
       style="font-size:10px;fill:#000000;stroke:none;font-family:Arial"
       id="polygon245"
       points="105,348 113,344 113,351 "
       clip-path="url(#clipPath34)" />
    <polygon
       transform="translate(-35.625522,-43)"
       style="font-size:10px;fill:none;stroke:#000000;stroke-linejoin:round;stroke-miterlimit:0;font-family:Arial"
       id="polygon247"
       points="105,348 113,344 113,351 "
       clip-path="url(#clipPath34)" />
    <polygon
       transform="translate(-35.625522,-43)"
       style="font-size:10px;fill:#000000;stroke:none;font-family:Arial"
       id="polygon331"
       points="105,348 113,344 113,351 "
       clip-path="url(#clipPath34)" />
    <polygon
       transform="translate(-35.625522,-43)"
       style="font-size:10px;fill:none;stroke:#000000;stroke-linejoin:round;stroke-miterlimit:0;font-family:Arial"
       id="polygon333"
       points="105,348 113,344 113,351 "
       clip-path="url(#clipPath34)" />
  </g>
  <polygon
     clip-path="url(#clipPath37)"
     points="334,261 334,268 326,265 "
     id="polygon339"
     style="font-size:10px;fill:#000000;stroke:none;font-family:Arial"
     transform="translate(-35.625522,-43)" />
  <polygon
     clip-path="url(#clipPath37)"
     points="334,261 334,268 326,265 "
     id="polygon341"
     style="font-size:10px;fill:none;stroke:#000000;stroke-linejoin:round;stroke-miterlimit:0;font-family:Arial"
     transform="translate(-35.625522,-43)" />
  <polygon
     clip-path="url(#clipPath35)"
     points="401,322 401,315 410,319 "
     id="polygon345"
     style="font-size:10px;fill:#000000;stroke:none;font-family:Arial"
     transform="translate(-35.625522,-43)" />
  <polygon
     clip-path="url(#clipPath35)"
     points="401,322 401,315 410,319 "
     id="polygon347"
     style="font-size:10px;fill:none;stroke:#000000;stroke-linejoin:round;stroke-miterlimit:0;font-family:Arial"
     transform="translate(-35.625522,-43)" />
  <line
     transform="matrix(0.59702719,0,0,1,-62.187855,-50.582857)"
     clip-path="url(#clipPath24-5)"
     x1="105"
     x2="214"
     y1="120"
     y2="120"
     id="line199-4"
     style="font-size:10px;fill:none;stroke:#000000;stroke-width:1.29420459;stroke-linejoin:round;stroke-miterlimit:0;font-family:Arial" />
  <polygon
     transform="translate(-148.62552,-50.582857)"
     clip-path="url(#clipPath27-4)"
     points="214,120 205,123 205,116 "
     id="polygon203-8"
     style="font-size:10px;fill:#000000;stroke:none;font-family:Arial" />
  <polygon
     transform="translate(-148.62552,-50.582857)"
     clip-path="url(#clipPath27-4)"
     points="214,120 205,123 205,116 "
     id="polygon205-7"
     style="font-size:10px;fill:none;stroke:#000000;stroke-linejoin:round;stroke-miterlimit:0;font-family:Arial" />
  <polygon
     transform="translate(-148.62552,-50.582857)"
     clip-path="url(#clipPath27-4)"
     points="214,120 205,123 205,116 "
     id="polygon297-7"
     style="font-size:10px;fill:#000000;stroke:none;font-family:Arial" />
  <polygon
     transform="translate(-148.62552,-50.582857)"
     clip-path="url(#clipPath27-4)"
     points="214,120 205,123 205,116 "
     id="polygon299-2"
     style="font-size:10px;fill:none;stroke:#000000;stroke-linejoin:round;stroke-miterlimit:0;font-family:Arial" />
  <g
     id="g3650"
     transform="translate(-35.625522,-73)">
    <polygon
       style="font-size:10px;fill:#000000;stroke:none;font-family:Arial"
       id="polygon195-9"
       points="113,223 105,220 113,216 "
       clip-path="url(#clipPath25-7)"
       transform="translate(-68,173.19714)" />
    <polygon
       style="font-size:10px;fill:none;stroke:#000000;stroke-linejoin:round;stroke-miterlimit:0;font-family:Arial"
       id="polygon197-7"
       points="113,223 105,220 113,216 "
       clip-path="url(#clipPath25-7)"
       transform="translate(-68,173.19714)" />
    <line
       style="font-size:10px;fill:none;stroke:#000000;stroke-width:1.33062828;stroke-linejoin:round;stroke-miterlimit:0;stroke-dasharray:3.99188479, 3.99188479;font-family:Arial"
       id="line301-7"
       y2="220"
       y1="220"
       x2="105"
       x1="214"
       clip-path="url(#clipPath24-1)"
       transform="matrix(0.56478937,0,0,1,-22.520489,173.19714)" />
    <polygon
       style="font-size:10px;fill:#000000;stroke:none;font-family:Arial"
       id="polygon303-6"
       points="113,223 105,220 113,216 "
       clip-path="url(#clipPath25-7)"
       transform="translate(-68,173.19714)" />
    <polygon
       style="font-size:10px;fill:none;stroke:#000000;stroke-linejoin:round;stroke-miterlimit:0;font-family:Arial"
       id="polygon305-7"
       points="113,223 105,220 113,216 "
       clip-path="url(#clipPath25-7)"
       transform="translate(-68,173.19714)" />
  </g>
</svg>
