<?xml version="1.0" encoding="UTF-8" standalone="no"?>
<svg
   xmlns:dc="http://purl.org/dc/elements/1.1/"
   xmlns:cc="http://creativecommons.org/ns#"
   xmlns:rdf="http://www.w3.org/1999/02/22-rdf-syntax-ns#"
   xmlns:svg="http://www.w3.org/2000/svg"
   xmlns="http://www.w3.org/2000/svg"
   xmlns:sodipodi="http://sodipodi.sourceforge.net/DTD/sodipodi-0.dtd"
   xmlns:inkscape="http://www.inkscape.org/namespaces/inkscape"
   shape-rendering="auto"
   width="177.84935"
   text-rendering="auto"
   contentScriptType="text/ecmascript"
   color-interpolation="auto"
   color-rendering="auto"
   preserveAspectRatio="xMidYMid meet"
   font-size="12"
   viewBox="0 0 177.84935 246.12252"
   image-rendering="auto"
   stroke-miterlimit="10"
   zoomAndPan="magnify"
   version="1.0"
   contentStyleType="text/css"
   font-style="normal"
   height="246.12251"
   font-weight="normal"
   id="svg2"
   inkscape:version="0.48.3.1 r9886"
   sodipodi:docname="kieker_OperationExecutionRecord-complete-modified.svg"
   style="font-size:12px;font-style:normal;font-weight:normal;fill:#000000;fill-opacity:1;stroke:#000000;stroke-width:1;stroke-linecap:square;stroke-linejoin:miter;stroke-miterlimit:10;stroke-opacity:1;stroke-dasharray:none;stroke-dashoffset:0;font-family:Dialog">
  <metadata
     id="metadata139">
    <rdf:RDF>
      <cc:Work
         rdf:about="">
        <dc:format>image/svg+xml</dc:format>
        <dc:type
           rdf:resource="http://purl.org/dc/dcmitype/StillImage" />
        <dc:title />
      </cc:Work>
    </rdf:RDF>
  </metadata>
  <sodipodi:namedview
     pagecolor="#ffffff"
     bordercolor="#666666"
     borderopacity="1"
     objecttolerance="10"
     gridtolerance="10"
     guidetolerance="10"
     inkscape:pageopacity="0"
     inkscape:pageshadow="2"
     inkscape:window-width="1600"
     inkscape:window-height="853"
     id="namedview137"
     showgrid="false"
     inkscape:zoom="1.7318841"
     inkscape:cx="160.97572"
     inkscape:cy="124.25094"
     inkscape:window-x="-2"
     inkscape:window-y="24"
     inkscape:window-maximized="1"
     inkscape:current-layer="svg2"
     fit-margin-top="0"
     fit-margin-left="0"
     fit-margin-right="0"
     fit-margin-bottom="0" />
  <text
     x="20"
     y="131"
     clip-path="url(#clipPath2-1)"
     xml:space="preserve"
     id="text81-0"
     style="font-size:10px;font-style:normal;font-weight:normal;fill:#000000;fill-opacity:1;stroke:none;font-family:Arial"
     transform="translate(8.968865,-9.4977981)">OperationExecutionRecord</text>
  <text
     font-size="9"
     x="4.4883962"
     y="133.5022"
     clip-path="none"
     xml:space="preserve"
     id="text83-8"
     style="font-size:9px;font-style:normal;font-weight:normal;fill:#000000;fill-opacity:1;stroke:none;font-family:Arial">(from kieker::common::record::controlflow)</text>
  <g
     id="g3155"
     transform="translate(0.85515632,1.0332049)"
     style="stroke-width:1">
    <text
       transform="translate(-9.5,-20.932053)"
       style="font-size:10px;fill:#000000;stroke:none;font-family:Arial"
       id="text87"
       xml:space="preserve"
       clip-path="url(#clipPath5)"
       y="171"
       x="16">+ operationSignature : String</text>
    <text
       transform="translate(-9.5,-20.932053)"
       style="font-size:10px;fill:#000000;stroke:none;font-family:Arial"
       id="text89"
       xml:space="preserve"
       clip-path="url(#clipPath6)"
       y="184"
       x="16">+ hostname : String</text>
    <text
       transform="translate(-9.5,-20.932053)"
       style="font-size:10px;fill:#000000;stroke:none;font-family:Arial"
       id="text91"
       xml:space="preserve"
       clip-path="url(#clipPath7)"
       y="197"
       x="16">+ sessionId : String</text>
    <text
       transform="translate(-9.5,-20.932053)"
       style="font-size:10px;fill:#000000;stroke:none;font-family:Arial"
       id="text93"
       xml:space="preserve"
       clip-path="url(#clipPath8)"
       y="210"
       x="16">+ traceId : long</text>
    <text
       transform="translate(-9.5,-20.932053)"
       style="font-size:10px;fill:#000000;stroke:none;font-family:Arial"
       id="text95"
       xml:space="preserve"
       clip-path="url(#clipPath9)"
       y="223"
       x="16">+ tin : long</text>
    <text
       transform="translate(-9.5,-20.932053)"
       style="font-size:10px;fill:#000000;stroke:none;font-family:Arial"
       id="text97"
       xml:space="preserve"
       clip-path="url(#clipPath10)"
       y="236"
       x="16">+ tout : long</text>
    <text
       transform="translate(-9.5,-20.932053)"
       style="font-size:10px;fill:#000000;stroke:none;font-family:Arial"
       id="text99"
       xml:space="preserve"
       clip-path="url(#clipPath11)"
       y="249"
       x="16">+ eoi : int</text>
    <text
       transform="translate(-9.5,-20.932053)"
       style="font-size:10px;fill:#000000;stroke:none;font-family:Arial"
       id="text101"
       xml:space="preserve"
       clip-path="url(#clipPath12)"
       y="262"
       x="16">+ ess : int</text>
  </g>
  <!--Generated by the Batik Graphics2D SVG Generator-->
  <line
     clip-path="url(#clipPath21)"
     x1="85"
     x2="85"
     y1="118"
     y2="101"
     id="line131"
     style="font-size:10px;fill:none;stroke:#808080;stroke-width:1;stroke-linejoin:round;stroke-miterlimit:0;stroke-opacity:1;font-family:Arial"
     transform="translate(3.9249273,-9.4977981)" />
  <defs
     id="genericDefs">
    <inkscape:perspective
       sodipodi:type="inkscape:persp3d"
       inkscape:vp_x="0 : 138 : 1"
       inkscape:vp_y="0 : 1000 : 0"
       inkscape:vp_z="171 : 138 : 1"
       inkscape:persp3d-origin="85.5 : 92 : 1"
       id="perspective141" />
    <defs
       id="defs1">
      <clipPath
         id="clipPath1"
         clipPathUnits="userSpaceOnUse">
        <path
           id="path9"
           d="m 8,116 154,0 0,152 -154,0 0,-152 z"
           inkscape:connector-curvature="0" />
      </clipPath>
      <clipPath
         id="clipPath2"
         clipPathUnits="userSpaceOnUse">
        <path
           id="path12"
           d="m 19,120 132,0 0,16 -132,0 0,-16 z"
           inkscape:connector-curvature="0" />
      </clipPath>
      <clipPath
         id="clipPath3"
         clipPathUnits="userSpaceOnUse">
        <path
           id="path15"
           d="m 20,133 131,0 0,14 -131,0 0,-14 z"
           inkscape:connector-curvature="0" />
      </clipPath>
      <clipPath
         id="clipPath4"
         clipPathUnits="userSpaceOnUse">
        <path
           id="path18"
           d="m 15,147 95,0 0,16 -95,0 0,-16 z"
           inkscape:connector-curvature="0" />
      </clipPath>
      <clipPath
         id="clipPath5"
         clipPathUnits="userSpaceOnUse">
        <path
           id="path21"
           d="m 15,160 131,0 0,16 -131,0 0,-16 z"
           inkscape:connector-curvature="0" />
      </clipPath>
      <clipPath
         id="clipPath6"
         clipPathUnits="userSpaceOnUse">
        <path
           id="path24"
           d="m 15,173 89,0 0,16 -89,0 0,-16 z"
           inkscape:connector-curvature="0" />
      </clipPath>
      <clipPath
         id="clipPath7"
         clipPathUnits="userSpaceOnUse">
        <path
           id="path27"
           d="m 15,186 91,0 0,16 -91,0 0,-16 z"
           inkscape:connector-curvature="0" />
      </clipPath>
      <clipPath
         id="clipPath8"
         clipPathUnits="userSpaceOnUse">
        <path
           id="path30"
           d="m 15,199 75,0 0,16 -75,0 0,-16 z"
           inkscape:connector-curvature="0" />
      </clipPath>
      <clipPath
         id="clipPath9"
         clipPathUnits="userSpaceOnUse">
        <path
           id="path33"
           d="m 15,212 54,0 0,16 -54,0 0,-16 z"
           inkscape:connector-curvature="0" />
      </clipPath>
      <clipPath
         id="clipPath10"
         clipPathUnits="userSpaceOnUse">
        <path
           id="path36"
           d="m 15,225 60,0 0,16 -60,0 0,-16 z"
           inkscape:connector-curvature="0" />
      </clipPath>
      <clipPath
         id="clipPath11"
         clipPathUnits="userSpaceOnUse">
        <path
           id="path39"
           d="m 15,238 48,0 0,16 -48,0 0,-16 z"
           inkscape:connector-curvature="0" />
      </clipPath>
      <clipPath
         id="clipPath12"
         clipPathUnits="userSpaceOnUse">
        <path
           id="path42"
           d="m 15,251 47,0 0,16 -47,0 0,-16 z"
           inkscape:connector-curvature="0" />
      </clipPath>
      <clipPath
         id="clipPath13"
         clipPathUnits="userSpaceOnUse">
        <path
           id="path45"
           d="m 9,147 152,0 0,120 -152,0 0,-120 z"
           inkscape:connector-curvature="0" />
      </clipPath>
      <clipPath
         id="clipPath14"
         clipPathUnits="userSpaceOnUse">
        <path
           id="path48"
           d="m 9,68 153,0 0,35 -153,0 0,-35 z"
           inkscape:connector-curvature="0" />
      </clipPath>
      <clipPath
         id="clipPath15"
         clipPathUnits="userSpaceOnUse">
        <path
           id="path51"
           d="m 22,72 126,0 0,16 -126,0 0,-16 z"
           inkscape:connector-curvature="0" />
      </clipPath>
      <clipPath
         id="clipPath16"
         clipPathUnits="userSpaceOnUse">
        <path
           id="path54"
           d="m 20,85 131,0 0,14 -131,0 0,-14 z"
           inkscape:connector-curvature="0" />
      </clipPath>
      <clipPath
         id="clipPath17"
         clipPathUnits="userSpaceOnUse">
        <path
           id="path57"
           d="M 8,8 161,8 161,56 8,56 8,8 z"
           inkscape:connector-curvature="0" />
      </clipPath>
      <clipPath
         id="clipPath18"
         clipPathUnits="userSpaceOnUse">
        <path
           id="path60"
           d="m 56,12 57,0 0,16 -57,0 0,-16 z"
           inkscape:connector-curvature="0" />
      </clipPath>
      <clipPath
         id="clipPath19"
         clipPathUnits="userSpaceOnUse">
        <path
           id="path63"
           d="m 39,25 91,0 0,16 -91,0 0,-16 z"
           inkscape:connector-curvature="0" />
      </clipPath>
      <clipPath
         id="clipPath20"
         clipPathUnits="userSpaceOnUse">
        <path
           id="path66"
           d="m 19,38 131,0 0,14 -131,0 0,-14 z"
           inkscape:connector-curvature="0" />
      </clipPath>
      <clipPath
         id="clipPath21"
         clipPathUnits="userSpaceOnUse">
        <path
           id="path69"
           d="m -1,-1 173,0 0,278 -173,0 0,-278 z"
           inkscape:connector-curvature="0" />
      </clipPath>
      <clipPath
         id="clipPath22"
         clipPathUnits="userSpaceOnUse">
        <path
           id="path72"
           d="m 78,53 14,0 0,14 -14,0 0,-14 z"
           inkscape:connector-curvature="0" />
      </clipPath>
      <clipPath
         id="clipPath23"
         clipPathUnits="userSpaceOnUse">
        <path
           id="path75"
           d="m 80,100 12,0 0,12 -12,0 0,-12 z"
           inkscape:connector-curvature="0" />
      </clipPath>
    </defs>
    <clipPath
       id="clipPath1-3"
       clipPathUnits="userSpaceOnUse">
      <path
         id="path9-2"
         d="m 8,116 154,0 0,152 -154,0 0,-152 z"
         inkscape:connector-curvature="0" />
    </clipPath>
    <clipPath
       id="clipPath13-9"
       clipPathUnits="userSpaceOnUse">
      <path
         id="path45-7"
         d="m 9,147 152,0 0,120 -152,0 0,-120 z"
         inkscape:connector-curvature="0" />
    </clipPath>
    <clipPath
       id="clipPath12-8"
       clipPathUnits="userSpaceOnUse">
      <path
         id="path42-3"
         d="m 15,251 47,0 0,16 -47,0 0,-16 z"
         inkscape:connector-curvature="0" />
    </clipPath>
    <clipPath
       id="clipPath10-6"
       clipPathUnits="userSpaceOnUse">
      <path
         id="path36-9"
         d="m 15,225 60,0 0,16 -60,0 0,-16 z"
         inkscape:connector-curvature="0" />
    </clipPath>
    <clipPath
       id="clipPath9-7"
       clipPathUnits="userSpaceOnUse">
      <path
         id="path33-4"
         d="m 15,212 54,0 0,16 -54,0 0,-16 z"
         inkscape:connector-curvature="0" />
    </clipPath>
    <clipPath
       id="clipPath5-1"
       clipPathUnits="userSpaceOnUse">
      <path
         id="path21-9"
         d="m 15,160 131,0 0,16 -131,0 0,-16 z"
         inkscape:connector-curvature="0" />
    </clipPath>
    <clipPath
       id="clipPath2-1"
       clipPathUnits="userSpaceOnUse">
      <path
         id="path12-8"
         d="m 19,120 132,0 0,16 -132,0 0,-16 z"
         inkscape:connector-curvature="0" />
    </clipPath>
  </defs>
  <line
     clip-path="url(#clipPath13)"
     x1="10"
     x2="159"
     y1="148"
     y2="148"
     id="line103"
     style="font-size:10px;fill:none;stroke:#000000;stroke-width:1;stroke-linejoin:round;stroke-miterlimit:0;font-family:Arial"
     transform="translate(3.9249273,-9.4977981)" />
  <rect
     x="11"
     y="70"
     clip-path="url(#clipPath14)"
     width="149"
     height="31"
     id="rect107"
     style="font-size:10px;fill:#ffffff;stroke:none;font-family:Arial"
     transform="translate(3.9249273,-9.4977981)" />
  <text
     x="23"
     y="83"
     clip-path="url(#clipPath15)"
     font-style="italic"
     xml:space="preserve"
     id="text109"
     style="font-size:10px;font-style:italic;fill:#808080;fill-opacity:1;stroke:none;font-family:Arial"
     transform="translate(3.9249273,-9.4977981)">AbstractMonitoringRecord</text>
  <text
     font-size="9"
     x="21"
     y="95"
     clip-path="url(#clipPath16)"
     xml:space="preserve"
     id="text111"
     style="font-size:9px;fill:#808080;fill-opacity:1;stroke:none;font-family:Arial"
     transform="translate(3.9249273,-9.4977981)">(from kieker::common::record)</text>
  <rect
     x="10"
     y="70"
     clip-path="url(#clipPath14)"
     width="149"
     height="31"
     id="rect113"
     style="font-size:10px;fill:none;stroke:#808080;stroke-width:1;stroke-linejoin:round;stroke-miterlimit:0;stroke-opacity:1;font-family:Arial"
     transform="translate(3.9249273,-9.4977981)" />
  <rect
     x="10"
     y="10"
     clip-path="url(#clipPath17)"
     width="149"
     height="44"
     id="rect115"
     style="font-size:10px;fill:#ffffff;stroke:none;font-family:Arial"
     transform="translate(3.9249273,-9.4977981)" />
  <text
     x="57"
     y="23"
     clip-path="url(#clipPath18)"
     xml:space="preserve"
     id="text117"
     style="font-size:10px;fill:#808080;fill-opacity:1;stroke:none;font-family:Arial"
     transform="translate(3.9249273,-9.4977981)">«interface»</text>
  <text
     x="40"
     y="36"
     clip-path="url(#clipPath19)"
     xml:space="preserve"
     id="text119"
     style="font-size:10px;fill:#808080;fill-opacity:1;stroke:none;font-family:Arial"
     transform="translate(3.9249273,-9.4977981)">IMonitoringRecord</text>
  <text
     font-size="9"
     x="20"
     y="48"
     clip-path="url(#clipPath20)"
     xml:space="preserve"
     id="text121"
     style="font-size:9px;fill:#808080;fill-opacity:1;stroke:none;font-family:Arial"
     transform="translate(3.9249273,-9.4977981)">(from kieker::common::record)</text>
  <rect
     x="10"
     y="10"
     clip-path="url(#clipPath17)"
     width="149"
     height="44"
     id="rect123"
     style="font-size:10px;fill:none;stroke:#808080;stroke-width:1;stroke-linejoin:round;stroke-miterlimit:0;stroke-opacity:1;font-family:Arial"
     transform="translate(3.9249273,-9.4977981)" />
  <line
     clip-path="url(#clipPath21)"
     x1="85"
     x2="85"
     y1="70"
     y2="54"
     id="line125"
     style="font-size:10px;fill:none;stroke:#808080;stroke-width:1;stroke-linejoin:round;stroke-miterlimit:0;stroke-opacity:1;stroke-dasharray:3, 3;font-family:Arial"
     transform="translate(3.9249273,-9.4977981)" />
  <polygon
     clip-path="url(#clipPath22)"
     points="90,64 80,64 85,54 "
     id="polygon127"
     style="font-size:10px;fill:#ffffff;stroke:none;font-family:Arial"
     transform="translate(3.9249273,-9.4977981)" />
  <polygon
     clip-path="url(#clipPath22)"
     points="80,64 85,54 90,64 "
     id="polygon129"
     style="font-size:10px;fill:none;stroke:#808080;stroke-width:1;stroke-linejoin:round;stroke-miterlimit:0;stroke-opacity:1;font-family:Arial"
     transform="translate(3.9249273,-9.4977981)" />
  <polygon
     clip-path="url(#clipPath23)"
     points="90,110 81,110 85,101 "
     id="polygon133"
     style="font-size:10px;fill:#ffffff;stroke:none;font-family:Arial"
     transform="translate(3.9249273,-9.4977981)" />
  <polygon
     clip-path="url(#clipPath23)"
     points="81,110 85,101 90,110 "
     id="polygon135"
     style="font-size:10px;fill:none;stroke:#808080;stroke-width:1;stroke-linejoin:round;stroke-miterlimit:0;stroke-opacity:1;font-family:Arial"
     transform="translate(3.9249273,-9.4977981)" />
  <line
     clip-path="url(#clipPath13-9)"
     x1="10"
     x2="159"
     y1="148"
     y2="148"
     id="line103-3"
     style="font-size:10px;font-style:normal;font-weight:normal;fill:none;stroke:#000000;stroke-width:0.92124057;stroke-linecap:square;stroke-linejoin:round;stroke-miterlimit:0;stroke-opacity:1;stroke-dasharray:none;stroke-dashoffset:0;font-family:Arial"
     transform="matrix(1.1782946,0,0,1,-11.230113,-9.4977981)" />
  <rect
     x="10"
     y="118"
     clip-path="url(#clipPath1-3)"
     width="150"
     height="147"
     id="rect105-2"
     style="font-size:10px;font-style:normal;font-weight:normal;fill:none;stroke:#000000;stroke-width:0.95545191;stroke-linecap:square;stroke-linejoin:round;stroke-miterlimit:0;stroke-opacity:1;stroke-dasharray:none;stroke-dashoffset:0;font-family:Arial"
     transform="matrix(1.1782946,0,0,0.92966923,-11.230113,-0.67561338)" />
</svg>
