<?xml version="1.0" encoding="UTF-8" standalone="no"?>
<!DOCTYPE svg PUBLIC "-//W3C//DTD SVG 1.1//EN"
 "http://www.w3.org/Graphics/SVG/1.1/DTD/svg11.dtd">
<!-- Generated by graphviz version 2.43.0 (0)
 -->
<!-- Title: G Pages: 1 -->
<svg width="1203pt" height="127pt"
 viewBox="0.00 0.00 1203.00 127.00" xmlns="http://www.w3.org/2000/svg" xmlns:xlink="http://www.w3.org/1999/xlink">
<g id="graph0" class="graph" transform="scale(1 1) rotate(0) translate(4 123)">
<title>G</title>
<polygon fill="white" stroke="transparent" points="-4,4 -4,-123 1199,-123 1199,4 -4,4"/>
<!-- depNode_0 -->
<g id="node1" class="node">
<title>depNode_0</title>
<text text-anchor="middle" x="27" y="-30.3" font-family="Times,serif" font-size="14.00">&#39;Entry&#39;</text>
</g>
<!-- depNode_3 -->
<g id="node4" class="node">
<title>depNode_3</title>
<polygon fill="white" stroke="#000000" points="439,-68 118,-68 118,0 439,0 439,-68"/>
<text text-anchor="middle" x="278.5" y="-52.8" font-family="Times,serif" font-size="14.00">&lt;&lt;assembly component&gt;&gt;</text>
<text text-anchor="middle" x="278.5" y="-37.8" font-family="Times,serif" font-size="14.00">@3:..Bookstore</text>
<text text-anchor="middle" x="278.5" y="-22.8" font-family="Times,serif" font-size="14.00">min: 4131472ns, avg: 22748177ns, max: 381493365ns,</text>
<text text-anchor="middle" x="278.5" y="-7.8" font-family="Times,serif" font-size="14.00">total: 37193268756ns</text>
</g>
<!-- depNode_0&#45;&gt;depNode_3 -->
<g id="edge1" class="edge">
<title>depNode_0&#45;&gt;depNode_3</title>
<path fill="none" stroke="#000000" d="M54.23,-34C68.31,-34 87,-34 107.58,-34"/>
<polygon fill="#000000" stroke="#000000" points="117.83,-34 107.83,-38.5 112.83,-34 107.83,-34 107.83,-34 107.83,-34 112.83,-34 107.83,-29.5 117.83,-34 117.83,-34"/>
<text text-anchor="middle" x="86" y="-37.8" font-family="Times,serif" font-size="14.00">1635</text>
</g>
<!-- depNode_2 -->
<g id="node2" class="node">
<title>depNode_2</title>
<polygon fill="white" stroke="#000000" points="817,-119 503,-119 503,-51 817,-51 817,-119"/>
<text text-anchor="middle" x="660" y="-103.8" font-family="Times,serif" font-size="14.00">&lt;&lt;assembly component&gt;&gt;</text>
<text text-anchor="middle" x="660" y="-88.8" font-family="Times,serif" font-size="14.00">@2:..CRM</text>
<text text-anchor="middle" x="660" y="-73.8" font-family="Times,serif" font-size="14.00">min: 2029633ns, avg: 7146358ns, max: 378468467ns,</text>
<text text-anchor="middle" x="660" y="-58.8" font-family="Times,serif" font-size="14.00">total: 11684295790ns</text>
</g>
<!-- depNode_1 -->
<g id="node3" class="node">
<title>depNode_1</title>
<polygon fill="white" stroke="#000000" points="1195,-68 881,-68 881,0 1195,0 1195,-68"/>
<text text-anchor="middle" x="1038" y="-52.8" font-family="Times,serif" font-size="14.00">&lt;&lt;assembly component&gt;&gt;</text>
<text text-anchor="middle" x="1038" y="-37.8" font-family="Times,serif" font-size="14.00">@1:..Catalog</text>
<text text-anchor="middle" x="1038" y="-22.8" font-family="Times,serif" font-size="14.00">min: 2011586ns, avg: 3772326ns, max: 123431549ns,</text>
<text text-anchor="middle" x="1038" y="-7.8" font-family="Times,serif" font-size="14.00">total: 12335505819ns</text>
</g>
<!-- depNode_2&#45;&gt;depNode_1 -->
<g id="edge2" class="edge">
<title>depNode_2&#45;&gt;depNode_1</title>
<path fill="none" stroke="#000000" d="M817.19,-63.81C834.98,-61.4 853.16,-58.94 871.07,-56.51"/>
<polygon fill="#000000" stroke="#000000" points="880.99,-55.16 871.69,-60.96 876.04,-55.83 871.08,-56.5 871.08,-56.5 871.08,-56.5 876.04,-55.83 870.48,-52.05 880.99,-55.16 880.99,-55.16"/>
<text text-anchor="middle" x="849" y="-64.8" font-family="Times,serif" font-size="14.00">1635</text>
</g>
<!-- depNode_3&#45;&gt;depNode_2 -->
<g id="edge3" class="edge">
<title>depNode_3&#45;&gt;depNode_2</title>
<path fill="none" stroke="#000000" d="M439.07,-55.44C456.69,-57.81 474.67,-60.23 492.38,-62.61"/>
<polygon fill="#000000" stroke="#000000" points="502.76,-64 492.25,-67.13 497.81,-63.34 492.85,-62.67 492.85,-62.67 492.85,-62.67 497.81,-63.34 493.45,-58.21 502.76,-64 502.76,-64"/>
<text text-anchor="middle" x="471" y="-64.8" font-family="Times,serif" font-size="14.00">1635</text>
</g>
<!-- depNode_3&#45;&gt;depNode_1 -->
<g id="edge4" class="edge">
<title>depNode_3&#45;&gt;depNode_1</title>
<path fill="none" stroke="#000000" d="M439.12,-28.39C460.59,-27.82 482.33,-27.32 503,-27 642.54,-24.82 677.46,-24.78 817,-27 834.41,-27.28 852.59,-27.68 870.72,-28.15"/>
<polygon fill="#000000" stroke="#000000" points="880.78,-28.42 870.66,-32.65 875.78,-28.28 870.78,-28.15 870.78,-28.15 870.78,-28.15 875.78,-28.28 870.9,-23.65 880.78,-28.42 880.78,-28.42"/>
<text text-anchor="middle" x="660" y="-30.8" font-family="Times,serif" font-size="14.00">1635</text>
</g>
</g>
</svg>
