<?xml version="1.0" encoding="UTF-8" standalone="no"?>
<!-- Created with Inkscape (http://www.inkscape.org/) -->

<svg
   xmlns:dc="http://purl.org/dc/elements/1.1/"
   xmlns:cc="http://creativecommons.org/ns#"
   xmlns:rdf="http://www.w3.org/1999/02/22-rdf-syntax-ns#"
   xmlns:svg="http://www.w3.org/2000/svg"
   xmlns="http://www.w3.org/2000/svg"
   xmlns:sodipodi="http://sodipodi.sourceforge.net/DTD/sodipodi-0.dtd"
   xmlns:inkscape="http://www.inkscape.org/namespaces/inkscape"
   id="svg2"
   version="1.1"
   inkscape:version="0.47pre4 r22446"
   width="708.66138"
   height="283.46457"
   xml:space="preserve"
   sodipodi:docname="cau-sw.pdf"><metadata
     id="metadata8"><rdf:RDF><cc:Work
         rdf:about=""><dc:format>image/svg+xml</dc:format><dc:type
           rdf:resource="http://purl.org/dc/dcmitype/StillImage" /><dc:title></dc:title></cc:Work></rdf:RDF></metadata><defs
     id="defs6"><inkscape:perspective
       sodipodi:type="inkscape:persp3d"
       inkscape:vp_x="0 : 0.5 : 1"
       inkscape:vp_y="0 : 1000 : 0"
       inkscape:vp_z="1 : 0.5 : 1"
       inkscape:persp3d-origin="0.5 : 0.33333333 : 1"
       id="perspective10" /></defs><sodipodi:namedview
     pagecolor="#ffffff"
     bordercolor="#666666"
     borderopacity="1"
     objecttolerance="10"
     gridtolerance="10"
     guidetolerance="10"
     inkscape:pageopacity="0"
     inkscape:pageshadow="2"
     inkscape:window-width="1280"
     inkscape:window-height="1000"
     id="namedview4"
     showgrid="false"
     inkscape:document-units="mm"
     units="mm"
     showguides="true"
     inkscape:guide-bbox="true"
     inkscape:zoom="1.2684253"
     inkscape:cx="372.5"
     inkscape:cy="80.275423"
     inkscape:window-x="0"
     inkscape:window-y="0"
     inkscape:window-maximized="1"
     inkscape:current-layer="g12"><sodipodi:guide
       orientation="1,0"
       position="35.47706,126.14066"
       id="guide2908" /><sodipodi:guide
       orientation="0,1"
       position="327.96571,35.47706"
       id="guide2910" /><sodipodi:guide
       orientation="1,0"
       position="673.27577,153.73393"
       id="guide2912" /><sodipodi:guide
       orientation="0,1"
       position="286.18162,248.33942"
       id="guide2914" /></sodipodi:namedview><g
     id="g12"
     inkscape:groupmode="layer"
     inkscape:label="cau-sw"
     transform="matrix(1.25,0,0,-1.25,0,283.46455)"><path
       d="m 28.381648,113.63212 510.236192,0 0,-85.039398 -510.236192,0"
       style="fill:#000000;fill-opacity:1;fill-rule:evenodd;stroke:none"
       id="path14" /><path
       d="m 31.216248,110.79742 504.566992,0 0,-79.369998 -504.566992,0"
       style="fill:#ffffff;fill-opacity:1;fill-rule:evenodd;stroke:none"
       id="path16" /><path
       d="m 52.032248,50.324222 -2.7139,0 c -0.5817,-1.7447 -1.7447,-3.1019 -3.8773,-3.1019 -1.163,0 -2.1325,0.3878 -2.7138,1.1633 -0.9695,0.9692 -1.1634,1.9386 -1.1634,5.8159 0,3.6833 0.1939,4.6525 1.1634,5.6219 0.5813,0.7756 1.5508,1.1631 2.7138,1.1631 2.1326,0 3.2956,-1.357 3.6834,-3.1017 l 2.9078,0 c -0.5814,3.6833 -3.1017,5.622 -6.5912,5.622 -1.9386,0 -3.4894,-0.5817 -4.8463,-1.9387 -1.7448,-1.7447 -1.7448,-3.8772 -1.7448,-7.3666 0,-3.6834 0,-5.8159 1.7448,-7.5606 1.3569,-1.3572 2.9077,-1.9389 4.8463,-1.9389 3.2956,0 6.0098,1.9389 6.5912,5.6222"
       style="fill:#000000;fill-opacity:1;fill-rule:evenodd;stroke:none"
       id="path18" /><path
       d="m 65.990248,44.895922 0,8.53 c 0,2.7142 -1.5511,4.8467 -4.4589,4.8467 -1.3569,0 -2.52,-0.5817 -3.4894,-1.5511 l 0,6.5914 -2.7139,0 0,-18.417 2.7139,0 0,7.9483 c 0,2.1325 1.1631,2.9081 2.7142,2.9081 1.5508,0 2.7139,-0.7756 2.7139,-2.9081 l 0,-7.9483"
       style="fill:#000000;fill-opacity:1;fill-rule:evenodd;stroke:none"
       id="path20" /><path
       d="m 79.560348,56.915422 c -0.7756,0.9694 -1.7448,1.3572 -3.1017,1.3572 -1.5508,0 -2.9081,-0.7756 -3.4895,-1.7447 l 0,1.5508 -2.7141,0 0,-13.1828 2.7141,0 0,7.9483 c 0,1.9387 1.1631,2.9081 2.7139,2.9081 0.7756,0 1.357,-0.1939 1.9386,-0.7756"
       style="fill:#000000;fill-opacity:1;fill-rule:evenodd;stroke:none"
       id="path22" /><path
       d="m 85.182248,60.599022 0,2.9078 -2.908,0 0,-2.9078 2.908,0 z m 0,-15.7031 0,13.1828 -2.7142,0 0,-13.1828"
       style="fill:#000000;fill-opacity:1;fill-rule:evenodd;stroke:none"
       id="path24" /><path
       d="m 99.721748,48.773122 c 0,2.5203 -1.3572,3.6836 -3.8772,3.8775 l -2.1326,0.1936 c -1.3569,0 -1.7447,0.5817 -1.7447,1.3573 0,1.163 0.7753,1.7447 2.3264,1.7447 1.357,0 2.52,-0.1939 3.2956,-0.9695 l 1.7447,1.7448 c -1.3569,1.1633 -2.9081,1.5511 -5.0403,1.5511 -2.7142,0 -4.8467,-1.5511 -4.8467,-4.0711 0,-2.3264 1.3573,-3.4898 3.8773,-3.6834 l 2.1325,-0.1939 c 1.163,-0.1939 1.7447,-0.5816 1.7447,-1.5511 0,-1.3569 -1.3569,-1.7447 -2.9078,-1.7447 -1.3572,0 -2.7142,0.1939 -3.8772,1.3572 l -1.7447,-1.7447 c 1.5508,-1.5511 3.4894,-1.9389 5.6219,-1.9389 3.1017,0 5.4281,1.3572 5.4281,4.0711"
       style="fill:#000000;fill-opacity:1;fill-rule:evenodd;stroke:none"
       id="path26" /><path
       d="m 109.41454,44.895922 0,2.1325 -0.9692,0 c -1.1633,0 -1.5511,0.5817 -1.5511,1.5511 l 0,7.1728 2.5203,0 0,2.1325 -2.5203,0 0,3.8772 -2.7139,0 0,-3.8772 -1.357,0 0,-2.1325 1.357,0 0,-7.1728 c 0,-1.9386 1.163,-3.6836 3.6833,-3.6836"
       style="fill:#000000;fill-opacity:1;fill-rule:evenodd;stroke:none"
       id="path28" /><path
       d="m 117.36284,60.599022 0,2.9078 -2.908,0 0,-2.9078 2.908,0 z m -0.1939,-15.7031 0,13.1828 -2.5203,0 0,-13.1828"
       style="fill:#000000;fill-opacity:1;fill-rule:evenodd;stroke:none"
       id="path30" /><path
       d="m 132.67764,44.895922 0,8.7239 c 0,3.1017 -1.9387,4.6528 -5.4281,4.6528 -2.3264,0 -3.4895,-0.5817 -4.8464,-1.9386 l 1.7447,-1.7448 c 0.7753,0.9692 1.357,1.357 2.9078,1.357 2.1325,0 2.9078,-0.7756 2.9078,-2.5203 l 0,-0.9692 -3.4895,0 c -3.1016,0 -4.6525,-1.5511 -4.6525,-3.6836 0,-1.163 0.3878,-2.1322 1.1631,-2.9078 0.7755,-0.7755 1.9386,-1.1633 3.4894,-1.1633 1.7448,0 2.5203,0.3878 3.4895,1.3572 l 0,-1.1633 2.7142,0 z m -2.7142,4.6528 c 0,-0.9692 -0.1936,-1.5509 -0.5814,-1.9386 -0.7756,-0.5817 -1.5508,-0.7756 -2.5203,-0.7756 -1.5508,0 -2.3261,0.7756 -2.3261,1.9386 0,1.1634 0.7753,1.9386 2.3261,1.9386 l 3.1017,0"
       style="fill:#000000;fill-opacity:1;fill-rule:evenodd;stroke:none"
       id="path32" /><path
       d="m 148.38014,44.895922 0,8.3361 c 0,1.5509 -0.3878,2.7142 -1.357,3.6834 -0.7755,0.7755 -1.9386,1.3572 -3.2955,1.3572 -1.3573,0 -2.5203,-0.5817 -3.4895,-1.5511 l 0,1.3572 -2.5203,0 0,-13.1828 2.5203,0 0,7.9483 c 0,2.1325 1.357,2.9081 2.7139,2.9081 1.5508,0 2.7142,-0.7756 2.7142,-2.9081 l 0,-7.9483"
       style="fill:#000000;fill-opacity:1;fill-rule:evenodd;stroke:none"
       id="path34" /><path
       d="m 160.59314,50.905622 0,2.3264 -7.5605,0 0,-2.3264"
       style="fill:#000000;fill-opacity:1;fill-rule:evenodd;stroke:none"
       id="path36" /><path
       d="m 179.39764,44.895922 -6.7853,18.417 -2.3261,0 -6.785,-18.417 3.1017,0 1.163,3.6836 7.3667,0 1.357,-3.6836 2.908,0 z m -5.0406,6.0097 -5.8155,0 2.9078,8.3362"
       style="fill:#000000;fill-opacity:1;fill-rule:evenodd;stroke:none"
       id="path38" /><path
       d="m 188.31514,44.895922 0,2.1325 -1.1633,0 c -0.9692,0 -1.357,0.5817 -1.357,1.5511 l 0,14.7334 -2.7141,0 0,-14.9273 c 0,-1.9386 1.1633,-3.4897 3.6833,-3.4897"
       style="fill:#000000;fill-opacity:1;fill-rule:evenodd;stroke:none"
       id="path40" /><path
       d="m 203.82384,51.487322 c 0,1.9386 -0.1939,4.265 -1.5509,5.6219 -0.5816,0.5817 -1.7447,1.1634 -3.1019,1.1634 -1.5509,0 -2.52,-0.3878 -3.4895,-1.5511 l 0,6.5914 -2.7139,0 0,-18.417 2.7139,0 0,1.3572 c 0.9695,-1.1633 1.9386,-1.5511 3.4895,-1.5511 1.1633,0 2.5203,0.3878 3.1019,1.1633 1.357,1.357 1.5509,3.4895 1.5509,5.622 z m -2.7142,0 c 0,-2.3264 -0.1939,-4.4589 -2.7139,-4.4589 -2.3264,0 -2.7142,2.1325 -2.7142,4.4589 0,2.3264 0.3878,4.265 2.7142,4.265 2.52,0 2.7139,-1.9386 2.7139,-4.265"
       style="fill:#000000;fill-opacity:1;fill-rule:evenodd;stroke:none"
       id="path42" /><path
       d="m 217.19994,56.915422 c -0.9692,0.9694 -1.9386,1.3572 -3.2956,1.3572 -1.3569,0 -2.7139,-0.7756 -3.4894,-1.7447 l 0,1.5508 -2.5203,0 0,-13.1828 2.5203,0 0,7.9483 c 0,1.9387 1.3569,2.9081 2.7141,2.9081 0.9692,0 1.357,-0.1939 1.9384,-0.7756"
       style="fill:#000000;fill-opacity:1;fill-rule:evenodd;stroke:none"
       id="path44" /><path
       d="m 229.99464,50.711722 0,1.1634 c 0,3.6833 -2.1325,6.3975 -5.6219,6.3975 -3.4895,0 -5.622,-2.5203 -5.622,-6.7853 0,-5.0403 2.5203,-6.7853 5.8159,-6.7853 2.3264,0 3.6833,0.5817 5.0402,1.9389 l -1.7447,1.7447 c -0.9691,-0.9694 -1.7447,-1.3572 -3.1016,-1.3572 -2.3264,0 -3.4895,1.3572 -3.4895,3.6833 l 8.7236,0 z m -2.7139,1.745 -6.0097,0 c 0,0.9692 0.1939,1.357 0.3878,1.9387 0.3875,0.9691 1.3569,1.5508 2.7139,1.5508 1.1633,0 2.1325,-0.5817 2.5203,-1.5508 0.1938,-0.5817 0.3877,-0.9695 0.3877,-1.9387"
       style="fill:#000000;fill-opacity:1;fill-rule:evenodd;stroke:none"
       id="path46" /><path
       d="m 243.95244,46.640922 -1.9386,1.7447 c -0.7753,-0.9694 -1.3569,-1.3572 -2.52,-1.3572 -0.9694,0 -1.7447,0.3878 -2.3264,1.1633 -0.5817,0.7753 -0.7755,1.7448 -0.7755,3.2956 0,1.5508 0.1938,2.5203 0.7755,3.1019 0.5817,0.7753 1.357,1.1631 2.3264,1.1631 1.1631,0 1.7447,-0.1939 2.52,-1.1631 l 1.9386,1.7448 c -1.3569,1.3569 -2.52,1.9386 -4.4586,1.9386 -2.9081,0 -5.8158,-1.9386 -5.8158,-6.7853 0,-5.0403 2.9077,-6.7853 5.8158,-6.7853 1.9386,0 3.1017,0.5817 4.4586,1.9389"
       style="fill:#000000;fill-opacity:1;fill-rule:evenodd;stroke:none"
       id="path48" /><path
       d="m 258.68584,44.895922 0,8.53 c 0,2.7142 -1.7448,4.8467 -4.6528,4.8467 -1.357,0 -2.52,-0.5817 -3.4895,-1.5511 l 0,6.5914 -2.52,0 0,-18.417 2.52,0 0,7.9483 c 0,2.1325 1.1634,2.9081 2.7142,2.9081 1.5508,0 2.7139,-0.7756 2.7139,-2.9081 l 0,-7.9483"
       style="fill:#000000;fill-opacity:1;fill-rule:evenodd;stroke:none"
       id="path50" /><path
       d="m 268.96024,44.895922 0,2.1325 -1.163,0 c -0.9695,0 -1.3573,0.5817 -1.3573,1.5511 l 0,7.1728 2.5203,0 0,2.1325 -2.5203,0 0,3.8772 -2.7138,0 0,-3.8772 -1.5509,0 0,-2.1325 1.5509,0 0,-7.1728 c 0,-1.9386 1.163,-3.6836 3.4894,-3.6836"
       style="fill:#000000;fill-opacity:1;fill-rule:evenodd;stroke:none"
       id="path52" /><path
       d="m 282.91804,48.773122 c 0,2.5203 -1.3569,3.6836 -3.8772,3.8775 l -2.1322,0.1936 c -1.3573,0 -1.745,0.5817 -1.745,1.3573 0,1.163 0.7755,1.7447 2.3264,1.7447 1.3569,0 2.5202,-0.1939 3.2955,-0.9695 l 1.7447,1.7448 c -1.3569,1.1633 -2.9077,1.5511 -5.0402,1.5511 -2.7139,0 -4.8464,-1.5511 -4.8464,-4.0711 0,-2.3264 1.3569,-3.4898 3.8772,-3.6834 l 2.1325,-0.1939 c 1.1631,-0.1939 1.7447,-0.5816 1.7447,-1.5511 0,-1.3569 -1.3572,-1.7447 -2.908,-1.7447 -1.357,0 -2.7139,0.1939 -3.8773,1.3572 l -1.7447,-1.7447 c 1.5508,-1.5511 3.4895,-1.9389 5.622,-1.9389 3.1016,0 5.428,1.3572 5.428,4.0711"
       style="fill:#000000;fill-opacity:1;fill-rule:evenodd;stroke:none"
       id="path54" /><path
       d="m 295.13114,50.905622 0,2.3264 -7.5606,0 0,-2.3264"
       style="fill:#000000;fill-opacity:1;fill-rule:evenodd;stroke:none"
       id="path56" /><path
       d="m 313.54784,51.099522 0,12.2134 -2.7142,0 0,-12.0195 c 0,-2.5203 -1.5508,-4.0711 -3.8769,-4.0711 -2.3264,0 -3.8773,1.5508 -3.8773,4.0711 l 0,12.0195 -2.908,0 0,-12.2134 c 0,-3.8772 2.908,-6.3975 6.7853,-6.3975 3.683,0 6.5911,2.5203 6.5911,6.3975"
       style="fill:#000000;fill-opacity:1;fill-rule:evenodd;stroke:none"
       id="path58" /><path
       d="m 329.05644,44.895922 0,8.3361 c 0,1.5509 -0.3878,2.7142 -1.3569,3.6834 -0.7756,0.7755 -1.9386,1.3572 -3.2956,1.3572 -1.3572,0 -2.7142,-0.5817 -3.4894,-1.5511 l 0,1.3572 -2.7142,0 0,-13.1828 2.7142,0 0,7.9483 c 0,2.1325 1.163,2.9081 2.7139,2.9081 1.5508,0 2.7141,-0.7756 2.7141,-2.9081 l 0,-7.9483"
       style="fill:#000000;fill-opacity:1;fill-rule:evenodd;stroke:none"
       id="path60" /><path
       d="m 336.81094,60.599022 0,2.9078 -2.9081,0 0,-2.9078 2.9081,0 z m -0.1939,-15.7031 0,13.1828 -2.7142,0 0,-13.1828"
       style="fill:#000000;fill-opacity:1;fill-rule:evenodd;stroke:none"
       id="path62" /><path
       d="m 351.73784,58.078722 -2.7139,0 -3.1016,-9.3056 -3.2959,9.3056 -2.7139,0 4.8464,-13.1828 2.1325,0"
       style="fill:#000000;fill-opacity:1;fill-rule:evenodd;stroke:none"
       id="path64" /><path
       d="m 365.30814,50.711722 0,1.1634 c 0,3.6833 -2.1325,6.3975 -5.6219,6.3975 -3.4895,0 -5.622,-2.5203 -5.622,-6.7853 0,-5.0403 2.7139,-6.7853 6.0098,-6.7853 2.3261,0 3.4894,0.5817 4.8464,1.9389 l -1.5509,1.7447 c -0.9694,-0.9694 -1.7447,-1.3572 -3.2955,-1.3572 -2.1325,0 -3.2959,1.3572 -3.2959,3.6833 l 8.53,0 z m -2.7141,1.745 -5.8159,0 c 0,0.9692 0,1.357 0.1939,1.9387 0.5817,0.9691 1.5508,1.5508 2.7142,1.5508 1.163,0 2.1325,-0.5817 2.52,-1.5508 0.3878,-0.5817 0.3878,-0.9695 0.3878,-1.9387"
       style="fill:#000000;fill-opacity:1;fill-rule:evenodd;stroke:none"
       id="path66" /><path
       d="m 379.07204,56.915422 c -0.9694,0.9694 -1.9386,1.3572 -3.2955,1.3572 -1.3572,0 -2.7142,-0.7756 -3.4895,-1.7447 l 0,1.5508 -2.5202,0 0,-13.1828 2.7141,0 0,7.9483 c 0,1.9387 1.1631,2.9081 2.52,2.9081 0.9695,0 1.357,-0.1939 1.9386,-0.7756"
       style="fill:#000000;fill-opacity:1;fill-rule:evenodd;stroke:none"
       id="path68" /><path
       d="m 391.28514,48.773122 c 0,2.5203 -1.3569,3.6836 -3.8772,3.8775 l -2.1325,0.1936 c -1.357,0 -1.7447,0.5817 -1.7447,1.3573 0,1.163 0.7755,1.7447 2.3263,1.7447 1.357,0 2.5203,-0.1939 3.2956,-0.9695 l 1.7447,1.7448 c -1.3569,1.1633 -2.9077,1.5511 -4.8464,1.5511 -2.9077,0 -5.0402,-1.5511 -5.0402,-4.0711 0,-2.3264 1.3569,-3.4898 3.8772,-3.6834 l 2.1322,-0.1939 c 1.1633,-0.1939 1.7447,-0.5816 1.7447,-1.5511 0,-1.3569 -1.3569,-1.7447 -2.9078,-1.7447 -1.3569,0 -2.7138,0.1939 -3.8772,1.3572 l -1.7447,-1.7447 c 1.7447,-1.5511 3.4894,-1.9389 5.6219,-1.9389 3.1017,0 5.4281,1.3572 5.4281,4.0711"
       style="fill:#000000;fill-opacity:1;fill-rule:evenodd;stroke:none"
       id="path70" /><path
       d="m 398.26404,60.599022 0,2.9078 -2.7139,0 0,-2.9078 2.7139,0 z m 0,-15.7031 0,13.1828 -2.7139,0 0,-13.1828"
       style="fill:#000000;fill-opacity:1;fill-rule:evenodd;stroke:none"
       id="path72" /><path
       d="m 409.31404,44.895922 0,2.1325 -0.9694,0 c -0.9692,0 -1.5509,0.5817 -1.5509,1.5511 l 0,7.1728 2.5203,0 0,2.1325 -2.5203,0 0,3.8772 -2.52,0 0,-3.8772 -1.5511,0 0,-2.1325 1.5511,0 0,-7.1728 c 0,-1.9386 0.9692,-3.6836 3.4895,-3.6836"
       style="fill:#000000;fill-opacity:1;fill-rule:evenodd;stroke:none"
       id="path74" /><path
       d="m 422.30244,60.599022 0,2.7139 -2.3261,0 0,-2.7139 2.3261,0 z m -5.6217,0 0,2.7139 -2.3264,0 0,-2.7139 2.3264,0 z m 6.785,-15.7031 0,8.7239 c 0,3.1017 -1.9386,4.6528 -5.4281,4.6528 -2.3263,0 -3.4894,-0.5817 -4.8463,-1.9386 l 1.7447,-1.7448 c 0.7753,0.9692 1.5508,1.357 2.9078,1.357 2.1325,0 2.9077,-0.7756 2.9077,-2.5203 l 0,-0.9692 -3.4894,0 c -3.1017,0 -4.4586,-1.5511 -4.4586,-3.6836 0,-1.163 0.1939,-2.1322 0.9691,-2.9078 0.7756,-0.7755 1.9387,-1.1633 3.4895,-1.1633 1.7447,0 2.5203,0.3878 3.4894,1.3572 l 0,-1.1633 2.7142,0 z m -2.7142,4.6528 c 0,-0.9692 -0.1939,-1.5509 -0.5813,-1.9386 -0.5817,-0.5817 -1.3573,-0.7756 -2.5203,-0.7756 -1.5509,0 -2.3264,0.7756 -2.3264,1.9386 0,1.1634 0.7755,1.9386 2.3264,1.9386 l 3.1016,0"
       style="fill:#000000;fill-opacity:1;fill-rule:evenodd;stroke:none"
       id="path76" /><path
       d="m 434.51574,44.895922 0,2.1325 -1.1633,0 c -0.9692,0 -1.357,0.5817 -1.357,1.5511 l 0,7.1728 2.5203,0 0,2.1325 -2.5203,0 0,3.8772 -2.7141,0 0,-3.8772 -1.5509,0 0,-2.1325 1.5509,0 0,-7.1728 c 0,-1.9386 1.1633,-3.6836 3.6833,-3.6836"
       style="fill:#000000;fill-opacity:1;fill-rule:evenodd;stroke:none"
       id="path78" /><path
       d="m 455.06464,44.895922 0,2.3264 -6.5911,0 6.5911,8.7239 0,2.1325 -9.4991,0 0,-2.3264 6.2036,0 -6.5911,-8.7239 0,-2.1325"
       style="fill:#000000;fill-opacity:1;fill-rule:evenodd;stroke:none"
       id="path80" /><path
       d="m 469.79804,44.895922 0,13.1828 -2.7142,0 0,-8.1422 c 0,-1.9387 -1.163,-2.9081 -2.7139,-2.9081 -1.5508,0 -2.7141,0.9694 -2.7141,2.9081 l 0,8.1422 -2.7139,0 0,-8.53 c 0,-1.357 0.3877,-2.7142 1.3569,-3.6834 0.7756,-0.7755 1.9386,-1.1633 3.2956,-1.1633 1.3569,0 2.7141,0.3878 3.4894,1.5511 l 0,-1.3572"
       style="fill:#000000;fill-opacity:1;fill-rule:evenodd;stroke:none"
       id="path82" /><path
       d="m 496.93804,44.895922 -6.785,11.2442 6.0098,7.1728 -3.2956,0 -7.5606,-9.3053 0,9.3053 -2.908,0 0,-18.417 2.908,0 0,5.2344 3.1017,3.8773 5.2342,-9.1117"
       style="fill:#000000;fill-opacity:1;fill-rule:evenodd;stroke:none"
       id="path84" /><path
       d="m 503.14164,60.599022 0,2.9078 -2.7141,0 0,-2.9078 2.7141,0 z m 0,-15.7031 0,13.1828 -2.7141,0 0,-13.1828"
       style="fill:#000000;fill-opacity:1;fill-rule:evenodd;stroke:none"
       id="path86" /><path
       d="m 518.84424,50.711722 0,1.1634 c 0,3.6833 -2.1325,6.3975 -5.622,6.3975 -3.4894,0 -5.6219,-2.5203 -5.6219,-6.7853 0,-5.0403 2.5202,-6.7853 6.0097,-6.7853 2.3264,0 3.4894,0.5817 4.8464,1.9389 l -1.7447,1.7447 c -0.7753,-0.9694 -1.5509,-1.3572 -3.1017,-1.3572 -2.1325,0 -3.4895,1.3572 -3.4895,3.6833 l 8.7237,0 z m -2.7142,1.745 -6.0095,0 c 0.1939,0.9692 0.1939,1.357 0.3878,1.9387 0.3875,0.9691 1.357,1.5508 2.7139,1.5508 1.1631,0 2.1325,-0.5817 2.5203,-1.5508 0.3875,-0.5817 0.3875,-0.9695 0.3875,-1.9387"
       style="fill:#000000;fill-opacity:1;fill-rule:evenodd;stroke:none"
       id="path88" /><path
       d="m 528.14954,44.895922 0,2.1325 -1.1634,0 c -0.9691,0 -1.3569,0.5817 -1.3569,1.5511 l 0,14.7334 -2.7139,0 0,-14.9273 c 0,-1.9386 1.163,-3.4897 3.6833,-3.4897"
       style="fill:#000000;fill-opacity:1;fill-rule:evenodd;stroke:none"
       id="path90" /><path
       d="m 28.381648,198.67152 255.118092,0 0,-86.4565 -255.118092,0"
       style="fill:#000000;fill-opacity:1;fill-rule:evenodd;stroke:none"
       id="path92" /><path
       d="m 112.00364,175.42712 2.8347,0 0,-65.1969 -2.8347,0"
       style="fill:#ffffff;fill-opacity:1;fill-rule:evenodd;stroke:none"
       id="path94" /><path
       d="m 88.474448,144.83192 -5.7626,4.3211 c -2.7847,-5.089 -7.4894,-5.5221 -9.5536,-5.5221 -7.1059,0 -11.4279,5.3299 -11.4279,12.2445 0,7.2964 5.186,11.8579 11.043,11.8579 4.1777,0 7.6334,-1.5846 9.0266,-3.8407 l 5.3291,5.2804 c -3.5044,4.7064 -9.1218,5.9545 -14.4513,5.9545 -10.8513,0 -19.3495,-8.1627 -19.3495,-19.2521 0,-11.5722 8.0186,-19.4939 19.4451,-19.4939 5.089,0 11.4278,1.5364 15.7011,8.4504"
       style="fill:#ffffff;fill-opacity:1;fill-rule:evenodd;stroke:none"
       id="path96" /><path
       d="m 174.49794,137.05622 -18.6293,39.4665 -18.485,-39.4665 8.9788,0 3.8888,8.5952 11.3783,0 3.8897,-8.5952 8.9787,0 z m -15.3649,14.6922 -6.5766,0 3.1209,6.9619"
       style="fill:#ffffff;fill-opacity:1;fill-rule:evenodd;stroke:none"
       id="path98" /><path
       d="m 256.32084,152.13172 0,22.4691 -8.4503,0 0,-21.7973 c 0,-5.7144 -1.6334,-8.3551 -6.6742,-8.3551 -5.089,0 -7.1067,2.5942 -7.1067,8.3551 l 0,21.7973 -8.4504,0 0,-22.4691 c 0,-8.4039 4.5142,-15.1728 15.5089,-15.1728 11.0438,0 15.1727,7.202 15.1727,15.1728"
       style="fill:#ffffff;fill-opacity:1;fill-rule:evenodd;stroke:none"
       id="path100" /><path
       d="m 197.04304,198.67122 2.8346,0 0,-62.6457 -2.8346,0"
       style="fill:#ffffff;fill-opacity:1;fill-rule:evenodd;stroke:none"
       id="path102" /></g></svg>