<?xml version="1.0" encoding="UTF-8"?><svg stroke-dasharray="none" shape-rendering="auto" xmlns="http://www.w3.org/2000/svg" font-family="'Dialog'" width="362" text-rendering="auto" fill-opacity="1" contentScriptType="text/ecmascript" color-interpolation="auto" color-rendering="auto" preserveAspectRatio="xMidYMid meet" font-size="12" viewBox="0 0 362 215" fill="black" xmlns:xlink="http://www.w3.org/1999/xlink" stroke="black" image-rendering="auto" stroke-miterlimit="10" zoomAndPan="magnify" version="1.0" stroke-linecap="square" stroke-linejoin="miter" contentStyleType="text/css" font-style="normal" height="215" stroke-width="1" stroke-dashoffset="0" font-weight="normal" stroke-opacity="1">
<!--Generated by the Batik Graphics2D SVG Generator-->
<defs id="genericDefs"/>
<g>
<defs id="defs1">
<clipPath clipPathUnits="userSpaceOnUse" id="clipPath1">
<path d="M116 22 L207 22 L207 60 L116 60 L116 22 Z"/>
</clipPath>
<clipPath clipPathUnits="userSpaceOnUse" id="clipPath2">
<path d="M138 26 L186 26 L186 42 L138 42 L138 26 Z"/>
</clipPath>
<clipPath clipPathUnits="userSpaceOnUse" id="clipPath3">
<path d="M123 43 L201 43 L201 58 L123 58 L123 43 Z"/>
</clipPath>
<clipPath clipPathUnits="userSpaceOnUse" id="clipPath4">
<path d="M117 42 L206 42 L206 59 L117 59 L117 42 Z"/>
</clipPath>
<clipPath clipPathUnits="userSpaceOnUse" id="clipPath5">
<path d="M272 126 L353 126 L353 163 L272 163 L272 126 Z"/>
</clipPath>
<clipPath clipPathUnits="userSpaceOnUse" id="clipPath6">
<path d="M293 130 L333 130 L333 146 L293 146 L293 130 Z"/>
</clipPath>
<clipPath clipPathUnits="userSpaceOnUse" id="clipPath7">
<path d="M278 146 L340 146 L340 162 L278 162 L278 146 Z"/>
</clipPath>
<clipPath clipPathUnits="userSpaceOnUse" id="clipPath8">
<path d="M273 146 L353 146 L353 162 L273 162 L273 146 Z"/>
</clipPath>
<clipPath clipPathUnits="userSpaceOnUse" id="clipPath9">
<path d="M272 22 L354 22 L354 60 L272 60 L272 22 Z"/>
</clipPath>
<clipPath clipPathUnits="userSpaceOnUse" id="clipPath10">
<path d="M300 26 L326 26 L326 42 L300 42 L300 26 Z"/>
</clipPath>
<clipPath clipPathUnits="userSpaceOnUse" id="clipPath11">
<path d="M278 43 L344 43 L344 58 L278 58 L278 43 Z"/>
</clipPath>
<clipPath clipPathUnits="userSpaceOnUse" id="clipPath12">
<path d="M273 42 L353 42 L353 59 L273 59 L273 42 Z"/>
</clipPath>
<clipPath clipPathUnits="userSpaceOnUse" id="clipPath13">
<path d="M8 82 L109 82 L109 119 L8 119 L8 82 Z"/>
</clipPath>
<clipPath clipPathUnits="userSpaceOnUse" id="clipPath14">
<path d="M19 86 L98 86 L98 102 L19 102 L19 86 Z"/>
</clipPath>
<clipPath clipPathUnits="userSpaceOnUse" id="clipPath15">
<path d="M15 102 L63 102 L63 118 L15 118 L15 102 Z"/>
</clipPath>
<clipPath clipPathUnits="userSpaceOnUse" id="clipPath16">
<path d="M9 102 L108 102 L108 118 L9 118 L9 102 Z"/>
</clipPath>
<clipPath clipPathUnits="userSpaceOnUse" id="clipPath17">
<path d="M-1 -1 L363 -1 L363 216 L-1 216 L-1 -1 Z"/>
</clipPath>
<clipPath clipPathUnits="userSpaceOnUse" id="clipPath18">
<path d="M222 123 L267 123 L267 139 L222 139 L222 123 Z"/>
</clipPath>
<clipPath clipPathUnits="userSpaceOnUse" id="clipPath19">
<path d="M159 56 L171 56 L171 77 L159 77 L159 56 Z"/>
</clipPath>
<clipPath clipPathUnits="userSpaceOnUse" id="clipPath20">
<path d="M264 140 L276 140 L276 152 L264 152 L264 140 Z"/>
</clipPath>
<clipPath clipPathUnits="userSpaceOnUse" id="clipPath21">
<path d="M244 22 L271 22 L271 38 L244 38 L244 22 Z"/>
</clipPath>
<clipPath clipPathUnits="userSpaceOnUse" id="clipPath22">
<path d="M204 36 L224 36 L224 48 L204 48 L204 36 Z"/>
</clipPath>
<clipPath clipPathUnits="userSpaceOnUse" id="clipPath23">
<path d="M264 36 L276 36 L276 48 L264 48 L264 36 Z"/>
</clipPath>
<clipPath clipPathUnits="userSpaceOnUse" id="clipPath24">
<path d="M266 102 L311 102 L311 118 L266 118 L266 102 Z"/>
</clipPath>
<clipPath clipPathUnits="userSpaceOnUse" id="clipPath25">
<path d="M307 118 L319 118 L319 131 L307 131 L307 118 Z"/>
</clipPath>
<clipPath clipPathUnits="userSpaceOnUse" id="clipPath26">
<path d="M63 25 L116 25 L116 41 L63 41 L63 25 Z"/>
</clipPath>
<clipPath clipPathUnits="userSpaceOnUse" id="clipPath27">
<path d="M108 36 L121 36 L121 48 L108 48 L108 36 Z"/>
</clipPath>
</defs>
<g font-size="10" fill="white" font-family="'Arial'" stroke-linejoin="round" stroke="white" stroke-miterlimit="0">
<rect x="118" y="24" clip-path="url(#clipPath1)" width="87" height="33" stroke="none"/>
<text x="139" y="37" clip-path="url(#clipPath2)" fill="black" stroke="none" xml:space="preserve">Bookstore</text>
<text x="124" y="54" clip-path="url(#clipPath3)" fill="black" stroke="none" xml:space="preserve">+ searchBook ( )</text>
<line clip-path="url(#clipPath4)" fill="none" x1="118" x2="204" y1="43" y2="43" stroke="black"/>
<rect x="118" y="24" clip-path="url(#clipPath1)" fill="none" width="87" height="33" stroke="black"/>
<rect x="274" y="128" clip-path="url(#clipPath5)" width="77" height="33" stroke="none"/>
<text x="294" y="141" clip-path="url(#clipPath6)" fill="black" stroke="none" xml:space="preserve">Catalog</text>
<text x="279" y="157" clip-path="url(#clipPath7)" fill="black" stroke="none" xml:space="preserve">+ getBook ( )</text>
<line clip-path="url(#clipPath8)" fill="none" x1="274" x2="350" y1="147" y2="147" stroke="black"/>
<rect x="273" y="128" clip-path="url(#clipPath5)" fill="none" width="78" height="33" stroke="black"/>
<rect x="274" y="24" clip-path="url(#clipPath9)" width="78" height="33" stroke="none"/>
<text x="301" y="37" clip-path="url(#clipPath10)" fill="black" stroke="none" xml:space="preserve">CRM</text>
<text x="279" y="54" clip-path="url(#clipPath11)" fill="black" stroke="none" xml:space="preserve">+ getOffers ( )</text>
<line clip-path="url(#clipPath12)" fill="none" x1="274" x2="351" y1="43" y2="43" stroke="black"/>
<rect x="273" y="24" clip-path="url(#clipPath9)" fill="none" width="78" height="33" stroke="black"/>
<rect x="10" y="84" clip-path="url(#clipPath13)" width="97" height="33" stroke="none"/>
<text x="20" y="97" clip-path="url(#clipPath14)" fill="black" stroke="none" xml:space="preserve">BookstoreStarter</text>
<text x="16" y="113" clip-path="url(#clipPath15)" fill="black" stroke="none" xml:space="preserve">+ main ( )</text>
<line clip-path="url(#clipPath15)" fill="none" x1="16" x2="61" y1="114" y2="114" stroke="black"/>
<line clip-path="url(#clipPath16)" fill="none" x1="10" x2="106" y1="103" y2="103" stroke="black"/>
<rect x="10" y="84" clip-path="url(#clipPath13)" fill="none" width="97" height="33" stroke="black"/>
<line clip-path="url(#clipPath17)" fill="none" x1="165" x2="165" y1="58" y2="146" stroke="black"/>
<line clip-path="url(#clipPath17)" fill="none" x1="165" x2="274" y1="146" y2="146" stroke="black"/>
<text x="223" y="134" clip-path="url(#clipPath18)" fill="black" stroke="none" xml:space="preserve">- catalog</text>
<polygon fill="black" clip-path="url(#clipPath19)" points=" 165 58 169 66 165 74 160 66" stroke="none"/>
<polygon fill="none" clip-path="url(#clipPath19)" points=" 165 58 169 66 165 74 160 66" stroke="black"/>
<line clip-path="url(#clipPath20)" fill="none" x1="265" x2="274" y1="150" y2="146" stroke="black"/>
<line clip-path="url(#clipPath20)" fill="none" x1="274" x2="265" y1="146" y2="141" stroke="black"/>
<line clip-path="url(#clipPath17)" fill="none" x1="205" x2="274" y1="42" y2="42" stroke="black"/>
<text x="245" y="33" clip-path="url(#clipPath21)" fill="black" stroke="none" xml:space="preserve">- crm</text>
<polygon fill="black" clip-path="url(#clipPath22)" points=" 205 42 213 37 222 42 213 46" stroke="none"/>
<polygon fill="none" clip-path="url(#clipPath22)" points=" 205 42 213 37 222 42 213 46" stroke="black"/>
<line clip-path="url(#clipPath23)" fill="none" x1="265" x2="274" y1="46" y2="42" stroke="black"/>
<line clip-path="url(#clipPath23)" fill="none" x1="274" x2="265" y1="42" y2="37" stroke="black"/>
<line clip-path="url(#clipPath17)" fill="none" x1="313" x2="313" y1="58" y2="128" stroke="black"/>
<text x="267" y="113" clip-path="url(#clipPath24)" fill="black" stroke="none" xml:space="preserve">- catalog</text>
<line clip-path="url(#clipPath25)" fill="none" x1="308" x2="313" y1="120" y2="128" stroke="black"/>
<line clip-path="url(#clipPath25)" fill="none" x1="313" x2="317" y1="128" y2="120" stroke="black"/>
<line clip-path="url(#clipPath17)" fill="none" x1="53" x2="53" y1="84" y2="42" stroke="black"/>
<line clip-path="url(#clipPath17)" fill="none" x1="53" x2="118" y1="42" y2="42" stroke="black"/>
<text x="64" y="36" clip-path="url(#clipPath26)" fill="black" stroke="none" xml:space="preserve">- bookstore</text>
<line clip-path="url(#clipPath27)" fill="none" x1="110" x2="118" y1="46" y2="42" stroke="black"/>
<line clip-path="url(#clipPath27)" fill="none" x1="118" x2="110" y1="42" y2="37" stroke="black"/>
</g>
</g>
</svg>