<?xml version="1.0" encoding="UTF-8"?><svg stroke-dasharray="none" shape-rendering="auto" xmlns="http://www.w3.org/2000/svg" font-family="'Dialog'" width="792" text-rendering="auto" fill-opacity="1" contentScriptType="text/ecmascript" color-interpolation="auto" color-rendering="auto" preserveAspectRatio="xMidYMid meet" font-size="12" viewBox="0 0 792 544" fill="black" xmlns:xlink="http://www.w3.org/1999/xlink" stroke="black" image-rendering="auto" stroke-miterlimit="10" zoomAndPan="magnify" version="1.0" stroke-linecap="square" stroke-linejoin="miter" contentStyleType="text/css" font-style="normal" height="544" stroke-width="1" stroke-dashoffset="0" font-weight="normal" stroke-opacity="1">
<!--Generated by the Batik Graphics2D SVG Generator-->
<defs id="genericDefs"/>
<g>
<defs id="defs1">
<clipPath clipPathUnits="userSpaceOnUse" id="clipPath1">
<path d="M37 9 L107 9 L107 35 L37 35 L37 9 Z"/>
</clipPath>
<clipPath clipPathUnits="userSpaceOnUse" id="clipPath2">
<path d="M42 14 L102 14 L102 30 L42 30 L42 14 Z"/>
</clipPath>
<clipPath clipPathUnits="userSpaceOnUse" id="clipPath3">
<path d="M37 32 L783 32 L783 535 L37 535 L37 32 Z"/>
</clipPath>
<clipPath clipPathUnits="userSpaceOnUse" id="clipPath4">
<path d="M383 42 L449 42 L449 67 L383 67 L383 42 Z"/>
</clipPath>
<clipPath clipPathUnits="userSpaceOnUse" id="clipPath5">
<path d="M393 47 L440 47 L440 63 L393 63 L393 47 Z"/>
</clipPath>
<clipPath clipPathUnits="userSpaceOnUse" id="clipPath6">
<path d="M383 64 L449 64 L449 372 L383 372 L383 64 Z"/>
</clipPath>
<clipPath clipPathUnits="userSpaceOnUse" id="clipPath7">
<path d="M278 42 L376 42 L376 67 L278 67 L278 42 Z"/>
</clipPath>
<clipPath clipPathUnits="userSpaceOnUse" id="clipPath8">
<path d="M288 47 L367 47 L367 63 L288 63 L288 47 Z"/>
</clipPath>
<clipPath clipPathUnits="userSpaceOnUse" id="clipPath9">
<path d="M278 64 L376 64 L376 372 L278 372 L278 64 Z"/>
</clipPath>
<clipPath clipPathUnits="userSpaceOnUse" id="clipPath10">
<path d="M158 42 L271 42 L271 67 L158 67 L158 42 Z"/>
</clipPath>
<clipPath clipPathUnits="userSpaceOnUse" id="clipPath11">
<path d="M167 47 L262 47 L262 63 L167 63 L167 47 Z"/>
</clipPath>
<clipPath clipPathUnits="userSpaceOnUse" id="clipPath12">
<path d="M158 64 L271 64 L271 372 L158 372 L158 64 Z"/>
</clipPath>
<clipPath clipPathUnits="userSpaceOnUse" id="clipPath13">
<path d="M53 42 L151 42 L151 67 L53 67 L53 42 Z"/>
</clipPath>
<clipPath clipPathUnits="userSpaceOnUse" id="clipPath14">
<path d="M62 47 L141 47 L141 63 L62 63 L62 47 Z"/>
</clipPath>
<clipPath clipPathUnits="userSpaceOnUse" id="clipPath15">
<path d="M53 64 L151 64 L151 381 L53 381 L53 64 Z"/>
</clipPath>
<clipPath clipPathUnits="userSpaceOnUse" id="clipPath16">
<path d="M95 110 L108 110 L108 365 L95 365 L95 110 Z"/>
</clipPath>
<clipPath clipPathUnits="userSpaceOnUse" id="clipPath17">
<path d="M208 119 L221 119 L221 222 L208 222 L208 119 Z"/>
</clipPath>
<clipPath clipPathUnits="userSpaceOnUse" id="clipPath18">
<path d="M321 145 L334 145 L334 198 L321 198 L321 145 Z"/>
</clipPath>
<clipPath clipPathUnits="userSpaceOnUse" id="clipPath19">
<path d="M410 236 L422 236 L422 350 L410 350 L410 236 Z"/>
</clipPath>
<clipPath clipPathUnits="userSpaceOnUse" id="clipPath20">
<path d="M321 264 L334 264 L334 321 L321 321 L321 264 Z"/>
</clipPath>
<clipPath clipPathUnits="userSpaceOnUse" id="clipPath21">
<path d="M36 8 L784 8 L784 536 L36 536 L36 8 Z"/>
</clipPath>
<clipPath clipPathUnits="userSpaceOnUse" id="clipPath22">
<path d="M30 105 L44 105 L44 119 L30 119 L30 105 Z"/>
</clipPath>
<clipPath clipPathUnits="userSpaceOnUse" id="clipPath23">
<path d="M30 357 L44 357 L44 371 L30 371 L30 357 Z"/>
</clipPath>
<clipPath clipPathUnits="userSpaceOnUse" id="clipPath24">
<path d="M-1 -1 L793 -1 L793 545 L-1 545 L-1 -1 Z"/>
</clipPath>
<clipPath clipPathUnits="userSpaceOnUse" id="clipPath25">
<path d="M104 215 L115 215 L115 225 L104 225 L104 215 Z"/>
</clipPath>
<clipPath clipPathUnits="userSpaceOnUse" id="clipPath26">
<path d="M121 100 L199 100 L199 116 L121 116 L121 100 Z"/>
</clipPath>
<clipPath clipPathUnits="userSpaceOnUse" id="clipPath27">
<path d="M204 115 L216 115 L216 125 L204 125 L204 115 Z"/>
</clipPath>
<clipPath clipPathUnits="userSpaceOnUse" id="clipPath28">
<path d="M217 191 L228 191 L228 201 L217 201 L217 191 Z"/>
</clipPath>
<clipPath clipPathUnits="userSpaceOnUse" id="clipPath29">
<path d="M227 217 L293 217 L293 233 L227 233 L227 217 Z"/>
</clipPath>
<clipPath clipPathUnits="userSpaceOnUse" id="clipPath30">
<path d="M405 232 L417 232 L417 242 L405 242 L405 232 Z"/>
</clipPath>
<clipPath clipPathUnits="userSpaceOnUse" id="clipPath31">
<path d="M36 359 L47 359 L47 369 L36 369 L36 359 Z"/>
</clipPath>
<clipPath clipPathUnits="userSpaceOnUse" id="clipPath32">
<path d="M49 92 L88 92 L88 108 L49 108 L49 92 Z"/>
</clipPath>
<clipPath clipPathUnits="userSpaceOnUse" id="clipPath33">
<path d="M91 106 L103 106 L103 116 L91 116 L91 106 Z"/>
</clipPath>
<clipPath clipPathUnits="userSpaceOnUse" id="clipPath34">
<path d="M104 343 L115 343 L115 353 L104 353 L104 343 Z"/>
</clipPath>
<clipPath clipPathUnits="userSpaceOnUse" id="clipPath35">
<path d="M400 314 L412 314 L412 324 L400 324 L400 314 Z"/>
</clipPath>
<clipPath clipPathUnits="userSpaceOnUse" id="clipPath36">
<path d="M339 247 L410 247 L410 263 L339 263 L339 247 Z"/>
</clipPath>
<clipPath clipPathUnits="userSpaceOnUse" id="clipPath37">
<path d="M324 260 L337 260 L337 270 L324 270 L324 260 Z"/>
</clipPath>
<clipPath clipPathUnits="userSpaceOnUse" id="clipPath38">
<path d="M237 126 L308 126 L308 142 L237 142 L237 126 Z"/>
</clipPath>
<clipPath clipPathUnits="userSpaceOnUse" id="clipPath39">
<path d="M316 141 L328 141 L328 151 L316 151 L316 141 Z"/>
</clipPath>
</defs>
<g font-size="10" fill="white" font-family="'Arial'" stroke-linejoin="round" stroke="white" stroke-miterlimit="0">
<rect x="38" y="10" clip-path="url(#clipPath1)" width="68" height="24" stroke="none"/>
<polygon fill="none" clip-path="url(#clipPath1)" points=" 38 10 104 10 104 25 98 32 38 32" stroke="black"/>
<text x="43" y="25" clip-path="url(#clipPath2)" fill="black" stroke="none" xml:space="preserve">Interaction1</text>
<rect x="40" y="35" clip-path="url(#clipPath3)" fill="none" width="739" height="496" stroke="black" stroke-width="2"/>
<rect x="384" y="43" clip-path="url(#clipPath4)" width="64" height="23" stroke="none"/>
<text x="394" y="58" clip-path="url(#clipPath5)" fill="black" stroke="none" xml:space="preserve">crm:CRM</text>
<rect x="385" y="44" clip-path="url(#clipPath4)" fill="none" width="62" height="20" stroke="black"/>
<line clip-path="url(#clipPath6)" fill="none" x1="416" x2="416" y1="65" y2="370" stroke-dasharray="20,8" stroke="black"/>
<rect x="279" y="43" clip-path="url(#clipPath7)" width="96" height="23" stroke="none"/>
<text x="289" y="58" clip-path="url(#clipPath8)" fill="black" stroke="none" xml:space="preserve">catalog:Catalog</text>
<rect x="280" y="44" clip-path="url(#clipPath7)" fill="none" width="94" height="20" stroke="black"/>
<line clip-path="url(#clipPath9)" fill="none" x1="327" x2="327" y1="65" y2="370" stroke-dasharray="20,8" stroke="black"/>
<rect x="159" y="43" clip-path="url(#clipPath10)" width="111" height="23" stroke="none"/>
<text x="168" y="58" clip-path="url(#clipPath11)" fill="black" stroke="none" xml:space="preserve">bookstore:Bookstore</text>
<rect x="159" y="44" clip-path="url(#clipPath10)" fill="none" width="110" height="20" stroke="black"/>
<line clip-path="url(#clipPath12)" fill="none" x1="214" x2="214" y1="65" y2="370" stroke-dasharray="20,8" stroke="black"/>
<rect x="54" y="43" clip-path="url(#clipPath13)" width="95" height="23" stroke="none"/>
<text x="63" y="58" clip-path="url(#clipPath14)" fill="black" stroke="none" xml:space="preserve">BookstoreStarter</text>
<rect x="54" y="44" clip-path="url(#clipPath13)" fill="none" width="94" height="20" stroke="black"/>
<line clip-path="url(#clipPath15)" fill="none" x1="101" x2="101" y1="65" y2="379" stroke-dasharray="20,8" stroke="black"/>
<rect x="97" y="112" clip-path="url(#clipPath16)" width="9" height="251" stroke="none"/>
<rect x="97" y="112" clip-path="url(#clipPath16)" fill="none" width="8" height="251" stroke="black"/>
<rect x="210" y="121" clip-path="url(#clipPath17)" width="9" height="99" stroke="none"/>
<rect x="210" y="121" clip-path="url(#clipPath17)" fill="none" width="8" height="99" stroke="black"/>
<rect x="323" y="147" clip-path="url(#clipPath18)" width="9" height="49" stroke="none"/>
<rect x="322" y="146" clip-path="url(#clipPath18)" fill="none" width="9" height="49" stroke="black"/>
<rect x="412" y="238" clip-path="url(#clipPath19)" width="8" height="110" stroke="none"/>
<rect x="411" y="238" clip-path="url(#clipPath19)" fill="none" width="9" height="110" stroke="black"/>
<rect x="323" y="266" clip-path="url(#clipPath20)" width="9" height="53" stroke="none"/>
<rect x="322" y="266" clip-path="url(#clipPath20)" fill="none" width="9" height="52" stroke="black"/>
<rect x="37" y="10" clip-path="url(#clipPath21)" fill="none" width="744" height="523" stroke="black"/>
<rect x="32" y="106" clip-path="url(#clipPath22)" fill="none" width="10" height="11" stroke="black"/>
<rect x="32" y="358" clip-path="url(#clipPath23)" fill="none" width="10" height="11" stroke="black"/>
<line clip-path="url(#clipPath24)" fill="none" x1="214" x2="105" y1="220" y2="220" stroke-dasharray="3,3" stroke="black"/>
<polygon fill="black" clip-path="url(#clipPath25)" points=" 105 220 113 216 113 223" stroke="none"/>
<polygon fill="none" clip-path="url(#clipPath25)" points=" 105 220 113 216 113 223" stroke="black"/>
<line clip-path="url(#clipPath24)" fill="none" x1="105" x2="214" y1="120" y2="120" stroke="black"/>
<text x="122" y="111" clip-path="url(#clipPath26)" fill="black" stroke="none" xml:space="preserve">1.1: searchBook</text>
<polygon fill="black" clip-path="url(#clipPath27)" points=" 214 120 205 123 205 116" stroke="none"/>
<polygon fill="none" clip-path="url(#clipPath27)" points=" 214 120 205 123 205 116" stroke="black"/>
<line clip-path="url(#clipPath24)" fill="none" x1="326" x2="218" y1="196" y2="196" stroke-dasharray="3,3" stroke="black"/>
<polygon fill="black" clip-path="url(#clipPath28)" points=" 218 196 226 192 226 199" stroke="none"/>
<polygon fill="none" clip-path="url(#clipPath28)" points=" 218 196 226 192 226 199" stroke="black"/>
<line clip-path="url(#clipPath24)" fill="none" x1="105" x2="415" y1="237" y2="237" stroke="black"/>
<text x="228" y="228" clip-path="url(#clipPath29)" fill="black" stroke="none" xml:space="preserve">1.3: getOffers</text>
<polygon fill="black" clip-path="url(#clipPath30)" points=" 415 237 406 240 406 233" stroke="none"/>
<polygon fill="none" clip-path="url(#clipPath30)" points=" 415 237 406 240 406 233" stroke="black"/>
<line clip-path="url(#clipPath24)" fill="none" x1="101" x2="75" y1="363" y2="363" stroke-dasharray="3,3" stroke="black"/>
<line clip-path="url(#clipPath24)" fill="none" x1="75" x2="62" y1="363" y2="364" stroke-dasharray="3,3" stroke="black"/>
<line clip-path="url(#clipPath24)" fill="none" x1="62" x2="37" y1="364" y2="364" stroke-dasharray="3,3" stroke="black"/>
<polygon fill="black" clip-path="url(#clipPath31)" points=" 37 364 45 360 45 367" stroke="none"/>
<polygon fill="none" clip-path="url(#clipPath31)" points=" 37 364 45 360 45 367" stroke="black"/>
<line clip-path="url(#clipPath24)" fill="none" x1="37" x2="62" y1="112" y2="112" stroke="black"/>
<line clip-path="url(#clipPath24)" fill="none" x1="62" x2="75" y1="112" y2="111" stroke="black"/>
<line clip-path="url(#clipPath24)" fill="none" x1="75" x2="101" y1="111" y2="111" stroke="black"/>
<text x="50" y="103" clip-path="url(#clipPath32)" fill="black" stroke="none" xml:space="preserve">1: main</text>
<polygon fill="black" clip-path="url(#clipPath33)" points=" 101 111 92 114 92 107" stroke="none"/>
<polygon fill="none" clip-path="url(#clipPath33)" points=" 101 111 92 114 92 107" stroke="black"/>
<line clip-path="url(#clipPath24)" fill="none" x1="415" x2="105" y1="348" y2="348" stroke-dasharray="3,3" stroke="black"/>
<polygon fill="black" clip-path="url(#clipPath34)" points=" 105 348 113 344 113 351" stroke="none"/>
<polygon fill="none" clip-path="url(#clipPath34)" points=" 105 348 113 344 113 351" stroke="black"/>
<line clip-path="url(#clipPath24)" fill="none" x1="326" x2="410" y1="319" y2="319" stroke-dasharray="3,3" stroke="black"/>
<polygon fill="black" clip-path="url(#clipPath35)" points=" 410 319 401 322 401 315" stroke="none"/>
<polygon fill="none" clip-path="url(#clipPath35)" points=" 410 319 401 322 401 315" stroke="black"/>
<line clip-path="url(#clipPath24)" fill="none" x1="410" x2="326" y1="265" y2="265" stroke="black"/>
<text x="340" y="258" clip-path="url(#clipPath36)" fill="black" stroke="none" xml:space="preserve">1.3.1: getBook</text>
<polygon fill="black" clip-path="url(#clipPath37)" points=" 326 265 334 261 334 268" stroke="none"/>
<polygon fill="none" clip-path="url(#clipPath37)" points=" 326 265 334 261 334 268" stroke="black"/>
<line clip-path="url(#clipPath24)" fill="none" x1="218" x2="326" y1="146" y2="146" stroke="black"/>
<text x="238" y="137" clip-path="url(#clipPath38)" fill="black" stroke="none" xml:space="preserve">1.1.1: getBook</text>
<polygon fill="black" clip-path="url(#clipPath39)" points=" 326 146 317 149 317 142" stroke="none"/>
<polygon fill="none" clip-path="url(#clipPath39)" points=" 326 146 317 149 317 142" stroke="black"/>
<line clip-path="url(#clipPath24)" fill="none" x1="37" x2="62" y1="112" y2="112" stroke="black"/>
<line clip-path="url(#clipPath24)" fill="none" x1="62" x2="75" y1="112" y2="111" stroke="black"/>
<line clip-path="url(#clipPath24)" fill="none" x1="75" x2="101" y1="111" y2="111" stroke="black"/>
<text x="50" y="103" clip-path="url(#clipPath32)" fill="black" stroke="none" xml:space="preserve">1: main</text>
<polygon fill="black" clip-path="url(#clipPath33)" points=" 101 111 92 114 92 107" stroke="none"/>
<polygon fill="none" clip-path="url(#clipPath33)" points=" 101 111 92 114 92 107" stroke="black"/>
<line clip-path="url(#clipPath24)" fill="none" x1="101" x2="75" y1="363" y2="363" stroke-dasharray="3,3" stroke="black"/>
<line clip-path="url(#clipPath24)" fill="none" x1="75" x2="62" y1="363" y2="364" stroke-dasharray="3,3" stroke="black"/>
<line clip-path="url(#clipPath24)" fill="none" x1="62" x2="37" y1="364" y2="364" stroke-dasharray="3,3" stroke="black"/>
<polygon fill="black" clip-path="url(#clipPath31)" points=" 37 364 45 360 45 367" stroke="none"/>
<polygon fill="none" clip-path="url(#clipPath31)" points=" 37 364 45 360 45 367" stroke="black"/>
<line clip-path="url(#clipPath24)" fill="none" x1="105" x2="214" y1="120" y2="120" stroke="black"/>
<text x="122" y="111" clip-path="url(#clipPath26)" fill="black" stroke="none" xml:space="preserve">1.1: searchBook</text>
<polygon fill="black" clip-path="url(#clipPath27)" points=" 214 120 205 123 205 116" stroke="none"/>
<polygon fill="none" clip-path="url(#clipPath27)" points=" 214 120 205 123 205 116" stroke="black"/>
<line clip-path="url(#clipPath24)" fill="none" x1="214" x2="105" y1="220" y2="220" stroke-dasharray="3,3" stroke="black"/>
<polygon fill="black" clip-path="url(#clipPath25)" points=" 105 220 113 216 113 223" stroke="none"/>
<polygon fill="none" clip-path="url(#clipPath25)" points=" 105 220 113 216 113 223" stroke="black"/>
<line clip-path="url(#clipPath24)" fill="none" x1="218" x2="326" y1="146" y2="146" stroke="black"/>
<text x="238" y="137" clip-path="url(#clipPath38)" fill="black" stroke="none" xml:space="preserve">1.1.1: getBook</text>
<polygon fill="black" clip-path="url(#clipPath39)" points=" 326 146 317 149 317 142" stroke="none"/>
<polygon fill="none" clip-path="url(#clipPath39)" points=" 326 146 317 149 317 142" stroke="black"/>
<line clip-path="url(#clipPath24)" fill="none" x1="326" x2="218" y1="196" y2="196" stroke-dasharray="3,3" stroke="black"/>
<polygon fill="black" clip-path="url(#clipPath28)" points=" 218 196 226 192 226 199" stroke="none"/>
<polygon fill="none" clip-path="url(#clipPath28)" points=" 218 196 226 192 226 199" stroke="black"/>
<line clip-path="url(#clipPath24)" fill="none" x1="105" x2="415" y1="237" y2="237" stroke="black"/>
<text x="228" y="228" clip-path="url(#clipPath29)" fill="black" stroke="none" xml:space="preserve">1.3: getOffers</text>
<polygon fill="black" clip-path="url(#clipPath30)" points=" 415 237 406 240 406 233" stroke="none"/>
<polygon fill="none" clip-path="url(#clipPath30)" points=" 415 237 406 240 406 233" stroke="black"/>
<line clip-path="url(#clipPath24)" fill="none" x1="415" x2="105" y1="348" y2="348" stroke-dasharray="3,3" stroke="black"/>
<polygon fill="black" clip-path="url(#clipPath34)" points=" 105 348 113 344 113 351" stroke="none"/>
<polygon fill="none" clip-path="url(#clipPath34)" points=" 105 348 113 344 113 351" stroke="black"/>
<line clip-path="url(#clipPath24)" fill="none" x1="410" x2="326" y1="265" y2="265" stroke="black"/>
<text x="340" y="258" clip-path="url(#clipPath36)" fill="black" stroke="none" xml:space="preserve">1.3.1: getBook</text>
<polygon fill="black" clip-path="url(#clipPath37)" points=" 326 265 334 261 334 268" stroke="none"/>
<polygon fill="none" clip-path="url(#clipPath37)" points=" 326 265 334 261 334 268" stroke="black"/>
<line clip-path="url(#clipPath24)" fill="none" x1="326" x2="410" y1="319" y2="319" stroke-dasharray="3,3" stroke="black"/>
<polygon fill="black" clip-path="url(#clipPath35)" points=" 410 319 401 322 401 315" stroke="none"/>
<polygon fill="none" clip-path="url(#clipPath35)" points=" 410 319 401 322 401 315" stroke="black"/>
</g>
</g>
</svg>