<?xml version="1.0" encoding="UTF-8" standalone="no"?>
<svg
   xmlns:dc="http://purl.org/dc/elements/1.1/"
   xmlns:cc="http://creativecommons.org/ns#"
   xmlns:rdf="http://www.w3.org/1999/02/22-rdf-syntax-ns#"
   xmlns:svg="http://www.w3.org/2000/svg"
   xmlns="http://www.w3.org/2000/svg"
   xmlns:sodipodi="http://sodipodi.sourceforge.net/DTD/sodipodi-0.dtd"
   xmlns:inkscape="http://www.inkscape.org/namespaces/inkscape"
   width="210mm"
   height="297mm"
   viewBox="0 0 210 297"
   version="1.1"
   id="svg8"
   inkscape:version="1.0.2 (e86c870879, 2021-01-15)"
   sodipodi:docname="mvis.svg">
  <defs
     id="defs2">
    <marker
       style="overflow:visible;"
       id="marker4199"
       refX="0.0"
       refY="0.0"
       orient="auto"
       inkscape:stockid="Arrow2Lend"
       inkscape:isstock="true">
      <path
         transform="scale(1.1) rotate(180) translate(1,0)"
         d="M 8.7185878,4.0337352 L -2.2072895,0.016013256 L 8.7185884,-4.0017078 C 6.9730900,-1.6296469 6.9831476,1.6157441 8.7185878,4.0337352 z "
         style="fill-rule:evenodd;stroke-width:0.625;stroke-linejoin:round;stroke:#000000;stroke-opacity:1;fill:#000000;fill-opacity:1"
         id="path4197" />
    </marker>
    <marker
       style="overflow:visible;"
       id="marker4189"
       refX="0.0"
       refY="0.0"
       orient="auto"
       inkscape:stockid="Arrow2Lend"
       inkscape:isstock="true">
      <path
         transform="scale(1.1) rotate(180) translate(1,0)"
         d="M 8.7185878,4.0337352 L -2.2072895,0.016013256 L 8.7185884,-4.0017078 C 6.9730900,-1.6296469 6.9831476,1.6157441 8.7185878,4.0337352 z "
         style="fill-rule:evenodd;stroke-width:0.625;stroke-linejoin:round;stroke:#000000;stroke-opacity:1;fill:#000000;fill-opacity:1"
         id="path4187" />
    </marker>
    <marker
       style="overflow:visible;"
       id="marker3535"
       refX="0.0"
       refY="0.0"
       orient="auto"
       inkscape:stockid="Arrow2Lend"
       inkscape:isstock="true">
      <path
         transform="scale(1.1) rotate(180) translate(1,0)"
         d="M 8.7185878,4.0337352 L -2.2072895,0.016013256 L 8.7185884,-4.0017078 C 6.9730900,-1.6296469 6.9831476,1.6157441 8.7185878,4.0337352 z "
         style="fill-rule:evenodd;stroke-width:0.625;stroke-linejoin:round;stroke:#000000;stroke-opacity:1;fill:#000000;fill-opacity:1"
         id="path3533" />
    </marker>
    <marker
       style="overflow:visible;"
       id="marker3525"
       refX="0.0"
       refY="0.0"
       orient="auto"
       inkscape:stockid="Arrow2Lend"
       inkscape:isstock="true">
      <path
         transform="scale(1.1) rotate(180) translate(1,0)"
         d="M 8.7185878,4.0337352 L -2.2072895,0.016013256 L 8.7185884,-4.0017078 C 6.9730900,-1.6296469 6.9831476,1.6157441 8.7185878,4.0337352 z "
         style="fill-rule:evenodd;stroke-width:0.625;stroke-linejoin:round;stroke:#000000;stroke-opacity:1;fill:#000000;fill-opacity:1"
         id="path3523" />
    </marker>
    <marker
       style="overflow:visible;"
       id="marker3425"
       refX="0.0"
       refY="0.0"
       orient="auto"
       inkscape:stockid="Arrow2Lend"
       inkscape:isstock="true">
      <path
         transform="scale(1.1) rotate(180) translate(1,0)"
         d="M 8.7185878,4.0337352 L -2.2072895,0.016013256 L 8.7185884,-4.0017078 C 6.9730900,-1.6296469 6.9831476,1.6157441 8.7185878,4.0337352 z "
         style="fill-rule:evenodd;stroke-width:0.625;stroke-linejoin:round;stroke:#000000;stroke-opacity:1;fill:#000000;fill-opacity:1"
         id="path3423" />
    </marker>
    <marker
       style="overflow:visible;"
       id="marker3331"
       refX="0.0"
       refY="0.0"
       orient="auto"
       inkscape:stockid="Arrow2Lend"
       inkscape:isstock="true">
      <path
         transform="scale(1.1) rotate(180) translate(1,0)"
         d="M 8.7185878,4.0337352 L -2.2072895,0.016013256 L 8.7185884,-4.0017078 C 6.9730900,-1.6296469 6.9831476,1.6157441 8.7185878,4.0337352 z "
         style="fill-rule:evenodd;stroke-width:0.625;stroke-linejoin:round;stroke:#000000;stroke-opacity:1;fill:#000000;fill-opacity:1"
         id="path3329" />
    </marker>
    <marker
       style="overflow:visible;"
       id="marker3243"
       refX="0.0"
       refY="0.0"
       orient="auto"
       inkscape:stockid="Arrow2Lend"
       inkscape:isstock="true">
      <path
         transform="scale(1.1) rotate(180) translate(1,0)"
         d="M 8.7185878,4.0337352 L -2.2072895,0.016013256 L 8.7185884,-4.0017078 C 6.9730900,-1.6296469 6.9831476,1.6157441 8.7185878,4.0337352 z "
         style="fill-rule:evenodd;stroke-width:0.625;stroke-linejoin:round;stroke:#000000;stroke-opacity:1;fill:#000000;fill-opacity:1"
         id="path3241" />
    </marker>
    <marker
       style="overflow:visible;"
       id="marker3161"
       refX="0.0"
       refY="0.0"
       orient="auto"
       inkscape:stockid="Arrow2Lend"
       inkscape:isstock="true">
      <path
         transform="scale(1.1) rotate(180) translate(1,0)"
         d="M 8.7185878,4.0337352 L -2.2072895,0.016013256 L 8.7185884,-4.0017078 C 6.9730900,-1.6296469 6.9831476,1.6157441 8.7185878,4.0337352 z "
         style="fill-rule:evenodd;stroke-width:0.625;stroke-linejoin:round;stroke:#000000;stroke-opacity:1;fill:#000000;fill-opacity:1"
         id="path3159" />
    </marker>
    <marker
       style="overflow:visible;"
       id="marker3085"
       refX="0.0"
       refY="0.0"
       orient="auto"
       inkscape:stockid="Arrow2Lend"
       inkscape:isstock="true">
      <path
         transform="scale(1.1) rotate(180) translate(1,0)"
         d="M 8.7185878,4.0337352 L -2.2072895,0.016013256 L 8.7185884,-4.0017078 C 6.9730900,-1.6296469 6.9831476,1.6157441 8.7185878,4.0337352 z "
         style="fill-rule:evenodd;stroke-width:0.625;stroke-linejoin:round;stroke:#000000;stroke-opacity:1;fill:#000000;fill-opacity:1"
         id="path3083" />
    </marker>
    <marker
       style="overflow:visible;"
       id="marker3015"
       refX="0.0"
       refY="0.0"
       orient="auto"
       inkscape:stockid="Arrow2Lend"
       inkscape:isstock="true">
      <path
         transform="scale(1.1) rotate(180) translate(1,0)"
         d="M 8.7185878,4.0337352 L -2.2072895,0.016013256 L 8.7185884,-4.0017078 C 6.9730900,-1.6296469 6.9831476,1.6157441 8.7185878,4.0337352 z "
         style="fill-rule:evenodd;stroke-width:0.625;stroke-linejoin:round;stroke:#000000;stroke-opacity:1;fill:#000000;fill-opacity:1"
         id="path3013" />
    </marker>
    <marker
       style="overflow:visible;"
       id="marker2913"
       refX="0.0"
       refY="0.0"
       orient="auto"
       inkscape:stockid="Arrow2Lend"
       inkscape:isstock="true">
      <path
         transform="scale(1.1) rotate(180) translate(1,0)"
         d="M 8.7185878,4.0337352 L -2.2072895,0.016013256 L 8.7185884,-4.0017078 C 6.9730900,-1.6296469 6.9831476,1.6157441 8.7185878,4.0337352 z "
         style="fill-rule:evenodd;stroke-width:0.625;stroke-linejoin:round;stroke:#000000;stroke-opacity:1;fill:#000000;fill-opacity:1"
         id="path2911" />
    </marker>
    <marker
       style="overflow:visible;"
       id="marker2631"
       refX="0.0"
       refY="0.0"
       orient="auto"
       inkscape:stockid="Arrow2Lend"
       inkscape:isstock="true">
      <path
         transform="scale(1.1) rotate(180) translate(1,0)"
         d="M 8.7185878,4.0337352 L -2.2072895,0.016013256 L 8.7185884,-4.0017078 C 6.9730900,-1.6296469 6.9831476,1.6157441 8.7185878,4.0337352 z "
         style="fill-rule:evenodd;stroke-width:0.625;stroke-linejoin:round;stroke:#000000;stroke-opacity:1;fill:#000000;fill-opacity:1"
         id="path2629" />
    </marker>
    <marker
       style="overflow:visible;"
       id="marker2585"
       refX="0.0"
       refY="0.0"
       orient="auto"
       inkscape:stockid="Arrow2Lend"
       inkscape:isstock="true">
      <path
         transform="scale(1.1) rotate(180) translate(1,0)"
         d="M 8.7185878,4.0337352 L -2.2072895,0.016013256 L 8.7185884,-4.0017078 C 6.9730900,-1.6296469 6.9831476,1.6157441 8.7185878,4.0337352 z "
         style="fill-rule:evenodd;stroke-width:0.625;stroke-linejoin:round;stroke:#000000;stroke-opacity:1;fill:#000000;fill-opacity:1"
         id="path2583" />
    </marker>
    <marker
       style="overflow:visible;"
       id="marker2545"
       refX="0.0"
       refY="0.0"
       orient="auto"
       inkscape:stockid="Arrow2Lend"
       inkscape:isstock="true">
      <path
         transform="scale(1.1) rotate(180) translate(1,0)"
         d="M 8.7185878,4.0337352 L -2.2072895,0.016013256 L 8.7185884,-4.0017078 C 6.9730900,-1.6296469 6.9831476,1.6157441 8.7185878,4.0337352 z "
         style="fill-rule:evenodd;stroke-width:0.625;stroke-linejoin:round;stroke:#000000;stroke-opacity:1;fill:#000000;fill-opacity:1"
         id="path2543" />
    </marker>
    <marker
       style="overflow:visible;"
       id="marker2511"
       refX="0.0"
       refY="0.0"
       orient="auto"
       inkscape:stockid="Arrow2Lend"
       inkscape:isstock="true">
      <path
         transform="scale(1.1) rotate(180) translate(1,0)"
         d="M 8.7185878,4.0337352 L -2.2072895,0.016013256 L 8.7185884,-4.0017078 C 6.9730900,-1.6296469 6.9831476,1.6157441 8.7185878,4.0337352 z "
         style="fill-rule:evenodd;stroke-width:0.625;stroke-linejoin:round;stroke:#000000;stroke-opacity:1;fill:#000000;fill-opacity:1"
         id="path2509" />
    </marker>
    <marker
       style="overflow:visible;"
       id="marker2429"
       refX="0.0"
       refY="0.0"
       orient="auto"
       inkscape:stockid="Arrow2Lend"
       inkscape:isstock="true"
       inkscape:collect="always">
      <path
         transform="scale(1.1) rotate(180) translate(1,0)"
         d="M 8.7185878,4.0337352 L -2.2072895,0.016013256 L 8.7185884,-4.0017078 C 6.9730900,-1.6296469 6.9831476,1.6157441 8.7185878,4.0337352 z "
         style="fill-rule:evenodd;stroke-width:0.625;stroke-linejoin:round;stroke:#000000;stroke-opacity:1;fill:#000000;fill-opacity:1"
         id="path2427" />
    </marker>
    <marker
       style="overflow:visible;"
       id="Arrow2Lend"
       refX="0.0"
       refY="0.0"
       orient="auto"
       inkscape:stockid="Arrow2Lend"
       inkscape:isstock="true"
       inkscape:collect="always">
      <path
         transform="scale(1.1) rotate(180) translate(1,0)"
         d="M 8.7185878,4.0337352 L -2.2072895,0.016013256 L 8.7185884,-4.0017078 C 6.9730900,-1.6296469 6.9831476,1.6157441 8.7185878,4.0337352 z "
         style="fill-rule:evenodd;stroke-width:0.625;stroke-linejoin:round;stroke:#000000;stroke-opacity:1;fill:#000000;fill-opacity:1"
         id="path2151" />
    </marker>
  </defs>
  <sodipodi:namedview
     id="base"
     pagecolor="#ffffff"
     bordercolor="#666666"
     borderopacity="1.0"
     inkscape:pageopacity="0.0"
     inkscape:pageshadow="2"
     inkscape:zoom="0.49497475"
     inkscape:cx="630.04527"
     inkscape:cy="397.81942"
     inkscape:document-units="mm"
     inkscape:current-layer="layer1"
     inkscape:document-rotation="0"
     showgrid="false"
     inkscape:snap-global="false"
     inkscape:window-width="1528"
     inkscape:window-height="836"
     inkscape:window-x="72"
     inkscape:window-y="27"
     inkscape:window-maximized="1">
    <inkscape:grid
       type="xygrid"
       id="grid10" />
  </sodipodi:namedview>
  <metadata
     id="metadata5">
    <rdf:RDF>
      <cc:Work
         rdf:about="">
        <dc:format>image/svg+xml</dc:format>
        <dc:type
           rdf:resource="http://purl.org/dc/dcmitype/StillImage" />
        <dc:title></dc:title>
      </cc:Work>
    </rdf:RDF>
  </metadata>
  <g
     inkscape:label="Layer 1"
     inkscape:groupmode="layer"
     id="layer1">
    <g
       id="g1516">
      <rect
         style="fill:#ffffff;stroke:#000000;stroke-width:0.165"
         id="rect1119"
         width="83.951195"
         height="8.1123028"
         x="53.068306"
         y="4.9954567"
         ry="1.2449468" />
      <text
         xml:space="preserve"
         style="font-size:3.52778px;line-height:1.25;font-family:Verdana;-inkscape-font-specification:Verdana;text-align:center;letter-spacing:0px;word-spacing:0px;text-anchor:middle;stroke-width:0.264583"
         x="94.957779"
         y="10.027432"
         id="text14"><tspan
           sodipodi:role="line"
           id="tspan12"
           x="94.957779"
           y="10.027432"
           style="font-size:3.52778px;text-align:center;text-anchor:middle;stroke-width:0.264583">ModelRepositoryReaderStage : readerStage</tspan></text>
    </g>
    <text
       xml:space="preserve"
       style="font-size:3.52777778px;line-height:1.25;font-family:Verdana;-inkscape-font-specification:Verdana;letter-spacing:0px;word-spacing:0px;stroke-width:0.264583;"
       x="55.5625"
       y="10.583333"
       id="text18"><tspan
         sodipodi:role="line"
         id="tspan16"
         x="55.5625"
         y="10.583333"
         style="stroke-width:0.264583;font-size:3.52777778px;" /></text>
    <text
       xml:space="preserve"
       style="font-size:7.05556px;line-height:1.25;font-family:Verdana;-inkscape-font-specification:Verdana;letter-spacing:0px;word-spacing:0px;stroke-width:0.264583"
       x="74.083336"
       y="7.9375"
       id="text26"><tspan
         sodipodi:role="line"
         id="tspan24"
         x="74.083336"
         y="7.9375"
         style="stroke-width:0.264583" /></text>
    <g
       id="g1521"
       transform="translate(100.24432,176.95627)">
      <rect
         style="fill:#ffffff;stroke:#000000;stroke-width:0.163973"
         id="rect1119-4"
         width="81.32003"
         height="8.1429701"
         x="54.383888"
         y="17.680885"
         ry="1.2451038" />
      <text
         xml:space="preserve"
         style="font-size:3.52778px;line-height:1.25;font-family:Verdana;-inkscape-font-specification:Verdana;text-align:center;letter-spacing:0px;word-spacing:0px;text-anchor:middle;stroke-width:0.264583"
         x="95.130028"
         y="22.697189"
         id="text14-3"><tspan
           sodipodi:role="line"
           id="tspan12-6"
           x="95.130028"
           y="22.697189"
           style="font-size:3.52778px;text-align:center;text-anchor:middle;stroke-width:0.264583">TriggerOnTerminationStage : triggerStage</tspan></text>
    </g>
    <g
       id="g1526"
       transform="translate(0.29633881,-8.9041098)">
      <rect
         style="fill:#ffffff;stroke:#000000;stroke-width:0.180573"
         id="rect1119-7"
         width="98.819427"
         height="8.1263704"
         x="45.63419"
         y="30.28886"
         ry="1.2425658" />
      <text
         xml:space="preserve"
         style="font-size:3.52778px;line-height:1.25;font-family:Verdana;-inkscape-font-specification:Verdana;text-align:center;letter-spacing:0px;word-spacing:0px;text-anchor:middle;stroke-width:0.264583"
         x="94.864761"
         y="35.337345"
         id="text14-35"><tspan
           sodipodi:role="line"
           id="tspan12-62"
           x="94.864761"
           y="35.337345"
           style="font-size:3.52778px;text-align:center;text-anchor:middle;stroke-width:0.264583">Distributor&lt;ModelRepository&gt; : statisticsDistributor</tspan></text>
    </g>
    <g
       id="g1586"
       transform="translate(107.49005,14.77998)">
      <rect
         style="fill:#ffffff;stroke:#000000;stroke-width:0.145189"
         id="rect1119-6"
         width="63.60881"
         height="8.1617546"
         x="63.239498"
         y="81.303162"
         ry="1.2479761" />
      <text
         xml:space="preserve"
         style="font-size:3.52778px;line-height:1.25;font-family:Verdana;-inkscape-font-specification:Verdana;text-align:center;letter-spacing:0px;word-spacing:0px;text-anchor:middle;stroke-width:0.264583"
         x="95.055099"
         y="86.368477"
         id="text14-61"><tspan
           sodipodi:role="line"
           id="tspan12-8"
           x="95.055099"
           y="86.368477"
           style="font-size:3.52778px;text-align:center;text-anchor:middle;stroke-width:0.264583">TableCSVSink : functionCallSink</tspan></text>
    </g>
    <g
       id="g1655"
       transform="translate(-34.331411,50.971189)">
      <rect
         style="fill:#ffffff;stroke:#000000;stroke-width:0.166097"
         id="rect1119-8"
         width="83.461906"
         height="8.1408463"
         x="195.13441"
         y="31.114347"
         ry="1.2447791" />
      <text
         xml:space="preserve"
         style="font-size:3.52778px;line-height:1.25;font-family:Verdana;-inkscape-font-specification:Verdana;text-align:center;letter-spacing:0px;word-spacing:0px;text-anchor:middle;stroke-width:0.264583"
         x="236.77924"
         y="36.169209"
         id="text14-23"><tspan
           sodipodi:role="line"
           id="tspan12-75"
           x="236.77924"
           y="36.169209"
           style="font-size:3.52778px;text-align:center;text-anchor:middle;stroke-width:0.264583">NumberOfCallsStage : numberOfCallsStage</tspan></text>
    </g>
    <g
       id="g1645"
       transform="translate(-40.843687,204.02399)">
      <rect
         style="fill:#ffffff;stroke:#000000;stroke-width:0.160945"
         id="rect1119-54"
         width="78.315056"
         height="8.145998"
         x="197.70784"
         y="5.1348038"
         ry="1.2455668" />
      <text
         xml:space="preserve"
         style="font-size:3.52778px;line-height:1.25;font-family:Verdana;-inkscape-font-specification:Verdana;text-align:center;letter-spacing:0px;word-spacing:0px;text-anchor:middle;stroke-width:0.264583"
         x="236.68622"
         y="10.183627"
         id="text14-7"><tspan
           sodipodi:role="line"
           id="tspan12-5"
           x="236.68622"
           y="10.183627"
           style="font-size:3.52778px;text-align:center;text-anchor:middle;stroke-width:0.264583">Distributor&lt;Trigger&gt; : triggerDistributor</tspan></text>
    </g>
    <g
       id="g1576"
       transform="translate(117.19154,83.788314)">
      <rect
         style="fill:#ffffff;stroke:#000000;stroke-width:0.173432"
         id="rect1119-0"
         width="91.078568"
         height="8.1335106"
         x="49.50462"
         y="56.333546"
         ry="1.2436575" />
      <g
         aria-label="ModuleCallGraphStage : moduleCallGraphStage"
         id="text14-9"
         style="font-size:3.52778px;line-height:1.25;font-family:Verdana;-inkscape-font-specification:Verdana;text-align:center;letter-spacing:0px;word-spacing:0px;text-anchor:middle;stroke-width:0.264583"
         transform="translate(-5.5299201,0.05036098)">
        <path
           d="m 60.765717,61.325764 h -0.341064 v -2.21003 l -0.713136,1.503785 h -0.20326 l -0.707968,-1.503785 v 2.21003 h -0.318672 v -2.564876 h 0.465089 l 0.683851,1.427993 0.661459,-1.427993 h 0.473701 z"
           style="font-size:3.52778px;text-align:center;text-anchor:middle;stroke-width:0.264583"
           id="path1339" />
        <path
           d="m 63.068765,60.364581 q 0,0.470256 -0.241157,0.742419 -0.241157,0.272163 -0.645956,0.272163 -0.408244,0 -0.649401,-0.272163 -0.239434,-0.272163 -0.239434,-0.742419 0,-0.470255 0.239434,-0.742418 0.241157,-0.273885 0.649401,-0.273885 0.404799,0 0.645956,0.273885 0.241157,0.272163 0.241157,0.742418 z m -0.334175,0 q 0,-0.373793 -0.146416,-0.55466 -0.146417,-0.18259 -0.406522,-0.18259 -0.26355,0 -0.409966,0.18259 -0.144694,0.180867 -0.144694,0.55466 0,0.361736 0.146416,0.549494 0.146417,0.186035 0.408244,0.186035 0.258383,0 0.404799,-0.184313 0.148139,-0.186035 0.148139,-0.551216 z"
           style="font-size:3.52778px;text-align:center;text-anchor:middle;stroke-width:0.264583"
           id="path1341" />
        <path
           d="m 65.130656,61.325764 h -0.323839 v -0.201539 q -0.139527,0.120579 -0.291111,0.187758 -0.151584,0.06718 -0.329007,0.06718 -0.34451,0 -0.547771,-0.265273 -0.201538,-0.265272 -0.201538,-0.735528 0,-0.244602 0.0689,-0.435805 0.07062,-0.191203 0.189481,-0.325562 0.117133,-0.130913 0.272162,-0.199815 0.156752,-0.0689 0.323839,-0.0689 0.151585,0 0.268718,0.03273 0.117133,0.03101 0.246325,0.09819 v -0.833713 h 0.323839 z m -0.323839,-0.473701 v -1.104154 q -0.130914,-0.05857 -0.234267,-0.08096 -0.103353,-0.02239 -0.225654,-0.02239 -0.272163,0 -0.423747,0.18948 -0.151584,0.189481 -0.151584,0.537436 0,0.342787 0.117133,0.521932 0.117133,0.177422 0.375516,0.177422 0.137804,0 0.279053,-0.06029 0.141249,-0.06201 0.26355,-0.158474 z"
           style="font-size:3.52778px;text-align:center;text-anchor:middle;stroke-width:0.264583"
           id="path1343" />
        <path
           d="M 67.363079,61.325764 H 67.03924 v -0.213596 q -0.163642,0.129191 -0.313504,0.198093 -0.149862,0.0689 -0.330729,0.0689 -0.303169,0 -0.471979,-0.184313 -0.16881,-0.186035 -0.16881,-0.544325 v -1.248848 h 0.32384 v 1.095541 q 0,0.146416 0.01378,0.251492 0.01378,0.103353 0.05857,0.177422 0.04651,0.07579 0.120578,0.110243 0.07407,0.03445 0.215319,0.03445 0.125746,0 0.273885,-0.06546 0.149862,-0.06546 0.279053,-0.167088 V 59.40167 h 0.323839 z"
           style="font-size:3.52778px;text-align:center;text-anchor:middle;stroke-width:0.264583"
           id="path1345" />
        <path
           d="m 68.327707,61.325764 h -0.323839 v -2.680286 h 0.323839 z"
           style="font-size:3.52778px;text-align:center;text-anchor:middle;stroke-width:0.264583"
           id="path1347" />
        <path
           d="M 70.579078,60.39731 H 69.16142 q 0,0.177422 0.0534,0.310059 0.0534,0.130913 0.146417,0.215318 0.08957,0.08268 0.211873,0.124024 0.124024,0.04134 0.272163,0.04134 0.19637,0 0.394464,-0.07751 0.199815,-0.07924 0.28422,-0.155029 h 0.01723 v 0.353122 q -0.163643,0.0689 -0.334175,0.115411 -0.170532,0.04651 -0.35829,0.04651 -0.478869,0 -0.747586,-0.258382 -0.268718,-0.260105 -0.268718,-0.737251 0,-0.471979 0.25666,-0.749309 0.258382,-0.27733 0.678684,-0.27733 0.389296,0 0.599447,0.227376 0.211874,0.227377 0.211874,0.645956 z m -0.315227,-0.248047 q -0.0017,-0.254937 -0.129191,-0.394464 -0.125746,-0.139526 -0.384128,-0.139526 -0.260105,0 -0.415135,0.153307 -0.153306,0.153306 -0.173977,0.380683 z"
           style="font-size:3.52778px;text-align:center;text-anchor:middle;stroke-width:0.264583"
           id="path1349" />
        <path
           d="m 73.076774,61.139728 q -0.09474,0.04134 -0.172255,0.07752 -0.07579,0.03617 -0.199816,0.07579 -0.105075,0.03273 -0.229099,0.05512 -0.122301,0.02412 -0.27044,0.02412 -0.279053,0 -0.508152,-0.07751 -0.227376,-0.07924 -0.396186,-0.246325 -0.165365,-0.163642 -0.258382,-0.415134 -0.09302,-0.253215 -0.09302,-0.587389 0,-0.316949 0.08957,-0.566719 0.08957,-0.249769 0.258382,-0.422024 0.163642,-0.167087 0.394464,-0.254937 0.232544,-0.08785 0.515042,-0.08785 0.206706,0 0.411689,0.04995 0.206706,0.04995 0.458198,0.1757 v 0.404799 h -0.02584 q -0.211874,-0.177423 -0.420302,-0.258383 -0.208429,-0.08096 -0.44614,-0.08096 -0.194648,0 -0.3514,0.06374 -0.15503,0.06201 -0.277331,0.194648 -0.118856,0.129191 -0.186035,0.327284 -0.06546,0.196371 -0.06546,0.454753 0,0.27044 0.07235,0.465088 0.07407,0.194648 0.189481,0.316949 0.120578,0.127469 0.280775,0.18948 0.16192,0.06029 0.341065,0.06029 0.246324,0 0.461643,-0.0844 0.215318,-0.08441 0.403076,-0.253215 h 0.02412 z"
           style="font-size:3.52778px;text-align:center;text-anchor:middle;stroke-width:0.264583"
           id="path1351" />
        <path
           d="M 75.028421,61.325764 H 74.706305 V 61.12078 q -0.04306,0.02928 -0.117134,0.08268 -0.07235,0.05168 -0.141249,0.08268 -0.08096,0.03962 -0.186035,0.06546 -0.105075,0.02756 -0.246324,0.02756 -0.260105,0 -0.440973,-0.172255 -0.180867,-0.172255 -0.180867,-0.43925 0,-0.218764 0.09302,-0.353123 0.09474,-0.136081 0.268718,-0.213596 0.1757,-0.07751 0.422024,-0.105075 0.246325,-0.02756 0.528823,-0.04134 v -0.04995 q 0,-0.110243 -0.03962,-0.18259 -0.0379,-0.07235 -0.110243,-0.113689 -0.0689,-0.03962 -0.165365,-0.0534 -0.09646,-0.01378 -0.201538,-0.01378 -0.127469,0 -0.28422,0.03445 -0.156752,0.03273 -0.32384,0.09646 h -0.01722 v -0.329007 q 0.09474,-0.02584 0.273885,-0.05684 0.179145,-0.03101 0.353123,-0.03101 0.20326,0 0.353122,0.03445 0.151584,0.03273 0.261828,0.113688 0.10852,0.07924 0.165364,0.204983 0.05684,0.125746 0.05684,0.311782 z M 74.706305,60.852063 V 60.31635 q -0.148139,0.0086 -0.349678,0.02584 -0.199815,0.01723 -0.316949,0.04995 -0.139526,0.03962 -0.225654,0.124024 -0.08613,0.08268 -0.08613,0.229099 0,0.165364 0.09991,0.249769 0.09991,0.08268 0.304891,0.08268 0.170532,0 0.311781,-0.06546 0.141249,-0.06718 0.261828,-0.160197 z"
           style="font-size:3.52778px;text-align:center;text-anchor:middle;stroke-width:0.264583"
           id="path1353" />
        <path
           d="m 75.979269,61.325764 h -0.32384 v -2.680286 h 0.32384 z"
           style="font-size:3.52778px;text-align:center;text-anchor:middle;stroke-width:0.264583"
           id="path1355" />
        <path
           d="m 76.947341,61.325764 h -0.323839 v -2.680286 h 0.323839 z"
           style="font-size:3.52778px;text-align:center;text-anchor:middle;stroke-width:0.264583"
           id="path1357" />
        <path
           d="m 79.753374,61.136283 q -0.210151,0.09646 -0.459921,0.16881 -0.248047,0.07062 -0.480591,0.07062 -0.299723,0 -0.549493,-0.08268 -0.249769,-0.08268 -0.425469,-0.248047 -0.177423,-0.167087 -0.273886,-0.416857 -0.09646,-0.251492 -0.09646,-0.587389 0,-0.61495 0.35829,-0.969795 0.360013,-0.356567 0.98702,-0.356567 0.218764,0 0.44614,0.0534 0.229099,0.05168 0.492649,0.177422 V 59.35 h -0.031 q -0.0534,-0.04134 -0.15503,-0.10852 -0.10163,-0.06718 -0.199815,-0.111966 -0.118856,-0.0534 -0.270441,-0.08785 -0.149861,-0.03617 -0.341064,-0.03617 -0.430638,0 -0.68213,0.277331 -0.249769,0.275608 -0.249769,0.747586 0,0.497817 0.261827,0.775147 0.261828,0.275608 0.713135,0.275608 0.165365,0 0.329007,-0.03273 0.165365,-0.03273 0.289388,-0.08441 v -0.62873 h -0.687297 v -0.299723 h 1.024917 z"
           style="font-size:3.52778px;text-align:center;text-anchor:middle;stroke-width:0.264583"
           id="path1359" />
        <path
           d="m 81.524154,59.754799 h -0.01723 q -0.07235,-0.01722 -0.141249,-0.02412 -0.06718,-0.0086 -0.160197,-0.0086 -0.149862,0 -0.289388,0.06718 -0.139527,0.06546 -0.268718,0.170532 v 1.365982 h -0.323839 v -1.924087 h 0.323839 v 0.28422 q 0.192926,-0.155029 0.339342,-0.218764 0.148139,-0.06546 0.301446,-0.06546 0.08441,0 0.122301,0.0052 0.0379,0.0034 0.113689,0.0155 z"
           style="font-size:3.52778px;text-align:center;text-anchor:middle;stroke-width:0.264583"
           id="path1361" />
        <path
           d="M 83.262206,61.325764 H 82.940089 V 61.12078 q -0.04306,0.02928 -0.117133,0.08268 -0.07235,0.05168 -0.141249,0.08268 -0.08096,0.03962 -0.186035,0.06546 -0.105076,0.02756 -0.246325,0.02756 -0.260105,0 -0.440972,-0.172255 -0.180868,-0.172255 -0.180868,-0.43925 0,-0.218764 0.09302,-0.353123 0.09474,-0.136081 0.268717,-0.213596 0.1757,-0.07751 0.422025,-0.105075 0.246324,-0.02756 0.528822,-0.04134 v -0.04995 q 0,-0.110243 -0.03962,-0.18259 -0.0379,-0.07235 -0.110243,-0.113689 -0.0689,-0.03962 -0.165365,-0.0534 -0.09646,-0.01378 -0.201538,-0.01378 -0.127469,0 -0.284221,0.03445 -0.156752,0.03273 -0.323839,0.09646 h -0.01722 v -0.329007 q 0.09474,-0.02584 0.273885,-0.05684 0.179145,-0.03101 0.353122,-0.03101 0.203261,0 0.353123,0.03445 0.151584,0.03273 0.261827,0.113688 0.108521,0.07924 0.165365,0.204983 0.05684,0.125746 0.05684,0.311782 z M 82.940089,60.852063 V 60.31635 q -0.148139,0.0086 -0.349677,0.02584 -0.199816,0.01723 -0.316949,0.04995 -0.139526,0.03962 -0.225654,0.124024 -0.08613,0.08268 -0.08613,0.229099 0,0.165364 0.09991,0.249769 0.09991,0.08268 0.304891,0.08268 0.170532,0 0.311781,-0.06546 0.141249,-0.06718 0.261827,-0.160197 z"
           style="font-size:3.52778px;text-align:center;text-anchor:middle;stroke-width:0.264583"
           id="path1363" />
        <path
           d="m 85.579034,60.340466 q 0,0.234266 -0.06718,0.428914 -0.06718,0.192926 -0.18948,0.327285 -0.113688,0.127468 -0.268718,0.198093 -0.153307,0.0689 -0.325562,0.0689 -0.149861,0 -0.272162,-0.03273 -0.120579,-0.03273 -0.246325,-0.10163 v 0.806153 h -0.323839 v -2.633777 h 0.323839 v 0.201538 q 0.129191,-0.108521 0.289388,-0.180868 0.16192,-0.07407 0.34451,-0.07407 0.347955,0 0.540881,0.26355 0.194648,0.261827 0.194648,0.728638 z m -0.334175,0.0086 q 0,-0.347955 -0.118856,-0.52021 -0.118856,-0.172255 -0.36518,-0.172255 -0.139527,0 -0.280776,0.06029 -0.141249,0.06029 -0.27044,0.158475 v 1.090373 q 0.137804,0.06201 0.235989,0.08441 0.09991,0.02239 0.225654,0.02239 0.27044,0 0.422025,-0.18259 0.151584,-0.18259 0.151584,-0.54088 z"
           style="font-size:3.52778px;text-align:center;text-anchor:middle;stroke-width:0.264583"
           id="path1365" />
        <path
           d="m 87.6926,61.325764 h -0.323839 v -1.095541 q 0,-0.132637 -0.0155,-0.248047 -0.0155,-0.117134 -0.05684,-0.182591 -0.04306,-0.07235 -0.124024,-0.106798 -0.08096,-0.03617 -0.210151,-0.03617 -0.132636,0 -0.27733,0.06546 -0.144694,0.06546 -0.27733,0.167087 v 1.436606 h -0.32384 v -2.680286 h 0.32384 v 0.969795 q 0.151584,-0.125746 0.313503,-0.196371 0.16192,-0.07062 0.332452,-0.07062 0.311782,0 0.475424,0.187757 0.163642,0.187758 0.163642,0.540881 z"
           style="font-size:3.52778px;text-align:center;text-anchor:middle;stroke-width:0.264583"
           id="path1367" />
        <path
           d="m 90.205799,60.59368 q 0,0.149862 -0.07062,0.296279 -0.0689,0.146416 -0.194648,0.248047 -0.137804,0.110243 -0.322117,0.172255 -0.18259,0.06201 -0.440972,0.06201 -0.277331,0 -0.49954,-0.05168 -0.220486,-0.05168 -0.449585,-0.153307 v -0.427192 h 0.02412 q 0.194648,0.16192 0.449585,0.24977 0.254937,0.08785 0.478869,0.08785 0.316949,0 0.492649,-0.118856 0.177422,-0.118856 0.177422,-0.316949 0,-0.170533 -0.08441,-0.251492 -0.08268,-0.08096 -0.253214,-0.125746 -0.129192,-0.03445 -0.280776,-0.05685 -0.149862,-0.02239 -0.318671,-0.05684 -0.341065,-0.07235 -0.50643,-0.246324 -0.163642,-0.1757 -0.163642,-0.456476 0,-0.322116 0.272163,-0.527099 0.272163,-0.206706 0.690742,-0.206706 0.27044,0 0.496094,0.05168 0.225654,0.05168 0.399631,0.127469 v 0.403076 h -0.02411 q -0.146417,-0.124023 -0.385851,-0.204983 -0.237712,-0.08268 -0.487482,-0.08268 -0.273885,0 -0.440972,0.113689 -0.165365,0.113688 -0.165365,0.292833 0,0.160197 0.08268,0.251492 0.08268,0.09129 0.29111,0.139527 0.110243,0.02411 0.313504,0.05857 0.203261,0.03445 0.34451,0.07062 0.285943,0.07579 0.430637,0.229099 0.144694,0.153307 0.144694,0.428914 z"
           style="font-size:3.52778px;text-align:center;text-anchor:middle;stroke-width:0.264583"
           id="path1369" />
        <path
           d="m 91.726811,61.308538 q -0.0913,0.02412 -0.199816,0.03962 -0.106798,0.0155 -0.191203,0.0155 -0.294555,0 -0.447862,-0.158475 -0.153307,-0.158474 -0.153307,-0.508152 v -1.023194 h -0.218764 v -0.272162 h 0.218764 v -0.552939 h 0.323839 v 0.552939 h 0.668349 v 0.272162 h -0.668349 v 0.876778 q 0,0.151584 0.0069,0.237711 0.0069,0.0844 0.04823,0.158475 0.0379,0.0689 0.103353,0.10163 0.06718,0.03101 0.20326,0.03101 0.07924,0 0.165365,-0.02239 0.08613,-0.02412 0.124024,-0.03962 h 0.01722 z"
           style="font-size:3.52778px;text-align:center;text-anchor:middle;stroke-width:0.264583"
           id="path1371" />
        <path
           d="M 93.613,61.325764 H 93.290883 V 61.12078 q -0.04306,0.02928 -0.117133,0.08268 -0.07235,0.05168 -0.141249,0.08268 -0.08096,0.03962 -0.186035,0.06546 -0.105076,0.02756 -0.246325,0.02756 -0.260105,0 -0.440972,-0.172255 -0.180868,-0.172255 -0.180868,-0.43925 0,-0.218764 0.09302,-0.353123 0.09474,-0.136081 0.268717,-0.213596 0.1757,-0.07751 0.422025,-0.105075 0.246324,-0.02756 0.528822,-0.04134 v -0.04995 q 0,-0.110243 -0.03962,-0.18259 -0.0379,-0.07235 -0.110243,-0.113689 -0.0689,-0.03962 -0.165365,-0.0534 -0.09646,-0.01378 -0.201538,-0.01378 -0.127469,0 -0.284221,0.03445 -0.156752,0.03273 -0.323839,0.09646 h -0.01723 v -0.329007 q 0.09474,-0.02584 0.273886,-0.05684 0.179145,-0.03101 0.353122,-0.03101 0.203261,0 0.353123,0.03445 0.151584,0.03273 0.261827,0.113688 0.108521,0.07924 0.165365,0.204983 0.05684,0.125746 0.05684,0.311782 z M 93.290883,60.852063 V 60.31635 q -0.148139,0.0086 -0.349677,0.02584 -0.199816,0.01723 -0.316949,0.04995 -0.139527,0.03962 -0.225654,0.124024 -0.08613,0.08268 -0.08613,0.229099 0,0.165364 0.09991,0.249769 0.09991,0.08268 0.304892,0.08268 0.170532,0 0.311781,-0.06546 0.141249,-0.06718 0.261827,-0.160197 z"
           style="font-size:3.52778px;text-align:center;text-anchor:middle;stroke-width:0.264583"
           id="path1373" />
        <path
           d="m 95.797193,61.107 q 0,0.489204 -0.222209,0.718303 -0.222209,0.229099 -0.683852,0.229099 -0.153307,0 -0.299723,-0.02239 -0.144694,-0.02067 -0.285943,-0.06029 v -0.33073 h 0.01723 q 0.07924,0.03101 0.251492,0.07579 0.172255,0.04651 0.34451,0.04651 0.165365,0 0.273885,-0.03962 0.108521,-0.03962 0.16881,-0.110243 0.06029,-0.06718 0.08613,-0.161919 0.02584,-0.09474 0.02584,-0.211874 v -0.1757 q -0.146417,0.117134 -0.280776,0.1757 -0.132636,0.05684 -0.339342,0.05684 -0.34451,0 -0.54777,-0.248047 -0.201538,-0.249769 -0.201538,-0.7028 0,-0.248047 0.0689,-0.427192 0.07063,-0.180867 0.191203,-0.311781 0.111966,-0.122301 0.272163,-0.18948 0.160197,-0.0689 0.318672,-0.0689 0.167087,0 0.279053,0.03445 0.113688,0.03273 0.239434,0.10163 l 0.02067,-0.08268 h 0.303169 z m -0.323839,-0.310059 v -1.049032 q -0.129191,-0.05857 -0.241157,-0.08268 -0.110243,-0.02584 -0.220486,-0.02584 -0.266995,0 -0.420302,0.179145 -0.153307,0.179146 -0.153307,0.52021 0,0.323839 0.113688,0.490927 0.113688,0.167087 0.377238,0.167087 0.141249,0 0.282498,-0.0534 0.142972,-0.05512 0.261828,-0.146417 z"
           style="font-size:3.52778px;text-align:center;text-anchor:middle;stroke-width:0.264583"
           id="path1375" />
        <path
           d="m 98.045118,60.39731 h -1.417657 q 0,0.177422 0.0534,0.310059 0.0534,0.130913 0.146416,0.215318 0.08957,0.08268 0.211874,0.124024 0.124023,0.04134 0.272162,0.04134 0.196371,0 0.394464,-0.07751 0.199816,-0.07924 0.284221,-0.155029 h 0.01722 v 0.353122 q -0.163642,0.0689 -0.334174,0.115411 -0.170533,0.04651 -0.35829,0.04651 -0.478869,0 -0.747587,-0.258382 -0.268717,-0.260105 -0.268717,-0.737251 0,-0.471979 0.25666,-0.749309 0.258382,-0.27733 0.678684,-0.27733 0.389296,0 0.599447,0.227376 0.211873,0.227377 0.211873,0.645956 z m -0.315226,-0.248047 q -0.0017,-0.254937 -0.129191,-0.394464 -0.125746,-0.139526 -0.384129,-0.139526 -0.260105,0 -0.415134,0.153307 -0.153307,0.153306 -0.173977,0.380683 z"
           style="font-size:3.52778px;text-align:center;text-anchor:middle;stroke-width:0.264583"
           id="path1377" />
        <path
           d="m 100.4653,59.892603 h -0.41169 v -0.490926 h 0.41169 z m 0,1.433161 h -0.41169 v -0.490927 h 0.41169 z"
           style="font-size:3.52778px;text-align:center;text-anchor:middle;stroke-width:0.264583"
           id="path1379" />
        <path
           d="m 105.42624,61.325764 h -0.32384 v -1.095541 q 0,-0.124024 -0.0121,-0.239435 -0.0103,-0.11541 -0.0465,-0.184312 -0.0396,-0.07407 -0.11369,-0.111966 -0.0741,-0.0379 -0.2136,-0.0379 -0.13608,0 -0.27216,0.0689 -0.13608,0.06718 -0.27216,0.172255 0.005,0.03962 0.009,0.09302 0.003,0.05168 0.003,0.103353 v 1.231623 h -0.32383 V 60.23022 q 0,-0.127469 -0.0121,-0.241157 -0.0103,-0.115411 -0.0465,-0.184313 -0.0396,-0.07407 -0.11369,-0.110243 -0.0741,-0.0379 -0.2136,-0.0379 -0.13263,0 -0.26699,0.06546 -0.13264,0.06546 -0.26527,0.167087 v 1.436606 h -0.32384 v -1.924087 h 0.32384 v 0.213596 q 0.15158,-0.125746 0.30144,-0.196371 0.15159,-0.07062 0.32212,-0.07062 0.19637,0 0.33245,0.08268 0.13781,0.08268 0.20498,0.229099 0.19638,-0.165365 0.35829,-0.237712 0.16192,-0.07407 0.34624,-0.07407 0.31695,0 0.46681,0.192925 0.15158,0.191203 0.15158,0.535713 z"
           style="font-size:3.52778px;text-align:center;text-anchor:middle;stroke-width:0.264583"
           id="path1381" />
        <path
           d="m 107.68967,60.364581 q 0,0.470256 -0.24116,0.742419 -0.24115,0.272163 -0.64595,0.272163 -0.40825,0 -0.6494,-0.272163 -0.23944,-0.272163 -0.23944,-0.742419 0,-0.470255 0.23944,-0.742418 0.24115,-0.273885 0.6494,-0.273885 0.4048,0 0.64595,0.273885 0.24116,0.272163 0.24116,0.742418 z m -0.33417,0 q 0,-0.373793 -0.14642,-0.55466 -0.14642,-0.18259 -0.40652,-0.18259 -0.26355,0 -0.40997,0.18259 -0.14469,0.180867 -0.14469,0.55466 0,0.361736 0.14641,0.549494 0.14642,0.186035 0.40825,0.186035 0.25838,0 0.4048,-0.184313 0.14814,-0.186035 0.14814,-0.551216 z"
           style="font-size:3.52778px;text-align:center;text-anchor:middle;stroke-width:0.264583"
           id="path1383" />
        <path
           d="m 109.75156,61.325764 h -0.32384 v -0.201539 q -0.13952,0.120579 -0.29111,0.187758 -0.15158,0.06718 -0.32901,0.06718 -0.3445,0 -0.54777,-0.265273 -0.20153,-0.265272 -0.20153,-0.735528 0,-0.244602 0.0689,-0.435805 0.0706,-0.191203 0.18948,-0.325562 0.11713,-0.130913 0.27216,-0.199815 0.15675,-0.0689 0.32384,-0.0689 0.15158,0 0.26872,0.03273 0.11713,0.03101 0.24632,0.09819 v -0.833713 h 0.32384 z m -0.32384,-0.473701 v -1.104154 q -0.13091,-0.05857 -0.23426,-0.08096 -0.10336,-0.02239 -0.22566,-0.02239 -0.27216,0 -0.42375,0.18948 -0.15158,0.189481 -0.15158,0.537436 0,0.342787 0.11713,0.521932 0.11714,0.177422 0.37552,0.177422 0.1378,0 0.27905,-0.06029 0.14125,-0.06201 0.26355,-0.158474 z"
           style="font-size:3.52778px;text-align:center;text-anchor:middle;stroke-width:0.264583"
           id="path1385" />
        <path
           d="m 111.98398,61.325764 h -0.32384 v -0.213596 q -0.16364,0.129191 -0.3135,0.198093 -0.14986,0.0689 -0.33073,0.0689 -0.30317,0 -0.47198,-0.184313 -0.16881,-0.186035 -0.16881,-0.544325 v -1.248848 h 0.32384 v 1.095541 q 0,0.146416 0.0138,0.251492 0.0138,0.103353 0.0586,0.177422 0.0465,0.07579 0.12058,0.110243 0.0741,0.03445 0.21532,0.03445 0.12574,0 0.27388,-0.06546 0.14986,-0.06546 0.27905,-0.167088 V 59.40167 h 0.32384 z"
           style="font-size:3.52778px;text-align:center;text-anchor:middle;stroke-width:0.264583"
           id="path1387" />
        <path
           d="m 112.94861,61.325764 h -0.32384 v -2.680286 h 0.32384 z"
           style="font-size:3.52778px;text-align:center;text-anchor:middle;stroke-width:0.264583"
           id="path1389" />
        <path
           d="m 115.19998,60.39731 h -1.41765 q 0,0.177422 0.0534,0.310059 0.0534,0.130913 0.14642,0.215318 0.0896,0.08268 0.21188,0.124024 0.12402,0.04134 0.27216,0.04134 0.19637,0 0.39446,-0.07751 0.19982,-0.07924 0.28422,-0.155029 h 0.0172 v 0.353122 q -0.16364,0.0689 -0.33418,0.115411 -0.17053,0.04651 -0.35829,0.04651 -0.47887,0 -0.74758,-0.258382 -0.26872,-0.260105 -0.26872,-0.737251 0,-0.471979 0.25666,-0.749309 0.25838,-0.27733 0.67868,-0.27733 0.3893,0 0.59945,0.227376 0.21187,0.227377 0.21187,0.645956 z m -0.31522,-0.248047 q -0.002,-0.254937 -0.12919,-0.394464 -0.12575,-0.139526 -0.38413,-0.139526 -0.26011,0 -0.41514,0.153307 -0.1533,0.153306 -0.17397,0.380683 z"
           style="font-size:3.52778px;text-align:center;text-anchor:middle;stroke-width:0.264583"
           id="path1391" />
        <path
           d="m 117.69768,61.139728 q -0.0947,0.04134 -0.17226,0.07752 -0.0758,0.03617 -0.19981,0.07579 -0.10508,0.03273 -0.2291,0.05512 -0.1223,0.02412 -0.27044,0.02412 -0.27905,0 -0.50815,-0.07751 -0.22738,-0.07924 -0.39619,-0.246325 -0.16536,-0.163642 -0.25838,-0.415134 -0.093,-0.253215 -0.093,-0.587389 0,-0.316949 0.0896,-0.566719 0.0896,-0.249769 0.25839,-0.422024 0.16364,-0.167087 0.39446,-0.254937 0.23254,-0.08785 0.51504,-0.08785 0.20671,0 0.41169,0.04995 0.20671,0.04995 0.4582,0.1757 v 0.404799 h -0.0258 q -0.21187,-0.177423 -0.4203,-0.258383 -0.20843,-0.08096 -0.44614,-0.08096 -0.19465,0 -0.3514,0.06374 -0.15503,0.06201 -0.27733,0.194648 -0.11886,0.129191 -0.18604,0.327284 -0.0654,0.196371 -0.0654,0.454753 0,0.27044 0.0723,0.465088 0.0741,0.194648 0.18948,0.316949 0.12058,0.127469 0.28078,0.18948 0.16192,0.06029 0.34106,0.06029 0.24633,0 0.46165,-0.0844 0.21532,-0.08441 0.40307,-0.253215 h 0.0241 z"
           style="font-size:3.52778px;text-align:center;text-anchor:middle;stroke-width:0.264583"
           id="path1393" />
        <path
           d="m 119.64933,61.325764 h -0.32212 V 61.12078 q -0.0431,0.02928 -0.11713,0.08268 -0.0724,0.05168 -0.14125,0.08268 -0.081,0.03962 -0.18604,0.06546 -0.10507,0.02756 -0.24632,0.02756 -0.26011,0 -0.44097,-0.172255 -0.18087,-0.172255 -0.18087,-0.43925 0,-0.218764 0.093,-0.353123 0.0947,-0.136081 0.26871,-0.213596 0.1757,-0.07751 0.42203,-0.105075 0.24632,-0.02756 0.52882,-0.04134 v -0.04995 q 0,-0.110243 -0.0396,-0.18259 -0.0379,-0.07235 -0.11024,-0.113689 -0.0689,-0.03962 -0.16537,-0.0534 -0.0965,-0.01378 -0.20153,-0.01378 -0.12747,0 -0.28422,0.03445 -0.15676,0.03273 -0.32384,0.09646 h -0.0172 v -0.329007 q 0.0947,-0.02584 0.27389,-0.05684 0.17914,-0.03101 0.35312,-0.03101 0.20326,0 0.35312,0.03445 0.15159,0.03273 0.26183,0.113688 0.10852,0.07924 0.16536,0.204983 0.0569,0.125746 0.0569,0.311782 z m -0.32212,-0.473701 V 60.31635 q -0.14814,0.0086 -0.34968,0.02584 -0.19981,0.01723 -0.31695,0.04995 -0.13952,0.03962 -0.22565,0.124024 -0.0861,0.08268 -0.0861,0.229099 0,0.165364 0.0999,0.249769 0.0999,0.08268 0.30489,0.08268 0.17053,0 0.31178,-0.06546 0.14125,-0.06718 0.26183,-0.160197 z"
           style="font-size:3.52778px;text-align:center;text-anchor:middle;stroke-width:0.264583"
           id="path1395" />
        <path
           d="m 120.60018,61.325764 h -0.32384 v -2.680286 h 0.32384 z"
           style="font-size:3.52778px;text-align:center;text-anchor:middle;stroke-width:0.264583"
           id="path1397" />
        <path
           d="m 121.56825,61.325764 h -0.32384 v -2.680286 h 0.32384 z"
           style="font-size:3.52778px;text-align:center;text-anchor:middle;stroke-width:0.264583"
           id="path1399" />
        <path
           d="m 124.37428,61.136283 q -0.21015,0.09646 -0.45992,0.16881 -0.24805,0.07062 -0.48059,0.07062 -0.29973,0 -0.5495,-0.08268 -0.24977,-0.08268 -0.42547,-0.248047 -0.17742,-0.167087 -0.27388,-0.416857 -0.0965,-0.251492 -0.0965,-0.587389 0,-0.61495 0.35829,-0.969795 0.36002,-0.356567 0.98703,-0.356567 0.21876,0 0.44614,0.0534 0.22909,0.05168 0.49264,0.177422 V 59.35 h -0.031 q -0.0534,-0.04134 -0.15503,-0.10852 -0.10163,-0.06718 -0.19982,-0.111966 -0.11885,-0.0534 -0.27044,-0.08785 -0.14986,-0.03617 -0.34106,-0.03617 -0.43064,0 -0.68213,0.277331 -0.24977,0.275608 -0.24977,0.747586 0,0.497817 0.26183,0.775147 0.26182,0.275608 0.71313,0.275608 0.16537,0 0.32901,-0.03273 0.16536,-0.03273 0.28939,-0.08441 v -0.62873 h -0.6873 v -0.299723 h 1.02492 z"
           style="font-size:3.52778px;text-align:center;text-anchor:middle;stroke-width:0.264583"
           id="path1401" />
        <path
           d="m 126.14506,59.754799 h -0.0172 q -0.0723,-0.01722 -0.14125,-0.02412 -0.0672,-0.0086 -0.16019,-0.0086 -0.14986,0 -0.28939,0.06718 -0.13953,0.06546 -0.26872,0.170532 v 1.365982 h -0.32384 v -1.924087 h 0.32384 v 0.28422 q 0.19293,-0.155029 0.33934,-0.218764 0.14814,-0.06546 0.30145,-0.06546 0.0844,0 0.1223,0.0052 0.0379,0.0034 0.11369,0.0155 z"
           style="font-size:3.52778px;text-align:center;text-anchor:middle;stroke-width:0.264583"
           id="path1403" />
        <path
           d="m 127.88311,61.325764 h -0.32212 V 61.12078 q -0.0431,0.02928 -0.11713,0.08268 -0.0724,0.05168 -0.14125,0.08268 -0.081,0.03962 -0.18603,0.06546 -0.10508,0.02756 -0.24633,0.02756 -0.2601,0 -0.44097,-0.172255 -0.18087,-0.172255 -0.18087,-0.43925 0,-0.218764 0.093,-0.353123 0.0947,-0.136081 0.26872,-0.213596 0.1757,-0.07751 0.42202,-0.105075 0.24633,-0.02756 0.52882,-0.04134 v -0.04995 q 0,-0.110243 -0.0396,-0.18259 -0.0379,-0.07235 -0.11025,-0.113689 -0.0689,-0.03962 -0.16536,-0.0534 -0.0965,-0.01378 -0.20154,-0.01378 -0.12747,0 -0.28422,0.03445 -0.15675,0.03273 -0.32384,0.09646 h -0.0172 v -0.329007 q 0.0947,-0.02584 0.27389,-0.05684 0.17914,-0.03101 0.35312,-0.03101 0.20326,0 0.35312,0.03445 0.15159,0.03273 0.26183,0.113688 0.10852,0.07924 0.16537,0.204983 0.0568,0.125746 0.0568,0.311782 z m -0.32212,-0.473701 V 60.31635 q -0.14813,0.0086 -0.34967,0.02584 -0.19982,0.01723 -0.31695,0.04995 -0.13953,0.03962 -0.22566,0.124024 -0.0861,0.08268 -0.0861,0.229099 0,0.165364 0.0999,0.249769 0.0999,0.08268 0.3049,0.08268 0.17053,0 0.31178,-0.06546 0.14125,-0.06718 0.26182,-0.160197 z"
           style="font-size:3.52778px;text-align:center;text-anchor:middle;stroke-width:0.264583"
           id="path1405" />
        <path
           d="m 130.19994,60.340466 q 0,0.234266 -0.0672,0.428914 -0.0672,0.192926 -0.18948,0.327285 -0.11369,0.127468 -0.26872,0.198093 -0.1533,0.0689 -0.32556,0.0689 -0.14986,0 -0.27216,-0.03273 -0.12058,-0.03273 -0.24633,-0.10163 v 0.806153 h -0.32384 v -2.633777 h 0.32384 v 0.201538 q 0.1292,-0.108521 0.28939,-0.180868 0.16192,-0.07407 0.34451,-0.07407 0.34796,0 0.54088,0.26355 0.19465,0.261827 0.19465,0.728638 z m -0.33417,0.0086 q 0,-0.347955 -0.11886,-0.52021 -0.11886,-0.172255 -0.36518,-0.172255 -0.13953,0 -0.28078,0.06029 -0.14124,0.06029 -0.27044,0.158475 v 1.090373 q 0.13781,0.06201 0.23599,0.08441 0.0999,0.02239 0.22566,0.02239 0.27044,0 0.42202,-0.18259 0.15159,-0.18259 0.15159,-0.54088 z"
           style="font-size:3.52778px;text-align:center;text-anchor:middle;stroke-width:0.264583"
           id="path1407" />
        <path
           d="m 132.3135,61.325764 h -0.32384 v -1.095541 q 0,-0.132637 -0.0155,-0.248047 -0.0155,-0.117134 -0.0568,-0.182591 -0.0431,-0.07235 -0.12403,-0.106798 -0.081,-0.03617 -0.21015,-0.03617 -0.13263,0 -0.27733,0.06546 -0.14469,0.06546 -0.27733,0.167087 v 1.436606 h -0.32384 v -2.680286 h 0.32384 v 0.969795 q 0.15159,-0.125746 0.31351,-0.196371 0.16192,-0.07062 0.33245,-0.07062 0.31178,0 0.47542,0.187757 0.16364,0.187758 0.16364,0.540881 z"
           style="font-size:3.52778px;text-align:center;text-anchor:middle;stroke-width:0.264583"
           id="path1409" />
        <path
           d="m 134.82671,60.59368 q 0,0.149862 -0.0706,0.296279 -0.0689,0.146416 -0.19464,0.248047 -0.13781,0.110243 -0.32212,0.172255 -0.18259,0.06201 -0.44097,0.06201 -0.27733,0 -0.49954,-0.05168 -0.22049,-0.05168 -0.44959,-0.153307 v -0.427192 h 0.0241 q 0.19465,0.16192 0.44958,0.24977 0.25494,0.08785 0.47887,0.08785 0.31695,0 0.49265,-0.118856 0.17742,-0.118856 0.17742,-0.316949 0,-0.170533 -0.0844,-0.251492 -0.0827,-0.08096 -0.25322,-0.125746 -0.12919,-0.03445 -0.28077,-0.05685 -0.14986,-0.02239 -0.31867,-0.05684 -0.34107,-0.07235 -0.50643,-0.246324 -0.16365,-0.1757 -0.16365,-0.456476 0,-0.322116 0.27217,-0.527099 0.27216,-0.206706 0.69074,-0.206706 0.27044,0 0.49609,0.05168 0.22566,0.05168 0.39964,0.127469 v 0.403076 h -0.0241 q -0.14642,-0.124023 -0.38585,-0.204983 -0.23771,-0.08268 -0.48748,-0.08268 -0.27389,0 -0.44098,0.113689 -0.16536,0.113688 -0.16536,0.292833 0,0.160197 0.0827,0.251492 0.0827,0.09129 0.29111,0.139527 0.11025,0.02411 0.31351,0.05857 0.20326,0.03445 0.34451,0.07062 0.28594,0.07579 0.43063,0.229099 0.1447,0.153307 0.1447,0.428914 z"
           style="font-size:3.52778px;text-align:center;text-anchor:middle;stroke-width:0.264583"
           id="path1411" />
        <path
           d="m 136.34772,61.308538 q -0.0913,0.02412 -0.19982,0.03962 -0.1068,0.0155 -0.1912,0.0155 -0.29456,0 -0.44786,-0.158475 -0.15331,-0.158474 -0.15331,-0.508152 v -1.023194 h -0.21876 v -0.272162 h 0.21876 v -0.552939 h 0.32384 v 0.552939 h 0.66835 v 0.272162 h -0.66835 v 0.876778 q 0,0.151584 0.007,0.237711 0.007,0.0844 0.0482,0.158475 0.0379,0.0689 0.10335,0.10163 0.0672,0.03101 0.20326,0.03101 0.0792,0 0.16537,-0.02239 0.0861,-0.02412 0.12402,-0.03962 h 0.0172 z"
           style="font-size:3.52778px;text-align:center;text-anchor:middle;stroke-width:0.264583"
           id="path1413" />
        <path
           d="m 138.23391,61.325764 h -0.32212 V 61.12078 q -0.0431,0.02928 -0.11713,0.08268 -0.0724,0.05168 -0.14125,0.08268 -0.081,0.03962 -0.18603,0.06546 -0.10508,0.02756 -0.24633,0.02756 -0.2601,0 -0.44097,-0.172255 -0.18087,-0.172255 -0.18087,-0.43925 0,-0.218764 0.093,-0.353123 0.0947,-0.136081 0.26872,-0.213596 0.1757,-0.07751 0.42202,-0.105075 0.24633,-0.02756 0.52882,-0.04134 v -0.04995 q 0,-0.110243 -0.0396,-0.18259 -0.0379,-0.07235 -0.11025,-0.113689 -0.0689,-0.03962 -0.16536,-0.0534 -0.0965,-0.01378 -0.20154,-0.01378 -0.12747,0 -0.28422,0.03445 -0.15675,0.03273 -0.32384,0.09646 h -0.0172 v -0.329007 q 0.0947,-0.02584 0.27389,-0.05684 0.17914,-0.03101 0.35312,-0.03101 0.20326,0 0.35312,0.03445 0.15159,0.03273 0.26183,0.113688 0.10852,0.07924 0.16537,0.204983 0.0568,0.125746 0.0568,0.311782 z m -0.32212,-0.473701 V 60.31635 q -0.14814,0.0086 -0.34967,0.02584 -0.19982,0.01723 -0.31695,0.04995 -0.13953,0.03962 -0.22566,0.124024 -0.0861,0.08268 -0.0861,0.229099 0,0.165364 0.0999,0.249769 0.0999,0.08268 0.3049,0.08268 0.17053,0 0.31178,-0.06546 0.14125,-0.06718 0.26182,-0.160197 z"
           style="font-size:3.52778px;text-align:center;text-anchor:middle;stroke-width:0.264583"
           id="path1415" />
        <path
           d="m 140.4181,61.107 q 0,0.489204 -0.22221,0.718303 -0.22221,0.229099 -0.68385,0.229099 -0.15331,0 -0.29973,-0.02239 -0.14469,-0.02067 -0.28594,-0.06029 v -0.33073 h 0.0172 q 0.0792,0.03101 0.2515,0.07579 0.17225,0.04651 0.34451,0.04651 0.16536,0 0.27388,-0.03962 0.10852,-0.03962 0.16881,-0.110243 0.0603,-0.06718 0.0861,-0.161919 0.0258,-0.09474 0.0258,-0.211874 v -0.1757 q -0.14642,0.117134 -0.28078,0.1757 -0.13263,0.05684 -0.33934,0.05684 -0.34451,0 -0.54777,-0.248047 -0.20154,-0.249769 -0.20154,-0.7028 0,-0.248047 0.0689,-0.427192 0.0706,-0.180867 0.19121,-0.311781 0.11196,-0.122301 0.27216,-0.18948 0.1602,-0.0689 0.31867,-0.0689 0.16709,0 0.27905,0.03445 0.11369,0.03273 0.23944,0.10163 l 0.0207,-0.08268 h 0.30317 z m -0.32384,-0.310059 v -1.049032 q -0.12919,-0.05857 -0.24116,-0.08268 -0.11024,-0.02584 -0.22049,-0.02584 -0.26699,0 -0.4203,0.179145 -0.1533,0.179146 -0.1533,0.52021 0,0.323839 0.11368,0.490927 0.11369,0.167087 0.37724,0.167087 0.14125,0 0.2825,-0.0534 0.14297,-0.05512 0.26183,-0.146417 z"
           style="font-size:3.52778px;text-align:center;text-anchor:middle;stroke-width:0.264583"
           id="path1417" />
        <path
           d="m 142.66603,60.39731 h -1.41766 q 0,0.177422 0.0534,0.310059 0.0534,0.130913 0.14641,0.215318 0.0896,0.08268 0.21188,0.124024 0.12402,0.04134 0.27216,0.04134 0.19637,0 0.39446,-0.07751 0.19982,-0.07924 0.28422,-0.155029 h 0.0172 v 0.353122 q -0.16364,0.0689 -0.33418,0.115411 -0.17053,0.04651 -0.35829,0.04651 -0.47886,0 -0.74758,-0.258382 -0.26872,-0.260105 -0.26872,-0.737251 0,-0.471979 0.25666,-0.749309 0.25838,-0.27733 0.67868,-0.27733 0.3893,0 0.59945,0.227376 0.21188,0.227377 0.21188,0.645956 z m -0.31523,-0.248047 q -0.002,-0.254937 -0.12919,-0.394464 -0.12575,-0.139526 -0.38413,-0.139526 -0.26011,0 -0.41514,0.153307 -0.1533,0.153306 -0.17397,0.380683 z"
           style="font-size:3.52778px;text-align:center;text-anchor:middle;stroke-width:0.264583"
           id="path1419" />
      </g>
    </g>
    <g
       id="g1591"
       transform="translate(117.19154,73.463711)">
      <rect
         style="fill:#ffffff;stroke:#000000;stroke-width:0.163614"
         id="rect1119-1"
         width="80.960388"
         height="8.1433296"
         x="54.563709"
         y="92.647163"
         ry="1.2451588" />
      <text
         xml:space="preserve"
         style="font-size:3.52778px;line-height:1.25;font-family:Verdana;-inkscape-font-specification:Verdana;text-align:center;letter-spacing:0px;word-spacing:0px;text-anchor:middle;stroke-width:0.264583"
         x="95.055099"
         y="97.694649"
         id="text14-7-9"><tspan
           sodipodi:role="line"
           id="tspan12-5-7"
           x="95.055099"
           y="97.694649"
           style="font-size:3.52778px;text-align:center;text-anchor:middle;stroke-width:0.264583">TableCSVSink : distinctModuleDegreeSink</tspan></text>
    </g>
    <g
       id="g1665"
       transform="translate(-24.62992,97.254659)">
      <rect
         style="fill:#ffffff;stroke:#000000;stroke-width:0.19545"
         id="rect1119-9"
         width="115.98555"
         height="8.1114931"
         x="178.87259"
         y="55.875172"
         ry="1.2402909" />
      <text
         xml:space="preserve"
         style="font-size:3.52778px;line-height:1.25;font-family:Verdana;-inkscape-font-specification:Verdana;text-align:center;letter-spacing:0px;word-spacing:0px;text-anchor:middle;stroke-width:0.264583"
         x="236.77924"
         y="60.906742"
         id="text14-0-1"><tspan
           sodipodi:role="line"
           id="tspan12-9-2"
           x="236.77924"
           y="60.906742"
           style="font-size:3.52778px;text-align:center;text-anchor:middle;stroke-width:0.264583">ModuleNodeCountCouplingStage : moduleNodeCouplingStage</tspan></text>
    </g>
    <g
       id="g1640"
       transform="translate(87.954453,157.01481)">
      <rect
         style="fill:#ffffff;stroke:#000000;stroke-width:0.177708"
         id="rect1119-06"
         width="95.675293"
         height="8.1292353"
         x="47.206257"
         y="105.95618"
         ry="1.2430037" />
      <g
         aria-label="GraphMLFileWriterStage : graphMLFileWriterStage"
         id="text14-6-1"
         style="font-size:3.52778px;line-height:1.25;font-family:Verdana;-inkscape-font-specification:Verdana;text-align:center;letter-spacing:0px;word-spacing:0px;text-anchor:middle;stroke-width:0.264583"
         transform="translate(-9.6718601,1.1075544)">
        <path
           d="m 62.608916,109.69963 q -0.210151,0.0965 -0.45992,0.16881 -0.248047,0.0706 -0.480591,0.0706 -0.299724,0 -0.549493,-0.0827 -0.24977,-0.0827 -0.42547,-0.24805 -0.177423,-0.16709 -0.273885,-0.41686 -0.09646,-0.25149 -0.09646,-0.58738 0,-0.61495 0.35829,-0.9698 0.360013,-0.35657 0.987021,-0.35657 0.218763,0 0.44614,0.0534 0.229099,0.0517 0.492649,0.17742 v 0.4048 h -0.03101 q -0.0534,-0.0413 -0.155029,-0.10852 -0.101631,-0.0672 -0.199816,-0.11196 -0.118856,-0.0534 -0.27044,-0.0879 -0.149862,-0.0362 -0.341065,-0.0362 -0.430637,0 -0.682129,0.27733 -0.24977,0.27561 -0.24977,0.74759 0,0.49782 0.261827,0.77515 0.261828,0.2756 0.713136,0.2756 0.165364,0 0.329007,-0.0327 0.165364,-0.0327 0.289388,-0.0844 v -0.62873 H 61.584 v -0.29972 h 1.024916 z"
           style="font-size:3.52778px;text-align:center;text-anchor:middle;stroke-width:0.264583"
           id="path1422" />
        <path
           d="m 64.379697,108.31814 h -0.01723 q -0.07235,-0.0172 -0.141249,-0.0241 -0.06718,-0.009 -0.160197,-0.009 -0.149862,0 -0.289388,0.0672 -0.139527,0.0655 -0.268718,0.17054 v 1.36598 H 63.17908 v -1.92409 h 0.323839 v 0.28422 q 0.192926,-0.15503 0.339342,-0.21876 0.14814,-0.0655 0.301446,-0.0655 0.0844,0 0.122301,0.005 0.0379,0.003 0.113689,0.0155 z"
           style="font-size:3.52778px;text-align:center;text-anchor:middle;stroke-width:0.264583"
           id="path1424" />
        <path
           d="m 66.117748,109.88911 h -0.322116 v -0.20499 q -0.04306,0.0293 -0.117134,0.0827 -0.07235,0.0517 -0.141249,0.0827 -0.08096,0.0396 -0.186035,0.0654 -0.105075,0.0276 -0.246324,0.0276 -0.260105,0 -0.440973,-0.17226 -0.180867,-0.17225 -0.180867,-0.43925 0,-0.21876 0.09302,-0.35312 0.09474,-0.13608 0.268718,-0.2136 0.1757,-0.0775 0.422024,-0.10507 0.246325,-0.0276 0.528823,-0.0413 v -0.05 q 0,-0.11024 -0.03962,-0.18259 -0.0379,-0.0723 -0.110243,-0.11369 -0.0689,-0.0396 -0.165365,-0.0534 -0.09646,-0.0138 -0.201538,-0.0138 -0.127469,0 -0.28422,0.0345 -0.156752,0.0327 -0.32384,0.0965 h -0.01722 v -0.32901 q 0.09474,-0.0258 0.273885,-0.0568 0.179145,-0.031 0.353123,-0.031 0.20326,0 0.353122,0.0345 0.151584,0.0327 0.261828,0.11369 0.10852,0.0792 0.165364,0.20498 0.05684,0.12575 0.05684,0.31178 z m -0.322116,-0.4737 v -0.53572 q -0.148139,0.009 -0.349678,0.0258 -0.199815,0.0172 -0.316949,0.05 -0.139526,0.0396 -0.225654,0.12402 -0.08613,0.0827 -0.08613,0.2291 0,0.16536 0.09991,0.24977 0.09991,0.0827 0.304891,0.0827 0.170532,0 0.311781,-0.0655 0.141249,-0.0672 0.261828,-0.16019 z"
           style="font-size:3.52778px;text-align:center;text-anchor:middle;stroke-width:0.264583"
           id="path1426" />
        <path
           d="m 68.434577,108.90381 q 0,0.23427 -0.06718,0.42891 -0.06718,0.19293 -0.18948,0.32729 -0.113688,0.12747 -0.268718,0.19809 -0.153306,0.0689 -0.325561,0.0689 -0.149862,0 -0.272163,-0.0327 -0.120578,-0.0327 -0.246325,-0.10163 v 0.80616 h -0.323839 v -2.63378 h 0.323839 v 0.20154 q 0.129192,-0.10852 0.289389,-0.18087 0.161919,-0.0741 0.344509,-0.0741 0.347955,0 0.540881,0.26355 0.194648,0.26183 0.194648,0.72864 z m -0.334175,0.009 q 0,-0.34795 -0.118856,-0.52021 -0.118855,-0.17225 -0.36518,-0.17225 -0.139526,0 -0.280775,0.0603 -0.141249,0.0603 -0.270441,0.15847 v 1.09037 q 0.137804,0.062 0.23599,0.0844 0.09991,0.0224 0.225654,0.0224 0.27044,0 0.422024,-0.18259 0.151584,-0.18259 0.151584,-0.54088 z"
           style="font-size:3.52778px;text-align:center;text-anchor:middle;stroke-width:0.264583"
           id="path1428" />
        <path
           d="m 70.548144,109.88911 h -0.323839 v -1.09554 q 0,-0.13264 -0.0155,-0.24805 -0.0155,-0.11713 -0.05684,-0.18259 -0.04306,-0.0724 -0.124024,-0.1068 -0.08096,-0.0362 -0.21015,-0.0362 -0.132637,0 -0.277331,0.0654 -0.144694,0.0655 -0.27733,0.16709 v 1.43661 h -0.323839 v -2.68029 h 0.323839 v 0.9698 q 0.151584,-0.12575 0.313504,-0.19637 0.161919,-0.0706 0.332452,-0.0706 0.311781,0 0.475423,0.18776 0.163642,0.18776 0.163642,0.54088 z"
           style="font-size:3.52778px;text-align:center;text-anchor:middle;stroke-width:0.264583"
           id="path1430" />
        <path
           d="M 73.481644,109.88911 H 73.14058 v -2.21003 l -0.713135,1.50378 h -0.203261 l -0.707968,-1.50378 v 2.21003 h -0.318671 v -2.56488 h 0.465088 l 0.683852,1.42799 0.661459,-1.42799 h 0.4737 z"
           style="font-size:3.52778px;text-align:center;text-anchor:middle;stroke-width:0.264583"
           id="path1432" />
        <path
           d="m 75.793305,109.88911 h -1.622641 v -2.56488 h 0.341065 v 2.26171 h 1.281576 z"
           style="font-size:3.52778px;text-align:center;text-anchor:middle;stroke-width:0.264583"
           id="path1434" />
        <path
           d="m 77.772513,107.6274 h -1.297079 v 0.72347 h 1.114489 v 0.30317 h -1.114489 v 1.23507 h -0.341065 v -2.56488 h 1.638144 z"
           style="font-size:3.52778px;text-align:center;text-anchor:middle;stroke-width:0.264583"
           id="path1436" />
        <path
           d="m 78.483926,107.6429 h -0.36518 v -0.33589 h 0.36518 z m -0.02067,2.24621 h -0.32384 v -1.92409 h 0.32384 z"
           style="font-size:3.52778px;text-align:center;text-anchor:middle;stroke-width:0.264583"
           id="path1438" />
        <path
           d="m 79.431328,109.88911 h -0.323839 v -2.68029 h 0.323839 z"
           style="font-size:3.52778px;text-align:center;text-anchor:middle;stroke-width:0.264583"
           id="path1440" />
        <path
           d="m 81.6827,108.96065 h -1.417657 q 0,0.17743 0.0534,0.31006 0.0534,0.13092 0.146416,0.21532 0.08957,0.0827 0.211874,0.12402 0.124023,0.0413 0.272162,0.0413 0.196371,0 0.394464,-0.0775 0.199816,-0.0792 0.284221,-0.15503 h 0.01722 v 0.35312 q -0.163642,0.0689 -0.334174,0.11541 -0.170533,0.0465 -0.35829,0.0465 -0.478869,0 -0.747587,-0.25838 -0.268717,-0.2601 -0.268717,-0.73725 0,-0.47198 0.25666,-0.74931 0.258382,-0.27733 0.678684,-0.27733 0.389296,0 0.599447,0.22738 0.211873,0.22737 0.211873,0.64595 z m -0.315226,-0.24804 q -0.0017,-0.25494 -0.129191,-0.39447 -0.125746,-0.13952 -0.384129,-0.13952 -0.260105,0 -0.415134,0.1533 -0.153307,0.15331 -0.173977,0.38069 z"
           style="font-size:3.52778px;text-align:center;text-anchor:middle;stroke-width:0.264583"
           id="path1442" />
        <path
           d="m 85.184642,107.32423 -0.666627,2.56488 h -0.384128 l -0.539158,-2.12907 -0.5271,2.12907 h -0.375516 l -0.678684,-2.56488 h 0.349678 l 0.539157,2.13252 0.530545,-2.13252 h 0.346233 l 0.535712,2.15319 0.535713,-2.15319 z"
           style="font-size:3.52778px;text-align:center;text-anchor:middle;stroke-width:0.264583"
           id="path1444" />
        <path
           d="m 86.759052,108.31814 h -0.01722 q -0.07235,-0.0172 -0.141249,-0.0241 -0.06718,-0.009 -0.160197,-0.009 -0.149862,0 -0.289389,0.0672 -0.139526,0.0655 -0.268717,0.17054 v 1.36598 h -0.323839 v -1.92409 h 0.323839 v 0.28422 q 0.192925,-0.15503 0.339342,-0.21876 0.148139,-0.0655 0.301446,-0.0655 0.08441,0 0.122301,0.005 0.0379,0.003 0.113688,0.0155 z"
           style="font-size:3.52778px;text-align:center;text-anchor:middle;stroke-width:0.264583"
           id="path1446" />
        <path
           d="m 87.411897,107.6429 h -0.36518 v -0.33589 h 0.36518 z m -0.02067,2.24621 h -0.323839 v -1.92409 h 0.323839 z"
           style="font-size:3.52778px;text-align:center;text-anchor:middle;stroke-width:0.264583"
           id="path1448" />
        <path
           d="m 89.031093,109.87188 q -0.0913,0.0241 -0.199815,0.0396 -0.106798,0.0155 -0.191203,0.0155 -0.294556,0 -0.447863,-0.15847 -0.153307,-0.15848 -0.153307,-0.50815 v -1.0232 H 87.820142 V 107.965 h 0.218763 v -0.55294 h 0.323839 v 0.55294 h 0.668349 v 0.27216 h -0.668349 v 0.87678 q 0,0.15158 0.0069,0.23771 0.0069,0.0844 0.04823,0.15848 0.0379,0.0689 0.103353,0.10163 0.06718,0.031 0.203261,0.031 0.07924,0 0.165364,-0.0224 0.08613,-0.0241 0.124024,-0.0396 h 0.01722 z"
           style="font-size:3.52778px;text-align:center;text-anchor:middle;stroke-width:0.264583"
           id="path1450" />
        <path
           d="m 91.032695,108.96065 h -1.417658 q 0,0.17743 0.0534,0.31006 0.0534,0.13092 0.146417,0.21532 0.08957,0.0827 0.211873,0.12402 0.124024,0.0413 0.272163,0.0413 0.196371,0 0.394464,-0.0775 0.199815,-0.0792 0.28422,-0.15503 h 0.01723 v 0.35312 q -0.163642,0.0689 -0.334175,0.11541 -0.170532,0.0465 -0.35829,0.0465 -0.478868,0 -0.747586,-0.25838 -0.268718,-0.2601 -0.268718,-0.73725 0,-0.47198 0.25666,-0.74931 0.258382,-0.27733 0.678684,-0.27733 0.389296,0 0.599447,0.22738 0.211874,0.22737 0.211874,0.64595 z m -0.315227,-0.24804 q -0.0017,-0.25494 -0.129191,-0.39447 -0.125746,-0.13952 -0.384128,-0.13952 -0.260105,0 -0.415134,0.1533 -0.153307,0.15331 -0.173978,0.38069 z"
           style="font-size:3.52778px;text-align:center;text-anchor:middle;stroke-width:0.264583"
           id="path1452" />
        <path
           d="m 92.724237,108.31814 h -0.01722 q -0.07235,-0.0172 -0.141249,-0.0241 -0.06718,-0.009 -0.160197,-0.009 -0.149862,0 -0.289388,0.0672 -0.139527,0.0655 -0.268718,0.17054 v 1.36598 h -0.323839 v -1.92409 h 0.323839 v 0.28422 q 0.192926,-0.15503 0.339342,-0.21876 0.148139,-0.0655 0.301446,-0.0655 0.08441,0 0.122301,0.005 0.0379,0.003 0.113688,0.0155 z"
           style="font-size:3.52778px;text-align:center;text-anchor:middle;stroke-width:0.264583"
           id="path1454" />
        <path
           d="m 94.918765,109.15702 q 0,0.14987 -0.07062,0.29628 -0.0689,0.14642 -0.194648,0.24805 -0.137804,0.11024 -0.322117,0.17225 -0.18259,0.062 -0.440972,0.062 -0.277331,0 -0.499539,-0.0517 -0.220487,-0.0517 -0.449586,-0.15331 v -0.42719 h 0.02412 q 0.194648,0.16192 0.449585,0.24977 0.254937,0.0878 0.478869,0.0878 0.316949,0 0.492649,-0.11886 0.177422,-0.11885 0.177422,-0.31695 0,-0.17053 -0.0844,-0.25149 -0.08268,-0.081 -0.253214,-0.12574 -0.129191,-0.0344 -0.280776,-0.0568 -0.149861,-0.0224 -0.318671,-0.0568 -0.341065,-0.0724 -0.50643,-0.24633 -0.163642,-0.1757 -0.163642,-0.45647 0,-0.32212 0.272163,-0.5271 0.272163,-0.20671 0.690742,-0.20671 0.27044,0 0.496094,0.0517 0.225654,0.0517 0.399631,0.12747 v 0.40307 h -0.02411 q -0.146417,-0.12402 -0.385851,-0.20498 -0.237712,-0.0827 -0.487482,-0.0827 -0.273885,0 -0.440972,0.11369 -0.165365,0.11368 -0.165365,0.29283 0,0.1602 0.08268,0.25149 0.08268,0.0913 0.29111,0.13953 0.110244,0.0241 0.313504,0.0586 0.203261,0.0345 0.34451,0.0706 0.285943,0.0758 0.430637,0.2291 0.144694,0.15331 0.144694,0.42891 z"
           style="font-size:3.52778px;text-align:center;text-anchor:middle;stroke-width:0.264583"
           id="path1456" />
        <path
           d="m 96.439775,109.87188 q -0.0913,0.0241 -0.199815,0.0396 -0.106798,0.0155 -0.191203,0.0155 -0.294556,0 -0.447863,-0.15847 -0.153307,-0.15848 -0.153307,-0.50815 v -1.0232 H 95.228823 V 107.965 h 0.218764 v -0.55294 h 0.323839 v 0.55294 h 0.668349 v 0.27216 h -0.668349 v 0.87678 q 0,0.15158 0.0069,0.23771 0.0069,0.0844 0.04823,0.15848 0.0379,0.0689 0.103353,0.10163 0.06718,0.031 0.203261,0.031 0.07924,0 0.165364,-0.0224 0.08613,-0.0241 0.124024,-0.0396 h 0.01722 z"
           style="font-size:3.52778px;text-align:center;text-anchor:middle;stroke-width:0.264583"
           id="path1458" />
        <path
           d="m 98.325968,109.88911 h -0.322117 v -0.20499 q -0.04306,0.0293 -0.117133,0.0827 -0.07235,0.0517 -0.141249,0.0827 -0.08096,0.0396 -0.186035,0.0654 -0.105076,0.0276 -0.246325,0.0276 -0.260105,0 -0.440972,-0.17226 -0.180868,-0.17225 -0.180868,-0.43925 0,-0.21876 0.09302,-0.35312 0.09474,-0.13608 0.268717,-0.2136 0.1757,-0.0775 0.422025,-0.10507 0.246324,-0.0276 0.528822,-0.0413 v -0.05 q 0,-0.11024 -0.03962,-0.18259 -0.0379,-0.0723 -0.110243,-0.11369 -0.0689,-0.0396 -0.165365,-0.0534 -0.09646,-0.0138 -0.201538,-0.0138 -0.127469,0 -0.284221,0.0345 -0.156752,0.0327 -0.323839,0.0965 h -0.01723 v -0.32901 q 0.09474,-0.0258 0.273886,-0.0568 0.179145,-0.031 0.353122,-0.031 0.203261,0 0.353123,0.0345 0.151584,0.0327 0.261827,0.11369 0.108521,0.0792 0.165365,0.20498 0.05684,0.12575 0.05684,0.31178 z m -0.322117,-0.4737 v -0.53572 q -0.148139,0.009 -0.349677,0.0258 -0.199816,0.0172 -0.316949,0.05 -0.139527,0.0396 -0.225654,0.12402 -0.08613,0.0827 -0.08613,0.2291 0,0.16536 0.09991,0.24977 0.09991,0.0827 0.304892,0.0827 0.170532,0 0.311781,-0.0655 0.141249,-0.0672 0.261827,-0.16019 z"
           style="font-size:3.52778px;text-align:center;text-anchor:middle;stroke-width:0.264583"
           id="path1460" />
        <path
           d="m 100.51016,109.67034 q 0,0.48921 -0.22221,0.71831 -0.22221,0.22909 -0.683853,0.22909 -0.153307,0 -0.299724,-0.0224 -0.144694,-0.0207 -0.285943,-0.0603 v -0.33073 h 0.01723 q 0.07924,0.031 0.251493,0.0758 0.172254,0.0465 0.344509,0.0465 0.165365,0 0.273886,-0.0396 0.108522,-0.0396 0.168802,-0.11025 0.0603,-0.0672 0.0861,-0.16192 0.0258,-0.0947 0.0258,-0.21187 v -0.1757 q -0.14643,0.11713 -0.280782,0.1757 -0.132637,0.0568 -0.339343,0.0568 -0.344509,0 -0.54777,-0.24804 -0.201538,-0.24977 -0.201538,-0.7028 0,-0.24805 0.0689,-0.4272 0.07062,-0.18086 0.191203,-0.31178 0.111965,-0.1223 0.272162,-0.18948 0.160197,-0.0689 0.318672,-0.0689 0.167087,0 0.279053,0.0345 0.113683,0.0327 0.239433,0.10163 l 0.0207,-0.0827 h 0.30317 z m -0.32384,-0.31006 v -1.04903 q -0.12919,-0.0586 -0.241159,-0.0827 -0.110243,-0.0258 -0.220486,-0.0258 -0.266995,0 -0.420302,0.17915 -0.153307,0.17914 -0.153307,0.52021 0,0.32384 0.113688,0.49092 0.113689,0.16709 0.377239,0.16709 0.141249,0 0.282498,-0.0534 0.142969,-0.0551 0.261829,-0.14642 z"
           style="font-size:3.52778px;text-align:center;text-anchor:middle;stroke-width:0.264583"
           id="path1462" />
        <path
           d="m 102.75809,108.96065 h -1.41766 q 0,0.17743 0.0534,0.31006 0.0534,0.13092 0.14641,0.21532 0.0896,0.0827 0.21188,0.12402 0.12402,0.0413 0.27216,0.0413 0.19637,0 0.39446,-0.0775 0.19982,-0.0792 0.28422,-0.15503 h 0.0172 v 0.35312 q -0.16364,0.0689 -0.33417,0.11541 -0.17054,0.0465 -0.35829,0.0465 -0.47887,0 -0.74759,-0.25838 -0.26872,-0.2601 -0.26872,-0.73725 0,-0.47198 0.25666,-0.74931 0.25838,-0.27733 0.67869,-0.27733 0.38929,0 0.59944,0.22738 0.21188,0.22737 0.21188,0.64595 z m -0.31523,-0.24804 q -0.002,-0.25494 -0.12919,-0.39447 -0.12575,-0.13952 -0.38413,-0.13952 -0.2601,0 -0.41513,0.1533 -0.15331,0.15331 -0.17398,0.38069 z"
           style="font-size:3.52778px;text-align:center;text-anchor:middle;stroke-width:0.264583"
           id="path1464" />
        <path
           d="m 105.17827,108.45595 h -0.41169 v -0.49093 h 0.41169 z m 0,1.43316 h -0.41169 v -0.49093 h 0.41169 z"
           style="font-size:3.52778px;text-align:center;text-anchor:middle;stroke-width:0.264583"
           id="path1466" />
        <path
           d="m 108.89208,109.67034 q 0,0.48921 -0.22221,0.71831 -0.22221,0.22909 -0.68385,0.22909 -0.15331,0 -0.29972,-0.0224 -0.1447,-0.0207 -0.28595,-0.0603 v -0.33073 h 0.0172 q 0.0792,0.031 0.25149,0.0758 0.17226,0.0465 0.34451,0.0465 0.16537,0 0.27389,-0.0396 0.10852,-0.0396 0.16881,-0.11025 0.0603,-0.0672 0.0861,-0.16192 0.0258,-0.0947 0.0258,-0.21187 v -0.1757 q -0.14641,0.11713 -0.28077,0.1757 -0.13264,0.0568 -0.33935,0.0568 -0.34451,0 -0.54777,-0.24804 -0.20153,-0.24977 -0.20153,-0.7028 0,-0.24805 0.0689,-0.4272 0.0706,-0.18086 0.1912,-0.31178 0.11197,-0.1223 0.27216,-0.18948 0.1602,-0.0689 0.31867,-0.0689 0.16709,0 0.27906,0.0345 0.11369,0.0327 0.23943,0.10163 l 0.0207,-0.0827 h 0.30317 z m -0.32384,-0.31006 v -1.04903 q -0.12919,-0.0586 -0.24116,-0.0827 -0.11024,-0.0258 -0.22048,-0.0258 -0.267,0 -0.4203,0.17915 -0.15331,0.17914 -0.15331,0.52021 0,0.32384 0.11369,0.49092 0.11369,0.16709 0.37724,0.16709 0.14125,0 0.28249,-0.0534 0.14298,-0.0551 0.26183,-0.14642 z"
           style="font-size:3.52778px;text-align:center;text-anchor:middle;stroke-width:0.264583"
           id="path1468" />
        <path
           d="m 110.73004,108.31814 h -0.0172 q -0.0723,-0.0172 -0.14124,-0.0241 -0.0672,-0.009 -0.1602,-0.009 -0.14986,0 -0.28939,0.0672 -0.13953,0.0655 -0.26872,0.17054 v 1.36598 h -0.32384 v -1.92409 h 0.32384 v 0.28422 q 0.19293,-0.15503 0.33934,-0.21876 0.14814,-0.0655 0.30145,-0.0655 0.0844,0 0.1223,0.005 0.0379,0.003 0.11369,0.0155 z"
           style="font-size:3.52778px;text-align:center;text-anchor:middle;stroke-width:0.264583"
           id="path1470" />
        <path
           d="m 112.46809,109.88911 h -0.32211 v -0.20499 q -0.0431,0.0293 -0.11714,0.0827 -0.0723,0.0517 -0.14125,0.0827 -0.081,0.0396 -0.18603,0.0654 -0.10508,0.0276 -0.24633,0.0276 -0.2601,0 -0.44097,-0.17226 -0.18087,-0.17225 -0.18087,-0.43925 0,-0.21876 0.093,-0.35312 0.0947,-0.13608 0.26872,-0.2136 0.1757,-0.0775 0.42202,-0.10507 0.24633,-0.0276 0.52883,-0.0413 v -0.05 q 0,-0.11024 -0.0396,-0.18259 -0.0379,-0.0723 -0.11025,-0.11369 -0.0689,-0.0396 -0.16536,-0.0534 -0.0965,-0.0138 -0.20154,-0.0138 -0.12747,0 -0.28422,0.0345 -0.15675,0.0327 -0.32384,0.0965 h -0.0172 v -0.32901 q 0.0947,-0.0258 0.27388,-0.0568 0.17915,-0.031 0.35312,-0.031 0.20326,0 0.35313,0.0345 0.15158,0.0327 0.26182,0.11369 0.10852,0.0792 0.16537,0.20498 0.0568,0.12575 0.0568,0.31178 z m -0.32211,-0.4737 v -0.53572 q -0.14814,0.009 -0.34968,0.0258 -0.19982,0.0172 -0.31695,0.05 -0.13953,0.0396 -0.22565,0.12402 -0.0861,0.0827 -0.0861,0.2291 0,0.16536 0.0999,0.24977 0.0999,0.0827 0.30489,0.0827 0.17053,0 0.31178,-0.0655 0.14125,-0.0672 0.26183,-0.16019 z"
           style="font-size:3.52778px;text-align:center;text-anchor:middle;stroke-width:0.264583"
           id="path1472" />
        <path
           d="m 114.78492,108.90381 q 0,0.23427 -0.0672,0.42891 -0.0672,0.19293 -0.18948,0.32729 -0.11369,0.12747 -0.26872,0.19809 -0.1533,0.0689 -0.32556,0.0689 -0.14986,0 -0.27216,-0.0327 -0.12058,-0.0327 -0.24632,-0.10163 v 0.80616 h -0.32384 v -2.63378 h 0.32384 v 0.20154 q 0.12919,-0.10852 0.28938,-0.18087 0.16192,-0.0741 0.34451,-0.0741 0.34796,0 0.54088,0.26355 0.19465,0.26183 0.19465,0.72864 z m -0.33417,0.009 q 0,-0.34795 -0.11886,-0.52021 -0.11885,-0.17225 -0.36518,-0.17225 -0.13953,0 -0.28077,0.0603 -0.14125,0.0603 -0.27044,0.15847 v 1.09037 q 0.1378,0.062 0.23598,0.0844 0.0999,0.0224 0.22566,0.0224 0.27044,0 0.42202,-0.18259 0.15159,-0.18259 0.15159,-0.54088 z"
           style="font-size:3.52778px;text-align:center;text-anchor:middle;stroke-width:0.264583"
           id="path1474" />
        <path
           d="m 116.89849,109.88911 h -0.32384 v -1.09554 q 0,-0.13264 -0.0155,-0.24805 -0.0155,-0.11713 -0.0568,-0.18259 -0.0431,-0.0724 -0.12402,-0.1068 -0.081,-0.0362 -0.21015,-0.0362 -0.13264,0 -0.27733,0.0654 -0.1447,0.0655 -0.27733,0.16709 v 1.43661 h -0.32384 v -2.68029 h 0.32384 v 0.9698 q 0.15158,-0.12575 0.3135,-0.19637 0.16192,-0.0706 0.33245,-0.0706 0.31178,0 0.47543,0.18776 0.16364,0.18776 0.16364,0.54088 z"
           style="font-size:3.52778px;text-align:center;text-anchor:middle;stroke-width:0.264583"
           id="path1476" />
        <path
           d="m 119.83199,109.88911 h -0.34106 v -2.21003 l -0.71314,1.50378 h -0.20326 l -0.70797,-1.50378 v 2.21003 h -0.31867 v -2.56488 h 0.46509 l 0.68385,1.42799 0.66146,-1.42799 h 0.4737 z"
           style="font-size:3.52778px;text-align:center;text-anchor:middle;stroke-width:0.264583"
           id="path1478" />
        <path
           d="m 122.14365,109.88911 h -1.62264 v -2.56488 h 0.34106 v 2.26171 h 1.28158 z"
           style="font-size:3.52778px;text-align:center;text-anchor:middle;stroke-width:0.264583"
           id="path1480" />
        <path
           d="m 124.12286,107.6274 h -1.29708 v 0.72347 h 1.11449 v 0.30317 h -1.11449 v 1.23507 h -0.34106 v -2.56488 h 1.63814 z"
           style="font-size:3.52778px;text-align:center;text-anchor:middle;stroke-width:0.264583"
           id="path1482" />
        <path
           d="m 124.83427,107.6429 h -0.36518 v -0.33589 h 0.36518 z m -0.0207,2.24621 h -0.32384 v -1.92409 h 0.32384 z"
           style="font-size:3.52778px;text-align:center;text-anchor:middle;stroke-width:0.264583"
           id="path1484" />
        <path
           d="m 125.78168,109.88911 h -0.32384 v -2.68029 h 0.32384 z"
           style="font-size:3.52778px;text-align:center;text-anchor:middle;stroke-width:0.264583"
           id="path1486" />
        <path
           d="m 128.03305,108.96065 h -1.41766 q 0,0.17743 0.0534,0.31006 0.0534,0.13092 0.14641,0.21532 0.0896,0.0827 0.21188,0.12402 0.12402,0.0413 0.27216,0.0413 0.19637,0 0.39446,-0.0775 0.19982,-0.0792 0.28422,-0.15503 h 0.0172 v 0.35312 q -0.16364,0.0689 -0.33417,0.11541 -0.17054,0.0465 -0.35829,0.0465 -0.47887,0 -0.74759,-0.25838 -0.26872,-0.2601 -0.26872,-0.73725 0,-0.47198 0.25666,-0.74931 0.25838,-0.27733 0.67869,-0.27733 0.38929,0 0.59944,0.22738 0.21188,0.22737 0.21188,0.64595 z m -0.31523,-0.24804 q -0.002,-0.25494 -0.12919,-0.39447 -0.12575,-0.13952 -0.38413,-0.13952 -0.2601,0 -0.41513,0.1533 -0.15331,0.15331 -0.17398,0.38069 z"
           style="font-size:3.52778px;text-align:center;text-anchor:middle;stroke-width:0.264583"
           id="path1488" />
        <path
           d="m 131.53499,107.32423 -0.66663,2.56488 h -0.38413 l -0.53916,-2.12907 -0.5271,2.12907 h -0.37551 l -0.67869,-2.56488 h 0.34968 l 0.53916,2.13252 0.53055,-2.13252 h 0.34623 l 0.53571,2.15319 0.53571,-2.15319 z"
           style="font-size:3.52778px;text-align:center;text-anchor:middle;stroke-width:0.264583"
           id="path1490" />
        <path
           d="m 133.1094,108.31814 h -0.0172 q -0.0723,-0.0172 -0.14124,-0.0241 -0.0672,-0.009 -0.1602,-0.009 -0.14986,0 -0.28939,0.0672 -0.13953,0.0655 -0.26872,0.17054 v 1.36598 h -0.32384 v -1.92409 h 0.32384 v 0.28422 q 0.19293,-0.15503 0.33934,-0.21876 0.14814,-0.0655 0.30145,-0.0655 0.0844,0 0.1223,0.005 0.0379,0.003 0.11369,0.0155 z"
           style="font-size:3.52778px;text-align:center;text-anchor:middle;stroke-width:0.264583"
           id="path1492" />
        <path
           d="m 133.76224,107.6429 h -0.36518 v -0.33589 h 0.36518 z m -0.0207,2.24621 h -0.32384 v -1.92409 h 0.32384 z"
           style="font-size:3.52778px;text-align:center;text-anchor:middle;stroke-width:0.264583"
           id="path1494" />
        <path
           d="m 135.38144,109.87188 q -0.0913,0.0241 -0.19981,0.0396 -0.1068,0.0155 -0.19121,0.0155 -0.29455,0 -0.44786,-0.15847 -0.15331,-0.15848 -0.15331,-0.50815 v -1.0232 h -0.21876 V 107.965 h 0.21876 v -0.55294 h 0.32384 v 0.55294 h 0.66835 v 0.27216 h -0.66835 v 0.87678 q 0,0.15158 0.007,0.23771 0.007,0.0844 0.0482,0.15848 0.0379,0.0689 0.10336,0.10163 0.0672,0.031 0.20326,0.031 0.0792,0 0.16536,-0.0224 0.0861,-0.0241 0.12403,-0.0396 h 0.0172 z"
           style="font-size:3.52778px;text-align:center;text-anchor:middle;stroke-width:0.264583"
           id="path1496" />
        <path
           d="m 137.38304,108.96065 h -1.41766 q 0,0.17743 0.0534,0.31006 0.0534,0.13092 0.14641,0.21532 0.0896,0.0827 0.21188,0.12402 0.12402,0.0413 0.27216,0.0413 0.19637,0 0.39446,-0.0775 0.19982,-0.0792 0.28423,-0.15503 h 0.0172 v 0.35312 q -0.16364,0.0689 -0.33417,0.11541 -0.17054,0.0465 -0.35829,0.0465 -0.47887,0 -0.74759,-0.25838 -0.26872,-0.2601 -0.26872,-0.73725 0,-0.47198 0.25666,-0.74931 0.25838,-0.27733 0.67869,-0.27733 0.38929,0 0.59944,0.22738 0.21188,0.22737 0.21188,0.64595 z m -0.31523,-0.24804 q -0.002,-0.25494 -0.12919,-0.39447 -0.12575,-0.13952 -0.38413,-0.13952 -0.2601,0 -0.41513,0.1533 -0.15331,0.15331 -0.17398,0.38069 z"
           style="font-size:3.52778px;text-align:center;text-anchor:middle;stroke-width:0.264583"
           id="path1498" />
        <path
           d="m 139.07458,108.31814 h -0.0172 q -0.0723,-0.0172 -0.14125,-0.0241 -0.0672,-0.009 -0.16019,-0.009 -0.14986,0 -0.28939,0.0672 -0.13953,0.0655 -0.26872,0.17054 v 1.36598 h -0.32384 v -1.92409 h 0.32384 v 0.28422 q 0.19293,-0.15503 0.33934,-0.21876 0.14814,-0.0655 0.30145,-0.0655 0.0844,0 0.1223,0.005 0.0379,0.003 0.11369,0.0155 z"
           style="font-size:3.52778px;text-align:center;text-anchor:middle;stroke-width:0.264583"
           id="path1500" />
        <path
           d="m 141.26911,109.15702 q 0,0.14987 -0.0706,0.29628 -0.0689,0.14642 -0.19465,0.24805 -0.1378,0.11024 -0.32211,0.17225 -0.18259,0.062 -0.44097,0.062 -0.27733,0 -0.49954,-0.0517 -0.22049,-0.0517 -0.44959,-0.15331 v -0.42719 h 0.0241 q 0.19464,0.16192 0.44958,0.24977 0.25494,0.0878 0.47887,0.0878 0.31695,0 0.49265,-0.11886 0.17742,-0.11885 0.17742,-0.31695 0,-0.17053 -0.0844,-0.25149 -0.0827,-0.081 -0.25322,-0.12574 -0.12919,-0.0344 -0.28077,-0.0568 -0.14986,-0.0224 -0.31867,-0.0568 -0.34107,-0.0724 -0.50643,-0.24633 -0.16365,-0.1757 -0.16365,-0.45647 0,-0.32212 0.27217,-0.5271 0.27216,-0.20671 0.69074,-0.20671 0.27044,0 0.49609,0.0517 0.22566,0.0517 0.39963,0.12747 v 0.40307 h -0.0241 q -0.14642,-0.12402 -0.38585,-0.20498 -0.23771,-0.0827 -0.48748,-0.0827 -0.27389,0 -0.44098,0.11369 -0.16536,0.11368 -0.16536,0.29283 0,0.1602 0.0827,0.25149 0.0827,0.0913 0.29111,0.13953 0.11025,0.0241 0.31351,0.0586 0.20326,0.0345 0.34451,0.0706 0.28594,0.0758 0.43063,0.2291 0.1447,0.15331 0.1447,0.42891 z"
           style="font-size:3.52778px;text-align:center;text-anchor:middle;stroke-width:0.264583"
           id="path1502" />
        <path
           d="m 142.79012,109.87188 q -0.0913,0.0241 -0.19982,0.0396 -0.1068,0.0155 -0.1912,0.0155 -0.29456,0 -0.44786,-0.15847 -0.15331,-0.15848 -0.15331,-0.50815 v -1.0232 h -0.21876 V 107.965 h 0.21876 v -0.55294 h 0.32384 v 0.55294 h 0.66835 v 0.27216 h -0.66835 v 0.87678 q 0,0.15158 0.007,0.23771 0.007,0.0844 0.0482,0.15848 0.0379,0.0689 0.10335,0.10163 0.0672,0.031 0.20326,0.031 0.0792,0 0.16537,-0.0224 0.0861,-0.0241 0.12402,-0.0396 h 0.0172 z"
           style="font-size:3.52778px;text-align:center;text-anchor:middle;stroke-width:0.264583"
           id="path1504" />
        <path
           d="m 144.67631,109.88911 h -0.32212 v -0.20499 q -0.0431,0.0293 -0.11713,0.0827 -0.0724,0.0517 -0.14125,0.0827 -0.081,0.0396 -0.18603,0.0654 -0.10508,0.0276 -0.24633,0.0276 -0.2601,0 -0.44097,-0.17226 -0.18087,-0.17225 -0.18087,-0.43925 0,-0.21876 0.093,-0.35312 0.0947,-0.13608 0.26872,-0.2136 0.1757,-0.0775 0.42202,-0.10507 0.24633,-0.0276 0.52882,-0.0413 v -0.05 q 0,-0.11024 -0.0396,-0.18259 -0.0379,-0.0723 -0.11024,-0.11369 -0.0689,-0.0396 -0.16536,-0.0534 -0.0965,-0.0138 -0.20154,-0.0138 -0.12747,0 -0.28422,0.0345 -0.15675,0.0327 -0.32384,0.0965 h -0.0172 v -0.32901 q 0.0947,-0.0258 0.27389,-0.0568 0.17914,-0.031 0.35312,-0.031 0.20326,0 0.35312,0.0345 0.15159,0.0327 0.26183,0.11369 0.10852,0.0792 0.16537,0.20498 0.0568,0.12575 0.0568,0.31178 z m -0.32212,-0.4737 v -0.53572 q -0.14814,0.009 -0.34967,0.0258 -0.19982,0.0172 -0.31695,0.05 -0.13953,0.0396 -0.22566,0.12402 -0.0861,0.0827 -0.0861,0.2291 0,0.16536 0.0999,0.24977 0.0999,0.0827 0.30489,0.0827 0.17054,0 0.31179,-0.0655 0.14124,-0.0672 0.26182,-0.16019 z"
           style="font-size:3.52778px;text-align:center;text-anchor:middle;stroke-width:0.264583"
           id="path1506" />
        <path
           d="m 146.8605,109.67034 q 0,0.48921 -0.22221,0.71831 -0.2222,0.22909 -0.68385,0.22909 -0.1533,0 -0.29972,-0.0224 -0.1447,-0.0207 -0.28594,-0.0603 v -0.33073 h 0.0172 q 0.0792,0.031 0.25149,0.0758 0.17226,0.0465 0.34451,0.0465 0.16537,0 0.27389,-0.0396 0.10852,-0.0396 0.16881,-0.11025 0.0603,-0.0672 0.0861,-0.16192 0.0258,-0.0947 0.0258,-0.21187 v -0.1757 q -0.14641,0.11713 -0.28077,0.1757 -0.13264,0.0568 -0.33934,0.0568 -0.34451,0 -0.54777,-0.24804 -0.20154,-0.24977 -0.20154,-0.7028 0,-0.24805 0.0689,-0.4272 0.0706,-0.18086 0.1912,-0.31178 0.11197,-0.1223 0.27216,-0.18948 0.1602,-0.0689 0.31868,-0.0689 0.16708,0 0.27905,0.0345 0.11369,0.0327 0.23943,0.10163 l 0.0207,-0.0827 h 0.30317 z m -0.32384,-0.31006 v -1.04903 q -0.12919,-0.0586 -0.24115,-0.0827 -0.11025,-0.0258 -0.22049,-0.0258 -0.26699,0 -0.4203,0.17915 -0.15331,0.17914 -0.15331,0.52021 0,0.32384 0.11369,0.49092 0.11369,0.16709 0.37724,0.16709 0.14125,0 0.2825,-0.0534 0.14297,-0.0551 0.26182,-0.14642 z"
           style="font-size:3.52778px;text-align:center;text-anchor:middle;stroke-width:0.264583"
           id="path1508" />
        <path
           d="m 149.10843,108.96065 h -1.41766 q 0,0.17743 0.0534,0.31006 0.0534,0.13092 0.14642,0.21532 0.0896,0.0827 0.21187,0.12402 0.12403,0.0413 0.27217,0.0413 0.19637,0 0.39446,-0.0775 0.19982,-0.0792 0.28422,-0.15503 h 0.0172 v 0.35312 q -0.16365,0.0689 -0.33418,0.11541 -0.17053,0.0465 -0.35829,0.0465 -0.47887,0 -0.74758,-0.25838 -0.26872,-0.2601 -0.26872,-0.73725 0,-0.47198 0.25666,-0.74931 0.25838,-0.27733 0.67868,-0.27733 0.3893,0 0.59945,0.22738 0.21187,0.22737 0.21187,0.64595 z m -0.31522,-0.24804 q -0.002,-0.25494 -0.1292,-0.39447 -0.12574,-0.13952 -0.38412,-0.13952 -0.26011,0 -0.41514,0.1533 -0.15331,0.15331 -0.17398,0.38069 z"
           style="font-size:3.52778px;text-align:center;text-anchor:middle;stroke-width:0.264583"
           id="path1510" />
      </g>
    </g>
    <g
       id="g1650"
       transform="translate(-163.52649,244.40437)">
      <rect
         style="fill:#ffffff;stroke:#000000;stroke-width:0.19536"
         id="rect1119-76"
         width="115.87764"
         height="8.1115837"
         x="178.92654"
         y="18.79888"
         ry="1.2403047" />
      <text
         xml:space="preserve"
         style="font-size:3.52778px;line-height:1.25;font-family:Verdana;-inkscape-font-specification:Verdana;text-align:center;letter-spacing:0px;word-spacing:0px;text-anchor:middle;stroke-width:0.264583"
         x="236.77924"
         y="23.830496"
         id="text14-92"><tspan
           sodipodi:role="line"
           id="tspan12-28"
           x="236.77924"
           y="23.830496"
           style="font-size:3.52778px;text-align:center;text-anchor:middle;stroke-width:0.264583">DotFileWriterStage : dotFileOperationDependencyWriterStage</tspan></text>
    </g>
    <g
       id="g1660"
       transform="translate(-156.20299,108.80555)">
      <rect
         style="fill:#ffffff;stroke:#000000;stroke-width:0.198462"
         id="rect1119-45"
         width="119.63254"
         height="8.1084814"
         x="177.0491"
         y="44.112545"
         ry="1.2398304" />
      <text
         xml:space="preserve"
         style="font-size:3.52778px;line-height:1.25;font-family:Verdana;-inkscape-font-specification:Verdana;text-align:center;letter-spacing:0px;word-spacing:0px;text-anchor:middle;stroke-width:0.264583"
         x="236.77924"
         y="49.151222"
         id="text14-79"><tspan
           sodipodi:role="line"
           id="tspan12-20"
           x="236.77924"
           y="49.151222"
           style="font-size:3.52778px;text-align:center;text-anchor:middle;stroke-width:0.264583">FunctionNodeCountCouplingStage : functionNodeCouplingStage</tspan></text>
    </g>
    <g
       id="g1531"
       transform="translate(-14.38152,96.674453)">
      <rect
         style="fill:#ffffff;stroke:#000000;stroke-width:0.176833"
         id="rect1119-56"
         width="94.725166"
         height="8.1301098"
         x="47.68132"
         y="43.235867"
         ry="1.2431375" />
      <text
         xml:space="preserve"
         style="font-size:3.52778px;line-height:1.25;font-family:Verdana;-inkscape-font-specification:Verdana;text-align:center;letter-spacing:0px;word-spacing:0px;text-anchor:middle;stroke-width:0.264583"
         x="94.957779"
         y="48.285358"
         id="text14-2"><tspan
           sodipodi:role="line"
           id="tspan12-7"
           x="94.957779"
           y="48.285358"
           style="font-size:3.52778px;text-align:center;text-anchor:middle;stroke-width:0.264583">FunctionCallGraphStage : functionCallGraphStage</tspan></text>
    </g>
    <g
       id="g1675"
       transform="translate(-156.20298,84.185248)">
      <rect
         style="fill:#ffffff;stroke:#000000;stroke-width:0.166042"
         id="rect1119-452"
         width="83.40596"
         height="8.1409016"
         x="195.16238"
         y="81.7136"
         ry="1.2447876" />
      <text
         xml:space="preserve"
         style="font-size:3.52778px;line-height:1.25;font-family:Verdana;-inkscape-font-specification:Verdana;text-align:center;letter-spacing:0px;word-spacing:0px;text-anchor:middle;stroke-width:0.264583"
         x="236.87657"
         y="86.759872"
         id="text14-36"><tspan
           sodipodi:role="line"
           id="tspan12-0"
           x="236.87657"
           y="86.759872"
           style="font-size:3.52778px;text-align:center;text-anchor:middle;stroke-width:0.264583">TableCSVSink : distinctFunctionDegreeSink</tspan></text>
    </g>
    <g
       id="g1782"
       transform="translate(-4.448035,20.74906)">
      <rect
         style="fill:#ffffff;stroke:#000000;stroke-width:0.180573"
         id="rect1119-7-4"
         width="141.203"
         height="8.1260004"
         x="16.071321"
         y="61.41785"
         ry="1.2425658" />
      <text
         xml:space="preserve"
         style="font-size:3.52778px;line-height:1.25;font-family:Verdana;-inkscape-font-specification:Verdana;text-align:center;letter-spacing:0px;word-spacing:0px;text-anchor:middle;stroke-width:0.264583"
         x="86.736557"
         y="66.466331"
         id="text14-35-3"><tspan
           sodipodi:role="line"
           id="tspan12-62-1"
           x="86.736557"
           y="66.466331"
           style="font-size:3.52778px;text-align:center;text-anchor:middle;stroke-width:0.264583">AllenArchitectureModularGraphStage : allenArchitectureModularGraphStage</tspan></text>
    </g>
    <g
       id="g1796"
       transform="translate(12.239261,21.020363)">
      <rect
         style="fill:#ffffff;stroke:#000000;stroke-width:0.200154"
         id="rect1119-7-9"
         width="121.70685"
         height="8.1067886"
         x="9.132103"
         y="75.05838"
         ry="1.2395717" />
      <text
         xml:space="preserve"
         style="font-size:3.52778px;line-height:1.25;font-family:Verdana;-inkscape-font-specification:Verdana;text-align:center;letter-spacing:0px;word-spacing:0px;text-anchor:middle;stroke-width:0.264583"
         x="69.97261"
         y="80.097076"
         id="text14-35-2"><tspan
           sodipodi:role="line"
           id="tspan12-62-0"
           x="69.97261"
           y="80.097076"
           style="font-size:3.52778px;text-align:center;text-anchor:middle;stroke-width:0.264583">ComputeAllenComplexityMetrics : computeAllenComplexityStage</tspan></text>
    </g>
    <g
       id="g1801"
       transform="translate(32.816952,23.490352)">
      <rect
         style="fill:#ffffff;stroke:#000000;stroke-width:0.161627"
         id="rect1119-7-8"
         width="78.986374"
         height="8.1453161"
         x="9.914649"
         y="84.660828"
         ry="1.2454628" />
      <text
         xml:space="preserve"
         style="font-size:3.52778px;line-height:1.25;font-family:Verdana;-inkscape-font-specification:Verdana;text-align:center;letter-spacing:0px;word-spacing:0px;text-anchor:middle;stroke-width:0.264583"
         x="49.378551"
         y="89.718781"
         id="text14-35-9"><tspan
           sodipodi:role="line"
           id="tspan12-62-2"
           x="49.378551"
           y="89.718781"
           style="font-size:3.52778px;text-align:center;text-anchor:middle;stroke-width:0.264583">SaveAllenDataStage saveAllenDataStage</tspan></text>
    </g>
    <g
       id="g2111"
       transform="translate(374.96918,114.35433)">
      <rect
         style="fill:#ffffff;stroke:#000000;stroke-width:0.197722"
         id="rect1119-7-49"
         width="118.73128"
         height="8.1092215"
         x="-150.97049"
         y="128.97887"
         ry="1.2399435" />
      <text
         xml:space="preserve"
         style="font-size:3.52778px;line-height:1.25;font-family:Verdana;-inkscape-font-specification:Verdana;text-align:center;letter-spacing:0px;word-spacing:0px;text-anchor:middle;stroke-width:0.264583"
         x="-91.690979"
         y="134.01909"
         id="text14-35-5"><tspan
           sodipodi:role="line"
           id="tspan12-62-04"
           x="-91.690979"
           y="134.01909"
           style="font-size:3.52778px;text-align:center;text-anchor:middle;stroke-width:0.264583">DotFileWriterStage : componentDependencyDotFileWriterStage</tspan></text>
    </g>
    <g
       id="g2116"
       transform="translate(368.71354,78.945092)">
      <rect
         style="fill:#ffffff;stroke:#000000;stroke-width:0.216054"
         id="rect1119-7-49-7"
         width="142.08894"
         height="8.0908899"
         x="-156.7372"
         y="148.65694"
         ry="1.2371405" />
      <text
         xml:space="preserve"
         style="font-size:3.52778px;line-height:1.25;font-family:Verdana;-inkscape-font-specification:Verdana;text-align:center;letter-spacing:0px;word-spacing:0px;text-anchor:middle;stroke-width:0.264583"
         x="-85.778854"
         y="153.68768"
         id="text14-35-5-1"><tspan
           sodipodi:role="line"
           id="tspan12-62-04-7"
           x="-85.778854"
           y="153.68768"
           style="font-size:3.52778px;text-align:center;text-anchor:middle;stroke-width:0.264583">DependencyGraphCreatorStage : componentDependencyGraphCreatorStage</tspan></text>
    </g>
    <g
       id="g2121"
       transform="translate(240.83703,81.453392)">
      <rect
         style="fill:#ffffff;stroke:#000000;stroke-width:0.161015"
         id="rect1119-7-49-72"
         width="78.383987"
         height="8.1459284"
         x="-153.74092"
         y="162.23656"
         ry="1.2455562" />
      <text
         xml:space="preserve"
         style="font-size:3.52778px;line-height:1.25;font-family:Verdana;-inkscape-font-specification:Verdana;text-align:center;letter-spacing:0px;word-spacing:0px;text-anchor:middle;stroke-width:0.264583"
         x="-114.72807"
         y="167.29483"
         id="text14-35-5-2"><tspan
           sodipodi:role="line"
           id="tspan12-62-04-6"
           x="-114.72807"
           y="167.29483"
           style="font-size:3.52778px;text-align:center;text-anchor:middle;stroke-width:0.264583">Distributor&lt;IGraph&gt; : graphsDistributor</tspan></text>
    </g>
    <g
       id="g2126"
       transform="translate(203.96627,51.787142)">
      <rect
         style="fill:#ffffff;stroke:#000000;stroke-width:0.213814"
         id="rect1119-7-49-0"
         width="139.12018"
         height="8.0931292"
         x="-146.91095"
         y="176.62605"
         ry="1.237483" />
      <text
         xml:space="preserve"
         style="font-size:3.52778px;line-height:1.25;font-family:Verdana;-inkscape-font-specification:Verdana;text-align:center;letter-spacing:0px;word-spacing:0px;text-anchor:middle;stroke-width:0.264583"
         x="-77.436989"
         y="181.65793"
         id="text14-35-5-6"><tspan
           sodipodi:role="line"
           id="tspan12-62-04-1"
           x="-77.436989"
           y="181.65793"
           style="font-size:3.52778px;text-align:center;text-anchor:middle;stroke-width:0.264583">DependencyGraphCreatorStage : operationDependencyGraphCreatorStage</tspan></text>
    </g>
    <path
       style="fill:none;fill-rule:evenodd;stroke:#000000;stroke-width:0.264583px;stroke-linecap:butt;stroke-linejoin:miter;stroke-opacity:1;marker-end:url(#Arrow2Lend)"
       d="m 95.117212,13.107759 0.149594,8.276992"
       id="path2128"
       inkscape:connector-type="polyline"
       inkscape:connector-curvature="0"
       inkscape:connection-start="#g1516"
       inkscape:connection-end="#g1526" />
    <path
       style="fill:none;fill-rule:evenodd;stroke:#000000;stroke-width:0.264583px;stroke-linecap:butt;stroke-linejoin:miter;stroke-opacity:1;marker-end:url(#marker2631)"
       d="m 195.49385,202.78013 0.32213,6.37866"
       id="path2415"
       inkscape:connector-type="polyline"
       inkscape:connector-curvature="0"
       inkscape:connection-start="#g1521"
       inkscape:connection-end="#g1645" />
    <path
       style="fill:none;fill-rule:evenodd;stroke:#000000;stroke-width:0.264583px;stroke-linecap:butt;stroke-linejoin:miter;stroke-opacity:1;marker-end:url(#marker2585)"
       d="m 215.2633,217.30479 48.64607,10.29724"
       id="path2417"
       inkscape:connector-type="polyline"
       inkscape:connector-curvature="0"
       inkscape:connection-start="#g1645"
       inkscape:connection-end="#g2116" />
    <path
       style="fill:none;fill-rule:evenodd;stroke:#000000;stroke-width:0.264583px;stroke-linecap:butt;stroke-linejoin:miter;stroke-opacity:1;marker-end:url(#marker2429)"
       d="m 181.31957,217.30479 -40.09747,11.1084"
       id="path2419"
       inkscape:connector-type="polyline"
       inkscape:connector-curvature="0"
       inkscape:connection-start="#g1645"
       inkscape:connection-end="#g2126" />
    <path
       style="fill:none;fill-rule:evenodd;stroke:#000000;stroke-width:0.264583px;stroke-linecap:butt;stroke-linejoin:miter;stroke-opacity:1;marker-end:url(#marker2545)"
       d="m 283.1091,235.69292 0.16674,7.64028"
       id="path2455"
       inkscape:connector-type="polyline"
       inkscape:connector-curvature="0"
       inkscape:connection-start="#g2116"
       inkscape:connection-end="#g2111" />
    <path
       style="fill:none;fill-rule:evenodd;stroke:#000000;stroke-width:0.264583px;stroke-linecap:butt;stroke-linejoin:miter;stroke-opacity:1;marker-end:url(#marker2511)"
       d="m 126.52886,236.50632 -0.15365,7.18363"
       id="path2457"
       inkscape:connector-type="polyline"
       inkscape:connector-curvature="0"
       inkscape:connection-start="#g2126"
       inkscape:connection-end="#g2121" />
    <path
       style="fill:none;fill-rule:evenodd;stroke:#000000;stroke-width:0.264583px;stroke-linecap:butt;stroke-linejoin:miter;stroke-opacity:1;marker-end:url(#marker4189)"
       d="m 138.27287,251.83588 32.76527,11.13511"
       id="path2459"
       inkscape:connector-type="polyline"
       inkscape:connector-curvature="0"
       inkscape:connection-start="#g2121"
       inkscape:connection-end="#g1640" />
    <path
       style="fill:none;fill-rule:evenodd;stroke:#000000;stroke-width:0.264583px;stroke-linecap:butt;stroke-linejoin:miter;stroke-opacity:1;marker-end:url(#marker4199)"
       d="M 115.2264,251.83588 84.353933,263.20325"
       id="path2461"
       inkscape:connector-type="polyline"
       inkscape:connector-curvature="0"
       inkscape:connection-start="#g2121"
       inkscape:connection-end="#g1650" />
    <path
       style="fill:none;fill-rule:evenodd;stroke:#000000;stroke-width:0.264583px;stroke-linecap:butt;stroke-linejoin:miter;stroke-opacity:1;marker-end:url(#marker2913)"
       d="m 82.224788,90.292911 0,5.785832"
       id="path2891"
       inkscape:connector-type="polyline"
       inkscape:connector-curvature="0"
       inkscape:connection-start="#g1782"
       inkscape:connection-end="#g1796" />
    <path
       style="fill:none;fill-rule:evenodd;stroke:#000000;stroke-width:0.264583px;stroke-linecap:butt;stroke-linejoin:miter;stroke-opacity:1;marker-end:url(#marker3535)"
       d="m 82.224788,104.18553 0,3.96565"
       id="path2893"
       inkscape:connector-type="polyline"
       inkscape:connector-curvature="0"
       inkscape:connection-start="#g1796"
       inkscape:connection-end="#g1801" />
    <path
       style="fill:none;fill-rule:evenodd;stroke:#000000;stroke-width:0.264583px;stroke-linecap:butt;stroke-linejoin:miter;stroke-opacity:1;marker-end:url(#marker3525)"
       d="m 202.53396,90.226383 -1e-5,5.856759"
       id="path2895"
       inkscape:connector-type="polyline"
       inkscape:connector-curvature="0"
       inkscape:connection-start="#g1655"
       inkscape:connection-end="#g1586" />
    <path
       style="fill:none;fill-rule:evenodd;stroke:#000000;stroke-width:0.264583px;stroke-linecap:butt;stroke-linejoin:miter;stroke-opacity:1;marker-end:url(#marker3161)"
       d="m 212.23544,148.25537 0,4.87446"
       id="path2897"
       inkscape:connector-type="polyline"
       inkscape:connector-curvature="0"
       inkscape:connection-start="#g1576"
       inkscape:connection-end="#g1665" />
    <path
       style="fill:none;fill-rule:evenodd;stroke:#000000;stroke-width:0.264583px;stroke-linecap:butt;stroke-linejoin:miter;stroke-opacity:1;marker-end:url(#marker3243)"
       d="m 212.23544,161.24132 0,4.86955"
       id="path2899"
       inkscape:connector-type="polyline"
       inkscape:connector-curvature="0"
       inkscape:connection-start="#g1665"
       inkscape:connection-end="#g1591" />
    <path
       style="fill:none;fill-rule:evenodd;stroke:#000000;stroke-width:0.264583px;stroke-linecap:butt;stroke-linejoin:miter;stroke-opacity:1;marker-end:url(#marker3015)"
       d="m 80.662383,148.04043 -1e-6,4.87767"
       id="path2901"
       inkscape:connector-type="polyline"
       inkscape:connector-curvature="0"
       inkscape:connection-start="#g1531"
       inkscape:connection-end="#g1660" />
    <path
       style="fill:none;fill-rule:evenodd;stroke:#000000;stroke-width:0.264583px;stroke-linecap:butt;stroke-linejoin:miter;stroke-opacity:1;marker-end:url(#marker3085)"
       d="m 80.662382,161.02658 1e-6,4.87227"
       id="path2903"
       inkscape:connector-type="polyline"
       inkscape:connector-curvature="0"
       inkscape:connection-start="#g1660"
       inkscape:connection-end="#g1675" />
  </g>
</svg>
