<?xml version="1.0" encoding="UTF-8" standalone="no"?>
<!DOCTYPE svg PUBLIC "-//W3C//DTD SVG 1.1//EN"
 "http://www.w3.org/Graphics/SVG/1.1/DTD/svg11.dtd">
<!-- Generated by graphviz version 2.26.3 (20100126.1600)
 -->
<!-- Title: G Pages: 1 -->
<svg width="1038pt" height="82pt"
 viewBox="0.00 0.00 1038.00 82.00" xmlns="http://www.w3.org/2000/svg" xmlns:xlink="http://www.w3.org/1999/xlink">
<g id="graph1" class="graph" transform="scale(1 1) rotate(0) translate(4 78)">
<title>G</title>
<polygon fill="white" stroke="white" points="-4,5 -4,-78 1035,-78 1035,5 -4,5"/>
<!-- depNode_0 -->
<g id="node1" class="node"><title>depNode_0</title>
<text text-anchor="middle" x="27" y="-49.4" font-family="Times New Roman,serif" font-size="14.00">$</text>
</g>
<!-- depNode_4 -->
<g id="node5" class="node"><title>depNode_4</title>
<polygon fill="white" stroke="black" points="336,-74 98,-74 98,-34 336,-34 336,-74"/>
<text text-anchor="middle" x="217" y="-57.4" font-family="Times New Roman,serif" font-size="14.00">&lt;&lt;assembly component&gt;&gt;</text>
<text text-anchor="middle" x="217" y="-41.4" font-family="Times New Roman,serif" font-size="14.00">@4:bookstoreTracing.BookstoreStarter</text>
</g>
<!-- depNode_0&#45;&gt;depNode_4 -->
<g id="edge2" class="edge"><title>depNode_0&#45;&gt;depNode_4</title>
<path fill="none" stroke="black" stroke-dasharray="5,2" d="M54.2224,-54C63.7764,-54 75.2387,-54 87.5994,-54"/>
<polygon fill="black" stroke="black" points="97.6857,-54 87.6857,-58.5001 92.6857,-54 87.6857,-54.0001 87.6857,-54.0001 87.6857,-54.0001 92.6857,-54 87.6856,-49.5001 97.6857,-54 97.6857,-54"/>
<text text-anchor="middle" x="76" y="-57.4" font-family="Times New Roman,serif" font-size="14.00">1</text>
</g>
<!-- depNode_1 -->
<g id="node2" class="node"><title>depNode_1</title>
<polygon fill="white" stroke="black" points="1029,-74 845,-74 845,-34 1029,-34 1029,-74"/>
<text text-anchor="middle" x="937" y="-57.4" font-family="Times New Roman,serif" font-size="14.00">&lt;&lt;assembly component&gt;&gt;</text>
<text text-anchor="middle" x="937" y="-41.4" font-family="Times New Roman,serif" font-size="14.00">@1:bookstoreTracing.Catalog</text>
</g>
<!-- depNode_2 -->
<g id="node3" class="node"><title>depNode_2</title>
<polygon fill="white" stroke="black" points="800,-40 626,-40 626,-1.42109e-014 800,-0 800,-40"/>
<text text-anchor="middle" x="713" y="-23.4" font-family="Times New Roman,serif" font-size="14.00">&lt;&lt;assembly component&gt;&gt;</text>
<text text-anchor="middle" x="713" y="-7.4" font-family="Times New Roman,serif" font-size="14.00">@2:bookstoreTracing.CRM</text>
</g>
<!-- depNode_2&#45;&gt;depNode_1 -->
<g id="edge4" class="edge"><title>depNode_2&#45;&gt;depNode_1</title>
<path fill="none" stroke="black" stroke-dasharray="5,2" d="M800.246,-33.2426C811.457,-34.9444 823.017,-36.699 834.444,-38.4335"/>
<polygon fill="black" stroke="black" points="844.441,-39.9508 833.879,-42.8991 839.497,-39.2004 834.554,-38.4501 834.554,-38.4501 834.554,-38.4501 839.497,-39.2004 835.229,-34.001 844.441,-39.9508 844.441,-39.9508"/>
<text text-anchor="middle" x="822" y="-40.4" font-family="Times New Roman,serif" font-size="14.00">1</text>
</g>
<!-- depNode_3 -->
<g id="node4" class="node"><title>depNode_3</title>
<polygon fill="white" stroke="black" points="581,-74 381,-74 381,-34 581,-34 581,-74"/>
<text text-anchor="middle" x="481" y="-57.4" font-family="Times New Roman,serif" font-size="14.00">&lt;&lt;assembly component&gt;&gt;</text>
<text text-anchor="middle" x="481" y="-41.4" font-family="Times New Roman,serif" font-size="14.00">@3:bookstoreTracing.Bookstore</text>
</g>
<!-- depNode_3&#45;&gt;depNode_1 -->
<g id="edge6" class="edge"><title>depNode_3&#45;&gt;depNode_1</title>
<path fill="none" stroke="black" stroke-dasharray="5,2" d="M581.771,-56.0546C650.572,-57.1681 743.797,-58.1106 826,-57 828.708,-56.9634 831.452,-56.9218 834.222,-56.8759"/>
<polygon fill="black" stroke="black" points="844.337,-56.6916 834.42,-61.3731 839.338,-56.7827 834.338,-56.8738 834.338,-56.8738 834.338,-56.8738 839.338,-56.7827 834.256,-52.3746 844.337,-56.6916 844.337,-56.6916"/>
<text text-anchor="middle" x="713" y="-60.4" font-family="Times New Roman,serif" font-size="14.00">1</text>
</g>
<!-- depNode_3&#45;&gt;depNode_2 -->
<g id="edge8" class="edge"><title>depNode_3&#45;&gt;depNode_2</title>
<path fill="none" stroke="black" stroke-dasharray="5,2" d="M581.746,-39.2354C592.981,-37.5889 604.411,-35.914 615.603,-34.2737"/>
<polygon fill="black" stroke="black" points="625.802,-32.779 616.56,-38.6816 620.855,-33.5041 615.908,-34.2291 615.908,-34.2291 615.908,-34.2291 620.855,-33.5041 615.255,-29.7767 625.802,-32.779 625.802,-32.779"/>
<text text-anchor="middle" x="604" y="-38.4" font-family="Times New Roman,serif" font-size="14.00">1</text>
</g>
<!-- depNode_4&#45;&gt;depNode_3 -->
<g id="edge10" class="edge"><title>depNode_4&#45;&gt;depNode_3</title>
<path fill="none" stroke="black" stroke-dasharray="5,2" d="M336.256,-54C347.555,-54 358.979,-54 370.194,-54"/>
<polygon fill="black" stroke="black" points="380.425,-54 370.425,-58.5001 375.425,-54 370.425,-54.0001 370.425,-54.0001 370.425,-54.0001 375.425,-54 370.425,-49.5001 380.425,-54 380.425,-54"/>
<text text-anchor="middle" x="358" y="-57.4" font-family="Times New Roman,serif" font-size="14.00">1</text>
</g>
</g>
</svg>
