<?xml version="1.0" encoding="UTF-8" standalone="no"?>
<svg
   xmlns:dc="http://purl.org/dc/elements/1.1/"
   xmlns:cc="http://creativecommons.org/ns#"
   xmlns:rdf="http://www.w3.org/1999/02/22-rdf-syntax-ns#"
   xmlns:svg="http://www.w3.org/2000/svg"
   xmlns="http://www.w3.org/2000/svg"
   xmlns:xlink="http://www.w3.org/1999/xlink"
   xmlns:sodipodi="http://sodipodi.sourceforge.net/DTD/sodipodi-0.dtd"
   xmlns:inkscape="http://www.inkscape.org/namespaces/inkscape"
   stroke-dasharray="none"
   shape-rendering="auto"
   font-family="'Dialog'"
   width="426"
   text-rendering="auto"
   fill-opacity="1"
   contentScriptType="text/ecmascript"
   color-interpolation="auto"
   color-rendering="auto"
   preserveAspectRatio="xMidYMid meet"
   font-size="12"
   viewBox="0 0 426 278"
   fill="black"
   stroke="black"
   image-rendering="auto"
   stroke-miterlimit="10"
   zoomAndPan="magnify"
   version="1.0"
   stroke-linecap="square"
   stroke-linejoin="miter"
   contentStyleType="text/css"
   font-style="normal"
   height="278"
   stroke-width="1"
   stroke-dashoffset="0"
   font-weight="normal"
   stroke-opacity="1"
   id="svg2"
   inkscape:version="0.48.1 r9760"
   sodipodi:docname="kieker_writerimplsuserguide-modified.svg">
  <metadata
     id="metadata467">
    <rdf:RDF>
      <cc:Work
         rdf:about="">
        <dc:format>image/svg+xml</dc:format>
        <dc:type
           rdf:resource="http://purl.org/dc/dcmitype/StillImage" />
      </cc:Work>
    </rdf:RDF>
  </metadata>
  <sodipodi:namedview
     pagecolor="#ffffff"
     bordercolor="#666666"
     borderopacity="1"
     objecttolerance="10"
     gridtolerance="10"
     guidetolerance="10"
     inkscape:pageopacity="0"
     inkscape:pageshadow="2"
     inkscape:window-width="1366"
     inkscape:window-height="713"
     id="namedview465"
     showgrid="false"
     inkscape:zoom="3.1338441"
     inkscape:cx="292.76219"
     inkscape:cy="68.472231"
     inkscape:window-x="-4"
     inkscape:window-y="32"
     inkscape:window-maximized="1"
     inkscape:current-layer="svg2" />
  <!--Generated by the Batik Graphics2D SVG Generator-->
  <defs
     id="genericDefs">
    <defs
       id="defs1">
      <linearGradient
         spreadMethod="pad"
         xlink:show="other"
         id="linearGradient1"
         xlink:actuate="onLoad"
         xlink:type="simple"
         y2="168"
         gradientUnits="userSpaceOnUse"
         y1="154"
         x2="105"
         x1="105">
        <stop
           id="stop9"
           offset="0%"
           stop-color="white"
           stop-opacity="1" />
        <stop
           id="stop11"
           offset="100%"
           stop-color="rgb(236,236,236)"
           stop-opacity="1" />
      </linearGradient>
      <linearGradient
         spreadMethod="pad"
         xlink:show="other"
         id="linearGradient2"
         xlink:actuate="onLoad"
         xlink:type="simple"
         y2="141"
         gradientUnits="userSpaceOnUse"
         y1="95"
         x2="105"
         x1="105">
        <stop
           id="stop14"
           offset="0%"
           stop-color="rgb(226,241,254)"
           stop-opacity="1" />
        <stop
           id="stop16"
           offset="100%"
           stop-color="rgb(188,213,234)"
           stop-opacity="1" />
      </linearGradient>
      <linearGradient
         spreadMethod="pad"
         xlink:show="other"
         id="linearGradient3"
         xlink:actuate="onLoad"
         xlink:type="simple"
         y2="224"
         gradientUnits="userSpaceOnUse"
         y1="204"
         x2="10"
         x1="10">
        <stop
           id="stop19"
           offset="0%"
           stop-color="rgb(226,241,254)"
           stop-opacity="1" />
        <stop
           id="stop21"
           offset="100%"
           stop-color="rgb(188,213,234)"
           stop-opacity="1" />
      </linearGradient>
      <linearGradient
         spreadMethod="pad"
         xlink:show="other"
         id="linearGradient4"
         xlink:actuate="onLoad"
         xlink:type="simple"
         y2="262"
         gradientUnits="userSpaceOnUse"
         y1="242"
         x2="36"
         x1="36">
        <stop
           id="stop24"
           offset="0%"
           stop-color="rgb(226,241,254)"
           stop-opacity="1" />
        <stop
           id="stop26"
           offset="100%"
           stop-color="rgb(188,213,234)"
           stop-opacity="1" />
      </linearGradient>
      <linearGradient
         spreadMethod="pad"
         xlink:show="other"
         id="linearGradient5"
         xlink:actuate="onLoad"
         xlink:type="simple"
         y2="224"
         gradientUnits="userSpaceOnUse"
         y1="204"
         x2="298"
         x1="298">
        <stop
           id="stop29"
           offset="0%"
           stop-color="rgb(226,241,254)"
           stop-opacity="1" />
        <stop
           id="stop31"
           offset="100%"
           stop-color="rgb(188,213,234)"
           stop-opacity="1" />
      </linearGradient>
      <linearGradient
         spreadMethod="pad"
         xlink:show="other"
         id="linearGradient6"
         xlink:actuate="onLoad"
         xlink:type="simple"
         y2="262"
         gradientUnits="userSpaceOnUse"
         y1="242"
         x2="274"
         x1="274">
        <stop
           id="stop34"
           offset="0%"
           stop-color="rgb(226,241,254)"
           stop-opacity="1" />
        <stop
           id="stop36"
           offset="100%"
           stop-color="rgb(188,213,234)"
           stop-opacity="1" />
      </linearGradient>
      <linearGradient
         spreadMethod="pad"
         xlink:show="other"
         id="linearGradient7"
         xlink:actuate="onLoad"
         xlink:type="simple"
         y2="224"
         gradientUnits="userSpaceOnUse"
         y1="204"
         x2="142"
         x1="142">
        <stop
           id="stop39"
           offset="0%"
           stop-color="rgb(226,241,254)"
           stop-opacity="1" />
        <stop
           id="stop41"
           offset="100%"
           stop-color="rgb(188,213,234)"
           stop-opacity="1" />
      </linearGradient>
      <linearGradient
         spreadMethod="pad"
         xlink:show="other"
         id="linearGradient8"
         xlink:actuate="onLoad"
         xlink:type="simple"
         y2="70"
         gradientUnits="userSpaceOnUse"
         y1="56"
         x2="24"
         x1="24">
        <stop
           id="stop44"
           offset="0%"
           stop-color="white"
           stop-opacity="1" />
        <stop
           id="stop46"
           offset="100%"
           stop-color="rgb(236,236,236)"
           stop-opacity="1" />
      </linearGradient>
      <linearGradient
         spreadMethod="pad"
         xlink:show="other"
         id="linearGradient9"
         xlink:actuate="onLoad"
         xlink:type="simple"
         y2="56"
         gradientUnits="userSpaceOnUse"
         y1="10"
         x2="24"
         x1="24">
        <stop
           id="stop49"
           offset="0%"
           stop-color="rgb(226,241,254)"
           stop-opacity="1" />
        <stop
           id="stop51"
           offset="100%"
           stop-color="rgb(188,213,234)"
           stop-opacity="1" />
      </linearGradient>
      <linearGradient
         spreadMethod="pad"
         xlink:show="other"
         id="linearGradient10"
         xlink:actuate="onLoad"
         xlink:type="simple"
         y2="263"
         gradientUnits="userSpaceOnUse"
         y1="243"
         x2="178"
         x1="178">
        <stop
           id="stop54"
           offset="0%"
           stop-color="rgb(226,241,254)"
           stop-opacity="1" />
        <stop
           id="stop56"
           offset="100%"
           stop-color="rgb(188,213,234)"
           stop-opacity="1" />
      </linearGradient>
      <clipPath
         id="clipPath1"
         clipPathUnits="userSpaceOnUse">
        <path
           id="path59"
           d="M103 93 L326 93 L326 174 L103 174 L103 93 Z" />
      </clipPath>
      <clipPath
         id="clipPath2"
         clipPathUnits="userSpaceOnUse">
        <path
           id="path62"
           d="M180 97 L247 97 L247 113 L180 113 L180 97 Z" />
      </clipPath>
      <clipPath
         id="clipPath3"
         clipPathUnits="userSpaceOnUse">
        <path
           id="path65"
           d="M155 110 L271 110 L271 126 L155 126 L155 110 Z" />
      </clipPath>
      <clipPath
         id="clipPath4"
         clipPathUnits="userSpaceOnUse">
        <path
           id="path68"
           d="M120 123 L306 123 L306 139 L120 139 L120 123 Z" />
      </clipPath>
      <clipPath
         id="clipPath5"
         clipPathUnits="userSpaceOnUse">
        <path
           id="path71"
           d="M110 140 L317 140 L317 156 L110 156 L110 140 Z" />
      </clipPath>
      <clipPath
         id="clipPath6"
         clipPathUnits="userSpaceOnUse">
        <path
           id="path74"
           d="M110 153 L261 153 L261 169 L110 169 L110 153 Z" />
      </clipPath>
      <clipPath
         id="clipPath7"
         clipPathUnits="userSpaceOnUse">
        <path
           id="path77"
           d="M104 139 L322 139 L322 169 L104 169 L104 139 Z" />
      </clipPath>
      <clipPath
         id="clipPath8"
         clipPathUnits="userSpaceOnUse">
        <path
           id="path80"
           d="M103 166 L326 166 L326 173 L103 173 L103 166 Z" />
      </clipPath>
      <clipPath
         id="clipPath9"
         clipPathUnits="userSpaceOnUse">
        <path
           id="path83"
           d="M320 93 L327 93 L327 170 L320 170 L320 93 Z" />
      </clipPath>
      <clipPath
         id="clipPath10"
         clipPathUnits="userSpaceOnUse">
        <path
           id="path86"
           d="M8 202 L128 202 L128 230 L8 230 L8 202 Z" />
      </clipPath>
      <clipPath
         id="clipPath11"
         clipPathUnits="userSpaceOnUse">
        <path
           id="path89"
           d="M19 206 L114 206 L114 222 L19 222 L19 206 Z" />
      </clipPath>
      <clipPath
         id="clipPath12"
         clipPathUnits="userSpaceOnUse">
        <path
           id="path92"
           d="M8 222 L128 222 L128 229 L8 229 L8 222 Z" />
      </clipPath>
      <clipPath
         id="clipPath13"
         clipPathUnits="userSpaceOnUse">
        <path
           id="path95"
           d="M122 202 L129 202 L129 226 L122 226 L122 202 Z" />
      </clipPath>
      <clipPath
         id="clipPath14"
         clipPathUnits="userSpaceOnUse">
        <path
           id="path98"
           d="M34 240 L147 240 L147 268 L34 268 L34 240 Z" />
      </clipPath>
      <clipPath
         id="clipPath15"
         clipPathUnits="userSpaceOnUse">
        <path
           id="path101"
           d="M45 244 L133 244 L133 260 L45 260 L45 244 Z" />
      </clipPath>
      <clipPath
         id="clipPath16"
         clipPathUnits="userSpaceOnUse">
        <path
           id="path104"
           d="M34 260 L147 260 L147 267 L34 267 L34 260 Z" />
      </clipPath>
      <clipPath
         id="clipPath17"
         clipPathUnits="userSpaceOnUse">
        <path
           id="path107"
           d="M141 240 L148 240 L148 264 L141 264 L141 240 Z" />
      </clipPath>
      <clipPath
         id="clipPath18"
         clipPathUnits="userSpaceOnUse">
        <path
           id="path110"
           d="M296 202 L418 202 L418 230 L296 230 L296 202 Z" />
      </clipPath>
      <clipPath
         id="clipPath19"
         clipPathUnits="userSpaceOnUse">
        <path
           id="path113"
           d="M307 206 L404 206 L404 222 L307 222 L307 206 Z" />
      </clipPath>
      <clipPath
         id="clipPath20"
         clipPathUnits="userSpaceOnUse">
        <path
           id="path116"
           d="M296 222 L418 222 L418 229 L296 229 L296 222 Z" />
      </clipPath>
      <clipPath
         id="clipPath21"
         clipPathUnits="userSpaceOnUse">
        <path
           id="path119"
           d="M412 202 L419 202 L419 226 L412 226 L412 202 Z" />
      </clipPath>
      <clipPath
         id="clipPath22"
         clipPathUnits="userSpaceOnUse">
        <path
           id="path122"
           d="M272 240 L387 240 L387 268 L272 268 L272 240 Z" />
      </clipPath>
      <clipPath
         id="clipPath23"
         clipPathUnits="userSpaceOnUse">
        <path
           id="path125"
           d="M283 244 L373 244 L373 260 L283 260 L283 244 Z" />
      </clipPath>
      <clipPath
         id="clipPath24"
         clipPathUnits="userSpaceOnUse">
        <path
           id="path128"
           d="M272 260 L387 260 L387 267 L272 267 L272 260 Z" />
      </clipPath>
      <clipPath
         id="clipPath25"
         clipPathUnits="userSpaceOnUse">
        <path
           id="path131"
           d="M381 240 L388 240 L388 264 L381 264 L381 240 Z" />
      </clipPath>
      <clipPath
         id="clipPath26"
         clipPathUnits="userSpaceOnUse">
        <path
           id="path134"
           d="M140 202 L268 202 L268 230 L140 230 L140 202 Z" />
      </clipPath>
      <clipPath
         id="clipPath27"
         clipPathUnits="userSpaceOnUse">
        <path
           id="path137"
           d="M151 206 L254 206 L254 222 L151 222 L151 206 Z" />
      </clipPath>
      <clipPath
         id="clipPath28"
         clipPathUnits="userSpaceOnUse">
        <path
           id="path140"
           d="M140 222 L268 222 L268 229 L140 229 L140 222 Z" />
      </clipPath>
      <clipPath
         id="clipPath29"
         clipPathUnits="userSpaceOnUse">
        <path
           id="path143"
           d="M262 202 L269 202 L269 226 L262 226 L262 202 Z" />
      </clipPath>
      <clipPath
         id="clipPath30"
         clipPathUnits="userSpaceOnUse">
        <path
           id="path146"
           d="M22 8 L403 8 L403 76 L22 76 L22 8 Z" />
      </clipPath>
      <clipPath
         id="clipPath31"
         clipPathUnits="userSpaceOnUse">
        <path
           id="path149"
           d="M177 12 L244 12 L244 28 L177 28 L177 12 Z" />
      </clipPath>
      <clipPath
         id="clipPath32"
         clipPathUnits="userSpaceOnUse">
        <path
           id="path152"
           d="M123 25 L298 25 L298 41 L123 41 L123 25 Z" />
      </clipPath>
      <clipPath
         id="clipPath33"
         clipPathUnits="userSpaceOnUse">
        <path
           id="path155"
           d="M122 38 L300 38 L300 54 L122 54 L122 38 Z" />
      </clipPath>
      <clipPath
         id="clipPath34"
         clipPathUnits="userSpaceOnUse">
        <path
           id="path158"
           d="M28 55 L392 55 L392 71 L28 71 L28 55 Z" />
      </clipPath>
      <clipPath
         id="clipPath35"
         clipPathUnits="userSpaceOnUse">
        <path
           id="path161"
           d="M23 54 L399 54 L399 71 L23 71 L23 54 Z" />
      </clipPath>
      <clipPath
         id="clipPath36"
         clipPathUnits="userSpaceOnUse">
        <path
           id="path164"
           d="M22 68 L403 68 L403 75 L22 75 L22 68 Z" />
      </clipPath>
      <clipPath
         id="clipPath37"
         clipPathUnits="userSpaceOnUse">
        <path
           id="path167"
           d="M397 8 L404 8 L404 72 L397 72 L397 8 Z" />
      </clipPath>
      <clipPath
         id="clipPath38"
         clipPathUnits="userSpaceOnUse">
        <path
           id="path170"
           d="M176 241 L272 241 L272 269 L176 269 L176 241 Z" />
      </clipPath>
      <clipPath
         id="clipPath39"
         clipPathUnits="userSpaceOnUse">
        <path
           id="path173"
           d="M187 245 L258 245 L258 261 L187 261 L187 245 Z" />
      </clipPath>
      <clipPath
         id="clipPath40"
         clipPathUnits="userSpaceOnUse">
        <path
           id="path176"
           d="M176 261 L272 261 L272 268 L176 268 L176 261 Z" />
      </clipPath>
      <clipPath
         id="clipPath41"
         clipPathUnits="userSpaceOnUse">
        <path
           id="path179"
           d="M266 241 L273 241 L273 265 L266 265 L266 241 Z" />
      </clipPath>
      <clipPath
         id="clipPath42"
         clipPathUnits="userSpaceOnUse">
        <path
           id="path182"
           d="M-1 -1 L427 -1 L427 279 L-1 279 L-1 -1 Z" />
      </clipPath>
      <clipPath
         id="clipPath43"
         clipPathUnits="userSpaceOnUse">
        <path
           id="path185"
           d="M102 166 L116 166 L116 180 L102 180 L102 166 Z" />
      </clipPath>
      <clipPath
         id="clipPath44"
         clipPathUnits="userSpaceOnUse">
        <path
           id="path188"
           d="M129 166 L143 166 L143 180 L129 180 L129 166 Z" />
      </clipPath>
      <clipPath
         id="clipPath45"
         clipPathUnits="userSpaceOnUse">
        <path
           id="path191"
           d="M308 166 L322 166 L322 180 L308 180 L308 166 Z" />
      </clipPath>
      <clipPath
         id="clipPath46"
         clipPathUnits="userSpaceOnUse">
        <path
           id="path194"
           d="M284 166 L298 166 L298 180 L284 180 L284 166 Z" />
      </clipPath>
      <clipPath
         id="clipPath47"
         clipPathUnits="userSpaceOnUse">
        <path
           id="path197"
           d="M202 166 L216 166 L216 180 L202 180 L202 166 Z" />
      </clipPath>
      <clipPath
         id="clipPath48"
         clipPathUnits="userSpaceOnUse">
        <path
           id="path200"
           d="M205 69 L219 69 L219 83 L205 83 L205 69 Z" />
      </clipPath>
      <clipPath
         id="clipPath49"
         clipPathUnits="userSpaceOnUse">
        <path
           id="path203"
           d="M260 166 L274 166 L274 180 L260 180 L260 166 Z" />
      </clipPath>
    </defs>
    <linearGradient
       inkscape:collect="always"
       xlink:href="#linearGradient3"
       id="linearGradient3703"
       gradientUnits="userSpaceOnUse"
       spreadMethod="pad"
       x1="10"
       y1="204"
       x2="10"
       y2="224" />
    <linearGradient
       inkscape:collect="always"
       xlink:href="#linearGradient4"
       id="linearGradient3705"
       gradientUnits="userSpaceOnUse"
       spreadMethod="pad"
       x1="36"
       y1="242"
       x2="36"
       y2="262" />
    <linearGradient
       inkscape:collect="always"
       xlink:href="#linearGradient5"
       id="linearGradient3707"
       gradientUnits="userSpaceOnUse"
       spreadMethod="pad"
       x1="298"
       y1="204"
       x2="298"
       y2="224" />
    <linearGradient
       inkscape:collect="always"
       xlink:href="#linearGradient6"
       id="linearGradient3709"
       gradientUnits="userSpaceOnUse"
       spreadMethod="pad"
       x1="274"
       y1="242"
       x2="274"
       y2="262" />
    <linearGradient
       inkscape:collect="always"
       xlink:href="#linearGradient7"
       id="linearGradient3711"
       gradientUnits="userSpaceOnUse"
       spreadMethod="pad"
       x1="142"
       y1="204"
       x2="142"
       y2="224" />
    <linearGradient
       inkscape:collect="always"
       xlink:href="#linearGradient8"
       id="linearGradient3713"
       gradientUnits="userSpaceOnUse"
       spreadMethod="pad"
       x1="24"
       y1="56"
       x2="24"
       y2="70" />
    <linearGradient
       inkscape:collect="always"
       xlink:href="#linearGradient9"
       id="linearGradient3715"
       gradientUnits="userSpaceOnUse"
       spreadMethod="pad"
       x1="24"
       y1="10"
       x2="24"
       y2="56" />
    <linearGradient
       inkscape:collect="always"
       xlink:href="#linearGradient10"
       id="linearGradient3717"
       gradientUnits="userSpaceOnUse"
       spreadMethod="pad"
       x1="178"
       y1="243"
       x2="178"
       y2="263" />
    <linearGradient
       inkscape:collect="always"
       xlink:href="#linearGradient1"
       id="linearGradient3839"
       gradientUnits="userSpaceOnUse"
       spreadMethod="pad"
       x1="105"
       y1="154"
       x2="105"
       y2="168" />
    <linearGradient
       inkscape:collect="always"
       xlink:href="#linearGradient2"
       id="linearGradient3841"
       gradientUnits="userSpaceOnUse"
       spreadMethod="pad"
       x1="105"
       y1="95"
       x2="105"
       y2="141" />
  </defs>
  <rect
     x="105"
     y="95"
     clip-path="url(#clipPath1)"
     width="216"
     height="73"
     id="rect207"
     style="font-size:11px;fill:#ffffff;stroke:none" />
  <rect
     x="105"
     y="154"
     clip-path="url(#clipPath1)"
     width="216"
     height="14"
     id="rect209"
     style="font-size:11px;fill:url(#linearGradient3839);stroke:none" />
  <text
     x="181"
     y="109"
     clip-path="url(#clipPath2)"
     xml:space="preserve"
     id="text213"
     style="font-size:11px;fill:#000000;stroke:none">«interface»</text>
  <text
     x="156"
     y="122"
     clip-path="url(#clipPath3)"
     font-weight="bold"
     xml:space="preserve"
     id="text215"
     style="font-size:11px;font-weight:bold;fill:#000000;stroke:none">IMonitoringWriter</text>
  <text
     x="121"
     y="135"
     clip-path="url(#clipPath4)"
     xml:space="preserve"
     id="text217"
     style="font-size:11px;fill:#000000;stroke:none">(from kieker::monitoring::writer)</text>
  <text
     x="111"
     y="152"
     clip-path="url(#clipPath5)"
     xml:space="preserve"
     id="text219"
     style="font-size:11px;fill:#000000;stroke:none">+ init ( initString : String ) : boolean</text>
  <text
     x="111"
     y="165"
     clip-path="url(#clipPath6)"
     xml:space="preserve"
     id="text221"
     style="font-size:11px;fill:#000000;stroke:none">+ getInfoString ( ) : String</text>
  <line
     clip-path="url(#clipPath7)"
     x1="105"
     x2="320"
     y1="140"
     y2="140"
     id="line225"
     style="font-size:11px;fill:none;stroke-width:1.08270001;stroke-linecap:butt" />
  <rect
     x="104"
     y="94"
     clip-path="url(#clipPath1)"
     width="216"
     height="73"
     id="rect243"
     style="font-size:11px;fill:none;stroke-width:1.08270001;stroke-linecap:butt" />
  <rect
     x="10"
     y="204"
     clip-path="url(#clipPath10)"
     width="113"
     height="20"
     id="rect245"
     style="font-size:11px;fill:#ffffff;stroke:none" />
  <text
     x="20"
     y="218"
     clip-path="url(#clipPath11)"
     font-weight="bold"
     xml:space="preserve"
     id="text249"
     style="font-size:11px;font-weight:bold;stroke:none">AsyncFsWriter</text>
  <rect
     x="9"
     y="203"
     clip-path="url(#clipPath10)"
     width="113"
     height="20"
     id="rect267"
     style="font-size:11px;fill:none;stroke-width:1.08270001;stroke-linecap:butt" />
  <rect
     x="36"
     y="242"
     clip-path="url(#clipPath14)"
     width="106"
     height="20"
     id="rect269"
     style="font-size:11px;fill:#ffffff;stroke:none" />
  <text
     x="46"
     y="256"
     clip-path="url(#clipPath15)"
     font-weight="bold"
     xml:space="preserve"
     id="text273"
     style="font-size:11px;font-weight:bold;stroke:none">SyncFsWriter</text>
  <rect
     x="35"
     y="241"
     clip-path="url(#clipPath14)"
     width="106"
     height="20"
     id="rect291"
     style="font-size:11px;fill:none;stroke-width:1.08270001;stroke-linecap:butt" />
  <rect
     x="298"
     y="204"
     clip-path="url(#clipPath18)"
     width="115"
     height="20"
     id="rect293"
     style="font-size:11px;fill:#ffffff;stroke:none" />
  <text
     x="308"
     y="218"
     clip-path="url(#clipPath19)"
     font-weight="bold"
     xml:space="preserve"
     id="text297"
     style="font-size:11px;font-weight:bold;stroke:none">AsyncDbWriter</text>
  <rect
     x="297"
     y="203"
     clip-path="url(#clipPath18)"
     width="115"
     height="20"
     id="rect315"
     style="font-size:11px;fill:none;stroke-width:1.08270001;stroke-linecap:butt" />
  <rect
     x="274"
     y="242"
     clip-path="url(#clipPath22)"
     width="108"
     height="20"
     id="rect317"
     style="font-size:11px;fill:#ffffff;stroke:none" />
  <text
     x="284"
     y="256"
     clip-path="url(#clipPath23)"
     font-weight="bold"
     xml:space="preserve"
     id="text321"
     style="font-size:11px;font-weight:bold;stroke:none">SyncDbWriter</text>
  <rect
     x="273"
     y="241"
     clip-path="url(#clipPath22)"
     width="108"
     height="20"
     id="rect339"
     style="font-size:11px;fill:none;stroke-width:1.08270001;stroke-linecap:butt" />
  <rect
     x="142"
     y="204"
     clip-path="url(#clipPath26)"
     width="121"
     height="20"
     id="rect341"
     style="font-size:11px;fill:#ffffff;stroke:none" />
  <text
     x="152"
     y="218"
     clip-path="url(#clipPath27)"
     font-weight="bold"
     xml:space="preserve"
     id="text345"
     style="font-size:11px;font-weight:bold;stroke:none">AsyncJMSWriter</text>
  <rect
     x="141"
     y="203"
     clip-path="url(#clipPath26)"
     width="121"
     height="20"
     id="rect363"
     style="font-size:11px;fill:none;stroke-width:1.08270001;stroke-linecap:butt" />
  <rect
     x="24"
     y="10"
     clip-path="url(#clipPath30)"
     width="374"
     height="60"
     id="rect365"
     style="font-size:11px;fill:#ffffff;stroke:none" />
  <rect
     x="24"
     y="56"
     clip-path="url(#clipPath30)"
     width="374"
     height="14"
     id="rect367"
     style="font-size:11px;fill:url(#linearGradient3713);stroke:none" />
  <text
     xml:space="preserve"
     x="178"
     y="24"
     clip-path="url(#clipPath31)"
     id="text371"
     style="font-size:11px;stroke:none">«interface»</text>
  <text
     x="124"
     y="37"
     clip-path="url(#clipPath32)"
     font-weight="bold"
     xml:space="preserve"
     id="text373"
     style="font-size:11px;font-weight:bold;stroke:none">IMonitoringRecordReceiver</text>
  <text
     xml:space="preserve"
     x="123"
     y="50"
     clip-path="url(#clipPath33)"
     id="text375"
     style="font-size:11px;stroke:none">(from kieker::common::record)</text>
  <text
     xml:space="preserve"
     x="29"
     y="67"
     clip-path="url(#clipPath34)"
     id="text377"
     style="font-size:11px;stroke:none">+ newMonitoringRecord ( record : IMonitoringRecord ) : boolean</text>
  <line
     clip-path="url(#clipPath35)"
     x1="24"
     x2="397"
     y1="55"
     y2="55"
     id="line379"
     style="font-size:11px;fill:none;stroke-width:1.08270001;stroke-linecap:butt" />
  <rect
     x="23"
     y="9"
     clip-path="url(#clipPath30)"
     width="374"
     height="60"
     id="rect397"
     style="font-size:11px;fill:none;stroke-width:1.08270001;stroke-linecap:butt" />
  <rect
     x="178"
     y="243"
     clip-path="url(#clipPath38)"
     width="89"
     height="20"
     id="rect399"
     style="font-size:11px;fill:#ffffff;stroke:none" />
  <text
     x="188"
     y="257"
     clip-path="url(#clipPath39)"
     font-weight="bold"
     xml:space="preserve"
     id="text403"
     style="font-size:11px;font-weight:bold;stroke:none">PipeWriter</text>
  <rect
     x="177"
     y="242"
     clip-path="url(#clipPath38)"
     width="89"
     height="20"
     id="rect421"
     style="font-size:11px;fill:none;stroke-width:1.08270001;stroke-linecap:butt" />
  <line
     clip-path="url(#clipPath42)"
     x1="108"
     x2="108"
     y1="203"
     y2="168"
     id="line423"
     style="font-size:11px;fill:none;stroke-width:1.08270001;stroke-linecap:butt;stroke-dasharray:3, 3" />
  <polygon
     clip-path="url(#clipPath43)"
     points="113,178 103,178 108,168 "
     id="polygon425"
     style="font-size:11px;fill:#ffffff;stroke:none" />
  <polygon
     clip-path="url(#clipPath43)"
     points="113,178 103,178 108,168 "
     id="polygon427"
     style="font-size:11px;fill:none;stroke-width:1.08270001;stroke-linecap:butt" />
  <line
     clip-path="url(#clipPath42)"
     x1="135"
     x2="135"
     y1="241"
     y2="168"
     id="line429"
     style="font-size:11px;fill:none;stroke-width:1.08270001;stroke-linecap:butt;stroke-dasharray:3, 3" />
  <polygon
     clip-path="url(#clipPath44)"
     points="140,178 130,178 135,168 "
     id="polygon431"
     style="font-size:11px;fill:#ffffff;stroke:none" />
  <polygon
     clip-path="url(#clipPath44)"
     points="140,178 130,178 135,168 "
     id="polygon433"
     style="font-size:11px;fill:none;stroke-width:1.08270001;stroke-linecap:butt" />
  <line
     clip-path="url(#clipPath42)"
     x1="315"
     x2="315"
     y1="203"
     y2="168"
     id="line435"
     style="font-size:11px;fill:none;stroke-width:1.08270001;stroke-linecap:butt;stroke-dasharray:3, 3" />
  <polygon
     clip-path="url(#clipPath45)"
     points="320,178 310,178 315,168 "
     id="polygon437"
     style="font-size:11px;fill:#ffffff;stroke:none" />
  <polygon
     clip-path="url(#clipPath45)"
     points="320,178 310,178 315,168 "
     id="polygon439"
     style="font-size:11px;fill:none;stroke-width:1.08270001;stroke-linecap:butt" />
  <line
     clip-path="url(#clipPath42)"
     x1="291"
     x2="291"
     y1="241"
     y2="168"
     id="line441"
     style="font-size:11px;fill:none;stroke-width:1.08270001;stroke-linecap:butt;stroke-dasharray:3, 3" />
  <polygon
     clip-path="url(#clipPath46)"
     points="296,178 286,178 291,168 "
     id="polygon443"
     style="font-size:11px;fill:#ffffff;stroke:none" />
  <polygon
     clip-path="url(#clipPath46)"
     points="296,178 286,178 291,168 "
     id="polygon445"
     style="font-size:11px;fill:none;stroke-width:1.08270001;stroke-linecap:butt" />
  <line
     clip-path="url(#clipPath42)"
     x1="209"
     x2="209"
     y1="203"
     y2="168"
     id="line447"
     style="font-size:11px;fill:none;stroke-width:1.08270001;stroke-linecap:butt;stroke-dasharray:3, 3" />
  <polygon
     clip-path="url(#clipPath47)"
     points="214,178 204,178 209,168 "
     id="polygon449"
     style="font-size:11px;fill:#ffffff;stroke:none" />
  <polygon
     clip-path="url(#clipPath47)"
     points="214,178 204,178 209,168 "
     id="polygon451"
     style="font-size:11px;fill:none;stroke-width:1.08270001;stroke-linecap:butt" />
  <line
     clip-path="url(#clipPath42)"
     x1="212"
     x2="212"
     y1="94"
     y2="70"
     id="line453"
     style="font-size:11px;fill:none;stroke-width:1.08270001;stroke-linecap:butt" />
  <polygon
     clip-path="url(#clipPath48)"
     points="217,80 207,80 212,70 "
     id="polygon455"
     style="font-size:11px;fill:#ffffff;stroke:none" />
  <polygon
     clip-path="url(#clipPath48)"
     points="217,80 207,80 212,70 "
     id="polygon457"
     style="font-size:11px;fill:none;stroke-width:1.08270001;stroke-linecap:butt" />
  <line
     clip-path="url(#clipPath42)"
     x1="267"
     x2="267"
     y1="242"
     y2="168"
     id="line459"
     style="font-size:11px;fill:none;stroke-width:1.08270001;stroke-linecap:butt;stroke-dasharray:3, 3" />
  <polygon
     clip-path="url(#clipPath49)"
     points="272,178 262,178 267,168 "
     id="polygon461"
     style="font-size:11px;fill:#ffffff;stroke:none" />
  <polygon
     clip-path="url(#clipPath49)"
     points="272,178 262,178 267,168 "
     id="polygon463"
     style="font-size:11px;fill:none;stroke-width:1.08270001;stroke-linecap:butt" />
</svg>
