<?xml version="1.0" encoding="UTF-8" standalone="no"?>
<svg
   xmlns:dc="http://purl.org/dc/elements/1.1/"
   xmlns:cc="http://creativecommons.org/ns#"
   xmlns:rdf="http://www.w3.org/1999/02/22-rdf-syntax-ns#"
   xmlns:svg="http://www.w3.org/2000/svg"
   xmlns="http://www.w3.org/2000/svg"
   xmlns:sodipodi="http://sodipodi.sourceforge.net/DTD/sodipodi-0.dtd"
   xmlns:inkscape="http://www.inkscape.org/namespaces/inkscape"
   shape-rendering="auto"
   width="151"
   text-rendering="auto"
   contentScriptType="text/ecmascript"
   color-interpolation="auto"
   color-rendering="auto"
   preserveAspectRatio="xMidYMid meet"
   font-size="12"
   viewBox="0 0 151 207.20964"
   image-rendering="auto"
   stroke-miterlimit="10"
   zoomAndPan="magnify"
   version="1.0"
   contentStyleType="text/css"
   font-style="normal"
   height="207.20964"
   font-weight="normal"
   id="svg2"
   inkscape:version="0.47 r22583"
   sodipodi:docname="kieker_OperationExecutionRecord-inheritance.svg"
   style="font-size:12px;font-style:normal;font-weight:normal;fill:#000000;fill-opacity:1;stroke:#000000;stroke-width:1;stroke-linecap:square;stroke-linejoin:miter;stroke-miterlimit:10;stroke-opacity:1;stroke-dasharray:none;stroke-dashoffset:0;font-family:Dialog">
  <metadata
     id="metadata139">
    <rdf:RDF>
      <cc:Work
         rdf:about="">
        <dc:format>image/svg+xml</dc:format>
        <dc:type
           rdf:resource="http://purl.org/dc/dcmitype/StillImage" />
      </cc:Work>
    </rdf:RDF>
  </metadata>
  <sodipodi:namedview
     pagecolor="#ffffff"
     bordercolor="#666666"
     borderopacity="1"
     objecttolerance="10"
     gridtolerance="10"
     guidetolerance="10"
     inkscape:pageopacity="0"
     inkscape:pageshadow="2"
     inkscape:window-width="1280"
     inkscape:window-height="928"
     id="namedview137"
     showgrid="false"
     inkscape:zoom="2.6439645"
     inkscape:cx="48.16599"
     inkscape:cy="92.467642"
     inkscape:window-x="-4"
     inkscape:window-y="35"
     inkscape:window-maximized="1"
     inkscape:current-layer="svg2" />
  <!--Generated by the Batik Graphics2D SVG Generator-->
  <defs
     id="genericDefs">
    <inkscape:perspective
       sodipodi:type="inkscape:persp3d"
       inkscape:vp_x="0 : 138 : 1"
       inkscape:vp_y="0 : 1000 : 0"
       inkscape:vp_z="171 : 138 : 1"
       inkscape:persp3d-origin="85.5 : 92 : 1"
       id="perspective141" />
    <defs
       id="defs1">
      <clipPath
         id="clipPath1"
         clipPathUnits="userSpaceOnUse">
        <path
           id="path9"
           d="m 8,116 154,0 0,152 -154,0 0,-152 z" />
      </clipPath>
      <clipPath
         id="clipPath2"
         clipPathUnits="userSpaceOnUse">
        <path
           id="path12"
           d="m 19,120 132,0 0,16 -132,0 0,-16 z" />
      </clipPath>
      <clipPath
         id="clipPath3"
         clipPathUnits="userSpaceOnUse">
        <path
           id="path15"
           d="m 20,133 131,0 0,14 -131,0 0,-14 z" />
      </clipPath>
      <clipPath
         id="clipPath4"
         clipPathUnits="userSpaceOnUse">
        <path
           id="path18"
           d="m 15,147 95,0 0,16 -95,0 0,-16 z" />
      </clipPath>
      <clipPath
         id="clipPath5"
         clipPathUnits="userSpaceOnUse">
        <path
           id="path21"
           d="m 15,160 131,0 0,16 -131,0 0,-16 z" />
      </clipPath>
      <clipPath
         id="clipPath6"
         clipPathUnits="userSpaceOnUse">
        <path
           id="path24"
           d="m 15,173 89,0 0,16 -89,0 0,-16 z" />
      </clipPath>
      <clipPath
         id="clipPath7"
         clipPathUnits="userSpaceOnUse">
        <path
           id="path27"
           d="m 15,186 91,0 0,16 -91,0 0,-16 z" />
      </clipPath>
      <clipPath
         id="clipPath8"
         clipPathUnits="userSpaceOnUse">
        <path
           id="path30"
           d="m 15,199 75,0 0,16 -75,0 0,-16 z" />
      </clipPath>
      <clipPath
         id="clipPath9"
         clipPathUnits="userSpaceOnUse">
        <path
           id="path33"
           d="m 15,212 54,0 0,16 -54,0 0,-16 z" />
      </clipPath>
      <clipPath
         id="clipPath10"
         clipPathUnits="userSpaceOnUse">
        <path
           id="path36"
           d="m 15,225 60,0 0,16 -60,0 0,-16 z" />
      </clipPath>
      <clipPath
         id="clipPath11"
         clipPathUnits="userSpaceOnUse">
        <path
           id="path39"
           d="m 15,238 48,0 0,16 -48,0 0,-16 z" />
      </clipPath>
      <clipPath
         id="clipPath12"
         clipPathUnits="userSpaceOnUse">
        <path
           id="path42"
           d="m 15,251 47,0 0,16 -47,0 0,-16 z" />
      </clipPath>
      <clipPath
         id="clipPath13"
         clipPathUnits="userSpaceOnUse">
        <path
           id="path45"
           d="m 9,147 152,0 0,120 -152,0 0,-120 z" />
      </clipPath>
      <clipPath
         id="clipPath14"
         clipPathUnits="userSpaceOnUse">
        <path
           id="path48"
           d="m 9,68 153,0 0,35 -153,0 0,-35 z" />
      </clipPath>
      <clipPath
         id="clipPath15"
         clipPathUnits="userSpaceOnUse">
        <path
           id="path51"
           d="m 22,72 126,0 0,16 -126,0 0,-16 z" />
      </clipPath>
      <clipPath
         id="clipPath16"
         clipPathUnits="userSpaceOnUse">
        <path
           id="path54"
           d="m 20,85 131,0 0,14 -131,0 0,-14 z" />
      </clipPath>
      <clipPath
         id="clipPath17"
         clipPathUnits="userSpaceOnUse">
        <path
           id="path57"
           d="M 8,8 161,8 161,56 8,56 8,8 z" />
      </clipPath>
      <clipPath
         id="clipPath18"
         clipPathUnits="userSpaceOnUse">
        <path
           id="path60"
           d="m 56,12 57,0 0,16 -57,0 0,-16 z" />
      </clipPath>
      <clipPath
         id="clipPath19"
         clipPathUnits="userSpaceOnUse">
        <path
           id="path63"
           d="m 39,25 91,0 0,16 -91,0 0,-16 z" />
      </clipPath>
      <clipPath
         id="clipPath20"
         clipPathUnits="userSpaceOnUse">
        <path
           id="path66"
           d="m 19,38 131,0 0,14 -131,0 0,-14 z" />
      </clipPath>
      <clipPath
         id="clipPath21"
         clipPathUnits="userSpaceOnUse">
        <path
           id="path69"
           d="m -1,-1 173,0 0,278 -173,0 0,-278 z" />
      </clipPath>
      <clipPath
         id="clipPath22"
         clipPathUnits="userSpaceOnUse">
        <path
           id="path72"
           d="m 78,53 14,0 0,14 -14,0 0,-14 z" />
      </clipPath>
      <clipPath
         id="clipPath23"
         clipPathUnits="userSpaceOnUse">
        <path
           id="path75"
           d="m 80,100 12,0 0,12 -12,0 0,-12 z" />
      </clipPath>
    </defs>
  </defs>
  <text
     x="20"
     y="131"
     clip-path="url(#clipPath2)"
     xml:space="preserve"
     id="text81"
     style="font-size:10px;fill:#000000;stroke:none;font-family:Arial"
     transform="translate(-9.5,-9.5)">OperationExecutionRecord</text>
  <text
     font-size="9"
     x="21"
     y="143"
     clip-path="url(#clipPath3)"
     xml:space="preserve"
     id="text83"
     style="font-size:9px;fill:#000000;stroke:none;font-family:Arial"
     transform="translate(-9.5,-9.5)">(from kieker::common::record)</text>
  <text
     x="16"
     y="171"
     clip-path="url(#clipPath5)"
     xml:space="preserve"
     id="text87"
     style="font-size:10px;fill:#000000;stroke:none;font-family:Arial"
     transform="translate(-9.5,-19.901047)">+ componentName : String</text>
  <text
     x="16"
     y="184"
     clip-path="url(#clipPath6)"
     xml:space="preserve"
     id="text89"
     style="font-size:10px;fill:#000000;stroke:none;font-family:Arial"
     transform="translate(-9.5,-20.332267)">+ opName : String</text>
  <text
     x="16"
     y="223"
     clip-path="url(#clipPath9)"
     xml:space="preserve"
     id="text95"
     style="font-size:10px;fill:#000000;stroke:none;font-family:Arial"
     transform="translate(-9.5,-46.885558)">+ tin : long</text>
  <text
     x="16"
     y="236"
     clip-path="url(#clipPath10)"
     xml:space="preserve"
     id="text97"
     style="font-size:10px;fill:#000000;stroke:none;font-family:Arial"
     transform="translate(-9.5,-47.438854)">+ tout : long</text>
  <text
     x="16"
     y="262"
     clip-path="url(#clipPath12)"
     xml:space="preserve"
     id="text101"
     style="font-size:10px;fill:#000000;stroke:none;font-family:Arial"
     transform="translate(-9.5,-62.261677)">+ ...</text>
  <line
     clip-path="url(#clipPath13)"
     x1="10"
     x2="159"
     y1="148"
     y2="148"
     id="line103"
     style="font-size:10px;fill:none;stroke:#000000;stroke-linejoin:round;stroke-miterlimit:0;font-family:Arial"
     transform="translate(-9.5,-9.5)" />
  <rect
     x="10"
     y="118"
     clip-path="url(#clipPath1)"
     width="150"
     height="147"
     id="rect105"
     style="font-size:10px;fill:none;stroke:#000000;stroke-width:1.22343707;stroke-linejoin:round;stroke-miterlimit:0;font-family:Arial"
     transform="matrix(1,0,0,0.66809274,-9.5,29.665057)" />
  <text
     x="23"
     y="83"
     clip-path="url(#clipPath15)"
     font-style="italic"
     xml:space="preserve"
     id="text109"
     style="font-size:10px;font-style:italic;fill:#000000;stroke:none;font-family:Arial"
     transform="translate(-9.5,-9.5)">AbstractMonitoringRecord</text>
  <text
     font-size="9"
     x="21"
     y="95"
     clip-path="url(#clipPath16)"
     xml:space="preserve"
     id="text111"
     style="font-size:9px;fill:#000000;stroke:none;font-family:Arial"
     transform="translate(-9.5,-9.5)">(from kieker::common::record)</text>
  <rect
     x="10"
     y="70"
     clip-path="url(#clipPath14)"
     width="149"
     height="31"
     id="rect113"
     style="font-size:10px;fill:none;stroke:#000000;stroke-linejoin:round;stroke-miterlimit:0;font-family:Arial"
     transform="translate(-9.5,-9.5)" />
  <text
     x="57"
     y="23"
     clip-path="url(#clipPath18)"
     xml:space="preserve"
     id="text117"
     style="font-size:10px;fill:#000000;stroke:none;font-family:Arial"
     transform="translate(-9.5,-9.5)">«interface»</text>
  <text
     x="40"
     y="36"
     clip-path="url(#clipPath19)"
     xml:space="preserve"
     id="text119"
     style="font-size:10px;fill:#000000;stroke:none;font-family:Arial"
     transform="translate(-9.5,-9.5)">IMonitoringRecord</text>
  <text
     font-size="9"
     x="20"
     y="48"
     clip-path="url(#clipPath20)"
     xml:space="preserve"
     id="text121"
     style="font-size:9px;fill:#000000;stroke:none;font-family:Arial"
     transform="translate(-9.5,-9.5)">(from kieker::common::record)</text>
  <rect
     x="10"
     y="10"
     clip-path="url(#clipPath17)"
     width="149"
     height="44"
     id="rect123"
     style="font-size:10px;fill:none;stroke:#000000;stroke-linejoin:round;stroke-miterlimit:0;font-family:Arial"
     transform="translate(-9.5,-9.5)" />
  <line
     clip-path="url(#clipPath21)"
     x1="85"
     x2="85"
     y1="70"
     y2="54"
     id="line125"
     style="font-size:10px;fill:none;stroke:#000000;stroke-linejoin:round;stroke-miterlimit:0;stroke-dasharray:3, 3;font-family:Arial"
     transform="translate(-9.5,-9.5)" />
  <polygon
     clip-path="url(#clipPath22)"
     points="90,64 80,64 85,54 "
     id="polygon127"
     style="font-size:10px;fill:#ffffff;stroke:none;font-family:Arial"
     transform="translate(-9.5,-9.5)" />
  <polygon
     clip-path="url(#clipPath22)"
     points="90,64 80,64 85,54 "
     id="polygon129"
     style="font-size:10px;fill:none;stroke:#000000;stroke-linejoin:round;stroke-miterlimit:0;font-family:Arial"
     transform="translate(-9.5,-9.5)" />
  <line
     clip-path="url(#clipPath21)"
     x1="85"
     x2="85"
     y1="118"
     y2="101"
     id="line131"
     style="font-size:10px;fill:none;stroke:#000000;stroke-width:1.05390203;stroke-linejoin:round;stroke-miterlimit:0;font-family:Arial"
     transform="matrix(1,0,0,0.90032538,-9.9727749,1.461649)" />
</svg>
