<?xml version="1.0" encoding="UTF-8"?><svg stroke-dasharray="none" shape-rendering="auto" xmlns="http://www.w3.org/2000/svg" font-family="'Dialog'" width="171" text-rendering="auto" fill-opacity="1" contentScriptType="text/ecmascript" color-interpolation="auto" color-rendering="auto" preserveAspectRatio="xMidYMid meet" font-size="12" viewBox="0 0 171 169" fill="black" xmlns:xlink="http://www.w3.org/1999/xlink" stroke="black" image-rendering="auto" stroke-miterlimit="10" zoomAndPan="magnify" version="1.0" stroke-linecap="square" stroke-linejoin="miter" contentStyleType="text/css" font-style="normal" height="169" stroke-width="1" stroke-dashoffset="0" font-weight="normal" stroke-opacity="1">
<!--Generated by the Batik Graphics2D SVG Generator-->
<defs id="genericDefs"/>
<g>
<defs id="defs1">
<clipPath clipPathUnits="userSpaceOnUse" id="clipPath1">
<path d="M8 8 L162 8 L162 160 L8 160 L8 8 Z"/>
</clipPath>
<clipPath clipPathUnits="userSpaceOnUse" id="clipPath2">
<path d="M19 12 L151 12 L151 28 L19 28 L19 12 Z"/>
</clipPath>
<clipPath clipPathUnits="userSpaceOnUse" id="clipPath3">
<path d="M20 25 L151 25 L151 39 L20 39 L20 25 Z"/>
</clipPath>
<clipPath clipPathUnits="userSpaceOnUse" id="clipPath4">
<path d="M15 39 L110 39 L110 55 L15 55 L15 39 Z"/>
</clipPath>
<clipPath clipPathUnits="userSpaceOnUse" id="clipPath5">
<path d="M15 52 L146 52 L146 68 L15 68 L15 52 Z"/>
</clipPath>
<clipPath clipPathUnits="userSpaceOnUse" id="clipPath6">
<path d="M15 65 L104 65 L104 81 L15 81 L15 65 Z"/>
</clipPath>
<clipPath clipPathUnits="userSpaceOnUse" id="clipPath7">
<path d="M15 78 L106 78 L106 94 L15 94 L15 78 Z"/>
</clipPath>
<clipPath clipPathUnits="userSpaceOnUse" id="clipPath8">
<path d="M15 91 L90 91 L90 107 L15 107 L15 91 Z"/>
</clipPath>
<clipPath clipPathUnits="userSpaceOnUse" id="clipPath9">
<path d="M15 104 L69 104 L69 120 L15 120 L15 104 Z"/>
</clipPath>
<clipPath clipPathUnits="userSpaceOnUse" id="clipPath10">
<path d="M15 117 L75 117 L75 133 L15 133 L15 117 Z"/>
</clipPath>
<clipPath clipPathUnits="userSpaceOnUse" id="clipPath11">
<path d="M15 130 L63 130 L63 146 L15 146 L15 130 Z"/>
</clipPath>
<clipPath clipPathUnits="userSpaceOnUse" id="clipPath12">
<path d="M15 143 L62 143 L62 159 L15 159 L15 143 Z"/>
</clipPath>
<clipPath clipPathUnits="userSpaceOnUse" id="clipPath13">
<path d="M9 39 L161 39 L161 159 L9 159 L9 39 Z"/>
</clipPath>
</defs>
<g font-size="10" fill="white" font-family="'Arial'" stroke-linejoin="round" stroke="white" stroke-miterlimit="0">
<rect x="10" y="10" clip-path="url(#clipPath1)" width="150" height="148" stroke="none"/>
<text x="20" y="23" clip-path="url(#clipPath2)" fill="black" stroke="none" xml:space="preserve">OperationExecutionRecord</text>
<text font-size="9" x="21" y="35" clip-path="url(#clipPath3)" fill="black" stroke="none" xml:space="preserve">(from kieker::common::record)</text>
<text x="16" y="50" clip-path="url(#clipPath4)" fill="black" stroke="none" xml:space="preserve">+ experimentId : int</text>
<text x="16" y="63" clip-path="url(#clipPath5)" fill="black" stroke="none" xml:space="preserve">+ componentName : String</text>
<text x="16" y="76" clip-path="url(#clipPath6)" fill="black" stroke="none" xml:space="preserve">+ opName : String</text>
<text x="16" y="89" clip-path="url(#clipPath7)" fill="black" stroke="none" xml:space="preserve">+ sessionId : String</text>
<text x="16" y="102" clip-path="url(#clipPath8)" fill="black" stroke="none" xml:space="preserve">+ traceId : long</text>
<text x="16" y="115" clip-path="url(#clipPath9)" fill="black" stroke="none" xml:space="preserve">+ tin : long</text>
<text x="16" y="128" clip-path="url(#clipPath10)" fill="black" stroke="none" xml:space="preserve">+ tout : long</text>
<text x="16" y="141" clip-path="url(#clipPath11)" fill="black" stroke="none" xml:space="preserve">+ eoi : int</text>
<text x="16" y="154" clip-path="url(#clipPath12)" fill="black" stroke="none" xml:space="preserve">+ ess : int</text>
<line clip-path="url(#clipPath13)" fill="none" x1="10" x2="159" y1="40" y2="40" stroke="black"/>
<rect x="10" y="10" clip-path="url(#clipPath1)" fill="none" width="150" height="148" stroke="black"/>
</g>
</g>
</svg>