<?xml version="1.0" encoding="UTF-8" standalone="no"?>
<svg
   xmlns:dc="http://purl.org/dc/elements/1.1/"
   xmlns:cc="http://creativecommons.org/ns#"
   xmlns:rdf="http://www.w3.org/1999/02/22-rdf-syntax-ns#"
   xmlns:svg="http://www.w3.org/2000/svg"
   xmlns="http://www.w3.org/2000/svg"
   xmlns:sodipodi="http://sodipodi.sourceforge.net/DTD/sodipodi-0.dtd"
   xmlns:inkscape="http://www.inkscape.org/namespaces/inkscape"
   shape-rendering="auto"
   width="713"
   text-rendering="auto"
   contentScriptType="text/ecmascript"
   color-interpolation="auto"
   color-rendering="auto"
   preserveAspectRatio="xMidYMid meet"
   font-size="12"
   viewBox="0 0 713 281"
   image-rendering="auto"
   stroke-miterlimit="10"
   zoomAndPan="magnify"
   version="1.0"
   contentStyleType="text/css"
   font-style="normal"
   height="281"
   font-weight="normal"
   id="svg2"
   inkscape:version="0.47 r22583"
   sodipodi:docname="kieker_AnalysisControlleruserguide-modified.svg"
   style="font-size:12px;font-style:normal;font-weight:normal;fill:#000000;fill-opacity:1;stroke:#000000;stroke-width:1;stroke-linecap:square;stroke-linejoin:miter;stroke-miterlimit:10;stroke-opacity:1;stroke-dasharray:none;stroke-dashoffset:0;font-family:Dialog">
  <metadata
     id="metadata329">
    <rdf:RDF>
      <cc:Work
         rdf:about="">
        <dc:format>image/svg+xml</dc:format>
        <dc:type
           rdf:resource="http://purl.org/dc/dcmitype/StillImage" />
      </cc:Work>
    </rdf:RDF>
  </metadata>
  <sodipodi:namedview
     pagecolor="#ffffff"
     bordercolor="#666666"
     borderopacity="1"
     objecttolerance="10"
     gridtolerance="10"
     guidetolerance="10"
     inkscape:pageopacity="0"
     inkscape:pageshadow="2"
     inkscape:window-width="1280"
     inkscape:window-height="928"
     id="namedview327"
     showgrid="false"
     inkscape:zoom="1.4624829"
     inkscape:cx="396.62335"
     inkscape:cy="182.61704"
     inkscape:window-x="-4"
     inkscape:window-y="35"
     inkscape:window-maximized="1"
     inkscape:current-layer="svg2" />
  <!--Generated by the Batik Graphics2D SVG Generator-->
  <defs
     id="genericDefs">
    <inkscape:perspective
       sodipodi:type="inkscape:persp3d"
       inkscape:vp_x="0 : 160.5 : 1"
       inkscape:vp_y="0 : 1000 : 0"
       inkscape:vp_z="733 : 160.5 : 1"
       inkscape:persp3d-origin="366.5 : 107 : 1"
       id="perspective331" />
  </defs>
  <g
     id="g5"
     transform="translate(-9.5,-29.5)">
    <defs
       id="defs1">
      <clipPath
         clipPathUnits="userSpaceOnUse"
         id="clipPath1">
        <path
           d="m 248,28 250,0 0,74 -250,0 0,-74 z"
           id="path9" />
      </clipPath>
      <clipPath
         clipPathUnits="userSpaceOnUse"
         id="clipPath2">
        <path
           d="m 329,32 87,0 0,16 -87,0 0,-16 z"
           id="path12" />
      </clipPath>
      <clipPath
         clipPathUnits="userSpaceOnUse"
         id="clipPath3">
        <path
           d="m 324,45 98,0 0,14 -98,0 0,-14 z"
           id="path15" />
      </clipPath>
      <clipPath
         clipPathUnits="userSpaceOnUse"
         id="clipPath4">
        <path
           d="m 254,59 237,0 0,16 -237,0 0,-16 z"
           id="path18" />
      </clipPath>
      <clipPath
         clipPathUnits="userSpaceOnUse"
         id="clipPath5">
        <path
           d="m 254,72 203,0 0,16 -203,0 0,-16 z"
           id="path21" />
      </clipPath>
      <clipPath
         clipPathUnits="userSpaceOnUse"
         id="clipPath6">
        <path
           d="m 254,85 39,0 0,16 -39,0 0,-16 z"
           id="path24" />
      </clipPath>
      <clipPath
         clipPathUnits="userSpaceOnUse"
         id="clipPath7">
        <path
           d="m 249,59 248,0 0,42 -248,0 0,-42 z"
           id="path27" />
      </clipPath>
      <clipPath
         clipPathUnits="userSpaceOnUse"
         id="clipPath8">
        <path
           d="m 8,140 311,0 0,87 -311,0 0,-87 z"
           id="path30" />
      </clipPath>
      <clipPath
         clipPathUnits="userSpaceOnUse"
         id="clipPath9">
        <path
           d="m 135,144 57,0 0,16 -57,0 0,-16 z"
           id="path33" />
      </clipPath>
      <clipPath
         clipPathUnits="userSpaceOnUse"
         id="clipPath10">
        <path
           d="m 109,157 109,0 0,16 -109,0 0,-16 z"
           id="path36" />
      </clipPath>
      <clipPath
         clipPathUnits="userSpaceOnUse"
         id="clipPath11">
        <path
           d="m 99,170 130,0 0,14 -130,0 0,-14 z"
           id="path39" />
      </clipPath>
      <clipPath
         clipPathUnits="userSpaceOnUse"
         id="clipPath12">
        <path
           d="m 15,184 122,0 0,16 -122,0 0,-16 z"
           id="path42" />
      </clipPath>
      <clipPath
         clipPathUnits="userSpaceOnUse"
         id="clipPath13">
        <path
           d="m 15,197 298,0 0,16 -298,0 0,-16 z"
           id="path45" />
      </clipPath>
      <clipPath
         clipPathUnits="userSpaceOnUse"
         id="clipPath14">
        <path
           d="m 15,210 93,0 0,16 -93,0 0,-16 z"
           id="path48" />
      </clipPath>
      <clipPath
         clipPathUnits="userSpaceOnUse"
         id="clipPath15">
        <path
           d="m 9,184 309,0 0,42 -309,0 0,-42 z"
           id="path51" />
      </clipPath>
      <clipPath
         clipPathUnits="userSpaceOnUse"
         id="clipPath16">
        <path
           d="m 347,140 198,0 0,61 -198,0 0,-61 z"
           id="path54" />
      </clipPath>
      <clipPath
         clipPathUnits="userSpaceOnUse"
         id="clipPath17">
        <path
           d="m 418,144 57,0 0,16 -57,0 0,-16 z"
           id="path57" />
      </clipPath>
      <clipPath
         clipPathUnits="userSpaceOnUse"
         id="clipPath18">
        <path
           d="m 362,157 169,0 0,16 -169,0 0,-16 z"
           id="path60" />
      </clipPath>
      <clipPath
         clipPathUnits="userSpaceOnUse"
         id="clipPath19">
        <path
           d="m 382,170 128,0 0,14 -128,0 0,-14 z"
           id="path63" />
      </clipPath>
      <clipPath
         clipPathUnits="userSpaceOnUse"
         id="clipPath20">
        <path
           d="m 354,184 185,0 0,16 -185,0 0,-16 z"
           id="path66" />
      </clipPath>
      <clipPath
         clipPathUnits="userSpaceOnUse"
         id="clipPath21">
        <path
           d="m 348,184 196,0 0,16 -196,0 0,-16 z"
           id="path69" />
      </clipPath>
      <clipPath
         clipPathUnits="userSpaceOnUse"
         id="clipPath22">
        <path
           d="m 8,251 319,0 0,61 -319,0 0,-61 z"
           id="path72" />
      </clipPath>
      <clipPath
         clipPathUnits="userSpaceOnUse"
         id="clipPath23">
        <path
           d="m 139,255 57,0 0,16 -57,0 0,-16 z"
           id="path75" />
      </clipPath>
      <clipPath
         clipPathUnits="userSpaceOnUse"
         id="clipPath24">
        <path
           d="m 101,268 133,0 0,16 -133,0 0,-16 z"
           id="path78" />
      </clipPath>
      <clipPath
         clipPathUnits="userSpaceOnUse"
         id="clipPath25">
        <path
           d="m 102,281 131,0 0,14 -131,0 0,-14 z"
           id="path81" />
      </clipPath>
      <clipPath
         clipPathUnits="userSpaceOnUse"
         id="clipPath26">
        <path
           d="m 15,295 306,0 0,16 -306,0 0,-16 z"
           id="path84" />
      </clipPath>
      <clipPath
         clipPathUnits="userSpaceOnUse"
         id="clipPath27">
        <path
           d="m 9,295 317,0 0,16 -317,0 0,-16 z"
           id="path87" />
      </clipPath>
      <clipPath
         clipPathUnits="userSpaceOnUse"
         id="clipPath28">
        <path
           d="m 575,140 149,0 0,74 -149,0 0,-74 z"
           id="path90" />
      </clipPath>
      <clipPath
         clipPathUnits="userSpaceOnUse"
         id="clipPath29">
        <path
           d="m 621,144 57,0 0,16 -57,0 0,-16 z"
           id="path93" />
      </clipPath>
      <clipPath
         clipPathUnits="userSpaceOnUse"
         id="clipPath30">
        <path
           d="m 612,157 75,0 0,16 -75,0 0,-16 z"
           id="path96" />
      </clipPath>
      <clipPath
         clipPathUnits="userSpaceOnUse"
         id="clipPath31">
        <path
           d="m 585,170 128,0 0,14 -128,0 0,-14 z"
           id="path99" />
      </clipPath>
      <clipPath
         clipPathUnits="userSpaceOnUse"
         id="clipPath32">
        <path
           d="m 581,184 62,0 0,16 -62,0 0,-16 z"
           id="path102" />
      </clipPath>
      <clipPath
         clipPathUnits="userSpaceOnUse"
         id="clipPath33">
        <path
           d="m 581,197 69,0 0,16 -69,0 0,-16 z"
           id="path105" />
      </clipPath>
      <clipPath
         clipPathUnits="userSpaceOnUse"
         id="clipPath34">
        <path
           d="m 576,184 147,0 0,29 -147,0 0,-29 z"
           id="path108" />
      </clipPath>
      <clipPath
         clipPathUnits="userSpaceOnUse"
         id="clipPath35">
        <path
           d="m -1,-1 735,0 0,323 -735,0 0,-323 z"
           id="path111" />
      </clipPath>
      <clipPath
         clipPathUnits="userSpaceOnUse"
         id="clipPath36">
        <path
           d="m 221,45 9,0 0,16 -9,0 0,-16 z"
           id="path114" />
      </clipPath>
      <clipPath
         clipPathUnits="userSpaceOnUse"
         id="clipPath37">
        <path
           d="m 172,122 9,0 0,16 -9,0 0,-16 z"
           id="path117" />
      </clipPath>
      <clipPath
         clipPathUnits="userSpaceOnUse"
         id="clipPath38">
        <path
           d="m 120,114 39,0 0,16 -39,0 0,-16 z"
           id="path120" />
      </clipPath>
      <clipPath
         clipPathUnits="userSpaceOnUse"
         id="clipPath39">
        <path
           d="m 231,61 21,0 0,12 -21,0 0,-12 z"
           id="path123" />
      </clipPath>
      <clipPath
         clipPathUnits="userSpaceOnUse"
         id="clipPath40">
        <path
           d="m 157,132 12,0 0,12 -12,0 0,-12 z"
           id="path126" />
      </clipPath>
      <clipPath
         clipPathUnits="userSpaceOnUse"
         id="clipPath41">
        <path
           d="m 421,102 9,0 0,16 -9,0 0,-16 z"
           id="path129" />
      </clipPath>
      <clipPath
         clipPathUnits="userSpaceOnUse"
         id="clipPath42">
        <path
           d="m 416,124 19,0 0,16 -19,0 0,-16 z"
           id="path132" />
      </clipPath>
      <clipPath
         clipPathUnits="userSpaceOnUse"
         id="clipPath43">
        <path
           d="m 448,124 59,0 0,16 -59,0 0,-16 z"
           id="path135" />
      </clipPath>
      <clipPath
         clipPathUnits="userSpaceOnUse"
         id="clipPath44">
        <path
           d="m 434,132 12,0 0,12 -12,0 0,-12 z"
           id="path138" />
      </clipPath>
      <clipPath
         clipPathUnits="userSpaceOnUse"
         id="clipPath45">
        <path
           d="m 149,224 9,0 0,16 -9,0 0,-16 z"
           id="path141" />
      </clipPath>
      <clipPath
         clipPathUnits="userSpaceOnUse"
         id="clipPath46">
        <path
           d="m 149,242 7,0 0,16 -7,0 0,-16 z"
           id="path144" />
      </clipPath>
      <clipPath
         clipPathUnits="userSpaceOnUse"
         id="clipPath47">
        <path
           d="m 185,238 51,0 0,16 -51,0 0,-16 z"
           id="path147" />
      </clipPath>
      <clipPath
         clipPathUnits="userSpaceOnUse"
         id="clipPath48">
        <path
           d="m 158,243 13,0 0,13 -13,0 0,-13 z"
           id="path150" />
      </clipPath>
      <clipPath
         clipPathUnits="userSpaceOnUse"
         id="clipPath49">
        <path
           d="m 324,270 12,0 0,12 -12,0 0,-12 z"
           id="path153" />
      </clipPath>
      <clipPath
         clipPathUnits="userSpaceOnUse"
         id="clipPath50">
        <path
           d="m 567,165 12,0 0,12 -12,0 0,-12 z"
           id="path156" />
      </clipPath>
      <clipPath
         clipPathUnits="userSpaceOnUse"
         id="clipPath51">
        <path
           d="m 521,77 9,0 0,16 -9,0 0,-16 z"
           id="path159" />
      </clipPath>
      <clipPath
         clipPathUnits="userSpaceOnUse"
         id="clipPath52">
        <path
           d="m 596,105 19,0 0,16 -19,0 0,-16 z"
           id="path162" />
      </clipPath>
      <clipPath
         clipPathUnits="userSpaceOnUse"
         id="clipPath53">
        <path
           d="m 631,102 43,0 0,16 -43,0 0,-16 z"
           id="path165" />
      </clipPath>
      <clipPath
         clipPathUnits="userSpaceOnUse"
         id="clipPath54">
        <path
           d="m 494,65 21,0 0,12 -21,0 0,-12 z"
           id="path168" />
      </clipPath>
      <clipPath
         clipPathUnits="userSpaceOnUse"
         id="clipPath55">
        <path
           d="m 613,132 13,0 0,12 -13,0 0,-12 z"
           id="path171" />
      </clipPath>
    </defs>
    <g
       font-size="10"
       stroke-miterlimit="0"
       id="g173"
       style="font-size:10px;fill:#ffffff;stroke:#ffffff;stroke-linejoin:round;stroke-miterlimit:0;font-family:Arial">
      <rect
         x="250"
         y="30"
         clip-path="url(#clipPath1)"
         width="246"
         height="70"
         id="rect175"
         style="stroke:none" />
      <text
         x="330"
         y="43"
         clip-path="url(#clipPath2)"
         xml:space="preserve"
         id="text177"
         style="fill:#000000;stroke:none">AnalysisController</text>
      <text
         font-size="9"
         x="325"
         y="55"
         clip-path="url(#clipPath3)"
         xml:space="preserve"
         id="text179"
         style="font-size:9px;fill:#000000;stroke:none">(from kieker::analysis)</text>
      <text
         x="255"
         y="70"
         clip-path="url(#clipPath4)"
         xml:space="preserve"
         id="text181"
         style="fill:#000000;stroke:none">+ setLogReader ( reader : IMonitoringLogReader )</text>
      <text
         x="255"
         y="83"
         clip-path="url(#clipPath5)"
         xml:space="preserve"
         id="text183"
         style="fill:#000000;stroke:none">+ registerPlugin ( plugin : IAnalysisPlugin )</text>
      <text
         x="255"
         y="96"
         clip-path="url(#clipPath6)"
         xml:space="preserve"
         id="text185"
         style="fill:#000000;stroke:none">+ run ( )</text>
      <line
         clip-path="url(#clipPath7)"
         x1="250"
         x2="495"
         y1="60"
         y2="60"
         id="line187"
         style="fill:none;stroke:#000000" />
      <rect
         x="249"
         y="30"
         clip-path="url(#clipPath1)"
         width="246"
         height="70"
         id="rect189"
         style="fill:none;stroke:#000000" />
      <rect
         x="10"
         y="142"
         clip-path="url(#clipPath8)"
         width="307"
         height="83"
         id="rect191"
         style="stroke:none" />
      <text
         x="136"
         y="155"
         clip-path="url(#clipPath9)"
         xml:space="preserve"
         id="text193"
         style="fill:#000000;stroke:none">«interface»</text>
      <text
         x="110"
         y="168"
         clip-path="url(#clipPath10)"
         xml:space="preserve"
         id="text195"
         style="fill:#000000;stroke:none">IMonitoringLogReader</text>
      <text
         font-size="9"
         x="100"
         y="180"
         clip-path="url(#clipPath11)"
         xml:space="preserve"
         id="text197"
         style="font-size:9px;fill:#000000;stroke:none">(from kieker::analysis::reader)</text>
      <text
         x="16"
         y="195"
         clip-path="url(#clipPath12)"
         xml:space="preserve"
         id="text199"
         style="fill:#000000;stroke:none">+ init ( initString : String )</text>
      <text
         x="16"
         y="208"
         clip-path="url(#clipPath13)"
         xml:space="preserve"
         id="text201"
         style="fill:#000000;stroke:none">+ addRecordReceiver ( receiver : IMonitoringRecordReceiver )</text>
      <text
         x="16"
         y="221"
         clip-path="url(#clipPath14)"
         xml:space="preserve"
         id="text203"
         style="fill:#000000;stroke:none">+ read ( ) : boolean</text>
      <line
         clip-path="url(#clipPath15)"
         x1="10"
         x2="316"
         y1="185"
         y2="185"
         id="line205"
         style="fill:none;stroke:#000000" />
      <rect
         x="10"
         y="141"
         clip-path="url(#clipPath8)"
         width="307"
         height="83"
         id="rect207"
         style="fill:none;stroke:#000000" />
      <rect
         x="349"
         y="142"
         clip-path="url(#clipPath16)"
         width="194"
         height="57"
         id="rect209"
         style="stroke:none" />
      <text
         x="419"
         y="155"
         clip-path="url(#clipPath17)"
         xml:space="preserve"
         id="text211"
         style="fill:#000000;stroke:none">«interface»</text>
      <text
         x="363"
         y="168"
         clip-path="url(#clipPath18)"
         xml:space="preserve"
         id="text213"
         style="fill:#000000;stroke:none">IMonitoringRecordConsumerPlugin</text>
      <text
         font-size="9"
         x="383"
         y="180"
         clip-path="url(#clipPath19)"
         xml:space="preserve"
         id="text215"
         style="font-size:9px;fill:#000000;stroke:none">(from kieker::analysis::plugin)</text>
      <text
         x="355"
         y="195"
         clip-path="url(#clipPath20)"
         xml:space="preserve"
         id="text217"
         style="fill:#000000;stroke:none">+ getRecordTypeSubscriptionList ( ) [*]</text>
      <line
         clip-path="url(#clipPath21)"
         x1="349"
         x2="542"
         y1="185"
         y2="185"
         id="line219"
         style="fill:none;stroke:#000000" />
      <rect
         x="349"
         y="141"
         clip-path="url(#clipPath16)"
         width="194"
         height="57"
         id="rect221"
         style="fill:none;stroke:#000000" />
      <rect
         x="10"
         y="253"
         clip-path="url(#clipPath22)"
         width="315"
         height="57"
         id="rect223"
         style="stroke:none" />
      <text
         x="140"
         y="266"
         clip-path="url(#clipPath23)"
         xml:space="preserve"
         id="text225"
         style="fill:#000000;stroke:none">«interface»</text>
      <text
         x="102"
         y="279"
         clip-path="url(#clipPath24)"
         xml:space="preserve"
         id="text227"
         style="fill:#000000;stroke:none">IMonitoringRecordReceiver</text>
      <text
         font-size="9"
         x="103"
         y="291"
         clip-path="url(#clipPath25)"
         xml:space="preserve"
         id="text229"
         style="font-size:9px;fill:#000000;stroke:none">(from kieker::common::record)</text>
      <text
         x="16"
         y="306"
         clip-path="url(#clipPath26)"
         xml:space="preserve"
         id="text231"
         style="fill:#000000;stroke:none">+ newMonitoringRecord ( record : IMonitoringRecord ) : boolean</text>
      <line
         clip-path="url(#clipPath27)"
         x1="10"
         x2="324"
         y1="296"
         y2="296"
         id="line233"
         style="fill:none;stroke:#000000" />
      <rect
         x="10"
         y="253"
         clip-path="url(#clipPath22)"
         width="315"
         height="57"
         id="rect235"
         style="fill:none;stroke:#000000" />
      <rect
         x="577"
         y="142"
         clip-path="url(#clipPath28)"
         width="145"
         height="70"
         id="rect237"
         style="stroke:none" />
      <text
         x="622"
         y="155"
         clip-path="url(#clipPath29)"
         xml:space="preserve"
         id="text239"
         style="fill:#000000;stroke:none">«interface»</text>
      <text
         x="613"
         y="168"
         clip-path="url(#clipPath30)"
         xml:space="preserve"
         id="text241"
         style="fill:#000000;stroke:none">IAnalysisPlugin</text>
      <text
         font-size="9"
         x="586"
         y="180"
         clip-path="url(#clipPath31)"
         xml:space="preserve"
         id="text243"
         style="font-size:9px;fill:#000000;stroke:none">(from kieker::analysis::plugin)</text>
      <text
         x="582"
         y="195"
         clip-path="url(#clipPath32)"
         xml:space="preserve"
         id="text245"
         style="fill:#000000;stroke:none">+ execute ( )</text>
      <text
         x="582"
         y="208"
         clip-path="url(#clipPath33)"
         xml:space="preserve"
         id="text247"
         style="fill:#000000;stroke:none">+ terminate ( )</text>
      <line
         clip-path="url(#clipPath34)"
         x1="577"
         x2="721"
         y1="185"
         y2="185"
         id="line249"
         style="fill:none;stroke:#000000" />
      <rect
         x="576"
         y="141"
         clip-path="url(#clipPath28)"
         width="146"
         height="70"
         id="rect251"
         style="fill:none;stroke:#000000" />
      <line
         clip-path="url(#clipPath35)"
         x1="250"
         x2="163"
         y1="67"
         y2="67"
         id="line253"
         style="fill:none;stroke:#000000" />
      <line
         clip-path="url(#clipPath35)"
         x1="163"
         x2="163"
         y1="67"
         y2="142"
         id="line255"
         style="fill:none;stroke:#000000" />
      <text
         x="222"
         y="56"
         clip-path="url(#clipPath36)"
         xml:space="preserve"
         id="text257"
         style="fill:#000000;stroke:none">1</text>
      <text
         x="173"
         y="133"
         clip-path="url(#clipPath37)"
         xml:space="preserve"
         id="text259"
         style="fill:#000000;stroke:none">1</text>
      <text
         x="121"
         y="125"
         clip-path="url(#clipPath38)"
         xml:space="preserve"
         id="text261"
         style="fill:#000000;stroke:none">- reader</text>
      <polygon
         clip-path="url(#clipPath39)"
         points="241,62 250,67 241,71 233,67 "
         id="polygon263"
         style="stroke:none" />
      <polygon
         clip-path="url(#clipPath39)"
         points="241,62 250,67 241,71 233,67 "
         id="polygon265"
         style="fill:none;stroke:#000000" />
      <line
         clip-path="url(#clipPath40)"
         x1="158"
         x2="163"
         y1="133"
         y2="142"
         id="line267"
         style="fill:none;stroke:#000000" />
      <line
         clip-path="url(#clipPath40)"
         x1="163"
         x2="167"
         y1="142"
         y2="133"
         id="line269"
         style="fill:none;stroke:#000000" />
      <line
         clip-path="url(#clipPath35)"
         x1="440"
         x2="440"
         y1="100"
         y2="142"
         id="line271"
         style="fill:none;stroke:#000000" />
      <text
         x="422"
         y="113"
         clip-path="url(#clipPath41)"
         xml:space="preserve"
         id="text273"
         style="fill:#000000;stroke:none">1</text>
      <text
         x="417"
         y="135"
         clip-path="url(#clipPath42)"
         xml:space="preserve"
         id="text275"
         style="fill:#000000;stroke:none">1..*</text>
      <text
         x="449"
         y="135"
         clip-path="url(#clipPath43)"
         xml:space="preserve"
         id="text277"
         style="fill:#000000;stroke:none">- consumers</text>
      <line
         clip-path="url(#clipPath44)"
         x1="435"
         x2="440"
         y1="133"
         y2="142"
         id="line279"
         style="fill:none;stroke:#000000" />
      <line
         clip-path="url(#clipPath44)"
         x1="440"
         x2="444"
         y1="142"
         y2="133"
         id="line281"
         style="fill:none;stroke:#000000" />
      <line
         clip-path="url(#clipPath35)"
         x1="164"
         x2="164"
         y1="225"
         y2="253"
         id="line283"
         style="fill:none;stroke:#000000" />
      <text
         x="150"
         y="235"
         clip-path="url(#clipPath45)"
         xml:space="preserve"
         id="text285"
         style="fill:#000000;stroke:none">1</text>
      <text
         x="150"
         y="253"
         clip-path="url(#clipPath46)"
         xml:space="preserve"
         id="text287"
         style="fill:#000000;stroke:none">*</text>
      <text
         x="186"
         y="249"
         clip-path="url(#clipPath47)"
         xml:space="preserve"
         id="text289"
         style="fill:#000000;stroke:none">- receivers</text>
      <line
         clip-path="url(#clipPath48)"
         x1="160"
         x2="164"
         y1="245"
         y2="253"
         id="line291"
         style="fill:none;stroke:#000000" />
      <line
         clip-path="url(#clipPath48)"
         x1="164"
         x2="168"
         y1="253"
         y2="245"
         id="line293"
         style="fill:none;stroke:#000000" />
      <line
         clip-path="url(#clipPath35)"
         x1="442"
         x2="442"
         y1="199"
         y2="275"
         id="line295"
         style="fill:none;stroke:#000000" />
      <line
         clip-path="url(#clipPath35)"
         x1="442"
         x2="325"
         y1="275"
         y2="275"
         id="line297"
         style="fill:none;stroke:#000000" />
      <polygon
         clip-path="url(#clipPath49)"
         points="325,275 334,271 334,280 "
         id="polygon299"
         style="stroke:none" />
      <polygon
         clip-path="url(#clipPath49)"
         points="325,275 334,271 334,280 "
         id="polygon301"
         style="fill:none;stroke:#000000" />
      <line
         clip-path="url(#clipPath35)"
         x1="543"
         x2="577"
         y1="170"
         y2="170"
         id="line303"
         style="fill:none;stroke:#000000" />
      <polygon
         clip-path="url(#clipPath50)"
         points="577,170 568,174 568,166 "
         id="polygon305"
         style="stroke:none" />
      <polygon
         clip-path="url(#clipPath50)"
         points="577,170 568,174 568,166 "
         id="polygon307"
         style="fill:none;stroke:#000000" />
      <line
         clip-path="url(#clipPath35)"
         x1="496"
         x2="619"
         y1="70"
         y2="70"
         id="line309"
         style="fill:none;stroke:#000000" />
      <line
         clip-path="url(#clipPath35)"
         x1="619"
         x2="619"
         y1="70"
         y2="142"
         id="line311"
         style="fill:none;stroke:#000000" />
      <text
         x="522"
         y="88"
         clip-path="url(#clipPath51)"
         xml:space="preserve"
         id="text313"
         style="fill:#000000;stroke:none">1</text>
      <text
         x="597"
         y="116"
         clip-path="url(#clipPath52)"
         xml:space="preserve"
         id="text315"
         style="fill:#000000;stroke:none">1..*</text>
      <text
         x="632"
         y="113"
         clip-path="url(#clipPath53)"
         xml:space="preserve"
         id="text317"
         style="fill:#000000;stroke:none">- plugins</text>
      <polygon
         clip-path="url(#clipPath54)"
         points="504,75 496,70 504,66 512,70 "
         id="polygon319"
         style="stroke:none" />
      <polygon
         clip-path="url(#clipPath54)"
         points="504,75 496,70 504,66 512,70 "
         id="polygon321"
         style="fill:none;stroke:#000000" />
      <line
         clip-path="url(#clipPath55)"
         x1="615"
         x2="619"
         y1="133"
         y2="142"
         id="line323"
         style="fill:none;stroke:#000000" />
      <line
         clip-path="url(#clipPath55)"
         x1="619"
         x2="623"
         y1="142"
         y2="133"
         id="line325"
         style="fill:none;stroke:#000000" />
    </g>
  </g>
</svg>
