<?xml version="1.0" encoding="UTF-8" standalone="no"?>
<svg
   xmlns:dc="http://purl.org/dc/elements/1.1/"
   xmlns:cc="http://creativecommons.org/ns#"
   xmlns:rdf="http://www.w3.org/1999/02/22-rdf-syntax-ns#"
   xmlns:svg="http://www.w3.org/2000/svg"
   xmlns="http://www.w3.org/2000/svg"
   xmlns:xlink="http://www.w3.org/1999/xlink"
   xmlns:sodipodi="http://sodipodi.sourceforge.net/DTD/sodipodi-0.dtd"
   xmlns:inkscape="http://www.inkscape.org/namespaces/inkscape"
   shape-rendering="auto"
   width="647.53125"
   text-rendering="auto"
   contentScriptType="text/ecmascript"
   color-interpolation="auto"
   color-rendering="auto"
   preserveAspectRatio="xMidYMid meet"
   font-size="12"
   viewBox="0 0 647.53125 302.68701"
   image-rendering="auto"
   stroke-miterlimit="10"
   zoomAndPan="magnify"
   version="1.0"
   contentStyleType="text/css"
   font-style="normal"
   height="302.68701"
   font-weight="normal"
   id="svg2"
   inkscape:version="0.48.1 r9760"
   sodipodi:docname="kieker_readerimplsuserguide-modified.svg"
   style="font-size:12px;font-style:normal;font-weight:normal;fill:#000000;fill-opacity:1;stroke:#000000;stroke-width:1;stroke-linecap:square;stroke-linejoin:miter;stroke-miterlimit:10;stroke-opacity:1;stroke-dasharray:none;stroke-dashoffset:0;font-family:Dialog">
  <line
     clip-path="url(#clipPath41)"
     x1="436"
     x2="436"
     y1="187"
     y2="134"
     id="line420"
     style="font-size:11px;fill:none;stroke-width:1.09290004;stroke-linecap:butt;stroke-dasharray:3, 3"
     transform="translate(-8.46875,-47.46875)" />
  <polygon
     clip-path="url(#clipPath42)"
     points="441,144 431,144 436,134 "
     id="polygon422"
     style="font-size:11px;fill:#ffffff;stroke:none"
     transform="translate(-8.46875,-47.46875)" />
  <polygon
     clip-path="url(#clipPath42)"
     points="441,144 431,144 436,134 "
     id="polygon424"
     style="font-size:11px;fill:none;stroke-width:1.09290004;stroke-linecap:butt"
     transform="translate(-8.46875,-47.46875)" />
  <metadata
     id="metadata492">
    <rdf:RDF>
      <cc:Work
         rdf:about="">
        <dc:format>image/svg+xml</dc:format>
        <dc:type
           rdf:resource="http://purl.org/dc/dcmitype/StillImage" />
      </cc:Work>
    </rdf:RDF>
  </metadata>
  <sodipodi:namedview
     pagecolor="#ffffff"
     bordercolor="#666666"
     borderopacity="1"
     objecttolerance="10"
     gridtolerance="10"
     guidetolerance="10"
     inkscape:pageopacity="0"
     inkscape:pageshadow="2"
     inkscape:window-width="1366"
     inkscape:window-height="713"
     id="namedview490"
     showgrid="false"
     inkscape:zoom="1.4089552"
     inkscape:cx="241.74791"
     inkscape:cy="138.67735"
     inkscape:window-x="-4"
     inkscape:window-y="32"
     inkscape:window-maximized="1"
     inkscape:current-layer="svg2"
     fit-margin-top="0"
     fit-margin-left="0"
     fit-margin-right="0"
     fit-margin-bottom="0" />
  <!--Generated by the Batik Graphics2D SVG Generator-->
  <rect
     x="268"
     y="187"
     clip-path="url(#clipPath1)"
     width="360"
     height="60"
     id="rect256"
     style="font-size:11px;fill:#ffffff;stroke-width:1.09290003999999996;stroke-linecap:butt;fill-opacity:1"
     transform="translate(-8.46875,-79.46875)" />
  <defs
     id="genericDefs">
    <defs
       id="defs1">
      <linearGradient
         spreadMethod="pad"
         xlink:show="other"
         id="linearGradient1"
         xlink:actuate="onLoad"
         xlink:type="simple"
         y2="248"
         gradientUnits="userSpaceOnUse"
         y1="234"
         x2="269"
         x1="269">
        <stop
           id="stop9"
           offset="0%"
           stop-color="white"
           stop-opacity="1" />
        <stop
           id="stop11"
           offset="100%"
           stop-color="rgb(236,236,236)"
           stop-opacity="1" />
      </linearGradient>
      <linearGradient
         spreadMethod="pad"
         xlink:show="other"
         id="linearGradient2"
         xlink:actuate="onLoad"
         xlink:type="simple"
         y2="221"
         gradientUnits="userSpaceOnUse"
         y1="188"
         x2="269"
         x1="269">
        <stop
           id="stop14"
           offset="0%"
           stop-color="rgb(226,241,254)"
           stop-opacity="1" />
        <stop
           id="stop16"
           offset="100%"
           stop-color="rgb(188,213,234)"
           stop-opacity="1" />
      </linearGradient>
      <linearGradient
         spreadMethod="pad"
         xlink:show="other"
         id="linearGradient3"
         xlink:actuate="onLoad"
         xlink:type="simple"
         y2="134"
         gradientUnits="userSpaceOnUse"
         y1="121"
         x2="259"
         x1="259">
        <stop
           id="stop19"
           offset="0%"
           stop-color="white"
           stop-opacity="1" />
        <stop
           id="stop21"
           offset="100%"
           stop-color="rgb(236,236,236)"
           stop-opacity="1" />
      </linearGradient>
      <linearGradient
         spreadMethod="pad"
         xlink:show="other"
         id="linearGradient4"
         xlink:actuate="onLoad"
         xlink:type="simple"
         y2="95"
         gradientUnits="userSpaceOnUse"
         y1="49"
         x2="259"
         x1="259">
        <stop
           id="stop24"
           offset="0%"
           stop-color="rgb(226,241,254)"
           stop-opacity="1" />
        <stop
           id="stop26"
           offset="100%"
           stop-color="rgb(188,213,234)"
           stop-opacity="1" />
      </linearGradient>
      <linearGradient
         spreadMethod="pad"
         xlink:show="other"
         id="linearGradient5"
         xlink:actuate="onLoad"
         xlink:type="simple"
         y2="307"
         gradientUnits="userSpaceOnUse"
         y1="287"
         x2="204"
         x1="204">
        <stop
           id="stop29"
           offset="0%"
           stop-color="rgb(226,241,254)"
           stop-opacity="1" />
        <stop
           id="stop31"
           offset="100%"
           stop-color="rgb(188,213,234)"
           stop-opacity="1" />
      </linearGradient>
      <linearGradient
         spreadMethod="pad"
         xlink:show="other"
         id="linearGradient6"
         xlink:actuate="onLoad"
         xlink:type="simple"
         y2="307"
         gradientUnits="userSpaceOnUse"
         y1="287"
         x2="301"
         x1="301">
        <stop
           id="stop34"
           offset="0%"
           stop-color="rgb(226,241,254)"
           stop-opacity="1" />
        <stop
           id="stop36"
           offset="100%"
           stop-color="rgb(188,213,234)"
           stop-opacity="1" />
      </linearGradient>
      <linearGradient
         spreadMethod="pad"
         xlink:show="other"
         id="linearGradient7"
         xlink:actuate="onLoad"
         xlink:type="simple"
         y2="307"
         gradientUnits="userSpaceOnUse"
         y1="287"
         x2="567"
         x1="567">
        <stop
           id="stop39"
           offset="0%"
           stop-color="rgb(226,241,254)"
           stop-opacity="1" />
        <stop
           id="stop41"
           offset="100%"
           stop-color="rgb(188,213,234)"
           stop-opacity="1" />
      </linearGradient>
      <linearGradient
         spreadMethod="pad"
         xlink:show="other"
         id="linearGradient8"
         xlink:actuate="onLoad"
         xlink:type="simple"
         y2="190"
         gradientUnits="userSpaceOnUse"
         y1="144"
         x2="10"
         x1="10">
        <stop
           id="stop44"
           offset="0%"
           stop-color="rgb(226,241,254)"
           stop-opacity="1" />
        <stop
           id="stop46"
           offset="100%"
           stop-color="rgb(188,213,234)"
           stop-opacity="1" />
      </linearGradient>
      <linearGradient
         spreadMethod="pad"
         xlink:show="other"
         id="linearGradient9"
         xlink:actuate="onLoad"
         xlink:type="simple"
         y2="309"
         gradientUnits="userSpaceOnUse"
         y1="286"
         x2="458"
         x1="458">
        <stop
           id="stop49"
           offset="0%"
           stop-color="rgb(226,241,254)"
           stop-opacity="1" />
        <stop
           id="stop51"
           offset="100%"
           stop-color="rgb(188,213,234)"
           stop-opacity="1" />
      </linearGradient>
      <clipPath
         id="clipPath1"
         clipPathUnits="userSpaceOnUse">
        <path
           id="path54"
           d="m 267,186 367,0 0,68 -367,0 0,-68 z"
           inkscape:connector-curvature="0" />
      </clipPath>
      <clipPath
         id="clipPath2"
         clipPathUnits="userSpaceOnUse">
        <path
           id="path57"
           d="m 364,190 169,0 0,16 -169,0 0,-16 z"
           inkscape:connector-curvature="0" />
      </clipPath>
      <clipPath
         id="clipPath3"
         clipPathUnits="userSpaceOnUse">
        <path
           id="path60"
           d="m 360,203 177,0 0,16 -177,0 0,-16 z"
           inkscape:connector-curvature="0" />
      </clipPath>
      <clipPath
         id="clipPath4"
         clipPathUnits="userSpaceOnUse">
        <path
           id="path63"
           d="m 273,220 351,0 0,16 -351,0 0,-16 z"
           inkscape:connector-curvature="0" />
      </clipPath>
      <clipPath
         id="clipPath5"
         clipPathUnits="userSpaceOnUse">
        <path
           id="path66"
           d="m 273,233 263,0 0,16 -263,0 0,-16 z"
           inkscape:connector-curvature="0" />
      </clipPath>
      <clipPath
         id="clipPath6"
         clipPathUnits="userSpaceOnUse">
        <path
           id="path69"
           d="m 268,219 362,0 0,30 -362,0 0,-30 z"
           inkscape:connector-curvature="0" />
      </clipPath>
      <clipPath
         id="clipPath7"
         clipPathUnits="userSpaceOnUse">
        <path
           id="path72"
           d="m 267,246 367,0 0,7 -367,0 0,-7 z"
           inkscape:connector-curvature="0" />
      </clipPath>
      <clipPath
         id="clipPath8"
         clipPathUnits="userSpaceOnUse">
        <path
           id="path75"
           d="m 628,186 7,0 0,64 -7,0 0,-64 z"
           inkscape:connector-curvature="0" />
      </clipPath>
      <clipPath
         id="clipPath9"
         clipPathUnits="userSpaceOnUse">
        <path
           id="path78"
           d="m 257,47 387,0 0,93 -387,0 0,-93 z"
           inkscape:connector-curvature="0" />
      </clipPath>
      <clipPath
         id="clipPath10"
         clipPathUnits="userSpaceOnUse">
        <path
           id="path81"
           d="m 415,51 67,0 0,16 -67,0 0,-16 z"
           inkscape:connector-curvature="0" />
      </clipPath>
      <clipPath
         id="clipPath11"
         clipPathUnits="userSpaceOnUse">
        <path
           id="path84"
           d="m 388,64 121,0 0,16 -121,0 0,-16 z"
           inkscape:connector-curvature="0" />
      </clipPath>
      <clipPath
         id="clipPath12"
         clipPathUnits="userSpaceOnUse">
        <path
           id="path87"
           d="m 360,77 177,0 0,16 -177,0 0,-16 z"
           inkscape:connector-curvature="0" />
      </clipPath>
      <clipPath
         id="clipPath13"
         clipPathUnits="userSpaceOnUse">
        <path
           id="path90"
           d="m 263,94 150,0 0,16 -150,0 0,-16 z"
           inkscape:connector-curvature="0" />
      </clipPath>
      <clipPath
         id="clipPath14"
         clipPathUnits="userSpaceOnUse">
        <path
           id="path93"
           d="m 263,107 351,0 0,16 -351,0 0,-16 z"
           inkscape:connector-curvature="0" />
      </clipPath>
      <clipPath
         id="clipPath15"
         clipPathUnits="userSpaceOnUse">
        <path
           id="path96"
           d="m 263,120 115,0 0,15 -115,0 0,-15 z"
           inkscape:connector-curvature="0" />
      </clipPath>
      <clipPath
         id="clipPath16"
         clipPathUnits="userSpaceOnUse">
        <path
           id="path99"
           d="m 258,93 382,0 0,43 -382,0 0,-43 z"
           inkscape:connector-curvature="0" />
      </clipPath>
      <clipPath
         id="clipPath17"
         clipPathUnits="userSpaceOnUse">
        <path
           id="path102"
           d="m 257,133 387,0 0,6 -387,0 0,-6 z"
           inkscape:connector-curvature="0" />
      </clipPath>
      <clipPath
         id="clipPath18"
         clipPathUnits="userSpaceOnUse">
        <path
           id="path105"
           d="m 638,47 7,0 0,89 -7,0 0,-89 z"
           inkscape:connector-curvature="0" />
      </clipPath>
      <clipPath
         id="clipPath19"
         clipPathUnits="userSpaceOnUse">
        <path
           id="path108"
           d="m 202,285 89,0 0,28 -89,0 0,-28 z"
           inkscape:connector-curvature="0" />
      </clipPath>
      <clipPath
         id="clipPath20"
         clipPathUnits="userSpaceOnUse">
        <path
           id="path111"
           d="m 213,289 64,0 0,16 -64,0 0,-16 z"
           inkscape:connector-curvature="0" />
      </clipPath>
      <clipPath
         id="clipPath21"
         clipPathUnits="userSpaceOnUse">
        <path
           id="path114"
           d="m 202,305 89,0 0,7 -89,0 0,-7 z"
           inkscape:connector-curvature="0" />
      </clipPath>
      <clipPath
         id="clipPath22"
         clipPathUnits="userSpaceOnUse">
        <path
           id="path117"
           d="m 285,285 7,0 0,24 -7,0 0,-24 z"
           inkscape:connector-curvature="0" />
      </clipPath>
      <clipPath
         id="clipPath23"
         clipPathUnits="userSpaceOnUse">
        <path
           id="path120"
           d="m 299,285 145,0 0,28 -145,0 0,-28 z"
           inkscape:connector-curvature="0" />
      </clipPath>
      <clipPath
         id="clipPath24"
         clipPathUnits="userSpaceOnUse">
        <path
           id="path123"
           d="m 310,289 120,0 0,16 -120,0 0,-16 z"
           inkscape:connector-curvature="0" />
      </clipPath>
      <clipPath
         id="clipPath25"
         clipPathUnits="userSpaceOnUse">
        <path
           id="path126"
           d="m 299,305 145,0 0,7 -145,0 0,-7 z"
           inkscape:connector-curvature="0" />
      </clipPath>
      <clipPath
         id="clipPath26"
         clipPathUnits="userSpaceOnUse">
        <path
           id="path129"
           d="m 438,285 7,0 0,24 -7,0 0,-24 z"
           inkscape:connector-curvature="0" />
      </clipPath>
      <clipPath
         id="clipPath27"
         clipPathUnits="userSpaceOnUse">
        <path
           id="path132"
           d="m 565,285 96,0 0,28 -96,0 0,-28 z"
           inkscape:connector-curvature="0" />
      </clipPath>
      <clipPath
         id="clipPath28"
         clipPathUnits="userSpaceOnUse">
        <path
           id="path135"
           d="m 576,289 71,0 0,16 -71,0 0,-16 z"
           inkscape:connector-curvature="0" />
      </clipPath>
      <clipPath
         id="clipPath29"
         clipPathUnits="userSpaceOnUse">
        <path
           id="path138"
           d="m 565,305 96,0 0,7 -96,0 0,-7 z"
           inkscape:connector-curvature="0" />
      </clipPath>
      <clipPath
         id="clipPath30"
         clipPathUnits="userSpaceOnUse">
        <path
           id="path141"
           d="m 655,285 7,0 0,24 -7,0 0,-24 z"
           inkscape:connector-curvature="0" />
      </clipPath>
      <clipPath
         id="clipPath31"
         clipPathUnits="userSpaceOnUse">
        <path
           id="path144"
           d="m 8,142 203,0 0,54 -203,0 0,-54 z"
           inkscape:connector-curvature="0" />
      </clipPath>
      <clipPath
         id="clipPath32"
         clipPathUnits="userSpaceOnUse">
        <path
           id="path147"
           d="m 75,146 67,0 0,16 -67,0 0,-16 z"
           inkscape:connector-curvature="0" />
      </clipPath>
      <clipPath
         id="clipPath33"
         clipPathUnits="userSpaceOnUse">
        <path
           id="path150"
           d="m 21,159 175,0 0,16 -175,0 0,-16 z"
           inkscape:connector-curvature="0" />
      </clipPath>
      <clipPath
         id="clipPath34"
         clipPathUnits="userSpaceOnUse">
        <path
           id="path153"
           d="m 19,172 178,0 0,16 -178,0 0,-16 z"
           inkscape:connector-curvature="0" />
      </clipPath>
      <clipPath
         id="clipPath35"
         clipPathUnits="userSpaceOnUse">
        <path
           id="path156"
           d="m 8,188 203,0 0,7 -203,0 0,-7 z"
           inkscape:connector-curvature="0" />
      </clipPath>
      <clipPath
         id="clipPath36"
         clipPathUnits="userSpaceOnUse">
        <path
           id="path159"
           d="m 205,142 7,0 0,50 -7,0 0,-50 z"
           inkscape:connector-curvature="0" />
      </clipPath>
      <clipPath
         id="clipPath37"
         clipPathUnits="userSpaceOnUse">
        <path
           id="path162"
           d="m 456,284 101,0 0,31 -101,0 0,-31 z"
           inkscape:connector-curvature="0" />
      </clipPath>
      <clipPath
         id="clipPath38"
         clipPathUnits="userSpaceOnUse">
        <path
           id="path165"
           d="m 467,288 76,0 0,16 -76,0 0,-16 z"
           inkscape:connector-curvature="0" />
      </clipPath>
      <clipPath
         id="clipPath39"
         clipPathUnits="userSpaceOnUse">
        <path
           id="path168"
           d="m 456,307 101,0 0,7 -101,0 0,-7 z"
           inkscape:connector-curvature="0" />
      </clipPath>
      <clipPath
         id="clipPath40"
         clipPathUnits="userSpaceOnUse">
        <path
           id="path171"
           d="m 551,284 7,0 0,27 -7,0 0,-27 z"
           inkscape:connector-curvature="0" />
      </clipPath>
      <clipPath
         id="clipPath41"
         clipPathUnits="userSpaceOnUse">
        <path
           id="path174"
           d="m -1,-1 672,0 0,377 -672,0 0,-377 z"
           inkscape:connector-curvature="0" />
      </clipPath>
      <clipPath
         id="clipPath42"
         clipPathUnits="userSpaceOnUse">
        <path
           id="path177"
           d="m 429,133 14,0 0,14 -14,0 0,-14 z"
           inkscape:connector-curvature="0" />
      </clipPath>
      <clipPath
         id="clipPath43"
         clipPathUnits="userSpaceOnUse">
        <path
           id="path180"
           d="m 266,246 14,0 0,14 -14,0 0,-14 z"
           inkscape:connector-curvature="0" />
      </clipPath>
      <clipPath
         id="clipPath44"
         clipPathUnits="userSpaceOnUse">
        <path
           id="path183"
           d="m 381,246 14,0 0,14 -14,0 0,-14 z"
           inkscape:connector-curvature="0" />
      </clipPath>
      <clipPath
         id="clipPath45"
         clipPathUnits="userSpaceOnUse">
        <path
           id="path186"
           d="m 341,310 10,0 0,16 -10,0 0,-16 z"
           inkscape:connector-curvature="0" />
      </clipPath>
      <clipPath
         id="clipPath46"
         clipPathUnits="userSpaceOnUse">
        <path
           id="path189"
           d="m 220,310 10,0 0,16 -10,0 0,-16 z"
           inkscape:connector-curvature="0" />
      </clipPath>
      <clipPath
         id="clipPath47"
         clipPathUnits="userSpaceOnUse">
        <path
           id="path192"
           d="m 196,338 63,0 0,16 -63,0 0,-16 z"
           inkscape:connector-curvature="0" />
      </clipPath>
      <clipPath
         id="clipPath48"
         clipPathUnits="userSpaceOnUse">
        <path
           id="path195"
           d="m 326,306 14,0 0,24 -14,0 0,-24 z"
           inkscape:connector-curvature="0" />
      </clipPath>
      <clipPath
         id="clipPath49"
         clipPathUnits="userSpaceOnUse">
        <path
           id="path198"
           d="m 233,306 14,0 0,14 -14,0 0,-14 z"
           inkscape:connector-curvature="0" />
      </clipPath>
      <clipPath
         id="clipPath50"
         clipPathUnits="userSpaceOnUse">
        <path
           id="path201"
           d="m 594,246 14,0 0,14 -14,0 0,-14 z"
           inkscape:connector-curvature="0" />
      </clipPath>
      <clipPath
         id="clipPath51"
         clipPathUnits="userSpaceOnUse">
        <path
           id="path204"
           d="m 245,54 10,0 0,16 -10,0 0,-16 z"
           inkscape:connector-curvature="0" />
      </clipPath>
      <clipPath
         id="clipPath52"
         clipPathUnits="userSpaceOnUse">
        <path
           id="path207"
           d="m 191,118 9,0 0,16 -9,0 0,-16 z"
           inkscape:connector-curvature="0" />
      </clipPath>
      <clipPath
         id="clipPath53"
         clipPathUnits="userSpaceOnUse">
        <path
           id="path210"
           d="m 116,118 64,0 0,16 -64,0 0,-16 z"
           inkscape:connector-curvature="0" />
      </clipPath>
      <clipPath
         id="clipPath54"
         clipPathUnits="userSpaceOnUse">
        <path
           id="path213"
           d="m 181,132 14,0 0,14 -14,0 0,-14 z"
           inkscape:connector-curvature="0" />
      </clipPath>
      <clipPath
         id="clipPath55"
         clipPathUnits="userSpaceOnUse">
        <path
           id="path216"
           d="m 500,246 14,0 0,14 -14,0 0,-14 z"
           inkscape:connector-curvature="0" />
      </clipPath>
    </defs>
    <linearGradient
       inkscape:collect="always"
       xlink:href="#linearGradient8"
       id="linearGradient3872"
       gradientUnits="userSpaceOnUse"
       spreadMethod="pad"
       x1="10"
       y1="144"
       x2="10"
       y2="190" />
  </defs>
  <g
     style="font-size:11px;font-style:italic;font-weight:bold;stroke-width:0;stroke-linejoin:round;stroke-miterlimit:0"
     id="g226"
     stroke-miterlimit="0"
     font-weight="bold"
     font-style="italic"
     font-size="11"
     transform="translate(-8.46875,-79.46875)">
    <text
       style="stroke:none"
       id="text228"
       clip-path="url(#clipPath2)"
       y="202"
       x="365"
       xml:space="preserve">AbstractMonitoringReader</text>
    <text
       style="font-style:normal;font-weight:normal;stroke:none"
       id="text230"
       xml:space="preserve"
       font-weight="normal"
       font-style="normal"
       clip-path="url(#clipPath3)"
       y="215"
       x="361">(from kieker::analysis::reader)</text>
    <text
       style="font-style:normal;font-weight:normal;stroke:none"
       id="text232"
       xml:space="preserve"
       font-weight="normal"
       font-style="normal"
       clip-path="url(#clipPath4)"
       y="232"
       x="274">+ addRecordReceiver ( receiver : IMonitoringRecordReceiver )</text>
    <text
       style="font-style:normal;font-weight:normal;stroke:none"
       id="text234"
       xml:space="preserve"
       font-weight="normal"
       font-style="normal"
       clip-path="url(#clipPath5)"
       y="245"
       x="274"># deliverRecord ( record : IMonitoringRecord )</text>
  </g>
  <line
     clip-path="url(#clipPath6)"
     x1="269"
     x2="628"
     y1="220"
     y2="220"
     id="line238"
     style="font-size:11px;fill:none;stroke-width:1.09290004;stroke-linecap:butt"
     transform="translate(-8.46875,-79.46875)" />
  <rect
     x="259"
     y="49"
     clip-path="url(#clipPath9)"
     width="380"
     height="85"
     id="rect258"
     style="font-size:11px;fill:#ffffff;stroke:none"
     transform="translate(-8.46875,-47.46875)" />
  <text
     xml:space="preserve"
     x="416"
     y="63"
     clip-path="url(#clipPath10)"
     id="text264"
     style="font-size:11px;stroke:none"
     transform="translate(-8.46875,-47.46875)">«interface»</text>
  <text
     x="389"
     y="76"
     clip-path="url(#clipPath11)"
     font-weight="bold"
     xml:space="preserve"
     id="text266"
     style="font-size:11px;font-weight:bold;stroke:none"
     transform="translate(-8.46875,-47.46875)">IMonitoringReader</text>
  <text
     xml:space="preserve"
     x="361"
     y="89"
     clip-path="url(#clipPath12)"
     id="text268"
     style="font-size:11px;stroke:none"
     transform="translate(-8.46875,-47.46875)">(from kieker::analysis::reader)</text>
  <text
     xml:space="preserve"
     x="264"
     y="106"
     clip-path="url(#clipPath13)"
     id="text270"
     style="font-size:11px;stroke:none"
     transform="translate(-8.46875,-47.46875)">+ init ( initString : String )</text>
  <text
     xml:space="preserve"
     x="264"
     y="119"
     clip-path="url(#clipPath14)"
     id="text272"
     style="font-size:11px;stroke:none"
     transform="translate(-8.46875,-47.46875)">+ addRecordReceiver ( receiver : IMonitoringRecordReceiver )</text>
  <text
     xml:space="preserve"
     x="264"
     y="132"
     clip-path="url(#clipPath15)"
     id="text274"
     style="font-size:11px;stroke:none"
     transform="translate(-8.46875,-47.46875)">+ read ( ) : boolean</text>
  <line
     clip-path="url(#clipPath16)"
     x1="259"
     x2="638"
     y1="94"
     y2="94"
     id="line276"
     style="font-size:11px;fill:none;stroke-width:1.09290004;stroke-linecap:butt"
     transform="translate(-8.46875,-47.46875)" />
  <rect
     x="258"
     y="48"
     clip-path="url(#clipPath9)"
     width="380"
     height="86"
     id="rect294"
     style="font-size:11px;fill:none;stroke-width:1.09290004;stroke-linecap:butt"
     transform="translate(-8.46875,-47.46875)" />
  <rect
     x="204"
     y="287"
     clip-path="url(#clipPath19)"
     width="82"
     height="20"
     id="rect296"
     style="font-size:11px;fill:#ffffff;stroke:none"
     transform="translate(-8.46875,-79.46875)" />
  <text
     x="214"
     y="301"
     clip-path="url(#clipPath20)"
     font-weight="bold"
     xml:space="preserve"
     id="text300"
     style="font-size:11px;font-weight:bold;stroke:none"
     transform="translate(-8.46875,-79.46875)">FSReader</text>
  <rect
     x="203"
     y="286"
     clip-path="url(#clipPath19)"
     width="82"
     height="20"
     id="rect318"
     style="font-size:11px;fill:none;stroke-width:1.09290004;stroke-linecap:butt"
     transform="translate(-8.46875,-79.46875)" />
  <rect
     x="301"
     y="287"
     clip-path="url(#clipPath23)"
     width="138"
     height="20"
     id="rect320"
     style="font-size:11px;fill:#ffffff;stroke:none"
     transform="translate(-8.46875,-79.46875)" />
  <text
     x="311"
     y="301"
     clip-path="url(#clipPath24)"
     font-weight="bold"
     xml:space="preserve"
     id="text324"
     style="font-size:11px;font-weight:bold;stroke:none"
     transform="translate(-8.46875,-79.46875)">FSReaderRealtime</text>
  <rect
     x="300"
     y="286"
     clip-path="url(#clipPath23)"
     width="138"
     height="20"
     id="rect342"
     style="font-size:11px;fill:none;stroke-width:1.09290004;stroke-linecap:butt"
     transform="translate(-8.46875,-79.46875)" />
  <rect
     x="567"
     y="287"
     clip-path="url(#clipPath27)"
     width="89"
     height="20"
     id="rect344"
     style="font-size:11px;fill:#ffffff;stroke:none"
     transform="translate(-8.46875,-79.46875)" />
  <text
     x="577"
     y="301"
     clip-path="url(#clipPath28)"
     font-weight="bold"
     xml:space="preserve"
     id="text348"
     style="font-size:11px;font-weight:bold;stroke:none"
     transform="translate(-8.46875,-79.46875)">JMSReader</text>
  <rect
     x="566"
     y="286"
     clip-path="url(#clipPath27)"
     width="89"
     height="20"
     id="rect366"
     style="font-size:11px;fill:none;stroke-width:1.09290004;stroke-linecap:butt"
     transform="translate(-8.46875,-79.46875)" />
  <rect
     x="10"
     y="144"
     clip-path="url(#clipPath31)"
     width="196"
     height="46"
     id="rect368"
     style="font-size:11px;fill:#ffffff;stroke:none"
     transform="translate(-8.46875,-47.46875)" />
  <text
     xml:space="preserve"
     x="76"
     y="158"
     clip-path="url(#clipPath32)"
     id="text372"
     style="font-size:11px;stroke:none"
     transform="translate(-8.46875,-47.46875)">«interface»</text>
  <text
     x="22"
     y="171"
     clip-path="url(#clipPath33)"
     font-weight="bold"
     xml:space="preserve"
     id="text374"
     style="font-size:11px;font-weight:bold;stroke:none"
     transform="translate(-8.46875,-47.46875)">IMonitoringRecordReceiver</text>
  <text
     xml:space="preserve"
     x="20"
     y="184"
     clip-path="url(#clipPath34)"
     id="text376"
     style="font-size:11px;stroke:none"
     transform="translate(-8.46875,-47.46875)">(from kieker::common::record)</text>
  <rect
     x="9"
     y="143"
     clip-path="url(#clipPath31)"
     width="196"
     height="46"
     id="rect394"
     style="font-size:11px;fill:none;stroke-width:1.09290004;stroke-linecap:butt"
     transform="translate(-8.46875,-47.46875)" />
  <rect
     x="458"
     y="286"
     clip-path="url(#clipPath37)"
     width="94"
     height="23"
     id="rect396"
     style="font-size:11px;fill:#ffffff;stroke:none"
     transform="translate(-8.46875,-79.46875)" />
  <text
     x="468"
     y="300"
     clip-path="url(#clipPath38)"
     font-weight="bold"
     xml:space="preserve"
     id="text400"
     style="font-size:11px;font-weight:bold;stroke:none"
     transform="translate(-8.46875,-79.46875)">PipeReader</text>
  <rect
     x="457"
     y="285"
     clip-path="url(#clipPath37)"
     width="94"
     height="23"
     id="rect418"
     style="font-size:11px;fill:none;stroke-width:1.09290004;stroke-linecap:butt"
     transform="translate(-8.46875,-79.46875)" />
  <line
     clip-path="url(#clipPath41)"
     x1="272"
     x2="272"
     y1="286"
     y2="248"
     id="line426"
     style="font-size:11px;fill:none;stroke-width:1.09290004;stroke-linecap:butt"
     transform="translate(-8.46875,-79.46875)" />
  <polygon
     clip-path="url(#clipPath43)"
     points="267,258 272,248 277,258 "
     id="polygon428"
     style="font-size:11px;fill:#ffffff;stroke:none"
     transform="translate(-8.46875,-79.46875)" />
  <polygon
     clip-path="url(#clipPath43)"
     points="267,258 272,248 277,258 "
     id="polygon430"
     style="font-size:11px;fill:none;stroke-width:1.09290004;stroke-linecap:butt"
     transform="translate(-8.46875,-79.46875)" />
  <line
     clip-path="url(#clipPath41)"
     x1="388"
     x2="388"
     y1="286"
     y2="248"
     id="line432"
     style="font-size:11px;fill:none;stroke-width:1.09290004;stroke-linecap:butt"
     transform="translate(-8.46875,-79.46875)" />
  <polygon
     clip-path="url(#clipPath44)"
     points="383,258 388,248 393,258 "
     id="polygon434"
     style="font-size:11px;fill:#ffffff;stroke:none"
     transform="translate(-8.46875,-79.46875)" />
  <polygon
     clip-path="url(#clipPath44)"
     points="383,258 388,248 393,258 "
     id="polygon436"
     style="font-size:11px;fill:none;stroke-width:1.09290004;stroke-linecap:butt"
     transform="translate(-8.46875,-79.46875)" />
  <line
     clip-path="url(#clipPath41)"
     x1="332"
     x2="332"
     y1="307"
     y2="329"
     id="line438"
     style="font-size:11px;fill:none;stroke-width:1.09290004;stroke-linecap:butt"
     transform="translate(-8.46875,-79.46875)" />
  <path
     d="m 327.5,333 a 3.5,4 0 0 0 3.5,-4"
     clip-path="url(#clipPath41)"
     id="path440"
     inkscape:connector-curvature="0"
     style="font-size:11px;fill:none;stroke-width:1.09290004;stroke-linecap:butt"
     transform="translate(-8.46875,-79.46875)" />
  <line
     clip-path="url(#clipPath41)"
     x1="328"
     x2="244"
     y1="333"
     y2="333"
     id="line442"
     style="font-size:11px;fill:none;stroke-width:1.09290004;stroke-linecap:butt"
     transform="translate(-8.46875,-79.46875)" />
  <path
     d="m 240,329 a 3.5,4 0 0 0 3.5,4"
     clip-path="url(#clipPath41)"
     id="path444"
     inkscape:connector-curvature="0"
     style="font-size:11px;fill:none;stroke-width:1.09290004;stroke-linecap:butt"
     transform="translate(-8.46875,-79.46875)" />
  <line
     clip-path="url(#clipPath41)"
     x1="240"
     x2="240"
     y1="329"
     y2="307"
     id="line446"
     style="font-size:11px;fill:none;stroke-width:1.09290004;stroke-linecap:butt"
     transform="translate(-8.46875,-79.46875)" />
  <text
     xml:space="preserve"
     x="342"
     y="322"
     clip-path="url(#clipPath45)"
     id="text448"
     style="font-size:11px;stroke:none"
     transform="translate(-8.46875,-79.46875)">1</text>
  <text
     xml:space="preserve"
     x="221"
     y="322"
     clip-path="url(#clipPath46)"
     id="text450"
     style="font-size:11px;stroke:none"
     transform="translate(-8.46875,-79.46875)">1</text>
  <text
     xml:space="preserve"
     x="197"
     y="350"
     clip-path="url(#clipPath47)"
     id="text452"
     style="font-size:11px;stroke:none"
     transform="translate(-8.46875,-79.46875)">- fSReader</text>
  <polygon
     clip-path="url(#clipPath48)"
     points="327,317 332,307 337,317 332,328 "
     id="polygon454"
     style="font-size:11px;stroke:none"
     transform="translate(-8.46875,-79.46875)" />
  <polygon
     clip-path="url(#clipPath48)"
     points="327,317 332,307 337,317 332,328 "
     id="polygon456"
     style="font-size:11px;fill:none;stroke-width:1.09290004;stroke-linecap:butt"
     transform="translate(-8.46875,-79.46875)" />
  <line
     clip-path="url(#clipPath49)"
     x1="245"
     x2="240"
     y1="317"
     y2="307"
     id="line458"
     style="font-size:11px;fill:none;stroke-width:1.09290004;stroke-linecap:butt"
     transform="translate(-8.46875,-79.46875)" />
  <line
     clip-path="url(#clipPath49)"
     x1="240"
     x2="235"
     y1="307"
     y2="317"
     id="line460"
     style="font-size:11px;fill:none;stroke-width:1.09290004;stroke-linecap:butt"
     transform="translate(-8.46875,-79.46875)" />
  <line
     clip-path="url(#clipPath41)"
     x1="601"
     x2="601"
     y1="286"
     y2="248"
     id="line462"
     style="font-size:11px;fill:none;stroke-width:1.09290004;stroke-linecap:butt"
     transform="translate(-8.46875,-79.46875)" />
  <polygon
     clip-path="url(#clipPath50)"
     points="596,258 601,248 606,258 "
     id="polygon464"
     style="font-size:11px;fill:#ffffff;stroke:none"
     transform="translate(-8.46875,-79.46875)" />
  <polygon
     clip-path="url(#clipPath50)"
     points="596,258 601,248 606,258 "
     id="polygon466"
     style="font-size:11px;fill:none;stroke-width:1.09290004;stroke-linecap:butt"
     transform="translate(-8.46875,-79.46875)" />
  <line
     clip-path="url(#clipPath41)"
     x1="258"
     x2="191"
     y1="69"
     y2="69"
     id="line468"
     style="font-size:11px;fill:none;stroke-width:1.09290004;stroke-linecap:butt"
     transform="translate(-8.46875,-47.46875)" />
  <path
     d="M 190.5,69 A 3.5,3.5 0 0 0 187,72.5"
     clip-path="url(#clipPath41)"
     id="path470"
     inkscape:connector-curvature="0"
     style="font-size:11px;fill:none;stroke-width:1.09290004;stroke-linecap:butt"
     transform="translate(-8.46875,-47.46875)" />
  <line
     clip-path="url(#clipPath41)"
     x1="187"
     x2="187"
     y1="73"
     y2="143"
     id="line472"
     style="font-size:11px;fill:none;stroke-width:1.09290004;stroke-linecap:butt"
     transform="translate(-8.46875,-47.46875)" />
  <text
     xml:space="preserve"
     x="246"
     y="66"
     clip-path="url(#clipPath51)"
     id="text474"
     style="font-size:11px;stroke:none"
     transform="translate(-8.46875,-47.46875)">1</text>
  <text
     xml:space="preserve"
     x="192"
     y="130"
     clip-path="url(#clipPath52)"
     id="text476"
     style="font-size:11px;stroke:none"
     transform="translate(-8.46875,-47.46875)">*</text>
  <text
     xml:space="preserve"
     x="117"
     y="130"
     clip-path="url(#clipPath53)"
     id="text478"
     style="font-size:11px;stroke:none"
     transform="translate(-8.46875,-47.46875)">- receivers</text>
  <line
     clip-path="url(#clipPath54)"
     x1="182"
     x2="187"
     y1="133"
     y2="143"
     id="line480"
     style="font-size:11px;fill:none;stroke-width:1.09290004;stroke-linecap:butt"
     transform="translate(-8.46875,-47.46875)" />
  <line
     clip-path="url(#clipPath54)"
     x1="187"
     x2="192"
     y1="143"
     y2="133"
     id="line482"
     style="font-size:11px;fill:none;stroke-width:1.09290004;stroke-linecap:butt"
     transform="translate(-8.46875,-47.46875)" />
  <line
     clip-path="url(#clipPath41)"
     x1="506"
     x2="506"
     y1="285"
     y2="248"
     id="line484"
     style="font-size:11px;fill:none;stroke-width:1.09290004;stroke-linecap:butt"
     transform="translate(-8.46875,-79.46875)" />
  <polygon
     clip-path="url(#clipPath55)"
     points="501,258 506,248 511,258 "
     id="polygon486"
     style="font-size:11px;fill:#ffffff;stroke:none"
     transform="translate(-8.46875,-79.46875)" />
  <polygon
     clip-path="url(#clipPath55)"
     points="501,258 506,248 511,258 "
     id="polygon488"
     style="font-size:11px;fill:none;stroke-width:1.09290004;stroke-linecap:butt"
     transform="translate(-8.46875,-79.46875)" />
</svg>
