<?xml version="1.0" encoding="UTF-8"?><svg stroke-dasharray="none" shape-rendering="auto" xmlns="http://www.w3.org/2000/svg" font-family="'Dialog'" width="721" text-rendering="auto" fill-opacity="1" contentScriptType="text/ecmascript" color-interpolation="auto" color-rendering="auto" preserveAspectRatio="xMidYMid meet" font-size="12" viewBox="0 0 721 179" fill="black" xmlns:xlink="http://www.w3.org/1999/xlink" stroke="black" image-rendering="auto" stroke-miterlimit="10" zoomAndPan="magnify" version="1.0" stroke-linecap="square" stroke-linejoin="miter" contentStyleType="text/css" font-style="normal" height="179" stroke-width="1" stroke-dashoffset="0" font-weight="normal" stroke-opacity="1">
<!--Generated by the Batik Graphics2D SVG Generator-->
<defs id="genericDefs"/>
<g>
<defs id="defs1">
<linearGradient x1="10" x2="10" y1="150" gradientUnits="userSpaceOnUse" y2="164" xlink:type="simple" xlink:actuate="onLoad" id="linearGradient1" xlink:show="other" spreadMethod="pad">
<stop stop-opacity="1" stop-color="white" offset="0%"/>
<stop stop-opacity="1" stop-color="rgb(236,236,236)" offset="100%"/>
</linearGradient>
<linearGradient x1="10" x2="10" y1="13" gradientUnits="userSpaceOnUse" y2="46" xlink:type="simple" xlink:actuate="onLoad" id="linearGradient2" xlink:show="other" spreadMethod="pad">
<stop stop-opacity="1" stop-color="rgb(226,241,254)" offset="0%"/>
<stop stop-opacity="1" stop-color="rgb(188,213,234)" offset="100%"/>
</linearGradient>
<linearGradient x1="514" x2="514" y1="13" gradientUnits="userSpaceOnUse" y2="59" xlink:type="simple" xlink:actuate="onLoad" id="linearGradient3" xlink:show="other" spreadMethod="pad">
<stop stop-opacity="1" stop-color="rgb(226,241,254)" offset="0%"/>
<stop stop-opacity="1" stop-color="rgb(188,213,234)" offset="100%"/>
</linearGradient>
<linearGradient x1="514" x2="514" y1="123" gradientUnits="userSpaceOnUse" y2="137" xlink:type="simple" xlink:actuate="onLoad" id="linearGradient4" xlink:show="other" spreadMethod="pad">
<stop stop-opacity="1" stop-color="white" offset="0%"/>
<stop stop-opacity="1" stop-color="rgb(236,236,236)" offset="100%"/>
</linearGradient>
<linearGradient x1="514" x2="514" y1="77" gradientUnits="userSpaceOnUse" y2="123" xlink:type="simple" xlink:actuate="onLoad" id="linearGradient5" xlink:show="other" spreadMethod="pad">
<stop stop-opacity="1" stop-color="rgb(226,241,254)" offset="0%"/>
<stop stop-opacity="1" stop-color="rgb(188,213,234)" offset="100%"/>
</linearGradient>
<clipPath clipPathUnits="userSpaceOnUse" id="clipPath1">
<path d="M8 11 L410 11 L410 170 L8 170 L8 11 Z"/>
</clipPath>
<clipPath clipPathUnits="userSpaceOnUse" id="clipPath2">
<path d="M148 15 L267 15 L267 31 L148 31 L148 15 Z"/>
</clipPath>
<clipPath clipPathUnits="userSpaceOnUse" id="clipPath3">
<path d="M109 28 L307 28 L307 44 L109 44 L109 28 Z"/>
</clipPath>
<clipPath clipPathUnits="userSpaceOnUse" id="clipPath4">
<path d="M15 45 L203 45 L203 61 L15 61 L15 45 Z"/>
</clipPath>
<clipPath clipPathUnits="userSpaceOnUse" id="clipPath5">
<path d="M15 58 L358 58 L358 74 L15 74 L15 58 Z"/>
</clipPath>
<clipPath clipPathUnits="userSpaceOnUse" id="clipPath6">
<path d="M15 71 L181 71 L181 87 L15 87 L15 71 Z"/>
</clipPath>
<clipPath clipPathUnits="userSpaceOnUse" id="clipPath7">
<path d="M15 84 L324 84 L324 100 L15 100 L15 84 Z"/>
</clipPath>
<clipPath clipPathUnits="userSpaceOnUse" id="clipPath8">
<path d="M15 97 L333 97 L333 113 L15 113 L15 97 Z"/>
</clipPath>
<clipPath clipPathUnits="userSpaceOnUse" id="clipPath9">
<path d="M15 110 L371 110 L371 126 L15 126 L15 110 Z"/>
</clipPath>
<clipPath clipPathUnits="userSpaceOnUse" id="clipPath10">
<path d="M15 123 L124 123 L124 139 L15 139 L15 123 Z"/>
</clipPath>
<clipPath clipPathUnits="userSpaceOnUse" id="clipPath11">
<path d="M15 136 L122 136 L122 152 L15 152 L15 136 Z"/>
</clipPath>
<clipPath clipPathUnits="userSpaceOnUse" id="clipPath12">
<path d="M15 149 L134 149 L134 165 L15 165 L15 149 Z"/>
</clipPath>
<clipPath clipPathUnits="userSpaceOnUse" id="clipPath13">
<path d="M9 44 L406 44 L406 165 L9 165 L9 44 Z"/>
</clipPath>
<clipPath clipPathUnits="userSpaceOnUse" id="clipPath14">
<path d="M8 162 L410 162 L410 169 L8 169 L8 162 Z"/>
</clipPath>
<clipPath clipPathUnits="userSpaceOnUse" id="clipPath15">
<path d="M404 11 L411 11 L411 166 L404 166 L404 11 Z"/>
</clipPath>
<clipPath clipPathUnits="userSpaceOnUse" id="clipPath16">
<path d="M512 11 L691 11 L691 65 L512 65 L512 11 Z"/>
</clipPath>
<clipPath clipPathUnits="userSpaceOnUse" id="clipPath17">
<path d="M571 15 L629 15 L629 31 L571 31 L571 15 Z"/>
</clipPath>
<clipPath clipPathUnits="userSpaceOnUse" id="clipPath18">
<path d="M550 28 L650 28 L650 44 L550 44 L550 28 Z"/>
</clipPath>
<clipPath clipPathUnits="userSpaceOnUse" id="clipPath19">
<path d="M523 41 L677 41 L677 57 L523 57 L523 41 Z"/>
</clipPath>
<clipPath clipPathUnits="userSpaceOnUse" id="clipPath20">
<path d="M512 57 L691 57 L691 64 L512 64 L512 57 Z"/>
</clipPath>
<clipPath clipPathUnits="userSpaceOnUse" id="clipPath21">
<path d="M685 11 L692 11 L692 61 L685 61 L685 11 Z"/>
</clipPath>
<clipPath clipPathUnits="userSpaceOnUse" id="clipPath22">
<path d="M512 75 L713 75 L713 143 L512 143 L512 75 Z"/>
</clipPath>
<clipPath clipPathUnits="userSpaceOnUse" id="clipPath23">
<path d="M582 79 L640 79 L640 95 L582 95 L582 79 Z"/>
</clipPath>
<clipPath clipPathUnits="userSpaceOnUse" id="clipPath24">
<path d="M575 92 L648 92 L648 108 L575 108 L575 92 Z"/>
</clipPath>
<clipPath clipPathUnits="userSpaceOnUse" id="clipPath25">
<path d="M523 105 L699 105 L699 121 L523 121 L523 105 Z"/>
</clipPath>
<clipPath clipPathUnits="userSpaceOnUse" id="clipPath26">
<path d="M519 122 L611 122 L611 138 L519 138 L519 122 Z"/>
</clipPath>
<clipPath clipPathUnits="userSpaceOnUse" id="clipPath27">
<path d="M513 121 L709 121 L709 138 L513 138 L513 121 Z"/>
</clipPath>
<clipPath clipPathUnits="userSpaceOnUse" id="clipPath28">
<path d="M512 135 L713 135 L713 142 L512 142 L512 135 Z"/>
</clipPath>
<clipPath clipPathUnits="userSpaceOnUse" id="clipPath29">
<path d="M707 75 L714 75 L714 139 L707 139 L707 75 Z"/>
</clipPath>
<clipPath clipPathUnits="userSpaceOnUse" id="clipPath30">
<path d="M-1 -1 L722 -1 L722 180 L-1 180 L-1 -1 Z"/>
</clipPath>
<clipPath clipPathUnits="userSpaceOnUse" id="clipPath31">
<path d="M421 22 L431 22 L431 41 L421 41 L421 22 Z"/>
</clipPath>
<clipPath clipPathUnits="userSpaceOnUse" id="clipPath32">
<path d="M489 22 L499 22 L499 41 L489 41 L489 22 Z"/>
</clipPath>
<clipPath clipPathUnits="userSpaceOnUse" id="clipPath33">
<path d="M464 58 L506 58 L506 77 L464 77 L464 58 Z"/>
</clipPath>
<clipPath clipPathUnits="userSpaceOnUse" id="clipPath34">
<path d="M404 42 L428 42 L428 56 L404 56 L404 42 Z"/>
</clipPath>
<clipPath clipPathUnits="userSpaceOnUse" id="clipPath35">
<path d="M502 42 L516 42 L516 56 L502 56 L502 42 Z"/>
</clipPath>
<clipPath clipPathUnits="userSpaceOnUse" id="clipPath36">
<path d="M420 93 L430 93 L430 109 L420 109 L420 93 Z"/>
</clipPath>
<clipPath clipPathUnits="userSpaceOnUse" id="clipPath37">
<path d="M488 93 L498 93 L498 109 L488 109 L488 93 Z"/>
</clipPath>
<clipPath clipPathUnits="userSpaceOnUse" id="clipPath38">
<path d="M428 129 L504 129 L504 145 L428 145 L428 129 Z"/>
</clipPath>
<clipPath clipPathUnits="userSpaceOnUse" id="clipPath39">
<path d="M404 109 L428 109 L428 123 L404 123 L404 109 Z"/>
</clipPath>
<clipPath clipPathUnits="userSpaceOnUse" id="clipPath40">
<path d="M502 109 L516 109 L516 123 L502 123 L502 109 Z"/>
</clipPath>
</defs>
<g font-size="11" fill="white" font-family="'Arial'" stroke-linejoin="round" stroke="white" stroke-width="0" stroke-miterlimit="0">
<rect x="10" y="13" clip-path="url(#clipPath1)" width="395" height="151" stroke="none"/>
<rect x="10" y="150" clip-path="url(#clipPath1)" fill="url(#linearGradient1)" width="395" height="14" stroke="none"/>
<rect x="10" y="13" clip-path="url(#clipPath1)" fill="url(#linearGradient2)" width="395" height="33" stroke="none"/>
<text x="149" y="27" clip-path="url(#clipPath2)" fill="black" stroke="none" font-weight="bold" xml:space="preserve">MonitoringController</text>
<text x="110" y="40" clip-path="url(#clipPath3)" fill="black" stroke="none" xml:space="preserve">(from kieker::monitoring::core::controller)</text>
<text x="16" y="57" clip-path="url(#clipPath4)" fill="black" stroke="none" xml:space="preserve">+ getInstance ( ) : IMonitoringController</text>
</g>
<g font-size="11" font-family="'Arial'" stroke-linecap="butt">
<line clip-path="url(#clipPath4)" fill="none" x1="16" x2="201" y1="57" y2="57"/>
<text xml:space="preserve" x="16" y="70" clip-path="url(#clipPath5)" stroke="none">+ createInstance ( configuration : Configuration ) : IMonitoringController</text>
<text xml:space="preserve" x="16" y="83" clip-path="url(#clipPath6)" stroke="none">+ getTimeSource ( ) : ITimeSource</text>
<text xml:space="preserve" x="16" y="96" clip-path="url(#clipPath7)" stroke="none">+ newMonitoringRecord ( record : IMonitoringRecord ) : boolean</text>
<text xml:space="preserve" x="16" y="109" clip-path="url(#clipPath8)" stroke="none">+ schedulePeriodicSampler ( sampler : ISampler, period : long, ... )</text>
<text xml:space="preserve" x="16" y="122" clip-path="url(#clipPath9)" stroke="none">+ removeScheduledSampler ( sampler : ScheduledSamplerJob ) : boolean</text>
<text xml:space="preserve" x="16" y="135" clip-path="url(#clipPath10)" stroke="none">+ disableMonitoring ( )</text>
<text xml:space="preserve" x="16" y="148" clip-path="url(#clipPath11)" stroke="none">+ enableMonitoring ( )</text>
<text xml:space="preserve" x="16" y="161" clip-path="url(#clipPath12)" stroke="none">+ terminateMonitoring ( )</text>
<line clip-path="url(#clipPath13)" fill="none" x1="10" x2="404" y1="45" y2="45" stroke-width="1.0827"/>
<rect x="13" y="16" clip-path="url(#clipPath14)" fill="rgb(245,245,245)" width="395" height="152" stroke="none" stroke-width="1.0827"/>
<rect x="12" y="15" clip-path="url(#clipPath14)" fill="rgb(233,233,233)" width="395" height="152" stroke="none" stroke-width="1.0827"/>
<rect x="11" y="14" clip-path="url(#clipPath14)" fill="rgb(221,221,221)" width="395" height="152" stroke="none" stroke-width="1.0827"/>
<rect x="10" y="13" clip-path="url(#clipPath14)" fill="rgb(207,207,207)" width="395" height="152" stroke="none" stroke-width="1.0827"/>
<rect x="13" y="16" clip-path="url(#clipPath15)" fill="rgb(245,245,245)" width="395" height="152" stroke="none" stroke-width="1.0827"/>
<rect x="12" y="15" clip-path="url(#clipPath15)" fill="rgb(233,233,233)" width="395" height="152" stroke="none" stroke-width="1.0827"/>
<rect x="11" y="14" clip-path="url(#clipPath15)" fill="rgb(221,221,221)" width="395" height="152" stroke="none" stroke-width="1.0827"/>
<rect x="10" y="13" clip-path="url(#clipPath15)" fill="rgb(207,207,207)" width="395" height="152" stroke="none" stroke-width="1.0827"/>
<rect x="9" y="12" clip-path="url(#clipPath1)" fill="none" width="395" height="151" stroke-width="1.0827"/>
<rect x="514" y="13" clip-path="url(#clipPath16)" fill="white" width="172" height="46" stroke="none" stroke-width="1.0827"/>
<rect x="514" y="13" clip-path="url(#clipPath16)" fill="url(#linearGradient3)" width="172" height="46" stroke="none" stroke-width="1.0827"/>
<text x="572" y="27" clip-path="url(#clipPath17)" stroke="none" stroke-width="1.0827" xml:space="preserve">«interface»</text>
<text x="551" y="40" clip-path="url(#clipPath18)" stroke="none" font-weight="bold" stroke-width="1.0827" xml:space="preserve">IMonitoringWriter</text>
<text x="524" y="53" clip-path="url(#clipPath19)" stroke="none" stroke-width="1.0827" xml:space="preserve">(from kieker::monitoring::writer)</text>
<rect x="517" y="16" clip-path="url(#clipPath20)" fill="rgb(245,245,245)" width="172" height="47" stroke="none" stroke-width="1.0827"/>
<rect x="516" y="15" clip-path="url(#clipPath20)" fill="rgb(233,233,233)" width="172" height="47" stroke="none" stroke-width="1.0827"/>
<rect x="515" y="14" clip-path="url(#clipPath20)" fill="rgb(221,221,221)" width="172" height="47" stroke="none" stroke-width="1.0827"/>
<rect x="514" y="13" clip-path="url(#clipPath20)" fill="rgb(207,207,207)" width="172" height="47" stroke="none" stroke-width="1.0827"/>
<rect x="517" y="16" clip-path="url(#clipPath21)" fill="rgb(245,245,245)" width="172" height="47" stroke="none" stroke-width="1.0827"/>
<rect x="516" y="15" clip-path="url(#clipPath21)" fill="rgb(233,233,233)" width="172" height="47" stroke="none" stroke-width="1.0827"/>
<rect x="515" y="14" clip-path="url(#clipPath21)" fill="rgb(221,221,221)" width="172" height="47" stroke="none" stroke-width="1.0827"/>
<rect x="514" y="13" clip-path="url(#clipPath21)" fill="rgb(207,207,207)" width="172" height="47" stroke="none" stroke-width="1.0827"/>
<rect x="513" y="12" clip-path="url(#clipPath16)" fill="none" width="172" height="46" stroke-width="1.0827"/>
<rect x="514" y="77" clip-path="url(#clipPath22)" fill="white" width="194" height="60" stroke="none" stroke-width="1.0827"/>
<rect x="514" y="123" clip-path="url(#clipPath22)" fill="url(#linearGradient4)" width="194" height="14" stroke="none" stroke-width="1.0827"/>
<rect x="514" y="77" clip-path="url(#clipPath22)" fill="url(#linearGradient5)" width="194" height="46" stroke="none" stroke-width="1.0827"/>
<text x="583" y="91" clip-path="url(#clipPath23)" stroke="none" stroke-width="1.0827" xml:space="preserve">«interface»</text>
<text x="576" y="104" clip-path="url(#clipPath24)" stroke="none" font-weight="bold" stroke-width="1.0827" xml:space="preserve">ITimeSource</text>
<text x="524" y="117" clip-path="url(#clipPath25)" stroke="none" stroke-width="1.0827" xml:space="preserve">(from kieker::monitoring::core::timer)</text>
<text x="520" y="134" clip-path="url(#clipPath26)" stroke="none" stroke-width="1.0827" xml:space="preserve">+ getTime ( ) : long</text>
<line clip-path="url(#clipPath27)" fill="none" x1="514" x2="707" y1="122" y2="122" stroke-width="1.0827"/>
<rect x="517" y="80" clip-path="url(#clipPath28)" fill="rgb(245,245,245)" width="194" height="61" stroke="none" stroke-width="1.0827"/>
<rect x="516" y="79" clip-path="url(#clipPath28)" fill="rgb(233,233,233)" width="194" height="61" stroke="none" stroke-width="1.0827"/>
<rect x="515" y="78" clip-path="url(#clipPath28)" fill="rgb(221,221,221)" width="194" height="61" stroke="none" stroke-width="1.0827"/>
<rect x="514" y="77" clip-path="url(#clipPath28)" fill="rgb(207,207,207)" width="194" height="61" stroke="none" stroke-width="1.0827"/>
<rect x="517" y="80" clip-path="url(#clipPath29)" fill="rgb(245,245,245)" width="194" height="61" stroke="none" stroke-width="1.0827"/>
<rect x="516" y="79" clip-path="url(#clipPath29)" fill="rgb(233,233,233)" width="194" height="61" stroke="none" stroke-width="1.0827"/>
<rect x="515" y="78" clip-path="url(#clipPath29)" fill="rgb(221,221,221)" width="194" height="61" stroke="none" stroke-width="1.0827"/>
<rect x="514" y="77" clip-path="url(#clipPath29)" fill="rgb(207,207,207)" width="194" height="61" stroke="none" stroke-width="1.0827"/>
<rect x="513" y="76" clip-path="url(#clipPath22)" fill="none" width="194" height="60" stroke-width="1.0827"/>
<line clip-path="url(#clipPath30)" fill="none" x1="405" x2="513" y1="48" y2="48" stroke-width="1.0827"/>
<text font-size="13" x="422" y="35" clip-path="url(#clipPath31)" stroke="none" stroke-width="1.0827" xml:space="preserve">1</text>
<text font-size="13" x="490" y="35" clip-path="url(#clipPath32)" stroke="none" stroke-width="1.0827" xml:space="preserve">1</text>
<text font-size="13" x="465" y="71" clip-path="url(#clipPath33)" stroke="none" stroke-width="1.0827" xml:space="preserve">- writer</text>
<polygon stroke-width="1.0827" clip-path="url(#clipPath34)" points=" 405 48 415 43 425 48 415 53" stroke="none"/>
<polygon fill="none" stroke-width="1.0827" clip-path="url(#clipPath34)" points=" 405 48 415 43 425 48 415 53"/>
<line clip-path="url(#clipPath35)" fill="none" x1="503" x2="513" y1="53" y2="48" stroke-width="1.0827"/>
<line clip-path="url(#clipPath35)" fill="none" x1="513" x2="503" y1="48" y2="43" stroke-width="1.0827"/>
<line clip-path="url(#clipPath30)" fill="none" x1="405" x2="513" y1="115" y2="115" stroke-width="1.0827"/>
<text x="421" y="105" clip-path="url(#clipPath36)" font-family="'Dialog'" stroke="none" stroke-width="1.0827" xml:space="preserve">1</text>
<text x="489" y="105" clip-path="url(#clipPath37)" font-family="'Dialog'" stroke="none" stroke-width="1.0827" xml:space="preserve">1</text>
<text x="429" y="141" clip-path="url(#clipPath38)" font-family="'Dialog'" stroke="none" stroke-width="1.0827" xml:space="preserve">- timeSource</text>
<polygon stroke-width="1.0827" clip-path="url(#clipPath39)" points=" 405 115 415 110 425 115 415 120" stroke="none"/>
<polygon fill="none" stroke-width="1.0827" clip-path="url(#clipPath39)" points=" 405 115 415 110 425 115 415 120"/>
<line clip-path="url(#clipPath40)" fill="none" x1="503" x2="513" y1="120" y2="115" stroke-width="1.0827"/>
<line clip-path="url(#clipPath40)" fill="none" x1="513" x2="503" y1="115" y2="110" stroke-width="1.0827"/>
</g>
</g>
</svg>