<?xml version="1.0" encoding="UTF-8" standalone="no"?>
<svg
   xmlns:dc="http://purl.org/dc/elements/1.1/"
   xmlns:cc="http://creativecommons.org/ns#"
   xmlns:rdf="http://www.w3.org/1999/02/22-rdf-syntax-ns#"
   xmlns:svg="http://www.w3.org/2000/svg"
   xmlns="http://www.w3.org/2000/svg"
   xmlns:xlink="http://www.w3.org/1999/xlink"
   xmlns:sodipodi="http://sodipodi.sourceforge.net/DTD/sodipodi-0.dtd"
   xmlns:inkscape="http://www.inkscape.org/namespaces/inkscape"
   shape-rendering="auto"
   width="642.53125"
   text-rendering="auto"
   contentScriptType="text/ecmascript"
   color-interpolation="auto"
   color-rendering="auto"
   preserveAspectRatio="xMidYMid meet"
   font-size="12"
   viewBox="0 0 642.53125 299.68701"
   image-rendering="auto"
   stroke-miterlimit="10"
   zoomAndPan="magnify"
   version="1.0"
   contentStyleType="text/css"
   font-style="normal"
   height="299.68701"
   font-weight="normal"
   id="svg2"
   inkscape:version="0.48.1 r9760"
   sodipodi:docname="kieker_readerimplsuserguide-modified.svg"
   style="font-size:12px;font-style:normal;font-weight:normal;fill:#000000;fill-opacity:1;stroke:#000000;stroke-width:1;stroke-linecap:square;stroke-linejoin:miter;stroke-miterlimit:10;stroke-opacity:1;stroke-dasharray:none;stroke-dashoffset:0;font-family:Dialog">
  <line
     clip-path="url(#clipPath41)"
     x1="444"
     x2="444"
     y1="184"
     y2="134"
     id="line420"
     style="font-size:11px;fill:none;stroke-width:1.08270001;stroke-linecap:butt;stroke-dasharray:3, 3"
     transform="translate(-8.46875,-46.46875)" />
  <metadata
     id="metadata492">
    <rdf:RDF>
      <cc:Work
         rdf:about="">
        <dc:format>image/svg+xml</dc:format>
        <dc:type
           rdf:resource="http://purl.org/dc/dcmitype/StillImage" />
      </cc:Work>
    </rdf:RDF>
  </metadata>
  <sodipodi:namedview
     pagecolor="#ffffff"
     bordercolor="#666666"
     borderopacity="1"
     objecttolerance="10"
     gridtolerance="10"
     guidetolerance="10"
     inkscape:pageopacity="0"
     inkscape:pageshadow="2"
     inkscape:window-width="1366"
     inkscape:window-height="713"
     id="namedview490"
     showgrid="false"
     inkscape:zoom="1.4216867"
     inkscape:cx="355.80807"
     inkscape:cy="169.43948"
     inkscape:window-x="-4"
     inkscape:window-y="32"
     inkscape:window-maximized="1"
     inkscape:current-layer="svg2"
     fit-margin-top="0"
     fit-margin-left="0"
     fit-margin-right="0"
     fit-margin-bottom="0" />
  <!--Generated by the Batik Graphics2D SVG Generator-->
  <rect
     x="261"
     y="184"
     clip-path="url(#clipPath1)"
     width="360"
     height="60"
     id="rect256"
     style="font-size:11px;fill:#ffffff;fill-opacity:1;stroke-width:1.08270001;stroke-linecap:butt"
     transform="translate(-8.46875,-72.46875)" />
  <defs
     id="genericDefs">
    <defs
       id="defs1">
      <linearGradient
         spreadMethod="pad"
         xlink:show="other"
         id="linearGradient1"
         xlink:actuate="onLoad"
         xlink:type="simple"
         y2="245"
         gradientUnits="userSpaceOnUse"
         y1="231"
         x2="262"
         x1="262">
        <stop
           id="stop9"
           offset="0%"
           stop-color="white"
           stop-opacity="1" />
        <stop
           id="stop11"
           offset="100%"
           stop-color="rgb(236,236,236)"
           stop-opacity="1" />
      </linearGradient>
      <linearGradient
         spreadMethod="pad"
         xlink:show="other"
         id="linearGradient2"
         xlink:actuate="onLoad"
         xlink:type="simple"
         y2="218"
         gradientUnits="userSpaceOnUse"
         y1="185"
         x2="262"
         x1="262">
        <stop
           id="stop14"
           offset="0%"
           stop-color="rgb(226,241,254)"
           stop-opacity="1" />
        <stop
           id="stop16"
           offset="100%"
           stop-color="rgb(188,213,234)"
           stop-opacity="1" />
      </linearGradient>
      <linearGradient
         spreadMethod="pad"
         xlink:show="other"
         id="linearGradient3"
         xlink:actuate="onLoad"
         xlink:type="simple"
         y2="134"
         gradientUnits="userSpaceOnUse"
         y1="120"
         x2="256"
         x1="256">
        <stop
           id="stop19"
           offset="0%"
           stop-color="white"
           stop-opacity="1" />
        <stop
           id="stop21"
           offset="100%"
           stop-color="rgb(236,236,236)"
           stop-opacity="1" />
      </linearGradient>
      <linearGradient
         spreadMethod="pad"
         xlink:show="other"
         id="linearGradient4"
         xlink:actuate="onLoad"
         xlink:type="simple"
         y2="94"
         gradientUnits="userSpaceOnUse"
         y1="48"
         x2="256"
         x1="256">
        <stop
           id="stop24"
           offset="0%"
           stop-color="rgb(226,241,254)"
           stop-opacity="1" />
        <stop
           id="stop26"
           offset="100%"
           stop-color="rgb(188,213,234)"
           stop-opacity="1" />
      </linearGradient>
      <linearGradient
         spreadMethod="pad"
         xlink:show="other"
         id="linearGradient5"
         xlink:actuate="onLoad"
         xlink:type="simple"
         y2="304"
         gradientUnits="userSpaceOnUse"
         y1="284"
         x2="202"
         x1="202">
        <stop
           id="stop29"
           offset="0%"
           stop-color="rgb(226,241,254)"
           stop-opacity="1" />
        <stop
           id="stop31"
           offset="100%"
           stop-color="rgb(188,213,234)"
           stop-opacity="1" />
      </linearGradient>
      <linearGradient
         spreadMethod="pad"
         xlink:show="other"
         id="linearGradient6"
         xlink:actuate="onLoad"
         xlink:type="simple"
         y2="304"
         gradientUnits="userSpaceOnUse"
         y1="284"
         x2="298"
         x1="298">
        <stop
           id="stop34"
           offset="0%"
           stop-color="rgb(226,241,254)"
           stop-opacity="1" />
        <stop
           id="stop36"
           offset="100%"
           stop-color="rgb(188,213,234)"
           stop-opacity="1" />
      </linearGradient>
      <linearGradient
         spreadMethod="pad"
         xlink:show="other"
         id="linearGradient7"
         xlink:actuate="onLoad"
         xlink:type="simple"
         y2="304"
         gradientUnits="userSpaceOnUse"
         y1="284"
         x2="562"
         x1="562">
        <stop
           id="stop39"
           offset="0%"
           stop-color="rgb(226,241,254)"
           stop-opacity="1" />
        <stop
           id="stop41"
           offset="100%"
           stop-color="rgb(188,213,234)"
           stop-opacity="1" />
      </linearGradient>
      <linearGradient
         spreadMethod="pad"
         xlink:show="other"
         id="linearGradient8"
         xlink:actuate="onLoad"
         xlink:type="simple"
         y2="189"
         gradientUnits="userSpaceOnUse"
         y1="143"
         x2="10"
         x1="10">
        <stop
           id="stop44"
           offset="0%"
           stop-color="rgb(226,241,254)"
           stop-opacity="1" />
        <stop
           id="stop46"
           offset="100%"
           stop-color="rgb(188,213,234)"
           stop-opacity="1" />
      </linearGradient>
      <linearGradient
         spreadMethod="pad"
         xlink:show="other"
         id="linearGradient9"
         xlink:actuate="onLoad"
         xlink:type="simple"
         y2="306"
         gradientUnits="userSpaceOnUse"
         y1="283"
         x2="454"
         x1="454">
        <stop
           id="stop49"
           offset="0%"
           stop-color="rgb(226,241,254)"
           stop-opacity="1" />
        <stop
           id="stop51"
           offset="100%"
           stop-color="rgb(188,213,234)"
           stop-opacity="1" />
      </linearGradient>
      <clipPath
         id="clipPath1"
         clipPathUnits="userSpaceOnUse">
        <path
           id="path54"
           d="m 260,183 367,0 0,68 -367,0 0,-68 z"
           inkscape:connector-curvature="0" />
      </clipPath>
      <clipPath
         id="clipPath2"
         clipPathUnits="userSpaceOnUse">
        <path
           id="path57"
           d="m 346,187 192,0 0,16 -192,0 0,-16 z"
           inkscape:connector-curvature="0" />
      </clipPath>
      <clipPath
         id="clipPath3"
         clipPathUnits="userSpaceOnUse">
        <path
           id="path60"
           d="m 354,200 177,0 0,16 -177,0 0,-16 z"
           inkscape:connector-curvature="0" />
      </clipPath>
      <clipPath
         id="clipPath4"
         clipPathUnits="userSpaceOnUse">
        <path
           id="path63"
           d="m 267,217 351,0 0,16 -351,0 0,-16 z"
           inkscape:connector-curvature="0" />
      </clipPath>
      <clipPath
         id="clipPath5"
         clipPathUnits="userSpaceOnUse">
        <path
           id="path66"
           d="m 267,230 263,0 0,16 -263,0 0,-16 z"
           inkscape:connector-curvature="0" />
      </clipPath>
      <clipPath
         id="clipPath6"
         clipPathUnits="userSpaceOnUse">
        <path
           id="path69"
           d="m 261,216 362,0 0,30 -362,0 0,-30 z"
           inkscape:connector-curvature="0" />
      </clipPath>
      <clipPath
         id="clipPath7"
         clipPathUnits="userSpaceOnUse">
        <path
           id="path72"
           d="m 260,243 367,0 0,7 -367,0 0,-7 z"
           inkscape:connector-curvature="0" />
      </clipPath>
      <clipPath
         id="clipPath8"
         clipPathUnits="userSpaceOnUse">
        <path
           id="path75"
           d="m 621,183 7,0 0,64 -7,0 0,-64 z"
           inkscape:connector-curvature="0" />
      </clipPath>
      <clipPath
         id="clipPath9"
         clipPathUnits="userSpaceOnUse">
        <path
           id="path78"
           d="m 254,46 383,0 0,94 -383,0 0,-94 z"
           inkscape:connector-curvature="0" />
      </clipPath>
      <clipPath
         id="clipPath10"
         clipPathUnits="userSpaceOnUse">
        <path
           id="path81"
           d="m 411,50 67,0 0,16 -67,0 0,-16 z"
           inkscape:connector-curvature="0" />
      </clipPath>
      <clipPath
         id="clipPath11"
         clipPathUnits="userSpaceOnUse">
        <path
           id="path84"
           d="m 384,63 121,0 0,16 -121,0 0,-16 z"
           inkscape:connector-curvature="0" />
      </clipPath>
      <clipPath
         id="clipPath12"
         clipPathUnits="userSpaceOnUse">
        <path
           id="path87"
           d="m 356,76 177,0 0,16 -177,0 0,-16 z"
           inkscape:connector-curvature="0" />
      </clipPath>
      <clipPath
         id="clipPath13"
         clipPathUnits="userSpaceOnUse">
        <path
           id="path90"
           d="m 261,93 150,0 0,16 -150,0 0,-16 z"
           inkscape:connector-curvature="0" />
      </clipPath>
      <clipPath
         id="clipPath14"
         clipPathUnits="userSpaceOnUse">
        <path
           id="path93"
           d="m 261,106 351,0 0,16 -351,0 0,-16 z"
           inkscape:connector-curvature="0" />
      </clipPath>
      <clipPath
         id="clipPath15"
         clipPathUnits="userSpaceOnUse">
        <path
           id="path96"
           d="m 261,119 115,0 0,16 -115,0 0,-16 z"
           inkscape:connector-curvature="0" />
      </clipPath>
      <clipPath
         id="clipPath16"
         clipPathUnits="userSpaceOnUse">
        <path
           id="path99"
           d="m 255,92 378,0 0,43 -378,0 0,-43 z"
           inkscape:connector-curvature="0" />
      </clipPath>
      <clipPath
         id="clipPath17"
         clipPathUnits="userSpaceOnUse">
        <path
           id="path102"
           d="m 254,132 383,0 0,7 -383,0 0,-7 z"
           inkscape:connector-curvature="0" />
      </clipPath>
      <clipPath
         id="clipPath18"
         clipPathUnits="userSpaceOnUse">
        <path
           id="path105"
           d="m 631,46 7,0 0,90 -7,0 0,-90 z"
           inkscape:connector-curvature="0" />
      </clipPath>
      <clipPath
         id="clipPath19"
         clipPathUnits="userSpaceOnUse">
        <path
           id="path108"
           d="m 200,282 89,0 0,28 -89,0 0,-28 z"
           inkscape:connector-curvature="0" />
      </clipPath>
      <clipPath
         id="clipPath20"
         clipPathUnits="userSpaceOnUse">
        <path
           id="path111"
           d="m 211,286 64,0 0,16 -64,0 0,-16 z"
           inkscape:connector-curvature="0" />
      </clipPath>
      <clipPath
         id="clipPath21"
         clipPathUnits="userSpaceOnUse">
        <path
           id="path114"
           d="m 200,302 89,0 0,7 -89,0 0,-7 z"
           inkscape:connector-curvature="0" />
      </clipPath>
      <clipPath
         id="clipPath22"
         clipPathUnits="userSpaceOnUse">
        <path
           id="path117"
           d="m 283,282 7,0 0,24 -7,0 0,-24 z"
           inkscape:connector-curvature="0" />
      </clipPath>
      <clipPath
         id="clipPath23"
         clipPathUnits="userSpaceOnUse">
        <path
           id="path120"
           d="m 296,282 145,0 0,28 -145,0 0,-28 z"
           inkscape:connector-curvature="0" />
      </clipPath>
      <clipPath
         id="clipPath24"
         clipPathUnits="userSpaceOnUse">
        <path
           id="path123"
           d="m 307,286 120,0 0,16 -120,0 0,-16 z"
           inkscape:connector-curvature="0" />
      </clipPath>
      <clipPath
         id="clipPath25"
         clipPathUnits="userSpaceOnUse">
        <path
           id="path126"
           d="m 296,302 145,0 0,7 -145,0 0,-7 z"
           inkscape:connector-curvature="0" />
      </clipPath>
      <clipPath
         id="clipPath26"
         clipPathUnits="userSpaceOnUse">
        <path
           id="path129"
           d="m 435,282 7,0 0,24 -7,0 0,-24 z"
           inkscape:connector-curvature="0" />
      </clipPath>
      <clipPath
         id="clipPath27"
         clipPathUnits="userSpaceOnUse">
        <path
           id="path132"
           d="m 560,282 96,0 0,28 -96,0 0,-28 z"
           inkscape:connector-curvature="0" />
      </clipPath>
      <clipPath
         id="clipPath28"
         clipPathUnits="userSpaceOnUse">
        <path
           id="path135"
           d="m 571,286 71,0 0,16 -71,0 0,-16 z"
           inkscape:connector-curvature="0" />
      </clipPath>
      <clipPath
         id="clipPath29"
         clipPathUnits="userSpaceOnUse">
        <path
           id="path138"
           d="m 560,302 95,0 0,7 -95,0 0,-7 z"
           inkscape:connector-curvature="0" />
      </clipPath>
      <clipPath
         id="clipPath30"
         clipPathUnits="userSpaceOnUse">
        <path
           id="path141"
           d="m 650,282 6,0 0,24 -6,0 0,-24 z"
           inkscape:connector-curvature="0" />
      </clipPath>
      <clipPath
         id="clipPath31"
         clipPathUnits="userSpaceOnUse">
        <path
           id="path144"
           d="m 8,141 203,0 0,54 -203,0 0,-54 z"
           inkscape:connector-curvature="0" />
      </clipPath>
      <clipPath
         id="clipPath32"
         clipPathUnits="userSpaceOnUse">
        <path
           id="path147"
           d="m 75,145 67,0 0,16 -67,0 0,-16 z"
           inkscape:connector-curvature="0" />
      </clipPath>
      <clipPath
         id="clipPath33"
         clipPathUnits="userSpaceOnUse">
        <path
           id="path150"
           d="m 21,158 175,0 0,16 -175,0 0,-16 z"
           inkscape:connector-curvature="0" />
      </clipPath>
      <clipPath
         id="clipPath34"
         clipPathUnits="userSpaceOnUse">
        <path
           id="path153"
           d="m 19,171 178,0 0,16 -178,0 0,-16 z"
           inkscape:connector-curvature="0" />
      </clipPath>
      <clipPath
         id="clipPath35"
         clipPathUnits="userSpaceOnUse">
        <path
           id="path156"
           d="m 8,187 203,0 0,6 -203,0 0,-6 z"
           inkscape:connector-curvature="0" />
      </clipPath>
      <clipPath
         id="clipPath36"
         clipPathUnits="userSpaceOnUse">
        <path
           id="path159"
           d="m 205,141 7,0 0,50 -7,0 0,-50 z"
           inkscape:connector-curvature="0" />
      </clipPath>
      <clipPath
         id="clipPath37"
         clipPathUnits="userSpaceOnUse">
        <path
           id="path162"
           d="m 452,281 101,0 0,31 -101,0 0,-31 z"
           inkscape:connector-curvature="0" />
      </clipPath>
      <clipPath
         id="clipPath38"
         clipPathUnits="userSpaceOnUse">
        <path
           id="path165"
           d="m 463,285 76,0 0,16 -76,0 0,-16 z"
           inkscape:connector-curvature="0" />
      </clipPath>
      <clipPath
         id="clipPath39"
         clipPathUnits="userSpaceOnUse">
        <path
           id="path168"
           d="m 452,304 101,0 0,7 -101,0 0,-7 z"
           inkscape:connector-curvature="0" />
      </clipPath>
      <clipPath
         id="clipPath40"
         clipPathUnits="userSpaceOnUse">
        <path
           id="path171"
           d="m 547,281 7,0 0,27 -7,0 0,-27 z"
           inkscape:connector-curvature="0" />
      </clipPath>
      <clipPath
         id="clipPath41"
         clipPathUnits="userSpaceOnUse">
        <path
           id="path174"
           d="m -1,-1 666,0 0,374 -666,0 0,-374 z"
           inkscape:connector-curvature="0" />
      </clipPath>
      <clipPath
         id="clipPath42"
         clipPathUnits="userSpaceOnUse">
        <path
           id="path177"
           d="m 437,133 14,0 0,14 -14,0 0,-14 z"
           inkscape:connector-curvature="0" />
      </clipPath>
      <clipPath
         id="clipPath43"
         clipPathUnits="userSpaceOnUse">
        <path
           id="path180"
           d="m 257,244 14,0 0,14 -14,0 0,-14 z"
           inkscape:connector-curvature="0" />
      </clipPath>
      <clipPath
         id="clipPath44"
         clipPathUnits="userSpaceOnUse">
        <path
           id="path183"
           d="m 377,244 14,0 0,14 -14,0 0,-14 z"
           inkscape:connector-curvature="0" />
      </clipPath>
      <clipPath
         id="clipPath45"
         clipPathUnits="userSpaceOnUse">
        <path
           id="path186"
           d="m 338,307 10,0 0,16 -10,0 0,-16 z"
           inkscape:connector-curvature="0" />
      </clipPath>
      <clipPath
         id="clipPath46"
         clipPathUnits="userSpaceOnUse">
        <path
           id="path189"
           d="m 218,307 10,0 0,16 -10,0 0,-16 z"
           inkscape:connector-curvature="0" />
      </clipPath>
      <clipPath
         id="clipPath47"
         clipPathUnits="userSpaceOnUse">
        <path
           id="path192"
           d="m 194,334 63,0 0,16 -63,0 0,-16 z"
           inkscape:connector-curvature="0" />
      </clipPath>
      <clipPath
         id="clipPath48"
         clipPathUnits="userSpaceOnUse">
        <path
           id="path195"
           d="m 323,303 14,0 0,24 -14,0 0,-24 z"
           inkscape:connector-curvature="0" />
      </clipPath>
      <clipPath
         id="clipPath49"
         clipPathUnits="userSpaceOnUse">
        <path
           id="path198"
           d="m 232,303 14,0 0,14 -14,0 0,-14 z"
           inkscape:connector-curvature="0" />
      </clipPath>
      <clipPath
         id="clipPath50"
         clipPathUnits="userSpaceOnUse">
        <path
           id="path201"
           d="m 587,244 14,0 0,14 -14,0 0,-14 z"
           inkscape:connector-curvature="0" />
      </clipPath>
      <clipPath
         id="clipPath51"
         clipPathUnits="userSpaceOnUse">
        <path
           id="path204"
           d="m 243,54 10,0 0,16 -10,0 0,-16 z"
           inkscape:connector-curvature="0" />
      </clipPath>
      <clipPath
         id="clipPath52"
         clipPathUnits="userSpaceOnUse">
        <path
           id="path207"
           d="m 190,117 8,0 0,16 -8,0 0,-16 z"
           inkscape:connector-curvature="0" />
      </clipPath>
      <clipPath
         id="clipPath53"
         clipPathUnits="userSpaceOnUse">
        <path
           id="path210"
           d="m 115,117 64,0 0,16 -64,0 0,-16 z"
           inkscape:connector-curvature="0" />
      </clipPath>
      <clipPath
         id="clipPath54"
         clipPathUnits="userSpaceOnUse">
        <path
           id="path213"
           d="m 179,130 14,0 0,14 -14,0 0,-14 z"
           inkscape:connector-curvature="0" />
      </clipPath>
      <clipPath
         id="clipPath55"
         clipPathUnits="userSpaceOnUse">
        <path
           id="path216"
           d="m 494,244 14,0 0,14 -14,0 0,-14 z"
           inkscape:connector-curvature="0" />
      </clipPath>
    </defs>
    <linearGradient
       inkscape:collect="always"
       xlink:href="#linearGradient3"
       id="linearGradient3743"
       gradientUnits="userSpaceOnUse"
       spreadMethod="pad"
       x1="256"
       y1="120"
       x2="256"
       y2="134" />
    <linearGradient
       inkscape:collect="always"
       xlink:href="#linearGradient4"
       id="linearGradient3745"
       gradientUnits="userSpaceOnUse"
       spreadMethod="pad"
       x1="256"
       y1="48"
       x2="256"
       y2="94" />
    <linearGradient
       inkscape:collect="always"
       xlink:href="#linearGradient5"
       id="linearGradient3747"
       gradientUnits="userSpaceOnUse"
       spreadMethod="pad"
       x1="202"
       y1="284"
       x2="202"
       y2="304" />
    <linearGradient
       inkscape:collect="always"
       xlink:href="#linearGradient6"
       id="linearGradient3749"
       gradientUnits="userSpaceOnUse"
       spreadMethod="pad"
       x1="298"
       y1="284"
       x2="298"
       y2="304" />
    <linearGradient
       inkscape:collect="always"
       xlink:href="#linearGradient7"
       id="linearGradient3751"
       gradientUnits="userSpaceOnUse"
       spreadMethod="pad"
       x1="562"
       y1="284"
       x2="562"
       y2="304" />
    <linearGradient
       inkscape:collect="always"
       xlink:href="#linearGradient8"
       id="linearGradient3753"
       gradientUnits="userSpaceOnUse"
       spreadMethod="pad"
       x1="10"
       y1="143"
       x2="10"
       y2="189" />
    <linearGradient
       inkscape:collect="always"
       xlink:href="#linearGradient9"
       id="linearGradient3755"
       gradientUnits="userSpaceOnUse"
       spreadMethod="pad"
       x1="454"
       y1="283"
       x2="454"
       y2="306" />
    <linearGradient
       inkscape:collect="always"
       xlink:href="#linearGradient1"
       id="linearGradient3883"
       gradientUnits="userSpaceOnUse"
       spreadMethod="pad"
       x1="262"
       y1="231"
       x2="262"
       y2="245" />
    <linearGradient
       inkscape:collect="always"
       xlink:href="#linearGradient2"
       id="linearGradient3885"
       gradientUnits="userSpaceOnUse"
       spreadMethod="pad"
       x1="262"
       y1="185"
       x2="262"
       y2="218" />
    <clipPath
       id="clipPath15-0"
       clipPathUnits="userSpaceOnUse">
      <path
         inkscape:connector-curvature="0"
         id="path96-4"
         d="m 261,119 115,0 0,16 -115,0 0,-16 z" />
    </clipPath>
  </defs>
  <g
     style="font-size:11px;font-style:italic;font-weight:bold;stroke-width:0;stroke-linejoin:round;stroke-miterlimit:0"
     id="g226"
     stroke-miterlimit="0"
     font-weight="bold"
     font-style="italic"
     font-size="11"
     transform="translate(-8.46875,-72.46875)">
    <text
       style="stroke:none"
       id="text228"
       clip-path="url(#clipPath2)"
       y="199"
       x="347"
       xml:space="preserve">AbstractMonitoringLogReader</text>
    <text
       style="font-style:normal;font-weight:normal;stroke:none"
       id="text230"
       xml:space="preserve"
       font-weight="normal"
       font-style="normal"
       clip-path="url(#clipPath3)"
       y="212"
       x="355">(from kieker::analysis::reader)</text>
    <text
       style="font-style:normal;font-weight:normal;stroke:none"
       id="text232"
       xml:space="preserve"
       font-weight="normal"
       font-style="normal"
       clip-path="url(#clipPath4)"
       y="229"
       x="268">+ addRecordReceiver ( receiver : IMonitoringRecordReceiver )</text>
    <text
       style="font-style:normal;font-weight:normal;stroke:none"
       id="text234"
       xml:space="preserve"
       font-weight="normal"
       font-style="normal"
       clip-path="url(#clipPath5)"
       y="242"
       x="268"># deliverRecord ( record : IMonitoringRecord )</text>
  </g>
  <line
     clip-path="url(#clipPath6)"
     x1="262"
     x2="621"
     y1="217"
     y2="217"
     id="line238"
     style="font-size:11px;fill:none;stroke-width:1.08270001;stroke-linecap:butt"
     transform="translate(-8.46875,-72.46875)" />
  <rect
     x="256"
     y="48"
     clip-path="url(#clipPath9)"
     width="376"
     height="86"
     id="rect258"
     style="font-size:11px;fill:#ffffff;stroke:none"
     transform="translate(-8.46875,-46.46875)" />
  <text
     xml:space="preserve"
     x="412"
     y="62"
     clip-path="url(#clipPath10)"
     id="text264"
     style="font-size:11px;stroke:none"
     transform="translate(-8.46875,-46.46875)">«interface»</text>
  <text
     x="385"
     y="75"
     clip-path="url(#clipPath11)"
     font-weight="bold"
     xml:space="preserve"
     id="text266"
     style="font-size:11px;font-weight:bold;stroke:none"
     transform="translate(-8.46875,-46.46875)">IMonitoringReader</text>
  <text
     xml:space="preserve"
     x="357"
     y="88"
     clip-path="url(#clipPath12)"
     id="text268"
     style="font-size:11px;stroke:none"
     transform="translate(-8.46875,-46.46875)">(from kieker::analysis::reader)</text>
  <text
     xml:space="preserve"
     x="262"
     y="105"
     clip-path="url(#clipPath13)"
     id="text270"
     style="font-size:11px;stroke:none"
     transform="translate(-8.46875,-46.46875)">+ init ( initString : String )</text>
  <text
     xml:space="preserve"
     x="262"
     y="118"
     clip-path="url(#clipPath14)"
     id="text272"
     style="font-size:11px;stroke:none"
     transform="translate(-8.46875,-46.46875)">+ addRecordReceiver ( receiver : IMonitoringRecordReceiver )</text>
  <line
     clip-path="url(#clipPath16)"
     x1="256"
     x2="631"
     y1="93"
     y2="93"
     id="line276"
     style="font-size:11px;fill:none;stroke-width:1.08270001;stroke-linecap:butt"
     transform="translate(-8.46875,-46.46875)" />
  <rect
     x="255"
     y="47"
     clip-path="url(#clipPath9)"
     width="376"
     height="86"
     id="rect294"
     style="font-size:11px;fill:none;stroke-width:1.08270001;stroke-linecap:butt"
     transform="translate(-8.46875,-46.46875)" />
  <rect
     x="202"
     y="284"
     clip-path="url(#clipPath19)"
     width="82"
     height="20"
     id="rect296"
     style="font-size:11px;fill:#ffffff;stroke:none"
     transform="translate(-8.46875,-72.46875)" />
  <text
     x="212"
     y="298"
     clip-path="url(#clipPath20)"
     font-weight="bold"
     xml:space="preserve"
     id="text300"
     style="font-size:11px;font-weight:bold;stroke:none"
     transform="translate(-8.46875,-72.46875)">FSReader</text>
  <rect
     x="201"
     y="283"
     clip-path="url(#clipPath19)"
     width="82"
     height="20"
     id="rect318"
     style="font-size:11px;fill:none;stroke-width:1.08270001;stroke-linecap:butt"
     transform="translate(-8.46875,-72.46875)" />
  <rect
     x="298"
     y="284"
     clip-path="url(#clipPath23)"
     width="138"
     height="20"
     id="rect320"
     style="font-size:11px;fill:#ffffff;stroke:none"
     transform="translate(-8.46875,-72.46875)" />
  <text
     x="308"
     y="298"
     clip-path="url(#clipPath24)"
     font-weight="bold"
     xml:space="preserve"
     id="text324"
     style="font-size:11px;font-weight:bold;stroke:none"
     transform="translate(-8.46875,-72.46875)">FSReaderRealtime</text>
  <rect
     x="297"
     y="283"
     clip-path="url(#clipPath23)"
     width="138"
     height="20"
     id="rect342"
     style="font-size:11px;fill:none;stroke-width:1.08270001;stroke-linecap:butt"
     transform="translate(-8.46875,-72.46875)" />
  <rect
     x="562"
     y="284"
     clip-path="url(#clipPath27)"
     width="89"
     height="20"
     id="rect344"
     style="font-size:11px;fill:#ffffff;stroke:none"
     transform="translate(-8.46875,-72.46875)" />
  <text
     x="572"
     y="298"
     clip-path="url(#clipPath28)"
     font-weight="bold"
     xml:space="preserve"
     id="text348"
     style="font-size:11px;font-weight:bold;stroke:none"
     transform="translate(-8.46875,-72.46875)">JMSReader</text>
  <rect
     x="561"
     y="283"
     clip-path="url(#clipPath27)"
     width="89"
     height="20"
     id="rect366"
     style="font-size:11px;fill:none;stroke-width:1.08270001;stroke-linecap:butt"
     transform="translate(-8.46875,-72.46875)" />
  <rect
     x="10"
     y="143"
     clip-path="url(#clipPath31)"
     width="196"
     height="46"
     id="rect368"
     style="font-size:11px;fill:#ffffff;stroke:none"
     transform="translate(-8.46875,-46.46875)" />
  <text
     xml:space="preserve"
     x="76"
     y="157"
     clip-path="url(#clipPath32)"
     id="text372"
     style="font-size:11px;stroke:none"
     transform="translate(-8.46875,-46.46875)">«interface»</text>
  <text
     x="22"
     y="170"
     clip-path="url(#clipPath33)"
     font-weight="bold"
     xml:space="preserve"
     id="text374"
     style="font-size:11px;font-weight:bold;stroke:none"
     transform="translate(-8.46875,-46.46875)">IMonitoringRecordReceiver</text>
  <text
     xml:space="preserve"
     x="20"
     y="183"
     clip-path="url(#clipPath34)"
     id="text376"
     style="font-size:11px;stroke:none"
     transform="translate(-8.46875,-46.46875)">(from kieker::common::record)</text>
  <rect
     x="9"
     y="142"
     clip-path="url(#clipPath31)"
     width="196"
     height="46"
     id="rect394"
     style="font-size:11px;fill:none;stroke-width:1.08270001;stroke-linecap:butt"
     transform="translate(-8.46875,-46.46875)" />
  <rect
     x="454"
     y="283"
     clip-path="url(#clipPath37)"
     width="94"
     height="23"
     id="rect396"
     style="font-size:11px;fill:#ffffff;stroke:none"
     transform="translate(-8.46875,-72.46875)" />
  <text
     x="464"
     y="297"
     clip-path="url(#clipPath38)"
     font-weight="bold"
     xml:space="preserve"
     id="text400"
     style="font-size:11px;font-weight:bold;stroke:none"
     transform="translate(-8.46875,-72.46875)">PipeReader</text>
  <rect
     x="453"
     y="282"
     clip-path="url(#clipPath37)"
     width="94"
     height="23"
     id="rect418"
     style="font-size:11px;fill:none;stroke-width:1.08270001;stroke-linecap:butt"
     transform="translate(-8.46875,-72.46875)" />
  <polygon
     clip-path="url(#clipPath42)"
     points="449,144 439,144 444,134 "
     id="polygon422"
     style="font-size:11px;fill:#ffffff;stroke:none"
     transform="translate(-8.46875,-46.46875)" />
  <polygon
     clip-path="url(#clipPath42)"
     points="449,144 439,144 444,134 "
     id="polygon424"
     style="font-size:11px;fill:none;stroke-width:1.08270001;stroke-linecap:butt"
     transform="translate(-8.46875,-46.46875)" />
  <line
     clip-path="url(#clipPath41)"
     x1="263"
     x2="263"
     y1="283"
     y2="245"
     id="line426"
     style="font-size:11px;fill:none;stroke-width:1.08270001;stroke-linecap:butt"
     transform="translate(-8.46875,-72.46875)" />
  <polygon
     clip-path="url(#clipPath43)"
     points="258,255 263,245 268,255 "
     id="polygon428"
     style="font-size:11px;fill:#ffffff;stroke:none"
     transform="translate(-8.46875,-72.46875)" />
  <polygon
     clip-path="url(#clipPath43)"
     points="258,255 263,245 268,255 "
     id="polygon430"
     style="font-size:11px;fill:none;stroke-width:1.08270001;stroke-linecap:butt"
     transform="translate(-8.46875,-72.46875)" />
  <line
     clip-path="url(#clipPath41)"
     x1="383"
     x2="383"
     y1="283"
     y2="245"
     id="line432"
     style="font-size:11px;fill:none;stroke-width:1.08270001;stroke-linecap:butt"
     transform="translate(-8.46875,-72.46875)" />
  <polygon
     clip-path="url(#clipPath44)"
     points="378,255 383,245 388,255 "
     id="polygon434"
     style="font-size:11px;fill:#ffffff;stroke:none"
     transform="translate(-8.46875,-72.46875)" />
  <polygon
     clip-path="url(#clipPath44)"
     points="378,255 383,245 388,255 "
     id="polygon436"
     style="font-size:11px;fill:none;stroke-width:1.08270001;stroke-linecap:butt"
     transform="translate(-8.46875,-72.46875)" />
  <line
     clip-path="url(#clipPath41)"
     x1="329"
     x2="329"
     y1="304"
     y2="326"
     id="line438"
     style="font-size:11px;fill:none;stroke-width:1.08270001;stroke-linecap:butt"
     transform="translate(-8.46875,-72.46875)" />
  <path
     d="m 324.5,330 a 3.5,4 0 0 0 3.5,-4"
     clip-path="url(#clipPath41)"
     id="path440"
     inkscape:connector-curvature="0"
     style="font-size:11px;fill:none;stroke-width:1.08270001;stroke-linecap:butt"
     transform="translate(-8.46875,-72.46875)" />
  <line
     clip-path="url(#clipPath41)"
     x1="325"
     x2="242"
     y1="330"
     y2="330"
     id="line442"
     style="font-size:11px;fill:none;stroke-width:1.08270001;stroke-linecap:butt"
     transform="translate(-8.46875,-72.46875)" />
  <path
     d="m 238,326 a 3.5,4 0 0 0 3.5,4"
     clip-path="url(#clipPath41)"
     id="path444"
     inkscape:connector-curvature="0"
     style="font-size:11px;fill:none;stroke-width:1.08270001;stroke-linecap:butt"
     transform="translate(-8.46875,-72.46875)" />
  <line
     clip-path="url(#clipPath41)"
     x1="238"
     x2="238"
     y1="326"
     y2="304"
     id="line446"
     style="font-size:11px;fill:none;stroke-width:1.08270001;stroke-linecap:butt"
     transform="translate(-8.46875,-72.46875)" />
  <text
     xml:space="preserve"
     x="339"
     y="319"
     clip-path="url(#clipPath45)"
     id="text448"
     style="font-size:11px;stroke:none"
     transform="translate(-8.46875,-72.46875)">1</text>
  <text
     xml:space="preserve"
     x="219"
     y="319"
     clip-path="url(#clipPath46)"
     id="text450"
     style="font-size:11px;stroke:none"
     transform="translate(-8.46875,-72.46875)">1</text>
  <text
     xml:space="preserve"
     x="195"
     y="346"
     clip-path="url(#clipPath47)"
     id="text452"
     style="font-size:11px;stroke:none"
     transform="translate(-8.46875,-72.46875)">- fSReader</text>
  <polygon
     clip-path="url(#clipPath48)"
     points="329,304 334,314 329,324 324,314 "
     id="polygon454"
     style="font-size:11px;stroke:none"
     transform="translate(-8.46875,-72.46875)" />
  <polygon
     clip-path="url(#clipPath48)"
     points="329,304 334,314 329,324 324,314 "
     id="polygon456"
     style="font-size:11px;fill:none;stroke-width:1.08270001;stroke-linecap:butt"
     transform="translate(-8.46875,-72.46875)" />
  <line
     clip-path="url(#clipPath49)"
     x1="243"
     x2="238"
     y1="314"
     y2="304"
     id="line458"
     style="font-size:11px;fill:none;stroke-width:1.08270001;stroke-linecap:butt"
     transform="translate(-8.46875,-72.46875)" />
  <line
     clip-path="url(#clipPath49)"
     x1="238"
     x2="233"
     y1="304"
     y2="314"
     id="line460"
     style="font-size:11px;fill:none;stroke-width:1.08270001;stroke-linecap:butt"
     transform="translate(-8.46875,-72.46875)" />
  <line
     clip-path="url(#clipPath41)"
     x1="594"
     x2="594"
     y1="283"
     y2="245"
     id="line462"
     style="font-size:11px;fill:none;stroke-width:1.08270001;stroke-linecap:butt"
     transform="translate(-8.46875,-72.46875)" />
  <polygon
     clip-path="url(#clipPath50)"
     points="589,255 594,245 599,255 "
     id="polygon464"
     style="font-size:11px;fill:#ffffff;stroke:none"
     transform="translate(-8.46875,-72.46875)" />
  <polygon
     clip-path="url(#clipPath50)"
     points="589,255 594,245 599,255 "
     id="polygon466"
     style="font-size:11px;fill:none;stroke-width:1.08270001;stroke-linecap:butt"
     transform="translate(-8.46875,-72.46875)" />
  <line
     clip-path="url(#clipPath41)"
     x1="255"
     x2="190"
     y1="68"
     y2="68"
     id="line468"
     style="font-size:11px;fill:none;stroke-width:1.08270001;stroke-linecap:butt"
     transform="translate(-8.46875,-46.46875)" />
  <path
     d="M 189.5,68 A 3.5,4 0 0 0 186,72"
     clip-path="url(#clipPath41)"
     id="path470"
     inkscape:connector-curvature="0"
     style="font-size:11px;fill:none;stroke-width:1.08270001;stroke-linecap:butt"
     transform="translate(-8.46875,-46.46875)" />
  <line
     clip-path="url(#clipPath41)"
     x1="186"
     x2="186"
     y1="72"
     y2="142"
     id="line472"
     style="font-size:11px;fill:none;stroke-width:1.08270001;stroke-linecap:butt"
     transform="translate(-8.46875,-46.46875)" />
  <text
     xml:space="preserve"
     x="244"
     y="66"
     clip-path="url(#clipPath51)"
     id="text474"
     style="font-size:11px;stroke:none"
     transform="translate(-8.46875,-46.46875)">1</text>
  <text
     xml:space="preserve"
     x="191"
     y="129"
     clip-path="url(#clipPath52)"
     id="text476"
     style="font-size:11px;stroke:none"
     transform="translate(-8.46875,-46.46875)">*</text>
  <text
     xml:space="preserve"
     x="116"
     y="129"
     clip-path="url(#clipPath53)"
     id="text478"
     style="font-size:11px;stroke:none"
     transform="translate(-8.46875,-46.46875)">- receivers</text>
  <line
     clip-path="url(#clipPath54)"
     x1="181"
     x2="186"
     y1="132"
     y2="142"
     id="line480"
     style="font-size:11px;fill:none;stroke-width:1.08270001;stroke-linecap:butt"
     transform="translate(-8.46875,-46.46875)" />
  <line
     clip-path="url(#clipPath54)"
     x1="186"
     x2="191"
     y1="142"
     y2="132"
     id="line482"
     style="font-size:11px;fill:none;stroke-width:1.08270001;stroke-linecap:butt"
     transform="translate(-8.46875,-46.46875)" />
  <line
     clip-path="url(#clipPath41)"
     x1="500"
     x2="500"
     y1="282"
     y2="245"
     id="line484"
     style="font-size:11px;fill:none;stroke-width:1.08270001;stroke-linecap:butt"
     transform="translate(-8.46875,-72.46875)" />
  <polygon
     clip-path="url(#clipPath55)"
     points="495,255 500,245 505,255 "
     id="polygon486"
     style="font-size:11px;fill:#ffffff;stroke:none"
     transform="translate(-8.46875,-72.46875)" />
  <polygon
     clip-path="url(#clipPath55)"
     points="495,255 500,245 505,255 "
     id="polygon488"
     style="font-size:11px;fill:none;stroke-width:1.08270001;stroke-linecap:butt"
     transform="translate(-8.46875,-72.46875)" />
  <text
     transform="translate(-8.6330478,-46.613613)"
     xml:space="preserve"
     x="262"
     y="131"
     clip-path="url(#clipPath15-0)"
     id="text274"
     style="font-size:11px;stroke:none">+ read ( ) : boolean</text>
</svg>
