<?xml version="1.0" encoding="UTF-8"?><svg stroke-dasharray="none" shape-rendering="auto" xmlns="http://www.w3.org/2000/svg" font-family="'Dialog'" width="339" text-rendering="auto" fill-opacity="1" contentScriptType="text/ecmascript" color-interpolation="auto" color-rendering="auto" preserveAspectRatio="xMidYMid meet" font-size="12" viewBox="0 0 339 236" fill="black" xmlns:xlink="http://www.w3.org/1999/xlink" stroke="black" image-rendering="auto" stroke-miterlimit="10" zoomAndPan="magnify" version="1.0" stroke-linecap="square" stroke-linejoin="miter" contentStyleType="text/css" font-style="normal" height="236" stroke-width="1" stroke-dashoffset="0" font-weight="normal" stroke-opacity="1">
<!--Generated by the Batik Graphics2D SVG Generator-->
<defs id="genericDefs"/>
<g>
<defs id="defs1">
<clipPath clipPathUnits="userSpaceOnUse" id="clipPath1">
<path d="M78 80 L260 80 L260 154 L78 154 L78 80 Z"/>
</clipPath>
<clipPath clipPathUnits="userSpaceOnUse" id="clipPath2">
<path d="M140 84 L197 84 L197 100 L140 100 L140 84 Z"/>
</clipPath>
<clipPath clipPathUnits="userSpaceOnUse" id="clipPath3">
<path d="M118 97 L220 97 L220 113 L118 113 L118 97 Z"/>
</clipPath>
<clipPath clipPathUnits="userSpaceOnUse" id="clipPath4">
<path d="M102 110 L236 110 L236 124 L102 124 L102 110 Z"/>
</clipPath>
<clipPath clipPathUnits="userSpaceOnUse" id="clipPath5">
<path d="M84 124 L254 124 L254 140 L84 140 L84 124 Z"/>
</clipPath>
<clipPath clipPathUnits="userSpaceOnUse" id="clipPath6">
<path d="M84 137 L206 137 L206 153 L84 153 L84 137 Z"/>
</clipPath>
<clipPath clipPathUnits="userSpaceOnUse" id="clipPath7">
<path d="M79 124 L259 124 L259 153 L79 153 L79 124 Z"/>
</clipPath>
<clipPath clipPathUnits="userSpaceOnUse" id="clipPath8">
<path d="M16 172 L106 172 L106 196 L16 196 L16 172 Z"/>
</clipPath>
<clipPath clipPathUnits="userSpaceOnUse" id="clipPath9">
<path d="M27 176 L95 176 L95 192 L27 192 L27 176 Z"/>
</clipPath>
<clipPath clipPathUnits="userSpaceOnUse" id="clipPath10">
<path d="M40 204 L126 204 L126 228 L40 228 L40 204 Z"/>
</clipPath>
<clipPath clipPathUnits="userSpaceOnUse" id="clipPath11">
<path d="M51 208 L115 208 L115 224 L51 224 L51 208 Z"/>
</clipPath>
<clipPath clipPathUnits="userSpaceOnUse" id="clipPath12">
<path d="M232 172 L325 172 L325 196 L232 196 L232 172 Z"/>
</clipPath>
<clipPath clipPathUnits="userSpaceOnUse" id="clipPath13">
<path d="M243 176 L314 176 L314 192 L243 192 L243 176 Z"/>
</clipPath>
<clipPath clipPathUnits="userSpaceOnUse" id="clipPath14">
<path d="M188 204 L277 204 L277 228 L188 228 L188 204 Z"/>
</clipPath>
<clipPath clipPathUnits="userSpaceOnUse" id="clipPath15">
<path d="M199 208 L266 208 L266 224 L199 224 L199 208 Z"/>
</clipPath>
<clipPath clipPathUnits="userSpaceOnUse" id="clipPath16">
<path d="M119 172 L219 172 L219 196 L119 196 L119 172 Z"/>
</clipPath>
<clipPath clipPathUnits="userSpaceOnUse" id="clipPath17">
<path d="M129 176 L208 176 L208 192 L129 192 L129 176 Z"/>
</clipPath>
<clipPath clipPathUnits="userSpaceOnUse" id="clipPath18">
<path d="M8 8 L331 8 L331 69 L8 69 L8 8 Z"/>
</clipPath>
<clipPath clipPathUnits="userSpaceOnUse" id="clipPath19">
<path d="M141 12 L198 12 L198 28 L141 28 L141 12 Z"/>
</clipPath>
<clipPath clipPathUnits="userSpaceOnUse" id="clipPath20">
<path d="M103 25 L236 25 L236 41 L103 41 L103 25 Z"/>
</clipPath>
<clipPath clipPathUnits="userSpaceOnUse" id="clipPath21">
<path d="M104 38 L235 38 L235 52 L104 52 L104 38 Z"/>
</clipPath>
<clipPath clipPathUnits="userSpaceOnUse" id="clipPath22">
<path d="M15 52 L321 52 L321 68 L15 68 L15 52 Z"/>
</clipPath>
<clipPath clipPathUnits="userSpaceOnUse" id="clipPath23">
<path d="M9 52 L330 52 L330 68 L9 68 L9 52 Z"/>
</clipPath>
<clipPath clipPathUnits="userSpaceOnUse" id="clipPath24">
<path d="M-1 -1 L340 -1 L340 237 L-1 237 L-1 -1 Z"/>
</clipPath>
<clipPath clipPathUnits="userSpaceOnUse" id="clipPath25">
<path d="M82 150 L96 150 L96 164 L82 164 L82 150 Z"/>
</clipPath>
<clipPath clipPathUnits="userSpaceOnUse" id="clipPath26">
<path d="M106 150 L120 150 L120 164 L106 164 L106 150 Z"/>
</clipPath>
<clipPath clipPathUnits="userSpaceOnUse" id="clipPath27">
<path d="M240 150 L254 150 L254 164 L240 164 L240 150 Z"/>
</clipPath>
<clipPath clipPathUnits="userSpaceOnUse" id="clipPath28">
<path d="M218 150 L232 150 L232 164 L218 164 L218 150 Z"/>
</clipPath>
<clipPath clipPathUnits="userSpaceOnUse" id="clipPath29">
<path d="M163 150 L176 150 L176 164 L163 164 L163 150 Z"/>
</clipPath>
<clipPath clipPathUnits="userSpaceOnUse" id="clipPath30">
<path d="M163 66 L176 66 L176 78 L163 78 L163 66 Z"/>
</clipPath>
</defs>
<g font-size="10" fill="white" font-family="'Arial'" stroke-linejoin="round" stroke="white" stroke-miterlimit="0">
<rect x="80" y="82" clip-path="url(#clipPath1)" width="178" height="70" stroke="none"/>
<text x="141" y="95" clip-path="url(#clipPath2)" fill="black" stroke="none" xml:space="preserve">«interface»</text>
<text x="119" y="108" clip-path="url(#clipPath3)" fill="black" stroke="none" xml:space="preserve">IMonitoringLogWriter</text>
<text font-size="9" x="103" y="120" clip-path="url(#clipPath4)" fill="black" stroke="none" xml:space="preserve">(from kieker::monitoring::writer)</text>
<text x="85" y="135" clip-path="url(#clipPath5)" fill="black" stroke="none" xml:space="preserve">+ init ( initString : String ) : boolean</text>
<text x="85" y="148" clip-path="url(#clipPath6)" fill="black" stroke="none" xml:space="preserve">+ getInfoString ( ) : String</text>
<line clip-path="url(#clipPath7)" fill="none" x1="80" x2="257" y1="125" y2="125" stroke="black"/>
<rect x="79" y="81" clip-path="url(#clipPath1)" fill="none" width="179" height="70" stroke="black"/>
<rect x="18" y="174" clip-path="url(#clipPath8)" width="86" height="20" stroke="none"/>
<text x="28" y="187" clip-path="url(#clipPath9)" fill="black" stroke="none" xml:space="preserve">AsyncFsWriter</text>
<rect x="18" y="173" clip-path="url(#clipPath8)" fill="none" width="86" height="20" stroke="black"/>
<rect x="42" y="206" clip-path="url(#clipPath10)" width="82" height="20" stroke="none"/>
<text x="52" y="219" clip-path="url(#clipPath11)" fill="black" stroke="none" xml:space="preserve">SyncFsWriter</text>
<rect x="42" y="205" clip-path="url(#clipPath10)" fill="none" width="82" height="20" stroke="black"/>
<rect x="234" y="174" clip-path="url(#clipPath12)" width="89" height="20" stroke="none"/>
<text x="244" y="187" clip-path="url(#clipPath13)" fill="black" stroke="none" xml:space="preserve">AsyncDbWriter</text>
<rect x="233" y="173" clip-path="url(#clipPath12)" fill="none" width="89" height="20" stroke="black"/>
<rect x="190" y="206" clip-path="url(#clipPath14)" width="85" height="20" stroke="none"/>
<text x="200" y="219" clip-path="url(#clipPath15)" fill="black" stroke="none" xml:space="preserve">SyncDbWriter</text>
<rect x="189" y="205" clip-path="url(#clipPath14)" fill="none" width="85" height="20" stroke="black"/>
<rect x="120" y="174" clip-path="url(#clipPath16)" width="97" height="20" stroke="none"/>
<text x="130" y="187" clip-path="url(#clipPath17)" fill="black" stroke="none" xml:space="preserve">AsyncJMSWriter</text>
<rect x="120" y="173" clip-path="url(#clipPath16)" fill="none" width="97" height="20" stroke="black"/>
<rect x="10" y="10" clip-path="url(#clipPath18)" width="319" height="57" stroke="none"/>
<text x="142" y="23" clip-path="url(#clipPath19)" fill="black" stroke="none" xml:space="preserve">«interface»</text>
<text x="104" y="36" clip-path="url(#clipPath20)" fill="black" stroke="none" xml:space="preserve">IMonitoringRecordReceiver</text>
<text font-size="9" x="105" y="48" clip-path="url(#clipPath21)" fill="black" stroke="none" xml:space="preserve">(from kieker::common::record)</text>
<text x="16" y="63" clip-path="url(#clipPath22)" fill="black" stroke="none" xml:space="preserve">+ newMonitoringRecord ( record : IMonitoringRecord ) : boolean</text>
<line clip-path="url(#clipPath23)" fill="none" x1="10" x2="328" y1="53" y2="53" stroke="black"/>
<rect x="10" y="10" clip-path="url(#clipPath18)" fill="none" width="319" height="57" stroke="black"/>
</g>
<g font-size="11" stroke-miterlimit="0" stroke-dasharray="3,3" font-family="'Arial'" stroke-linejoin="round">
<line clip-path="url(#clipPath24)" fill="none" x1="89" x2="89" y1="174" y2="152"/>
<polygon fill="white" stroke-dasharray="none" clip-path="url(#clipPath25)" points=" 89 152 94 162 84 162" stroke="none"/>
<polygon fill="none" stroke-dasharray="none" clip-path="url(#clipPath25)" points=" 89 152 94 162 84 162"/>
<line clip-path="url(#clipPath24)" fill="none" x1="113" x2="113" y1="206" y2="152"/>
<polygon fill="white" stroke-dasharray="none" clip-path="url(#clipPath26)" points=" 113 152 118 162 108 162" stroke="none"/>
<polygon fill="none" stroke-dasharray="none" clip-path="url(#clipPath26)" points=" 113 152 118 162 108 162"/>
<line clip-path="url(#clipPath24)" fill="none" x1="246" x2="246" y1="174" y2="152"/>
<polygon fill="white" stroke-dasharray="none" clip-path="url(#clipPath27)" points=" 246 152 251 162 241 162" stroke="none"/>
<polygon fill="none" stroke-dasharray="none" clip-path="url(#clipPath27)" points=" 246 152 251 162 241 162"/>
<line clip-path="url(#clipPath24)" fill="none" x1="224" x2="224" y1="206" y2="152"/>
<polygon fill="white" stroke-dasharray="none" clip-path="url(#clipPath28)" points=" 224 152 229 162 219 162" stroke="none"/>
<polygon fill="none" stroke-dasharray="none" clip-path="url(#clipPath28)" points=" 224 152 229 162 219 162"/>
<line clip-path="url(#clipPath24)" fill="none" x1="169" x2="169" y1="174" y2="152"/>
<polygon fill="white" stroke-dasharray="none" clip-path="url(#clipPath29)" points=" 169 152 174 162 164 162" stroke="none"/>
<polygon fill="none" stroke-dasharray="none" clip-path="url(#clipPath29)" points=" 169 152 174 162 164 162"/>
<line clip-path="url(#clipPath24)" fill="none" x1="169" x2="169" y1="82" y2="67" stroke-dasharray="none"/>
<polygon fill="white" stroke-dasharray="none" clip-path="url(#clipPath30)" points=" 169 67 173 76 165 76" stroke="none"/>
<polygon fill="none" stroke-dasharray="none" clip-path="url(#clipPath30)" points=" 169 67 173 76 165 76"/>
</g>
</g>
</svg>