<?xml version="1.0" encoding="UTF-8" standalone="no"?>
<svg
   xmlns:dc="http://purl.org/dc/elements/1.1/"
   xmlns:cc="http://creativecommons.org/ns#"
   xmlns:rdf="http://www.w3.org/1999/02/22-rdf-syntax-ns#"
   xmlns:svg="http://www.w3.org/2000/svg"
   xmlns="http://www.w3.org/2000/svg"
   xmlns:sodipodi="http://sodipodi.sourceforge.net/DTD/sodipodi-0.dtd"
   xmlns:inkscape="http://www.inkscape.org/namespaces/inkscape"
   shape-rendering="auto"
   width="520.5"
   text-rendering="auto"
   contentScriptType="text/ecmascript"
   color-interpolation="auto"
   color-rendering="auto"
   preserveAspectRatio="xMidYMid meet"
   font-size="12"
   viewBox="0 0 520.5 256.63428"
   image-rendering="auto"
   stroke-miterlimit="10"
   zoomAndPan="magnify"
   version="1.0"
   contentStyleType="text/css"
   font-style="normal"
   height="256.63428"
   font-weight="normal"
   id="svg2"
   inkscape:version="0.47 r22583"
   sodipodi:docname="kieker_readerimplsuserguide-modified.svg"
   style="font-size:12px;font-style:normal;font-weight:normal;fill:#000000;fill-opacity:1;stroke:#000000;stroke-width:1;stroke-linecap:square;stroke-linejoin:miter;stroke-miterlimit:10;stroke-opacity:1;stroke-dasharray:none;stroke-dashoffset:0;font-family:Dialog">
  <metadata
     id="metadata244">
    <rdf:RDF>
      <cc:Work
         rdf:about="">
        <dc:format>image/svg+xml</dc:format>
        <dc:type
           rdf:resource="http://purl.org/dc/dcmitype/StillImage" />
      </cc:Work>
    </rdf:RDF>
  </metadata>
  <sodipodi:namedview
     pagecolor="#ffffff"
     bordercolor="#666666"
     borderopacity="1"
     objecttolerance="10"
     gridtolerance="10"
     guidetolerance="10"
     inkscape:pageopacity="0"
     inkscape:pageshadow="2"
     inkscape:window-width="1280"
     inkscape:window-height="928"
     id="namedview242"
     showgrid="false"
     inkscape:zoom="1.4707692"
     inkscape:cx="238.67019"
     inkscape:cy="66.494391"
     inkscape:window-x="-4"
     inkscape:window-y="35"
     inkscape:window-maximized="1"
     inkscape:current-layer="svg2" />
  <!--Generated by the Batik Graphics2D SVG Generator-->
  <defs
     id="genericDefs">
    <inkscape:perspective
       sodipodi:type="inkscape:persp3d"
       inkscape:vp_x="0 : 162.5 : 1"
       inkscape:vp_y="0 : 1000 : 0"
       inkscape:vp_z="547 : 162.5 : 1"
       inkscape:persp3d-origin="273.5 : 108.33333 : 1"
       id="perspective246" />
    <defs
       id="defs1">
      <clipPath
         id="clipPath1"
         clipPathUnits="userSpaceOnUse">
        <path
           id="path9"
           d="m 216,156 316,0 0,66 -316,0 0,-66 z" />
      </clipPath>
      <clipPath
         id="clipPath2"
         clipPathUnits="userSpaceOnUse">
        <path
           id="path12"
           d="m 297,160 153,0 0,17 -153,0 0,-17 z" />
      </clipPath>
      <clipPath
         id="clipPath3"
         clipPathUnits="userSpaceOnUse">
        <path
           id="path15"
           d="m 305,174 138,0 0,16 -138,0 0,-16 z" />
      </clipPath>
      <clipPath
         id="clipPath6"
         clipPathUnits="userSpaceOnUse">
        <path
           id="path24"
           d="m 217,190 314,0 0,31 -314,0 0,-31 z" />
      </clipPath>
      <clipPath
         id="clipPath7"
         clipPathUnits="userSpaceOnUse">
        <path
           id="path27"
           d="m 216,41 316,0 0,94 -316,0 0,-94 z" />
      </clipPath>
      <clipPath
         id="clipPath8"
         clipPathUnits="userSpaceOnUse">
        <path
           id="path30"
           d="m 345,45 58,0 0,17 -58,0 0,-17 z" />
      </clipPath>
      <clipPath
         id="clipPath10"
         clipPathUnits="userSpaceOnUse">
        <path
           id="path36"
           d="m 305,73 138,0 0,16 -138,0 0,-16 z" />
      </clipPath>
      <clipPath
         id="clipPath13"
         clipPathUnits="userSpaceOnUse">
        <path
           id="path45"
           d="m 222,117 95,0 0,17 -95,0 0,-17 z" />
      </clipPath>
      <clipPath
         id="clipPath15"
         clipPathUnits="userSpaceOnUse">
        <path
           id="path51"
           d="m 208,240 73,0 0,25 -73,0 0,-25 z" />
      </clipPath>
      <clipPath
         id="clipPath16"
         clipPathUnits="userSpaceOnUse">
        <path
           id="path54"
           d="m 219,244 51,0 0,17 -51,0 0,-17 z" />
      </clipPath>
      <clipPath
         id="clipPath17"
         clipPathUnits="userSpaceOnUse">
        <path
           id="path57"
           d="m 307,240 113,0 0,25 -113,0 0,-25 z" />
      </clipPath>
      <clipPath
         id="clipPath19"
         clipPathUnits="userSpaceOnUse">
        <path
           id="path63"
           d="m 459,240 80,0 0,25 -80,0 0,-25 z" />
      </clipPath>
      <clipPath
         id="clipPath21"
         clipPathUnits="userSpaceOnUse">
        <path
           id="path69"
           d="m 8,120 165,0 0,52 -165,0 0,-52 z" />
      </clipPath>
      <clipPath
         id="clipPath22"
         clipPathUnits="userSpaceOnUse">
        <path
           id="path72"
           d="m 62,124 58,0 0,17 -58,0 0,-17 z" />
      </clipPath>
      <clipPath
         id="clipPath24"
         clipPathUnits="userSpaceOnUse">
        <path
           id="path78"
           d="m 19,152 143,0 0,16 -143,0 0,-16 z" />
      </clipPath>
      <clipPath
         id="clipPath25"
         clipPathUnits="userSpaceOnUse">
        <path
           id="path81"
           d="m -1,-1 549,0 0,327 -549,0 0,-327 z" />
      </clipPath>
      <clipPath
         id="clipPath26"
         clipPathUnits="userSpaceOnUse">
        <path
           id="path84"
           d="m 357,131 14,0 0,14 -14,0 0,-14 z" />
      </clipPath>
      <clipPath
         id="clipPath27"
         clipPathUnits="userSpaceOnUse">
        <path
           id="path87"
           d="m 243,219 12,0 0,12 -12,0 0,-12 z" />
      </clipPath>
      <clipPath
         id="clipPath28"
         clipPathUnits="userSpaceOnUse">
        <path
           id="path90"
           d="m 358,219 12,0 0,12 -12,0 0,-12 z" />
      </clipPath>
      <clipPath
         id="clipPath29"
         clipPathUnits="userSpaceOnUse">
        <path
           id="path93"
           d="m 331,263 8,0 0,17 -8,0 0,-17 z" />
      </clipPath>
      <clipPath
         id="clipPath30"
         clipPathUnits="userSpaceOnUse">
        <path
           id="path96"
           d="m 231,263 9,0 0,17 -9,0 0,-17 z" />
      </clipPath>
      <clipPath
         id="clipPath31"
         clipPathUnits="userSpaceOnUse">
        <path
           id="path99"
           d="m 210,286 56,0 0,17 -56,0 0,-17 z" />
      </clipPath>
      <clipPath
         id="clipPath32"
         clipPathUnits="userSpaceOnUse">
        <path
           id="path102"
           d="m 318,261 12,0 0,21 -12,0 0,-21 z" />
      </clipPath>
      <clipPath
         id="clipPath33"
         clipPathUnits="userSpaceOnUse">
        <path
           id="path105"
           d="m 242,261 13,0 0,13 -13,0 0,-13 z" />
      </clipPath>
      <clipPath
         id="clipPath34"
         clipPathUnits="userSpaceOnUse">
        <path
           id="path108"
           d="m 490,219 12,0 0,12 -12,0 0,-12 z" />
      </clipPath>
      <clipPath
         id="clipPath35"
         clipPathUnits="userSpaceOnUse">
        <path
           id="path111"
           d="m 208,53 9,0 0,17 -9,0 0,-17 z" />
      </clipPath>
      <clipPath
         id="clipPath36"
         clipPathUnits="userSpaceOnUse">
        <path
           id="path114"
           d="m 160,100 7,0 0,17 -7,0 0,-17 z" />
      </clipPath>
      <clipPath
         id="clipPath37"
         clipPathUnits="userSpaceOnUse">
        <path
           id="path117"
           d="m 96,100 56,0 0,17 -56,0 0,-17 z" />
      </clipPath>
      <clipPath
         id="clipPath38"
         clipPathUnits="userSpaceOnUse">
        <path
           id="path120"
           d="m 151,112 12,0 0,13 -12,0 0,-13 z" />
      </clipPath>
    </defs>
  </defs>
  <rect
     x="218"
     y="158"
     clip-path="url(#clipPath1)"
     width="312"
     height="62"
     id="rect124"
     style="font-size:11px;fill:#ffffff;stroke:none;font-family:Arial"
     transform="translate(-9.5,-41.5)" />
  <text
     x="298"
     y="172"
     clip-path="url(#clipPath2)"
     font-style="italic"
     xml:space="preserve"
     id="text126"
     style="font-size:11px;font-style:italic;fill:#000000;stroke:none;font-family:Arial"
     transform="translate(-9.5,-41.5)">AbstractMonitoringLogReader</text>
  <text
     font-size="10"
     x="306"
     y="185"
     clip-path="url(#clipPath3)"
     xml:space="preserve"
     id="text128"
     style="font-size:10px;fill:#000000;stroke:none;font-family:Arial"
     transform="translate(-9.5,-41.5)">(from kieker::analysis::reader)</text>
  <text
     x="213.5"
     y="160.5"
     clip-path="none"
     xml:space="preserve"
     id="text130"
     style="font-size:11px;fill:#000000;stroke:none;font-family:Arial">+ addRecordReceiver ( receiver : IMonitoringRecordReceiver )</text>
  <text
     x="213.5"
     y="174.5"
     clip-path="none"
     xml:space="preserve"
     id="text132"
     style="font-size:11px;fill:#000000;stroke:none;font-family:Arial"># deliverRecord ( record : IMonitoringRecord )</text>
  <line
     clip-path="url(#clipPath6)"
     x1="218"
     x2="529"
     y1="191"
     y2="191"
     id="line134"
     style="font-size:11px;fill:none;stroke:#000000;stroke-linejoin:round;stroke-miterlimit:0;font-family:Arial"
     transform="translate(-9.5,-41.5)" />
  <rect
     x="217"
     y="158"
     clip-path="url(#clipPath1)"
     width="312"
     height="62"
     id="rect136"
     style="font-size:11px;fill:none;stroke:#000000;stroke-linejoin:round;stroke-miterlimit:0;font-family:Arial"
     transform="translate(-9.5,-41.5)" />
  <rect
     x="218"
     y="43"
     clip-path="url(#clipPath7)"
     width="312"
     height="90"
     id="rect138"
     style="font-size:11px;fill:#ffffff;stroke:none;font-family:Arial"
     transform="translate(-9.5,-41.5)" />
  <text
     x="346"
     y="57"
     clip-path="url(#clipPath8)"
     xml:space="preserve"
     id="text140"
     style="font-size:11px;fill:#000000;stroke:none;font-family:Arial"
     transform="translate(-9.5,-41.5)">«interface»</text>
  <text
     x="311.5"
     y="29.5"
     clip-path="none"
     xml:space="preserve"
     id="text142"
     style="font-size:11px;fill:#000000;stroke:none;font-family:Arial">IMonitoringLogReader</text>
  <text
     font-size="10"
     x="306"
     y="84"
     clip-path="url(#clipPath10)"
     xml:space="preserve"
     id="text144"
     style="font-size:10px;fill:#000000;stroke:none;font-family:Arial"
     transform="translate(-9.5,-41.5)">(from kieker::analysis::reader)</text>
  <text
     x="223"
     y="101"
     clip-path="none"
     xml:space="preserve"
     id="text146"
     style="font-size:11px;fill:#000000;stroke:none;font-family:Arial"
     transform="translate(-9.5,-41.5)">+ init ( initString : String )</text>
  <text
     x="213.5"
     y="73.5"
     clip-path="none"
     xml:space="preserve"
     id="text148"
     style="font-size:11px;fill:#000000;stroke:none;font-family:Arial">+ addRecordReceiver ( receiver : IMonitoringRecordReceiver )</text>
  <text
     x="223"
     y="129"
     clip-path="url(#clipPath13)"
     xml:space="preserve"
     id="text150"
     style="font-size:11px;fill:#000000;stroke:none;font-family:Arial"
     transform="translate(-9.5,-41.5)">+ read ( ) : boolean</text>
  <line
     clip-path="none"
     x1="208.5"
     x2="519.5"
     y1="48.5"
     y2="48.5"
     id="line152"
     style="font-size:11px;fill:none;stroke:#000000;stroke-linejoin:round;stroke-miterlimit:0;font-family:Arial" />
  <rect
     x="217"
     y="42"
     clip-path="url(#clipPath7)"
     width="312"
     height="90"
     id="rect154"
     style="font-size:11px;fill:none;stroke:#000000;stroke-linejoin:round;stroke-miterlimit:0;font-family:Arial"
     transform="translate(-9.5,-41.5)" />
  <rect
     x="10"
     y="122"
     clip-path="url(#clipPath21)"
     width="161"
     height="48"
     id="rect174"
     style="font-size:11px;fill:#ffffff;stroke:none;font-family:Arial"
     transform="translate(-9.5,-41.5)" />
  <text
     x="63"
     y="136"
     clip-path="url(#clipPath22)"
     xml:space="preserve"
     id="text176"
     style="font-size:11px;fill:#000000;stroke:none;font-family:Arial"
     transform="translate(-9.5,-41.5)">«interface»</text>
  <text
     x="16.5"
     y="108.5"
     clip-path="none"
     xml:space="preserve"
     id="text178"
     style="font-size:11px;fill:#000000;stroke:none;font-family:Arial">IMonitoringRecordReceiver</text>
  <text
     font-size="10"
     x="20"
     y="163"
     clip-path="url(#clipPath24)"
     xml:space="preserve"
     id="text180"
     style="font-size:10px;fill:#000000;stroke:none;font-family:Arial"
     transform="translate(-9.5,-41.5)">(from kieker::common::record)</text>
  <rect
     x="10"
     y="122"
     clip-path="url(#clipPath21)"
     width="161"
     height="48"
     id="rect182"
     style="font-size:11px;fill:none;stroke:#000000;stroke-linejoin:round;stroke-miterlimit:0;font-family:Arial"
     transform="translate(-9.5,-41.5)" />
  <line
     clip-path="url(#clipPath25)"
     x1="363"
     x2="363"
     y1="158"
     y2="133"
     id="line184"
     style="font-size:11px;fill:none;stroke:#000000;stroke-linejoin:round;stroke-miterlimit:0;stroke-dasharray:3, 3;font-family:Arial"
     transform="translate(-9.5,-41.5)" />
  <polygon
     clip-path="url(#clipPath26)"
     points="368,143 358,143 363,133 "
     id="polygon186"
     style="font-size:11px;fill:#ffffff;stroke:none;font-family:Arial"
     transform="translate(-9.5,-41.5)" />
  <polygon
     clip-path="url(#clipPath26)"
     points="368,143 358,143 363,133 "
     id="polygon188"
     style="font-size:11px;fill:none;stroke:#000000;stroke-linejoin:round;stroke-miterlimit:0;font-family:Arial"
     transform="translate(-9.5,-41.5)" />
  <g
     id="g3282"
     transform="translate(0,-41.5)">
    <rect
       style="font-size:11px;fill:#ffffff;stroke:none;font-family:Arial"
       id="rect162"
       height="21"
       width="109"
       clip-path="url(#clipPath17)"
       y="242"
       x="309" />
    <text
       style="font-size:11px;fill:#000000;stroke:none;font-family:Arial"
       id="text164"
       xml:space="preserve"
       clip-path="none"
       y="256"
       x="319">FSReaderRealtime</text>
    <rect
       style="font-size:11px;fill:none;stroke:#000000;stroke-linejoin:round;stroke-miterlimit:0;font-family:Arial"
       id="rect166"
       height="21"
       width="109"
       clip-path="url(#clipPath17)"
       y="241"
       x="309" />
    <line
       style="font-size:11px;fill:none;stroke:#000000;stroke-linejoin:round;stroke-miterlimit:0;font-family:Arial"
       id="line196"
       y2="220"
       y1="242"
       x2="364"
       x1="364"
       clip-path="url(#clipPath25)" />
    <polygon
       style="font-size:11px;fill:#ffffff;stroke:none;font-family:Arial"
       id="polygon198"
       points="359,229 364,220 368,229 "
       clip-path="url(#clipPath28)" />
    <polygon
       style="font-size:11px;fill:none;stroke:#000000;stroke-linejoin:round;stroke-miterlimit:0;font-family:Arial"
       id="polygon200"
       points="359,229 364,220 368,229 "
       clip-path="url(#clipPath28)" />
  </g>
  <g
     id="g3264"
     transform="translate(-2.5,-41.5)">
    <rect
       style="font-size:11px;fill:#ffffff;stroke:none;font-family:Arial"
       id="rect156"
       height="21"
       width="69"
       clip-path="url(#clipPath15)"
       y="242"
       x="210" />
    <text
       style="font-size:11px;fill:#000000;stroke:none;font-family:Arial"
       id="text158"
       xml:space="preserve"
       clip-path="url(#clipPath16)"
       y="256"
       x="220">FSReader</text>
    <rect
       style="font-size:11px;fill:none;stroke:#000000;stroke-linejoin:round;stroke-miterlimit:0;font-family:Arial"
       id="rect160"
       height="21"
       width="69"
       clip-path="url(#clipPath15)"
       y="241"
       x="210" />
    <line
       style="font-size:11px;fill:none;stroke:#000000;stroke-linejoin:round;stroke-miterlimit:0;font-family:Arial"
       id="line190"
       y2="220"
       y1="242"
       x2="249"
       x1="249"
       clip-path="url(#clipPath25)" />
    <polygon
       style="font-size:11px;fill:#ffffff;stroke:none;font-family:Arial"
       id="polygon192"
       points="244,229 249,220 253,229 "
       clip-path="url(#clipPath27)" />
    <polygon
       style="font-size:11px;fill:none;stroke:#000000;stroke-linejoin:round;stroke-miterlimit:0;font-family:Arial"
       id="polygon194"
       points="244,229 249,220 253,229 "
       clip-path="url(#clipPath27)" />
    <line
       style="font-size:11px;fill:none;stroke:#000000;stroke-linejoin:round;stroke-miterlimit:0;font-family:Arial"
       id="line202"
       y2="283"
       y1="263"
       x2="324"
       x1="324"
       clip-path="url(#clipPath25)" />
    <line
       style="font-size:11px;fill:none;stroke:#000000;stroke-linejoin:round;stroke-miterlimit:0;font-family:Arial"
       id="line204"
       y2="283"
       y1="283"
       x2="248"
       x1="324"
       clip-path="url(#clipPath25)" />
    <line
       style="font-size:11px;fill:none;stroke:#000000;stroke-linejoin:round;stroke-miterlimit:0;font-family:Arial"
       id="line206"
       y2="263"
       y1="283"
       x2="248"
       x1="248"
       clip-path="url(#clipPath25)" />
    <text
       style="font-size:11px;fill:#000000;stroke:none;font-family:Arial"
       id="text208"
       xml:space="preserve"
       clip-path="url(#clipPath29)"
       y="275"
       x="332">1</text>
    <text
       style="font-size:11px;fill:#000000;stroke:none;font-family:Arial"
       id="text210"
       xml:space="preserve"
       clip-path="url(#clipPath30)"
       y="275"
       x="232">1</text>
    <text
       style="font-size:11px;fill:#000000;stroke:none;font-family:Arial"
       id="text212"
       xml:space="preserve"
       clip-path="url(#clipPath31)"
       y="298"
       x="211">- fSReader</text>
    <polygon
       style="font-size:11px;fill:#000000;stroke:none;font-family:Arial"
       id="polygon214"
       points="324,263 328,271 324,280 319,271 "
       clip-path="url(#clipPath32)" />
    <polygon
       style="font-size:11px;fill:none;stroke:#000000;stroke-linejoin:round;stroke-miterlimit:0;font-family:Arial"
       id="polygon216"
       points="324,263 328,271 324,280 319,271 "
       clip-path="url(#clipPath32)" />
    <line
       style="font-size:11px;fill:none;stroke:#000000;stroke-linejoin:round;stroke-miterlimit:0;font-family:Arial"
       id="line218"
       y2="263"
       y1="271"
       x2="248"
       x1="252"
       clip-path="url(#clipPath33)" />
    <line
       style="font-size:11px;fill:none;stroke:#000000;stroke-linejoin:round;stroke-miterlimit:0;font-family:Arial"
       id="line220"
       y2="271"
       y1="263"
       x2="244"
       x1="248"
       clip-path="url(#clipPath33)" />
  </g>
  <g
     id="g3256"
     transform="translate(-17,-41.5)">
    <rect
       style="font-size:11px;fill:#ffffff;stroke:none;font-family:Arial"
       id="rect168"
       height="21"
       width="76"
       clip-path="url(#clipPath19)"
       y="242"
       x="461" />
    <text
       style="font-size:11px;fill:#000000;stroke:none;font-family:Arial"
       id="text170"
       xml:space="preserve"
       clip-path="none"
       y="256"
       x="471">JMSReader</text>
    <rect
       style="font-size:11px;fill:none;stroke:#000000;stroke-linejoin:round;stroke-miterlimit:0;font-family:Arial"
       id="rect172"
       height="21"
       width="76"
       clip-path="url(#clipPath19)"
       y="241"
       x="460" />
    <line
       style="font-size:11px;fill:none;stroke:#000000;stroke-linejoin:round;stroke-miterlimit:0;font-family:Arial"
       id="line222"
       y2="220"
       y1="242"
       x2="495"
       x1="495"
       clip-path="url(#clipPath25)" />
    <polygon
       style="font-size:11px;fill:#ffffff;stroke:none;font-family:Arial"
       id="polygon224"
       points="491,229 495,220 500,229 "
       clip-path="url(#clipPath34)" />
    <polygon
       style="font-size:11px;fill:none;stroke:#000000;stroke-linejoin:round;stroke-miterlimit:0;font-family:Arial"
       id="polygon226"
       points="491,229 495,220 500,229 "
       clip-path="url(#clipPath34)" />
  </g>
  <line
     clip-path="url(#clipPath25)"
     x1="218"
     x2="156"
     y1="67"
     y2="67"
     id="line228"
     style="font-size:11px;fill:none;stroke:#000000;stroke-linejoin:round;stroke-miterlimit:0;font-family:Arial"
     transform="translate(-9.5,-41.5)" />
  <line
     clip-path="url(#clipPath25)"
     x1="156"
     x2="156"
     y1="67"
     y2="122"
     id="line230"
     style="font-size:11px;fill:none;stroke:#000000;stroke-linejoin:round;stroke-miterlimit:0;font-family:Arial"
     transform="translate(-9.5,-41.5)" />
  <text
     x="209"
     y="65"
     clip-path="url(#clipPath35)"
     xml:space="preserve"
     id="text232"
     style="font-size:11px;fill:#000000;stroke:none;font-family:Arial"
     transform="translate(-9.5,-41.5)">1</text>
  <text
     x="161"
     y="112"
     clip-path="url(#clipPath36)"
     xml:space="preserve"
     id="text234"
     style="font-size:11px;fill:#000000;stroke:none;font-family:Arial"
     transform="translate(-9.5,-41.5)">*</text>
  <text
     x="97"
     y="112"
     clip-path="url(#clipPath37)"
     xml:space="preserve"
     id="text236"
     style="font-size:11px;fill:#000000;stroke:none;font-family:Arial"
     transform="translate(-9.5,-41.5)">- receivers</text>
  <line
     clip-path="url(#clipPath38)"
     x1="152"
     x2="156"
     y1="114"
     y2="122"
     id="line238"
     style="font-size:11px;fill:none;stroke:#000000;stroke-linejoin:round;stroke-miterlimit:0;font-family:Arial"
     transform="translate(-9.5,-41.5)" />
  <line
     clip-path="url(#clipPath38)"
     x1="156"
     x2="161"
     y1="122"
     y2="114"
     id="line240"
     style="font-size:11px;fill:none;stroke:#000000;stroke-linejoin:round;stroke-miterlimit:0;font-family:Arial"
     transform="translate(-9.5,-41.5)" />
</svg>
