<?xml version="1.0" encoding="UTF-8" standalone="no"?>
<svg
   xmlns:dc="http://purl.org/dc/elements/1.1/"
   xmlns:cc="http://creativecommons.org/ns#"
   xmlns:rdf="http://www.w3.org/1999/02/22-rdf-syntax-ns#"
   xmlns:svg="http://www.w3.org/2000/svg"
   xmlns="http://www.w3.org/2000/svg"
   xmlns:sodipodi="http://sodipodi.sourceforge.net/DTD/sodipodi-0.dtd"
   xmlns:inkscape="http://www.inkscape.org/namespaces/inkscape"
   version="1.1"
   id="body"
   width="5.1047058in"
   height="4.7594118in"
   viewBox="0 0 0.63808823 0.59492648"
   preserveAspectRatio="none"
   sodipodi:docname="assemblySequenceDiagram-6488138950668976129.svg"
   inkscape:version="0.92.5 (2060ec1f9f, 2020-04-08)">
  <metadata
     id="metadata151">
    <rdf:RDF>
      <cc:Work
         rdf:about="">
        <dc:format>image/svg+xml</dc:format>
        <dc:type
           rdf:resource="http://purl.org/dc/dcmitype/StillImage" />
        <dc:title>SVG drawing</dc:title>
      </cc:Work>
    </rdf:RDF>
  </metadata>
  <defs
     id="defs149" />
  <sodipodi:namedview
     pagecolor="#ffffff"
     bordercolor="#666666"
     borderopacity="1"
     objecttolerance="10"
     gridtolerance="10"
     guidetolerance="10"
     inkscape:pageopacity="0"
     inkscape:pageshadow="2"
     inkscape:window-width="640"
     inkscape:window-height="480"
     id="namedview147"
     showgrid="false"
     fit-margin-top="0"
     fit-margin-left="0"
     fit-margin-right="0"
     fit-margin-bottom="0"
     inkscape:zoom="0.30729167"
     inkscape:cx="268.8"
     inkscape:cy="228.45561"
     inkscape:window-x="72"
     inkscape:window-y="27"
     inkscape:window-maximized="0"
     inkscape:current-layer="body" />
  <title
     id="title2">SVG drawing</title>
  <desc
     id="desc4">This was produced by version 4.4 of GNU libplot, a free library for exporting 2-D vector graphics.</desc>
  <g
     id="content"
     transform="matrix(0.125,0,0,-0.125,0,0.03183824)"
     xml:space="preserve"
     stroke-miterlimit="10.433"
     font-style="normal"
     font-variant="normal"
     font-weight="normal"
     font-stretch="normal"
     font-size-adjust="none"
     letter-spacing="normal"
     word-spacing="normal"
     style="font-style:normal;font-variant:normal;font-weight:normal;font-stretch:normal;letter-spacing:normal;word-spacing:normal;text-anchor:start;fill:none;fill-opacity:1;fill-rule:evenodd;stroke:#000000;stroke-linecap:butt;stroke-linejoin:miter;stroke-miterlimit:10.43299961;stroke-dasharray:none;stroke-dashoffset:0;stroke-opacity:1">
<circle
   cx="0.15000001"
   cy="0.19"
   r="0.059999999"
   id="circle7"
   style="stroke-width:0.0094118" />
<line
   x1="0.15000001"
   y1="0.13"
   x2="0.15000001"
   y2="0.0099999998"
   id="line9"
   style="stroke-width:0.0094118" />
<line
   x1="0"
   y1="0.11"
   x2="0.30000001"
   y2="0.11"
   id="line11"
   style="stroke-width:0.0094118" />
<line
   x1="0.15000001"
   y1="0.0099999998"
   x2="0.07"
   y2="-0.14"
   id="line13"
   style="stroke-width:0.0094118" />
<line
   x1="0.15000001"
   y1="0.0099999998"
   x2="0.23"
   y2="-0.14"
   id="line15"
   style="stroke-width:0.0094118" />
<rect
   x="0.80000001"
   y="-0.15000001"
   width="1.1"
   height="0.30000001"
   id="rect17"
   style="stroke-width:0.0094118" />
<text
   transform="matrix(0.0069444,0,0,-0.0069444,0.87035,-0.13236)"
   font-size="20px"
   id="text19"
   style="font-size:20px;font-family:Helvetica, sans-serif;fill:#000000;stroke:none">@3:..Bookstore</text>

<rect
   x="2.4000001"
   y="-0.15000001"
   width="1.1"
   height="0.30000001"
   id="rect21"
   style="stroke-width:0.0094118" />
<text
   transform="matrix(0.0069444,0,0,-0.0069444,2.5437,-0.13236)"
   font-size="20px"
   id="text23"
   style="font-size:20px;font-family:Helvetica, sans-serif;fill:#000000;stroke:none">@1:..Catalog</text>

<rect
   x="4"
   y="-0.15000001"
   width="1.1"
   height="0.30000001"
   id="rect25"
   style="stroke-width:0.0094118" />
<text
   transform="matrix(0.0069444,0,0,-0.0069444,4.2249,-0.13236)"
   font-size="20px"
   id="text27"
   style="font-size:20px;font-family:Helvetica, sans-serif;fill:#000000;stroke:none">@2:..CRM</text>

<line
   x1="0.15000001"
   y1="-0.30000001"
   x2="0.15000001"
   y2="-0.25"
   id="line29"
   style="stroke-width:0.0094118;stroke-dasharray:0.05, 0.05" />
<line
   x1="0.1"
   y1="-0.25"
   x2="0.2"
   y2="-0.25"
   id="line31"
   style="stroke-width:0.0094118" />
<line
   x1="0.20999999"
   y1="-0.5"
   x2="1.29"
   y2="-0.5"
   id="line33"
   style="stroke-width:0.0094118" />
<polyline
   points="1.19,-0.45 1.29,-0.5 1.19,-0.55 "
   id="polyline35"
   style="stroke-width:0.0094118" />
<text
   transform="matrix(0.0069444,0,0,-0.0069444,0.33708,-0.46569)"
   font-size="20px"
   id="text37"
   style="font-size:20px;font-family:Helvetica, sans-serif;fill:#000000;stroke:none">searchBook()</text>

<text
   transform="matrix(0.0069444,0,0,-0.0069444,0.73069,-0.63236)"
   font-size="20px"
   id="text39"
   style="font-size:20px;font-family:Helvetica, sans-serif;fill:#000000;stroke:none"> </text>

<line
   x1="1.35"
   y1="-0.15000001"
   x2="1.35"
   y2="-0.5"
   id="line41"
   style="stroke-width:0.0094118;stroke-dasharray:0.05, 0.05" />
<line
   x1="1.3"
   y1="-0.5"
   x2="1.4"
   y2="-0.5"
   id="line43"
   style="stroke-width:0.0094118" />
<line
   x1="1.41"
   y1="-1"
   x2="2.8900001"
   y2="-1"
   id="line45"
   style="stroke-width:0.0094118" />
<polygon
   points="2.79,-1.025 2.79,-0.975 2.89,-1 "
   id="polygon47"
   style="fill:#000000;stroke-width:0.0094118" />
<text
   transform="matrix(0.0069444,0,0,-0.0069444,1.8103,-0.96569)"
   font-size="20px"
   id="text49"
   style="font-size:20px;font-family:Helvetica, sans-serif;fill:#000000;stroke:none">getBook(..)</text>

<text
   transform="matrix(0.0069444,0,0,-0.0069444,2.1307,-1.1324)"
   font-size="20px"
   id="text51"
   style="font-size:20px;font-family:Helvetica, sans-serif;fill:#000000;stroke:none"> </text>

<line
   x1="2.95"
   y1="-0.15000001"
   x2="2.95"
   y2="-1"
   id="line53"
   style="stroke-width:0.0094118;stroke-dasharray:0.05, 0.05" />
<line
   x1="2.9000001"
   y1="-1"
   x2="3"
   y2="-1"
   id="line55"
   style="stroke-width:0.0094118" />
<line
   x1="2.8900001"
   y1="-1.75"
   x2="1.41"
   y2="-1.75"
   id="line57"
   style="stroke-width:0.0094118;stroke-dasharray:0.05, 0.05" />
<polyline
   points="1.51,-1.8 1.41,-1.75 1.51,-1.7 "
   id="polyline59"
   style="stroke-width:0.0094118" />
<text
   transform="matrix(0.0069444,0,0,-0.0069444,2.1307,-1.8824)"
   font-size="20px"
   id="text61"
   style="font-size:20px;font-family:Helvetica, sans-serif;fill:#000000;stroke:none"> </text>

<line
   x1="2.9000001"
   y1="-1"
   x2="2.9000001"
   y2="-1.75"
   id="line63"
   style="stroke-width:0.0094118" />
<line
   x1="3"
   y1="-1"
   x2="3"
   y2="-1.75"
   id="line65"
   style="stroke-width:0.0094118" />
<line
   x1="2.9000001"
   y1="-1.75"
   x2="3"
   y2="-1.75"
   id="line67"
   style="stroke-width:0.0094118" />
<line
   x1="1.41"
   y1="-2"
   x2="4.4899998"
   y2="-2"
   id="line69"
   style="stroke-width:0.0094118" />
<polygon
   points="4.39,-2.025 4.39,-1.975 4.49,-2 "
   id="polygon71"
   style="fill:#000000;stroke-width:0.0094118" />
<text
   transform="matrix(0.0069444,0,0,-0.0069444,2.6181,-1.9657)"
   font-size="20px"
   id="text73"
   style="font-size:20px;font-family:Helvetica, sans-serif;fill:#000000;stroke:none">getOffers()</text>

<text
   transform="matrix(0.0069444,0,0,-0.0069444,2.9307,-2.1324)"
   font-size="20px"
   id="text75"
   style="font-size:20px;font-family:Helvetica, sans-serif;fill:#000000;stroke:none"> </text>

<line
   x1="4.5500002"
   y1="-0.15000001"
   x2="4.5500002"
   y2="-2"
   id="line77"
   style="stroke-width:0.0094118;stroke-dasharray:0.05, 0.05" />
<line
   x1="4.5"
   y1="-2"
   x2="4.5999999"
   y2="-2"
   id="line79"
   style="stroke-width:0.0094118" />
<line
   x1="4.4899998"
   y1="-2.5"
   x2="3.01"
   y2="-2.5"
   id="line81"
   style="stroke-width:0.0094118" />
<polygon
   points="3.11,-2.4875 3.11,-2.5125 3.01,-2.5 "
   id="polygon83"
   style="fill:#000000;stroke-width:0.0094118" />
<text
   transform="matrix(0.0069444,0,0,-0.0069444,3.4103,-2.4657)"
   font-size="20px"
   id="text85"
   style="font-size:20px;font-family:Helvetica, sans-serif;fill:#000000;stroke:none">getBook(..)</text>

<text
   transform="matrix(0.0069444,0,0,-0.0069444,3.7307,-2.6324)"
   font-size="20px"
   id="text87"
   style="font-size:20px;font-family:Helvetica, sans-serif;fill:#000000;stroke:none"> </text>

<line
   x1="2.95"
   y1="-1.75"
   x2="2.95"
   y2="-2.5"
   id="line89"
   style="stroke-width:0.0094118;stroke-dasharray:0.05, 0.05" />
<line
   x1="2.9000001"
   y1="-2.5"
   x2="3"
   y2="-2.5"
   id="line91"
   style="stroke-width:0.0094118" />
<line
   x1="3.01"
   y1="-3.25"
   x2="4.4899998"
   y2="-3.25"
   id="line93"
   style="stroke-width:0.0094118;stroke-dasharray:0.05, 0.05" />
<polyline
   points="4.39,-3.225 4.49,-3.25 4.39,-3.275 "
   id="polyline95"
   style="stroke-width:0.0094118" />
<text
   transform="matrix(0.0069444,0,0,-0.0069444,3.7307,-3.3824)"
   font-size="20px"
   id="text97"
   style="font-size:20px;font-family:Helvetica, sans-serif;fill:#000000;stroke:none"> </text>

<line
   x1="2.9000001"
   y1="-2.5"
   x2="2.9000001"
   y2="-3.25"
   id="line99"
   style="stroke-width:0.0094118" />
<line
   x1="3"
   y1="-2.5"
   x2="3"
   y2="-3.25"
   id="line101"
   style="stroke-width:0.0094118" />
<line
   x1="2.9000001"
   y1="-3.25"
   x2="3"
   y2="-3.25"
   id="line103"
   style="stroke-width:0.0094118" />
<line
   x1="4.4899998"
   y1="-3.75"
   x2="1.41"
   y2="-3.75"
   id="line105"
   style="stroke-width:0.0094118;stroke-dasharray:0.05, 0.05" />
<polyline
   points="1.51,-3.8 1.41,-3.75 1.51,-3.7 "
   id="polyline107"
   style="stroke-width:0.0094118" />
<text
   transform="matrix(0.0069444,0,0,-0.0069444,2.9307,-3.8824)"
   font-size="20px"
   id="text109"
   style="font-size:20px;font-family:Helvetica, sans-serif;fill:#000000;stroke:none"> </text>

<line
   x1="4.5"
   y1="-2"
   x2="4.5"
   y2="-3.75"
   id="line111"
   style="stroke-width:0.0094118" />
<line
   x1="4.5999999"
   y1="-2"
   x2="4.5999999"
   y2="-3.75"
   id="line113"
   style="stroke-width:0.0094118" />
<line
   x1="4.5"
   y1="-3.75"
   x2="4.5999999"
   y2="-3.75"
   id="line115"
   style="stroke-width:0.0094118" />
<line
   x1="1.29"
   y1="-4.25"
   x2="0.20999999"
   y2="-4.25"
   id="line117"
   style="stroke-width:0.0094118;stroke-dasharray:0.05, 0.05" />
<polyline
   points="0.31,-4.35 0.21,-4.25 0.31,-4.15 "
   id="polyline119"
   style="stroke-width:0.0094118" />
<text
   transform="matrix(0.0069444,0,0,-0.0069444,0.73069,-4.3824)"
   font-size="20px"
   id="text121"
   style="font-size:20px;font-family:Helvetica, sans-serif;fill:#000000;stroke:none"> </text>

<line
   x1="1.3"
   y1="-0.5"
   x2="1.3"
   y2="-4.25"
   id="line123"
   style="stroke-width:0.0094118" />
<line
   x1="1.4"
   y1="-0.5"
   x2="1.4"
   y2="-4.25"
   id="line125"
   style="stroke-width:0.0094118" />
<line
   x1="1.3"
   y1="-4.25"
   x2="1.4"
   y2="-4.25"
   id="line127"
   style="stroke-width:0.0094118" />
<line
   x1="0.1"
   y1="-0.25"
   x2="0.1"
   y2="-4.25"
   id="line129"
   style="stroke-width:0.0094118" />
<line
   x1="0.2"
   y1="-0.25"
   x2="0.2"
   y2="-4.25"
   id="line131"
   style="stroke-width:0.0094118" />
<line
   x1="0.1"
   y1="-4.25"
   x2="0.2"
   y2="-4.25"
   id="line133"
   style="stroke-width:0.0094118" />
<line
   x1="0.15000001"
   y1="-4.25"
   x2="0.15000001"
   y2="-4.5"
   id="line135"
   style="stroke-width:0.0094118;stroke-dasharray:0.05, 0.05" />
<line
   x1="2.95"
   y1="-3.25"
   x2="2.95"
   y2="-4.5"
   id="line137"
   style="stroke-width:0.0094118;stroke-dasharray:0.05, 0.05" />
<line
   x1="4.5500002"
   y1="-3.75"
   x2="4.5500002"
   y2="-4.5"
   id="line139"
   style="stroke-width:0.0094118;stroke-dasharray:0.05, 0.05" />
<line
   x1="1.35"
   y1="-4.25"
   x2="1.35"
   y2="-4.5"
   id="line141"
   style="stroke-width:0.0094118;stroke-dasharray:0.05, 0.05" />
<line
   x1="0.15000001"
   y1="-4.5"
   x2="0.15000001"
   y2="-4.5"
   id="line143"
   style="stroke-width:0.0094118;stroke-dasharray:0.05, 0.05" />
</g></svg>
