<?xml version="1.0" encoding="UTF-8" standalone="no"?>
<!DOCTYPE svg PUBLIC "-//W3C//DTD SVG 1.1//EN"
 "http://www.w3.org/Graphics/SVG/1.1/DTD/svg11.dtd">
<!-- Generated by graphviz version 2.43.0 (0)
 -->
<!-- Title: G Pages: 1 -->
<svg width="749pt" height="82pt"
 viewBox="0.00 0.00 749.00 82.00" xmlns="http://www.w3.org/2000/svg" xmlns:xlink="http://www.w3.org/1999/xlink">
<g id="graph0" class="graph" transform="scale(1 1) rotate(0) translate(4 78)">
<title>G</title>
<polygon fill="white" stroke="transparent" points="-4,4 -4,-78 745,-78 745,4 -4,4"/>
<!-- depNode_0 -->
<g id="node1" class="node">
<title>depNode_0</title>
<text text-anchor="middle" x="27" y="-15.3" font-family="Times,serif" font-size="14.00">&#39;Entry&#39;</text>
</g>
<!-- depNode_3 -->
<g id="node4" class="node">
<title>depNode_3</title>
<polygon fill="white" stroke="#000000" points="283,-38 118,-38 118,0 283,0 283,-38"/>
<text text-anchor="middle" x="200.5" y="-22.8" font-family="Times,serif" font-size="14.00">&lt;&lt;assembly component&gt;&gt;</text>
<text text-anchor="middle" x="200.5" y="-7.8" font-family="Times,serif" font-size="14.00">@3:..Bookstore</text>
</g>
<!-- depNode_0&#45;&gt;depNode_3 -->
<g id="edge1" class="edge">
<title>depNode_0&#45;&gt;depNode_3</title>
<path fill="none" stroke="#000000" d="M54.05,-19C68.72,-19 88.01,-19 107.74,-19"/>
<polygon fill="#000000" stroke="#000000" points="117.75,-19 107.75,-23.5 112.75,-19 107.75,-19 107.75,-19 107.75,-19 112.75,-19 107.75,-14.5 117.75,-19 117.75,-19"/>
<text text-anchor="middle" x="86" y="-22.8" font-family="Times,serif" font-size="14.00">1635</text>
</g>
<!-- depNode_2 -->
<g id="node2" class="node">
<title>depNode_2</title>
<polygon fill="white" stroke="#000000" points="512,-74 347,-74 347,-36 512,-36 512,-74"/>
<text text-anchor="middle" x="429.5" y="-58.8" font-family="Times,serif" font-size="14.00">&lt;&lt;assembly component&gt;&gt;</text>
<text text-anchor="middle" x="429.5" y="-43.8" font-family="Times,serif" font-size="14.00">@2:..CRM</text>
</g>
<!-- depNode_1 -->
<g id="node3" class="node">
<title>depNode_1</title>
<polygon fill="white" stroke="#000000" points="741,-38 576,-38 576,0 741,0 741,-38"/>
<text text-anchor="middle" x="658.5" y="-22.8" font-family="Times,serif" font-size="14.00">&lt;&lt;assembly component&gt;&gt;</text>
<text text-anchor="middle" x="658.5" y="-7.8" font-family="Times,serif" font-size="14.00">@1:..Catalog</text>
</g>
<!-- depNode_2&#45;&gt;depNode_1 -->
<g id="edge2" class="edge">
<title>depNode_2&#45;&gt;depNode_1</title>
<path fill="none" stroke="#000000" d="M512.13,-42.05C529.45,-39.31 547.85,-36.39 565.52,-33.59"/>
<polygon fill="#000000" stroke="#000000" points="575.83,-31.95 566.66,-37.96 570.89,-32.74 565.95,-33.52 565.95,-33.52 565.95,-33.52 570.89,-32.74 565.25,-29.07 575.83,-31.95 575.83,-31.95"/>
<text text-anchor="middle" x="544" y="-42.8" font-family="Times,serif" font-size="14.00">1635</text>
</g>
<!-- depNode_3&#45;&gt;depNode_2 -->
<g id="edge3" class="edge">
<title>depNode_3&#45;&gt;depNode_2</title>
<path fill="none" stroke="#000000" d="M283.13,-31.95C300.45,-34.69 318.85,-37.61 336.52,-40.41"/>
<polygon fill="#000000" stroke="#000000" points="346.83,-42.05 336.25,-44.93 341.89,-41.26 336.95,-40.48 336.95,-40.48 336.95,-40.48 341.89,-41.26 337.66,-36.04 346.83,-42.05 346.83,-42.05"/>
<text text-anchor="middle" x="315" y="-42.8" font-family="Times,serif" font-size="14.00">1635</text>
</g>
<!-- depNode_3&#45;&gt;depNode_1 -->
<g id="edge4" class="edge">
<title>depNode_3&#45;&gt;depNode_1</title>
<path fill="none" stroke="#000000" d="M283.05,-14.39C303.89,-13.4 326.27,-12.5 347,-12 420.31,-10.24 438.69,-10.24 512,-12 529.33,-12.42 547.81,-13.11 565.58,-13.91"/>
<polygon fill="#000000" stroke="#000000" points="575.95,-14.39 565.76,-18.42 570.96,-14.15 565.96,-13.92 565.96,-13.92 565.96,-13.92 570.96,-14.15 566.17,-9.43 575.95,-14.39 575.95,-14.39"/>
<text text-anchor="middle" x="429.5" y="-15.8" font-family="Times,serif" font-size="14.00">1635</text>
</g>
</g>
</svg>
