<?xml version="1.0" encoding="UTF-8" standalone="no"?>
<!DOCTYPE svg PUBLIC "-//W3C//DTD SVG 1.1//EN"
 "http://www.w3.org/Graphics/SVG/1.1/DTD/svg11.dtd">
<!-- Generated by graphviz version 2.43.0 (0)
 -->
<!-- Title: G Pages: 1 -->
<svg width="801pt" height="363pt"
 viewBox="0.00 0.00 801.47 363.00" xmlns="http://www.w3.org/2000/svg" xmlns:xlink="http://www.w3.org/1999/xlink">
<g id="graph0" class="graph" transform="scale(1 1) rotate(0) translate(4 359)">
<title>G</title>
<polygon fill="white" stroke="transparent" points="-4,4 -4,-359 797.47,-359 797.47,4 -4,4"/>
<g id="clust1" class="cluster">
<title>cluster_container2</title>
<polygon fill="white" stroke="black" points="108,-160 108,-347 793.47,-347 793.47,-160 108,-160"/>
<text text-anchor="middle" x="450.74" y="-331.8" font-family="Times,serif" font-size="14.00">&lt;&lt;execution container&gt;&gt;</text>
<text text-anchor="middle" x="450.74" y="-316.8" font-family="Times,serif" font-size="14.00">SRV0</text>
</g>
<g id="clust2" class="cluster">
<title>cluster_component_2</title>
<polygon fill="white" stroke="black" points="606.78,-183 606.78,-273 785.47,-273 785.47,-183 606.78,-183"/>
<text text-anchor="middle" x="696.13" y="-257.8" font-family="Times,serif" font-size="14.00">&lt;&lt;deployment component&gt;&gt;</text>
<text text-anchor="middle" x="696.13" y="-242.8" font-family="Times,serif" font-size="14.00">@1:..Catalog</text>
</g>
<g id="clust3" class="cluster">
<title>cluster_component_3</title>
<polygon fill="white" stroke="black" points="358.69,-211 358.69,-301 536.78,-301 536.78,-211 358.69,-211"/>
<text text-anchor="middle" x="447.74" y="-285.8" font-family="Times,serif" font-size="14.00">&lt;&lt;deployment component&gt;&gt;</text>
<text text-anchor="middle" x="447.74" y="-270.8" font-family="Times,serif" font-size="14.00">@2:..CRM</text>
</g>
<g id="clust4" class="cluster">
<title>cluster_component_4</title>
<polygon fill="white" stroke="black" points="116,-168 116,-258 294.69,-258 294.69,-168 116,-168"/>
<text text-anchor="middle" x="205.34" y="-242.8" font-family="Times,serif" font-size="14.00">&lt;&lt;deployment component&gt;&gt;</text>
<text text-anchor="middle" x="205.34" y="-227.8" font-family="Times,serif" font-size="14.00">@3:..Bookstore</text>
</g>
<g id="clust5" class="cluster">
<title>cluster_container1</title>
<polygon fill="white" stroke="black" points="598.78,-8 598.78,-152 793.47,-152 793.47,-8 598.78,-8"/>
<text text-anchor="middle" x="696.13" y="-136.8" font-family="Times,serif" font-size="14.00">&lt;&lt;execution container&gt;&gt;</text>
<text text-anchor="middle" x="696.13" y="-121.8" font-family="Times,serif" font-size="14.00">SRV1</text>
</g>
<g id="clust6" class="cluster">
<title>cluster_component_1</title>
<polygon fill="white" stroke="black" points="606.78,-16 606.78,-106 785.47,-106 785.47,-16 606.78,-16"/>
<text text-anchor="middle" x="696.13" y="-90.8" font-family="Times,serif" font-size="14.00">&lt;&lt;deployment component&gt;&gt;</text>
<text text-anchor="middle" x="696.13" y="-75.8" font-family="Times,serif" font-size="14.00">@1:..Catalog</text>
</g>
<!-- depNode_0 -->
<g id="node1" class="node">
<title>depNode_0</title>
<text text-anchor="middle" x="27" y="-190.3" font-family="Times,serif" font-size="14.00">&#39;Entry&#39;</text>
</g>
<!-- depNode_1 -->
<g id="node4" class="node">
<title>depNode_1</title>
<ellipse fill="white" stroke="#000000" cx="204.84" cy="-194" rx="57.69" ry="18"/>
<text text-anchor="middle" x="204.84" y="-190.3" font-family="Times,serif" font-size="14.00">searchBook()</text>
</g>
<!-- depNode_0&#45;&gt;depNode_1 -->
<g id="edge1" class="edge">
<title>depNode_0&#45;&gt;depNode_1</title>
<path fill="none" stroke="#000000" d="M54.33,-194C76.09,-194 107.99,-194 136.73,-194"/>
<polygon fill="#000000" stroke="#000000" points="146.75,-194 136.75,-198.5 141.75,-194 136.75,-194 136.75,-194 136.75,-194 141.75,-194 136.75,-189.5 146.75,-194 146.75,-194"/>
<text text-anchor="middle" x="86" y="-197.8" font-family="Times,serif" font-size="14.00">1635</text>
</g>
<!-- depNode_4 -->
<g id="node2" class="node">
<title>depNode_4</title>
<ellipse fill="white" stroke="#000000" cx="696.13" cy="-209" rx="51.19" ry="18"/>
<text text-anchor="middle" x="696.13" y="-205.3" font-family="Times,serif" font-size="14.00">getBook(..)</text>
</g>
<!-- depNode_3 -->
<g id="node3" class="node">
<title>depNode_3</title>
<ellipse fill="white" stroke="#000000" cx="447.74" cy="-237" rx="50.09" ry="18"/>
<text text-anchor="middle" x="447.74" y="-233.3" font-family="Times,serif" font-size="14.00">getOffers()</text>
</g>
<!-- depNode_3&#45;&gt;depNode_4 -->
<g id="edge6" class="edge">
<title>depNode_3&#45;&gt;depNode_4</title>
<path fill="none" stroke="#000000" d="M495.66,-231.67C535.86,-227.1 593.92,-220.5 637.05,-215.6"/>
<polygon fill="#000000" stroke="#000000" points="647.12,-214.46 637.69,-220.06 642.15,-215.02 637.18,-215.59 637.18,-215.59 637.18,-215.59 642.15,-215.02 636.67,-211.11 647.12,-214.46 647.12,-214.46"/>
<text text-anchor="middle" x="568.78" y="-227.8" font-family="Times,serif" font-size="14.00">573</text>
</g>
<!-- depNode_2 -->
<g id="node5" class="node">
<title>depNode_2</title>
<ellipse fill="white" stroke="#000000" cx="696.13" cy="-42" rx="51.19" ry="18"/>
<text text-anchor="middle" x="696.13" y="-38.3" font-family="Times,serif" font-size="14.00">getBook(..)</text>
</g>
<!-- depNode_3&#45;&gt;depNode_2 -->
<g id="edge5" class="edge">
<title>depNode_3&#45;&gt;depNode_2</title>
<path fill="none" stroke="#000000" d="M489.09,-226.56C504.72,-221.46 522.31,-214.36 536.78,-205 595.56,-166.97 648.94,-103.34 676.16,-67.87"/>
<polygon fill="#000000" stroke="#000000" points="682.5,-59.5 680.05,-70.19 679.48,-63.48 676.46,-67.47 676.46,-67.47 676.46,-67.47 679.48,-63.48 672.88,-64.75 682.5,-59.5 682.5,-59.5"/>
<text text-anchor="middle" x="568.78" y="-193.8" font-family="Times,serif" font-size="14.00">1062</text>
</g>
<!-- depNode_1&#45;&gt;depNode_4 -->
<g id="edge4" class="edge">
<title>depNode_1&#45;&gt;depNode_4</title>
<path fill="none" stroke="#000000" d="M262.82,-193.08C291.57,-192.66 326.98,-192.21 358.69,-192 437.84,-191.48 457.74,-187.77 536.78,-192 570.25,-193.79 607.52,-197.7 637.49,-201.31"/>
<polygon fill="#000000" stroke="#000000" points="647.77,-202.58 637.3,-205.82 642.81,-201.97 637.84,-201.36 637.84,-201.36 637.84,-201.36 642.81,-201.97 638.39,-196.89 647.77,-202.58 647.77,-202.58"/>
<text text-anchor="middle" x="447.74" y="-195.8" font-family="Times,serif" font-size="14.00">543</text>
</g>
<!-- depNode_1&#45;&gt;depNode_3 -->
<g id="edge3" class="edge">
<title>depNode_1&#45;&gt;depNode_3</title>
<path fill="none" stroke="#000000" d="M255.47,-202.86C295.42,-209.99 351.5,-220 392.6,-227.34"/>
<polygon fill="#000000" stroke="#000000" points="402.45,-229.09 391.81,-231.77 397.53,-228.22 392.6,-227.34 392.6,-227.34 392.6,-227.34 397.53,-228.22 393.39,-222.91 402.45,-229.09 402.45,-229.09"/>
<text text-anchor="middle" x="326.69" y="-219.8" font-family="Times,serif" font-size="14.00">1635</text>
</g>
<!-- depNode_1&#45;&gt;depNode_2 -->
<g id="edge2" class="edge">
<title>depNode_1&#45;&gt;depNode_2</title>
<path fill="none" stroke="#000000" d="M246.3,-181.43C335.97,-153.58 551.07,-86.75 647.24,-56.87"/>
<polygon fill="#000000" stroke="#000000" points="657,-53.84 648.78,-61.11 652.22,-55.33 647.45,-56.81 647.45,-56.81 647.45,-56.81 652.22,-55.33 646.11,-52.51 657,-53.84 657,-53.84"/>
<text text-anchor="middle" x="447.74" y="-149.8" font-family="Times,serif" font-size="14.00">1092</text>
</g>
</g>
</svg>
