<?xml version="1.0" encoding="UTF-8" standalone="no"?>
<!DOCTYPE svg PUBLIC "-//W3C//DTD SVG 1.1//EN"
 "http://www.w3.org/Graphics/SVG/1.1/DTD/svg11.dtd">
<!-- Generated by graphviz version 2.43.0 (0)
 -->
<!-- Title: G Pages: 1 -->
<svg width="807pt" height="267pt"
 viewBox="0.00 0.00 807.00 267.00" xmlns="http://www.w3.org/2000/svg" xmlns:xlink="http://www.w3.org/1999/xlink">
<g id="graph0" class="graph" transform="scale(1 1) rotate(0) translate(4 263)">
<title>G</title>
<polygon fill="white" stroke="transparent" points="-4,4 -4,-263 803,-263 803,4 -4,4"/>
<g id="clust1" class="cluster">
<title>cluster_container2</title>
<polygon fill="white" stroke="black" points="110,-108 110,-251 791,-251 791,-108 110,-108"/>
<text text-anchor="middle" x="450.5" y="-235.8" font-family="Times,serif" font-size="14.00">&lt;&lt;execution container&gt;&gt;</text>
<text text-anchor="middle" x="450.5" y="-220.8" font-family="Times,serif" font-size="14.00">SRV0</text>
</g>
<g id="clust2" class="cluster">
<title>cluster_container1</title>
<polygon fill="white" stroke="black" points="596,-8 596,-100 791,-100 791,-8 596,-8"/>
<text text-anchor="middle" x="693.5" y="-84.8" font-family="Times,serif" font-size="14.00">&lt;&lt;execution container&gt;&gt;</text>
<text text-anchor="middle" x="693.5" y="-69.8" font-family="Times,serif" font-size="14.00">SRV1</text>
</g>
<!-- depNode_0 -->
<g id="node1" class="node">
<title>depNode_0</title>
<text text-anchor="middle" x="27" y="-131.3" font-family="Times,serif" font-size="14.00">&#39;Entry&#39;</text>
</g>
<!-- depNode_4 -->
<g id="node4" class="node">
<title>depNode_4</title>
<polygon fill="white" stroke="#000000" points="297,-154 118,-154 118,-116 297,-116 297,-154"/>
<text text-anchor="middle" x="207.5" y="-138.8" font-family="Times,serif" font-size="14.00">&lt;&lt;deployment component&gt;&gt;</text>
<text text-anchor="middle" x="207.5" y="-123.8" font-family="Times,serif" font-size="14.00">@3:..Bookstore</text>
</g>
<!-- depNode_0&#45;&gt;depNode_4 -->
<g id="edge1" class="edge">
<title>depNode_0&#45;&gt;depNode_4</title>
<path fill="none" stroke="#000000" d="M54.34,-135C68.94,-135 88.11,-135 107.9,-135"/>
<polygon fill="#000000" stroke="#000000" points="117.97,-135 107.97,-139.5 112.97,-135 107.97,-135 107.97,-135 107.97,-135 112.97,-135 107.97,-130.5 117.97,-135 117.97,-135"/>
<text text-anchor="middle" x="86" y="-138.8" font-family="Times,serif" font-size="14.00">1635</text>
</g>
<!-- depNode_2 -->
<g id="node2" class="node">
<title>depNode_2</title>
<polygon fill="white" stroke="#000000" points="783,-192 604,-192 604,-154 783,-154 783,-192"/>
<text text-anchor="middle" x="693.5" y="-176.8" font-family="Times,serif" font-size="14.00">&lt;&lt;deployment component&gt;&gt;</text>
<text text-anchor="middle" x="693.5" y="-161.8" font-family="Times,serif" font-size="14.00">@1:..Catalog</text>
</g>
<!-- depNode_3 -->
<g id="node3" class="node">
<title>depNode_3</title>
<polygon fill="white" stroke="#000000" points="540,-154 361,-154 361,-116 540,-116 540,-154"/>
<text text-anchor="middle" x="450.5" y="-138.8" font-family="Times,serif" font-size="14.00">&lt;&lt;deployment component&gt;&gt;</text>
<text text-anchor="middle" x="450.5" y="-123.8" font-family="Times,serif" font-size="14.00">@2:..CRM</text>
</g>
<!-- depNode_3&#45;&gt;depNode_2 -->
<g id="edge2" class="edge">
<title>depNode_3&#45;&gt;depNode_2</title>
<path fill="none" stroke="#000000" d="M540.21,-148.99C557.6,-151.73 575.94,-154.62 593.64,-157.41"/>
<polygon fill="#000000" stroke="#000000" points="603.97,-159.04 593.4,-161.93 599.04,-158.26 594.1,-157.48 594.1,-157.48 594.1,-157.48 599.04,-158.26 594.8,-153.04 603.97,-159.04 603.97,-159.04"/>
<text text-anchor="middle" x="572" y="-158.8" font-family="Times,serif" font-size="14.00">573</text>
</g>
<!-- depNode_1 -->
<g id="node5" class="node">
<title>depNode_1</title>
<polygon fill="white" stroke="#000000" points="783,-54 604,-54 604,-16 783,-16 783,-54"/>
<text text-anchor="middle" x="693.5" y="-38.8" font-family="Times,serif" font-size="14.00">&lt;&lt;deployment component&gt;&gt;</text>
<text text-anchor="middle" x="693.5" y="-23.8" font-family="Times,serif" font-size="14.00">@1:..Catalog</text>
</g>
<!-- depNode_3&#45;&gt;depNode_1 -->
<g id="edge3" class="edge">
<title>depNode_3&#45;&gt;depNode_1</title>
<path fill="none" stroke="#000000" d="M497.4,-115.96C537.14,-99.47 594.73,-75.57 637.04,-58.01"/>
<polygon fill="#000000" stroke="#000000" points="646.36,-54.14 638.85,-62.13 641.75,-56.06 637.13,-57.98 637.13,-57.98 637.13,-57.98 641.75,-56.06 635.4,-53.82 646.36,-54.14 646.36,-54.14"/>
<text text-anchor="middle" x="572" y="-91.8" font-family="Times,serif" font-size="14.00">1062</text>
</g>
<!-- depNode_4&#45;&gt;depNode_2 -->
<g id="edge4" class="edge">
<title>depNode_4&#45;&gt;depNode_2</title>
<path fill="none" stroke="#000000" d="M297.32,-153.25C318.14,-156.99 340.29,-160.53 361,-163 460.42,-174.85 485.88,-174.47 586,-174 588.55,-173.99 591.13,-173.97 593.74,-173.96"/>
<polygon fill="#000000" stroke="#000000" points="603.88,-173.9 593.91,-178.46 598.88,-173.93 593.88,-173.96 593.88,-173.96 593.88,-173.96 598.88,-173.93 593.85,-169.46 603.88,-173.9 603.88,-173.9"/>
<text text-anchor="middle" x="450.5" y="-177.8" font-family="Times,serif" font-size="14.00">543</text>
</g>
<!-- depNode_4&#45;&gt;depNode_3 -->
<g id="edge6" class="edge">
<title>depNode_4&#45;&gt;depNode_3</title>
<path fill="none" stroke="#000000" d="M297.21,-135C314.6,-135 332.94,-135 350.64,-135"/>
<polygon fill="#000000" stroke="#000000" points="360.97,-135 350.97,-139.5 355.97,-135 350.97,-135 350.97,-135 350.97,-135 355.97,-135 350.97,-130.5 360.97,-135 360.97,-135"/>
<text text-anchor="middle" x="329" y="-138.8" font-family="Times,serif" font-size="14.00">1635</text>
</g>
<!-- depNode_4&#45;&gt;depNode_1 -->
<g id="edge5" class="edge">
<title>depNode_4&#45;&gt;depNode_1</title>
<path fill="none" stroke="#000000" d="M270.45,-115.94C298.01,-107.88 330.95,-98.8 361,-92 438.61,-74.44 527.51,-59.42 593.7,-49.22"/>
<polygon fill="#000000" stroke="#000000" points="603.71,-47.69 594.51,-53.65 598.77,-48.44 593.83,-49.2 593.83,-49.2 593.83,-49.2 598.77,-48.44 593.15,-44.75 603.71,-47.69 603.71,-47.69"/>
<text text-anchor="middle" x="450.5" y="-95.8" font-family="Times,serif" font-size="14.00">1092</text>
</g>
</g>
</svg>
