<?xml version="1.0" encoding="UTF-8"?><svg stroke-dasharray="none" shape-rendering="auto" xmlns="http://www.w3.org/2000/svg" font-family="'Dialog'" width="226" text-rendering="auto" fill-opacity="1" contentScriptType="text/ecmascript" color-interpolation="auto" color-rendering="auto" preserveAspectRatio="xMidYMid meet" font-size="12" viewBox="0 0 226 262" fill="black" xmlns:xlink="http://www.w3.org/1999/xlink" stroke="black" image-rendering="auto" stroke-miterlimit="10" zoomAndPan="magnify" version="1.0" stroke-linecap="square" stroke-linejoin="miter" contentStyleType="text/css" font-style="normal" height="262" stroke-width="1" stroke-dashoffset="0" font-weight="normal" stroke-opacity="1">
<!--Generated by the Batik Graphics2D SVG Generator-->
<defs id="genericDefs"/>
<g>
<defs id="defs1">
<clipPath clipPathUnits="userSpaceOnUse" id="clipPath1">
<path d="M48 112 L138 112 L138 149 L48 149 L48 112 Z"/>
</clipPath>
<clipPath clipPathUnits="userSpaceOnUse" id="clipPath2">
<path d="M69 116 L117 116 L117 132 L69 132 L69 116 Z"/>
</clipPath>
<clipPath clipPathUnits="userSpaceOnUse" id="clipPath3">
<path d="M54 132 L132 132 L132 148 L54 148 L54 132 Z"/>
</clipPath>
<clipPath clipPathUnits="userSpaceOnUse" id="clipPath4">
<path d="M49 132 L137 132 L137 148 L49 148 L49 132 Z"/>
</clipPath>
<clipPath clipPathUnits="userSpaceOnUse" id="clipPath5">
<path d="M48 212 L129 212 L129 249 L48 249 L48 212 Z"/>
</clipPath>
<clipPath clipPathUnits="userSpaceOnUse" id="clipPath6">
<path d="M68 216 L108 216 L108 232 L68 232 L68 216 Z"/>
</clipPath>
<clipPath clipPathUnits="userSpaceOnUse" id="clipPath7">
<path d="M54 232 L116 232 L116 248 L54 248 L54 232 Z"/>
</clipPath>
<clipPath clipPathUnits="userSpaceOnUse" id="clipPath8">
<path d="M49 232 L128 232 L128 248 L49 248 L49 232 Z"/>
</clipPath>
<clipPath clipPathUnits="userSpaceOnUse" id="clipPath9">
<path d="M135 160 L217 160 L217 197 L135 197 L135 160 Z"/>
</clipPath>
<clipPath clipPathUnits="userSpaceOnUse" id="clipPath10">
<path d="M163 164 L189 164 L189 180 L163 180 L163 164 Z"/>
</clipPath>
<clipPath clipPathUnits="userSpaceOnUse" id="clipPath11">
<path d="M142 180 L208 180 L208 196 L142 196 L142 180 Z"/>
</clipPath>
<clipPath clipPathUnits="userSpaceOnUse" id="clipPath12">
<path d="M136 180 L216 180 L216 196 L136 196 L136 180 Z"/>
</clipPath>
<clipPath clipPathUnits="userSpaceOnUse" id="clipPath13">
<path d="M48 8 L148 8 L148 46 L48 46 L48 8 Z"/>
</clipPath>
<clipPath clipPathUnits="userSpaceOnUse" id="clipPath14">
<path d="M59 12 L138 12 L138 28 L59 28 L59 12 Z"/>
</clipPath>
<clipPath clipPathUnits="userSpaceOnUse" id="clipPath15">
<path d="M54 29 L102 29 L102 44 L54 44 L54 29 Z"/>
</clipPath>
<clipPath clipPathUnits="userSpaceOnUse" id="clipPath16">
<path d="M49 28 L147 28 L147 45 L49 45 L49 28 Z"/>
</clipPath>
<clipPath clipPathUnits="userSpaceOnUse" id="clipPath17">
<path d="M-1 -1 L227 -1 L227 263 L-1 263 L-1 -1 Z"/>
</clipPath>
<clipPath clipPathUnits="userSpaceOnUse" id="clipPath18">
<path d="M75 196 L120 196 L120 212 L75 212 L75 196 Z"/>
</clipPath>
<clipPath clipPathUnits="userSpaceOnUse" id="clipPath19">
<path d="M63 146 L75 146 L75 166 L63 166 L63 146 Z"/>
</clipPath>
<clipPath clipPathUnits="userSpaceOnUse" id="clipPath20">
<path d="M63 204 L75 204 L75 216 L63 216 L63 204 Z"/>
</clipPath>
<clipPath clipPathUnits="userSpaceOnUse" id="clipPath21">
<path d="M155 145 L182 145 L182 161 L155 161 L155 145 Z"/>
</clipPath>
<clipPath clipPathUnits="userSpaceOnUse" id="clipPath22">
<path d="M135 119 L156 119 L156 131 L135 131 L135 119 Z"/>
</clipPath>
<clipPath clipPathUnits="userSpaceOnUse" id="clipPath23">
<path d="M182 152 L194 152 L194 164 L182 164 L182 152 Z"/>
</clipPath>
<clipPath clipPathUnits="userSpaceOnUse" id="clipPath24">
<path d="M133 224 L178 224 L178 240 L133 240 L133 224 Z"/>
</clipPath>
<clipPath clipPathUnits="userSpaceOnUse" id="clipPath25">
<path d="M126 215 L138 215 L138 227 L126 227 L126 215 Z"/>
</clipPath>
<clipPath clipPathUnits="userSpaceOnUse" id="clipPath26">
<path d="M75 90 L128 90 L128 106 L75 106 L75 90 Z"/>
</clipPath>
<clipPath clipPathUnits="userSpaceOnUse" id="clipPath27">
<path d="M63 104 L75 104 L75 117 L63 117 L63 104 Z"/>
</clipPath>
</defs>
<g font-size="10" fill="white" font-family="'Arial'" stroke-linejoin="round" stroke="white" stroke-miterlimit="0">
<rect x="50" y="114" clip-path="url(#clipPath1)" width="86" height="33" stroke="none"/>
<text x="70" y="127" clip-path="url(#clipPath2)" fill="black" stroke="none" xml:space="preserve">Bookstore</text>
<text x="55" y="143" clip-path="url(#clipPath3)" fill="black" stroke="none" xml:space="preserve">+ searchBook ( )</text>
<line clip-path="url(#clipPath4)" fill="none" x1="50" x2="135" y1="133" y2="133" stroke="black"/>
<rect x="49" y="114" clip-path="url(#clipPath1)" fill="none" width="87" height="33" stroke="black"/>
<rect x="50" y="214" clip-path="url(#clipPath5)" width="77" height="33" stroke="none"/>
<text x="69" y="227" clip-path="url(#clipPath6)" fill="black" stroke="none" xml:space="preserve">Catalog</text>
<text x="55" y="243" clip-path="url(#clipPath7)" fill="black" stroke="none" xml:space="preserve">+ getBook ( )</text>
<line clip-path="url(#clipPath8)" fill="none" x1="50" x2="126" y1="233" y2="233" stroke="black"/>
<rect x="49" y="213" clip-path="url(#clipPath5)" fill="none" width="78" height="33" stroke="black"/>
<rect x="137" y="162" clip-path="url(#clipPath9)" width="78" height="33" stroke="none"/>
<text x="164" y="175" clip-path="url(#clipPath10)" fill="black" stroke="none" xml:space="preserve">CRM</text>
<text x="143" y="191" clip-path="url(#clipPath11)" fill="black" stroke="none" xml:space="preserve">+ getOffers ( )</text>
<line clip-path="url(#clipPath12)" fill="none" x1="137" x2="214" y1="181" y2="181" stroke="black"/>
<rect x="137" y="161" clip-path="url(#clipPath9)" fill="none" width="78" height="34" stroke="black"/>
<rect x="50" y="10" clip-path="url(#clipPath13)" width="96" height="33" stroke="none"/>
<text x="60" y="23" clip-path="url(#clipPath14)" fill="black" stroke="none" xml:space="preserve">BookstoreStarter</text>
<text x="55" y="40" clip-path="url(#clipPath15)" fill="black" stroke="none" xml:space="preserve">+ main ( )</text>
<line clip-path="url(#clipPath15)" fill="none" x1="55" x2="100" y1="40" y2="40" stroke="black"/>
<line clip-path="url(#clipPath16)" fill="none" x1="50" x2="145" y1="29" y2="29" stroke="black"/>
<rect x="49" y="10" clip-path="url(#clipPath13)" fill="none" width="97" height="33" stroke="black"/>
<line clip-path="url(#clipPath17)" fill="none" x1="68" x2="68" y1="147" y2="214" stroke="black"/>
<text x="76" y="207" clip-path="url(#clipPath18)" fill="black" stroke="none" xml:space="preserve">- catalog</text>
<polygon fill="black" clip-path="url(#clipPath19)" points=" 68 147 73 156 68 164 64 156" stroke="none"/>
<polygon fill="none" clip-path="url(#clipPath19)" points=" 68 147 73 156 68 164 64 156" stroke="black"/>
<line clip-path="url(#clipPath20)" fill="none" x1="64" x2="68" y1="205" y2="214" stroke="black"/>
<line clip-path="url(#clipPath20)" fill="none" x1="68" x2="73" y1="214" y2="205" stroke="black"/>
<line clip-path="url(#clipPath17)" fill="none" x1="136" x2="187" y1="125" y2="125" stroke="black"/>
<line clip-path="url(#clipPath17)" fill="none" x1="187" x2="187" y1="125" y2="162" stroke="black"/>
<text x="156" y="156" clip-path="url(#clipPath21)" fill="black" stroke="none" xml:space="preserve">- crm</text>
<polygon fill="black" clip-path="url(#clipPath22)" points=" 136 125 145 120 153 125 145 129" stroke="none"/>
<polygon fill="none" clip-path="url(#clipPath22)" points=" 136 125 145 120 153 125 145 129" stroke="black"/>
<line clip-path="url(#clipPath23)" fill="none" x1="183" x2="187" y1="154" y2="162" stroke="black"/>
<line clip-path="url(#clipPath23)" fill="none" x1="187" x2="192" y1="162" y2="154" stroke="black"/>
<line clip-path="url(#clipPath17)" fill="none" x1="187" x2="187" y1="195" y2="221" stroke="black"/>
<line clip-path="url(#clipPath17)" fill="none" x1="187" x2="127" y1="221" y2="221" stroke="black"/>
<text x="134" y="235" clip-path="url(#clipPath24)" fill="black" stroke="none" xml:space="preserve">- catalog</text>
<line clip-path="url(#clipPath25)" fill="none" x1="136" x2="127" y1="216" y2="221" stroke="black"/>
<line clip-path="url(#clipPath25)" fill="none" x1="127" x2="136" y1="221" y2="225" stroke="black"/>
<line clip-path="url(#clipPath17)" fill="none" x1="68" x2="68" y1="44" y2="114" stroke="black"/>
<text x="76" y="101" clip-path="url(#clipPath26)" fill="black" stroke="none" xml:space="preserve">- bookstore</text>
<line clip-path="url(#clipPath27)" fill="none" x1="64" x2="68" y1="106" y2="114" stroke="black"/>
<line clip-path="url(#clipPath27)" fill="none" x1="68" x2="73" y1="114" y2="106" stroke="black"/>
</g>
</g>
</svg>