<?xml version="1.0" encoding="UTF-8" standalone="no"?>
<svg
   xmlns:dc="http://purl.org/dc/elements/1.1/"
   xmlns:cc="http://creativecommons.org/ns#"
   xmlns:rdf="http://www.w3.org/1999/02/22-rdf-syntax-ns#"
   xmlns:svg="http://www.w3.org/2000/svg"
   xmlns="http://www.w3.org/2000/svg"
   xmlns:sodipodi="http://sodipodi.sourceforge.net/DTD/sodipodi-0.dtd"
   xmlns:inkscape="http://www.inkscape.org/namespaces/inkscape"
   shape-rendering="auto"
   width="480.62567"
   text-rendering="auto"
   contentScriptType="text/ecmascript"
   color-interpolation="auto"
   color-rendering="auto"
   preserveAspectRatio="xMidYMid meet"
   font-size="12"
   viewBox="0 0 480.62567 204.86438"
   image-rendering="auto"
   stroke-miterlimit="10"
   zoomAndPan="magnify"
   version="1.0"
   contentStyleType="text/css"
   font-style="normal"
   height="204.86438"
   font-weight="normal"
   id="svg2"
   inkscape:version="0.48.4 r9939"
   sodipodi:docname="kieker_MyRTRecord-modified.svg"
   style="font-size:12px;font-style:normal;font-weight:normal;fill:#000000;fill-opacity:1;stroke:#000000;stroke-width:1;stroke-linecap:square;stroke-linejoin:miter;stroke-miterlimit:10;stroke-opacity:1;stroke-dasharray:none;stroke-dashoffset:0;font-family:Dialog">
  <line
     clip-path="url(#clipPath29-0)"
     x1="270"
     x2="230"
     y1="35"
     y2="35"
     id="line176-6"
     style="font-size:10px;font-style:normal;font-weight:normal;fill:none;stroke:#000000;stroke-width:1;stroke-linecap:square;stroke-linejoin:round;stroke-miterlimit:0;stroke-opacity:1;stroke-dasharray:3, 3;stroke-dashoffset:0;font-family:Arial"
     transform="translate(-10.122981,91.506169)" />
  <rect
     style="font-size:12px;font-style:normal;font-weight:normal;fill:#ffffff;stroke:#000000;stroke-width:1;stroke-linecap:square;stroke-linejoin:miter;stroke-miterlimit:10;stroke-opacity:1;stroke-dasharray:none;stroke-dashoffset:0;font-family:Dialog"
     id="rect4327-8"
     width="224.68301"
     height="132.015"
     x="255.44269"
     y="72.39769" />
  <rect
     style="fill:none;stroke:#000000;stroke-width:1;stroke-miterlimit:10;stroke-opacity:1;stroke-dasharray:none"
     id="rect4327"
     width="220"
     height="43.578999"
     x="0.78129029"
     y="113.36545" />
  <line
     clip-path="url(#clipPath29)"
     x1="270"
     x2="230"
     y1="35"
     y2="35"
     id="line176"
     style="font-size:10px;fill:none;stroke:#000000;stroke-linejoin:round;stroke-miterlimit:0;stroke-dasharray:3, 3;font-family:Arial"
     transform="translate(-10.87434,-9.4977981)" />
  <line
     clip-path="url(#clipPath29)"
     x1="379"
     x2="379"
     y1="98"
     y2="67"
     id="line186"
     style="font-size:11px;fill:none;stroke-width:1.0607754;stroke-linejoin:round;stroke-miterlimit:0"
     transform="matrix(1,0,0,0.88869572,-8.8743402,-13.524477)" />
  <metadata
     id="metadata196">
    <rdf:RDF>
      <cc:Work
         rdf:about="">
        <dc:format>image/svg+xml</dc:format>
        <dc:type
           rdf:resource="http://purl.org/dc/dcmitype/StillImage" />
        <dc:title />
      </cc:Work>
    </rdf:RDF>
  </metadata>
  <sodipodi:namedview
     pagecolor="#ffffff"
     bordercolor="#666666"
     borderopacity="1"
     objecttolerance="10"
     gridtolerance="10"
     guidetolerance="10"
     inkscape:pageopacity="0"
     inkscape:pageshadow="2"
     inkscape:window-width="1920"
     inkscape:window-height="1018"
     id="namedview194"
     showgrid="false"
     inkscape:zoom="2.1439999"
     inkscape:cx="328.62964"
     inkscape:cy="49.221063"
     inkscape:window-x="-8"
     inkscape:window-y="-8"
     inkscape:window-maximized="1"
     inkscape:current-layer="svg2"
     fit-margin-top="0"
     fit-margin-left="0"
     fit-margin-right="0"
     fit-margin-bottom="0" />
  <!--Generated by the Batik Graphics2D SVG Generator-->
  <polygon
     clip-path="url(#clipPath30)"
     points="240,30 240,40 230,35 "
     id="polygon178"
     style="font-size:10px;fill:#ffffff;stroke:none;font-family:Arial"
     transform="translate(-8.8743402,-9.4977981)" />
  <polygon
     clip-path="url(#clipPath30)"
     points="240,30 240,40 230,35 "
     id="polygon180"
     style="font-size:10px;fill:none;stroke:#000000;stroke-linejoin:round;stroke-miterlimit:0;font-family:Arial"
     transform="translate(-8.8743402,-9.4977981)" />
  <defs
     id="genericDefs">
    <inkscape:perspective
       sodipodi:type="inkscape:persp3d"
       inkscape:vp_x="0 : 103.5 : 1"
       inkscape:vp_y="0 : 1000 : 0"
       inkscape:vp_z="500 : 103.5 : 1"
       inkscape:persp3d-origin="250 : 69 : 1"
       id="perspective198" />
    <defs
       id="defs1">
      <clipPath
         id="clipPath1"
         clipPathUnits="userSpaceOnUse">
        <path
           id="path9"
           d="m 268,8 224,0 0,61 -224,0 0,-61 z"
           inkscape:connector-curvature="0" />
      </clipPath>
      <clipPath
         id="clipPath2"
         clipPathUnits="userSpaceOnUse">
        <path
           id="path12"
           d="m 317,12 126,0 0,16 -126,0 0,-16 z"
           inkscape:connector-curvature="0" />
      </clipPath>
      <clipPath
         id="clipPath3"
         clipPathUnits="userSpaceOnUse">
        <path
           id="path15"
           d="m 314,25 131,0 0,14 -131,0 0,-14 z"
           inkscape:connector-curvature="0" />
      </clipPath>
      <clipPath
         id="clipPath4"
         clipPathUnits="userSpaceOnUse">
        <path
           id="path18"
           d="m 274,39 211,0 0,16 -211,0 0,-16 z"
           inkscape:connector-curvature="0" />
      </clipPath>
      <clipPath
         id="clipPath5"
         clipPathUnits="userSpaceOnUse">
        <path
           id="path21"
           d="m 274,52 161,0 0,16 -161,0 0,-16 z"
           inkscape:connector-curvature="0" />
      </clipPath>
      <clipPath
         id="clipPath6"
         clipPathUnits="userSpaceOnUse">
        <path
           id="path24"
           d="m 269,39 222,0 0,29 -222,0 0,-29 z"
           inkscape:connector-curvature="0" />
      </clipPath>
      <clipPath
         id="clipPath7"
         clipPathUnits="userSpaceOnUse">
        <path
           id="path27"
           d="m 268,9 19,0 0,19 -19,0 0,-19 z"
           inkscape:connector-curvature="0" />
      </clipPath>
      <clipPath
         id="clipPath8"
         clipPathUnits="userSpaceOnUse">
        <path
           id="path30"
           d="M 8,8 232,8 232,121 8,121 8,8 z"
           inkscape:connector-curvature="0" />
      </clipPath>
      <clipPath
         id="clipPath9"
         clipPathUnits="userSpaceOnUse">
        <path
           id="path33"
           d="m 92,12 57,0 0,16 -57,0 0,-16 z"
           inkscape:connector-curvature="0" />
      </clipPath>
      <clipPath
         id="clipPath10"
         clipPathUnits="userSpaceOnUse">
        <path
           id="path36"
           d="m 75,25 91,0 0,16 -91,0 0,-16 z"
           inkscape:connector-curvature="0" />
      </clipPath>
      <clipPath
         id="clipPath11"
         clipPathUnits="userSpaceOnUse">
        <path
           id="path39"
           d="m 55,38 131,0 0,14 -131,0 0,-14 z"
           inkscape:connector-curvature="0" />
      </clipPath>
      <clipPath
         id="clipPath12"
         clipPathUnits="userSpaceOnUse">
        <path
           id="path42"
           d="m 15,52 211,0 0,16 -211,0 0,-16 z"
           inkscape:connector-curvature="0" />
      </clipPath>
      <clipPath
         id="clipPath13"
         clipPathUnits="userSpaceOnUse">
        <path
           id="path45"
           d="m 15,65 161,0 0,16 -161,0 0,-16 z"
           inkscape:connector-curvature="0" />
      </clipPath>
      <clipPath
         id="clipPath14"
         clipPathUnits="userSpaceOnUse">
        <path
           id="path48"
           d="m 15,78 174,0 0,16 -174,0 0,-16 z"
           inkscape:connector-curvature="0" />
      </clipPath>
      <clipPath
         id="clipPath15"
         clipPathUnits="userSpaceOnUse">
        <path
           id="path51"
           d="m 15,91 111,0 0,16 -111,0 0,-16 z"
           inkscape:connector-curvature="0" />
      </clipPath>
      <clipPath
         id="clipPath16"
         clipPathUnits="userSpaceOnUse">
        <path
           id="path54"
           d="m 15,104 141,0 0,16 -141,0 0,-16 z"
           inkscape:connector-curvature="0" />
      </clipPath>
      <clipPath
         id="clipPath17"
         clipPathUnits="userSpaceOnUse">
        <path
           id="path57"
           d="m 9,52 222,0 0,68 -222,0 0,-68 z"
           inkscape:connector-curvature="0" />
      </clipPath>
      <clipPath
         id="clipPath18"
         clipPathUnits="userSpaceOnUse">
        <path
           id="path60"
           d="M 9,9 28,9 28,28 9,28 9,9 z"
           inkscape:connector-curvature="0" />
      </clipPath>
      <clipPath
         id="clipPath19"
         clipPathUnits="userSpaceOnUse">
        <path
           id="path63"
           d="m 285,96 189,0 0,102 -189,0 0,-102 z"
           inkscape:connector-curvature="0" />
      </clipPath>
      <clipPath
         id="clipPath20"
         clipPathUnits="userSpaceOnUse">
        <path
           id="path66"
           d="m 319,100 121,0 0,16 -121,0 0,-16 z"
           inkscape:connector-curvature="0" />
      </clipPath>
      <clipPath
         id="clipPath21"
         clipPathUnits="userSpaceOnUse">
        <path
           id="path69"
           d="m 292,116 100,0 0,16 -100,0 0,-16 z"
           inkscape:connector-curvature="0" />
      </clipPath>
      <clipPath
         id="clipPath22"
         clipPathUnits="userSpaceOnUse">
        <path
           id="path72"
           d="m 292,129 113,0 0,16 -113,0 0,-16 z"
           inkscape:connector-curvature="0" />
      </clipPath>
      <clipPath
         id="clipPath23"
         clipPathUnits="userSpaceOnUse">
        <path
           id="path75"
           d="m 292,142 137,0 0,16 -137,0 0,-16 z"
           inkscape:connector-curvature="0" />
      </clipPath>
      <clipPath
         id="clipPath24"
         clipPathUnits="userSpaceOnUse">
        <path
           id="path78"
           d="m 286,116 187,0 0,42 -187,0 0,-42 z"
           inkscape:connector-curvature="0" />
      </clipPath>
      <clipPath
         id="clipPath25"
         clipPathUnits="userSpaceOnUse">
        <path
           id="path81"
           d="m 292,155 176,0 0,16 -176,0 0,-16 z"
           inkscape:connector-curvature="0" />
      </clipPath>
      <clipPath
         id="clipPath26"
         clipPathUnits="userSpaceOnUse">
        <path
           id="path84"
           d="m 292,168 113,0 0,16 -113,0 0,-16 z"
           inkscape:connector-curvature="0" />
      </clipPath>
      <clipPath
         id="clipPath27"
         clipPathUnits="userSpaceOnUse">
        <path
           id="path87"
           d="m 292,181 143,0 0,16 -143,0 0,-16 z"
           inkscape:connector-curvature="0" />
      </clipPath>
      <clipPath
         id="clipPath28"
         clipPathUnits="userSpaceOnUse">
        <path
           id="path90"
           d="m 286,155 187,0 0,42 -187,0 0,-42 z"
           inkscape:connector-curvature="0" />
      </clipPath>
      <clipPath
         id="clipPath29"
         clipPathUnits="userSpaceOnUse">
        <path
           id="path93"
           d="m -1,-1 502,0 0,209 -502,0 0,-209 z"
           inkscape:connector-curvature="0" />
      </clipPath>
      <clipPath
         id="clipPath30"
         clipPathUnits="userSpaceOnUse">
        <path
           id="path96"
           d="m 229,28 14,0 0,14 -14,0 0,-14 z"
           inkscape:connector-curvature="0" />
      </clipPath>
      <clipPath
         id="clipPath31"
         clipPathUnits="userSpaceOnUse">
        <path
           id="path99"
           d="m 241,25 19,0 0,19 -19,0 0,-19 z"
           inkscape:connector-curvature="0" />
      </clipPath>
      <clipPath
         id="clipPath32"
         clipPathUnits="userSpaceOnUse">
        <path
           id="path102"
           d="m 374,66 12,0 0,12 -12,0 0,-12 z"
           inkscape:connector-curvature="0" />
      </clipPath>
    </defs>
    <clipPath
       id="clipPath8-2"
       clipPathUnits="userSpaceOnUse">
      <path
         inkscape:connector-curvature="0"
         id="path30-7"
         d="M 8,8 232,8 232,121 8,121 8,8 z" />
    </clipPath>
    <clipPath
       id="clipPath9-6"
       clipPathUnits="userSpaceOnUse">
      <path
         inkscape:connector-curvature="0"
         id="path33-2"
         d="m 92,12 57,0 0,16 -57,0 0,-16 z" />
    </clipPath>
    <clipPath
       id="clipPath11-9"
       clipPathUnits="userSpaceOnUse">
      <path
         inkscape:connector-curvature="0"
         id="path39-5"
         d="m 55,38 131,0 0,14 -131,0 0,-14 z" />
    </clipPath>
    <clipPath
       id="clipPath12-2"
       clipPathUnits="userSpaceOnUse">
      <path
         inkscape:connector-curvature="0"
         id="path42-6"
         d="m 15,52 211,0 0,16 -211,0 0,-16 z" />
    </clipPath>
    <clipPath
       id="clipPath13-2"
       clipPathUnits="userSpaceOnUse">
      <path
         inkscape:connector-curvature="0"
         id="path45-7"
         d="m 15,65 161,0 0,16 -161,0 0,-16 z" />
    </clipPath>
    <clipPath
       id="clipPath14-7"
       clipPathUnits="userSpaceOnUse">
      <path
         inkscape:connector-curvature="0"
         id="path48-5"
         d="m 15,78 174,0 0,16 -174,0 0,-16 z" />
    </clipPath>
    <clipPath
       id="clipPath15-5"
       clipPathUnits="userSpaceOnUse">
      <path
         inkscape:connector-curvature="0"
         id="path51-1"
         d="m 15,91 111,0 0,16 -111,0 0,-16 z" />
    </clipPath>
    <clipPath
       id="clipPath16-7"
       clipPathUnits="userSpaceOnUse">
      <path
         inkscape:connector-curvature="0"
         id="path54-7"
         d="m 15,104 141,0 0,16 -141,0 0,-16 z" />
    </clipPath>
    <clipPath
       id="clipPath17-4"
       clipPathUnits="userSpaceOnUse">
      <path
         inkscape:connector-curvature="0"
         id="path57-5"
         d="m 9,52 222,0 0,68 -222,0 0,-68 z" />
    </clipPath>
    <clipPath
       id="clipPath3115"
       clipPathUnits="userSpaceOnUse">
      <path
         inkscape:connector-curvature="0"
         id="path3117"
         d="M 8,8 232,8 232,121 8,121 8,8 z" />
    </clipPath>
    <clipPath
       id="clipPath28-5"
       clipPathUnits="userSpaceOnUse">
      <path
         inkscape:connector-curvature="0"
         id="path90-6"
         d="m 286,155 187,0 0,42 -187,0 0,-42 z" />
    </clipPath>
    <clipPath
       id="clipPath28-5-3"
       clipPathUnits="userSpaceOnUse">
      <path
         inkscape:connector-curvature="0"
         id="path90-6-2"
         d="m 286,155 187,0 0,42 -187,0 0,-42 z" />
    </clipPath>
    <clipPath
       id="clipPath30-1"
       clipPathUnits="userSpaceOnUse">
      <path
         id="path96-4"
         d="m 229,28 14,0 0,14 -14,0 0,-14 z"
         inkscape:connector-curvature="0" />
    </clipPath>
    <clipPath
       id="clipPath3364"
       clipPathUnits="userSpaceOnUse">
      <path
         id="path3366"
         d="m 229,28 14,0 0,14 -14,0 0,-14 z"
         inkscape:connector-curvature="0" />
    </clipPath>
    <clipPath
       id="clipPath29-0"
       clipPathUnits="userSpaceOnUse">
      <path
         id="path93-9"
         d="m -1,-1 502,0 0,209 -502,0 0,-209 z"
         inkscape:connector-curvature="0" />
    </clipPath>
  </defs>
  <g
     style="font-size:10px;fill:#ffffff;stroke:#ffffff;stroke-linejoin:round;stroke-miterlimit:0;font-family:Arial"
     id="g104"
     stroke-miterlimit="0"
     font-size="10"
     transform="translate(-8.8743402,-9.4977981)">
    <rect
       style="stroke:none"
       id="rect106"
       height="57"
       width="219"
       clip-path="url(#clipPath1)"
       y="10"
       x="270" />
    <text
       style="font-style:italic;fill:#000000;stroke:none"
       id="text108"
       xml:space="preserve"
       font-style="italic"
       clip-path="url(#clipPath2)"
       y="23"
       x="318">AbstractMonitoringRecord</text>
    <text
       style="font-size:9px;fill:#000000;stroke:none"
       id="text110"
       xml:space="preserve"
       clip-path="url(#clipPath3)"
       y="35"
       x="315"
       font-size="9">(from kieker::common::record)</text>
    <text
       style="fill:#000000;stroke:none"
       id="text112"
       xml:space="preserve"
       clip-path="url(#clipPath4)"
       y="50"
       x="275">+ setLoggingTimestamp ( timestamp : long )</text>
    <text
       style="fill:#000000;stroke:none"
       id="text114"
       xml:space="preserve"
       clip-path="url(#clipPath5)"
       y="63"
       x="275">+ getLoggingTimestamp ( ) : long</text>
    <line
       style="fill:none;stroke:#000000"
       id="line116"
       y2="40"
       y1="40"
       x2="488"
       x1="270"
       clip-path="url(#clipPath6)" />
    <rect
       style="fill:none;stroke:#000000"
       id="rect118"
       height="57"
       width="220"
       clip-path="url(#clipPath1)"
       y="10"
       x="269" />
  </g>
  <g
     style="font-size:10px;fill:#ffffff;stroke:#ffffff;stroke-linejoin:round;stroke-miterlimit:0;font-family:Arial"
     id="g124"
     stroke-miterlimit="0"
     font-size="10"
     transform="translate(-8.8743402,-9.4977981)">
    <rect
       style="stroke:none"
       id="rect126"
       height="109"
       width="220"
       clip-path="url(#clipPath8)"
       y="10"
       x="10" />
    <text
       style="fill:#000000;stroke:none"
       id="text128"
       xml:space="preserve"
       clip-path="url(#clipPath9)"
       y="23"
       x="93">«interface»</text>
    <text
       style="fill:#000000;stroke:none"
       id="text130"
       xml:space="preserve"
       clip-path="url(#clipPath10)"
       y="36"
       x="76">IMonitoringRecord</text>
    <text
       style="font-size:9px;fill:#000000;stroke:none"
       id="text132"
       xml:space="preserve"
       clip-path="url(#clipPath11)"
       y="48"
       x="56"
       font-size="9">(from kieker::common::record)</text>
    <text
       style="fill:#000000;stroke:none"
       id="text134"
       xml:space="preserve"
       clip-path="url(#clipPath12)"
       y="63"
       x="16">+ setLoggingTimestamp ( timestamp : long )</text>
    <text
       style="fill:#000000;stroke:none"
       id="text136"
       xml:space="preserve"
       clip-path="url(#clipPath13)"
       y="76"
       x="16">+ getLoggingTimestamp ( ) : long</text>
    <text
       style="fill:#000000;stroke:none"
       id="text138"
       xml:space="preserve"
       clip-path="url(#clipPath14)"
       y="89"
       x="16">+ initFromArray ( values : Object [*] )</text>
    <text
       style="fill:#000000;stroke:none"
       id="text140"
       xml:space="preserve"
       clip-path="url(#clipPath15)"
       y="102"
       x="16">+ toArray ( ) : Object [*]</text>
    <text
       style="fill:#000000;stroke:none"
       id="text142"
       xml:space="preserve"
       clip-path="url(#clipPath16)"
       y="115"
       x="16">+ getValueTypes ( ) : Class [*]</text>
    <line
       style="fill:none;stroke:#000000"
       id="line144"
       y2="53"
       y1="53"
       x2="229"
       x1="10"
       clip-path="url(#clipPath17)" />
    <rect
       style="fill:none;stroke:#000000"
       id="rect146"
       height="109"
       width="220"
       clip-path="url(#clipPath8)"
       y="10"
       x="10" />
  </g>
  <g
     style="font-size:10px;fill:#ffffff;stroke:#ffffff;stroke-linejoin:round;stroke-miterlimit:0;font-family:Arial"
     id="g188"
     stroke-miterlimit="0"
     font-size="10"
     transform="translate(-8.8743402,-9.4977981)">
    <polygon
       style="stroke:none"
       id="polygon190"
       points="375,76 379,67 384,76 "
       clip-path="url(#clipPath32)" />
    <polygon
       style="fill:none;stroke:#000000"
       id="polygon192"
       points="375,76 379,67 384,76 "
       clip-path="url(#clipPath32)" />
  </g>
  <text
     x="93"
     y="23"
     clip-path="url(#clipPath9-6)"
     xml:space="preserve"
     id="text128-0"
     style="font-size:10px;font-style:normal;font-weight:normal;fill:#000000;fill-opacity:1;stroke:none;font-family:Arial"
     transform="translate(-9.2187097,104.56567)">«interface»</text>
  <text
     x="51.403851"
     y="140.56567"
     clip-path="none"
     xml:space="preserve"
     id="text130-6"
     style="font-size:10px;font-style:normal;font-weight:normal;fill:#000000;fill-opacity:1;stroke:none;font-family:Arial">IMonitoringRecord.Factory</text>
  <text
     font-size="9"
     x="56"
     y="48"
     clip-path="url(#clipPath11-9)"
     xml:space="preserve"
     id="text132-0"
     style="font-size:9px;font-style:normal;font-weight:normal;fill:#000000;fill-opacity:1;stroke:none;font-family:Arial"
     transform="translate(-9.2187097,104.56567)">(from kieker::common::record)</text>
  <text
     x="320"
     y="111"
     clip-path="url(#clipPath20)"
     xml:space="preserve"
     id="text156"
     style="font-size:10px;fill:#000000;stroke:none;font-family:Arial"
     transform="translate(-31.9863,-26.197425)">MyResponseTimeRecord</text>
  <text
     x="293"
     y="127"
     clip-path="url(#clipPath21)"
     xml:space="preserve"
     id="text158"
     style="font-size:10px;fill:#000000;stroke:none;font-family:Arial"
     transform="translate(-31.9863,-10.197425)">+ className : String</text>
  <text
     x="293"
     y="140"
     clip-path="url(#clipPath22)"
     xml:space="preserve"
     id="text160"
     style="font-size:10px;fill:#000000;stroke:none;font-family:Arial"
     transform="translate(-31.9863,-10.197425)">+ methodName : String</text>
  <text
     x="293"
     y="153"
     clip-path="url(#clipPath23)"
     xml:space="preserve"
     id="text162"
     style="font-size:10px;fill:#000000;stroke:none;font-family:Arial"
     transform="translate(-31.9863,-10.197425)">+ responseTimeNanos : long</text>
  <line
     clip-path="url(#clipPath24)"
     x1="287"
     x2="471"
     y1="117"
     y2="117"
     id="line164"
     style="font-size:10px;fill:none;stroke:#000000;stroke-width:0.90740424;stroke-linejoin:round;stroke-miterlimit:0;font-family:Arial"
     transform="matrix(1.2145024,0,0,1,-93.119473,-26.197425)" />
  <text
     x="293"
     y="166"
     clip-path="url(#clipPath25)"
     xml:space="preserve"
     id="text166"
     style="font-size:10px;fill:#000000;stroke:none;font-family:Arial"
     transform="translate(-31.9863,4.989143)">+ initFromArray ( values : Object [3] )</text>
  <text
     x="293"
     y="179"
     clip-path="url(#clipPath26)"
     xml:space="preserve"
     id="text168"
     style="font-size:10px;fill:#000000;stroke:none;font-family:Arial"
     transform="translate(-31.9863,4.989143)">+ toArray ( ) : Object [3]</text>
  <text
     x="293"
     y="192"
     clip-path="url(#clipPath27)"
     xml:space="preserve"
     id="text170"
     style="font-size:10px;fill:#000000;stroke:none;font-family:Arial"
     transform="translate(-31.9863,4.989143)">+ getValueTypes ( ) : Class [3]</text>
  <line
     clip-path="url(#clipPath28)"
     x1="287"
     x2="471"
     y1="156"
     y2="156"
     id="line172"
     style="font-size:10px;fill:none;stroke:#000000;stroke-width:0.90740424;stroke-linejoin:round;stroke-miterlimit:0;font-family:Arial"
     transform="matrix(1.2145024,0,0,1,-93.119473,-9.6041411)" />
  <text
     x="261.0137"
     y="157.30336"
     clip-path="none"
     xml:space="preserve"
     id="text166-7"
     style="font-size:10px;font-style:normal;font-weight:normal;fill:#000000;fill-opacity:1;stroke:none;font-family:Arial">+ MyResponseTimeRecord ( values : Object [3] )</text>
  <text
     x="261.0137"
     y="102.46136"
     clip-path="none"
     xml:space="preserve"
     id="text158-6"
     style="font-size:10px;font-style:normal;font-weight:normal;fill:#000000;fill-opacity:1;stroke:none;font-family:Arial">+ TYPES : Class&lt;?&gt;[] {...}</text>
  <polygon
     clip-path="url(#clipPath30-1)"
     points="240,30 240,40 230,35 "
     id="polygon178-2"
     style="font-size:10px;font-style:normal;font-weight:normal;fill:#ffffff;fill-opacity:1;stroke:none;font-family:Arial"
     transform="translate(-6.8743402,91.506169)" />
  <polygon
     clip-path="url(#clipPath30-1)"
     points="240,40 230,35 240,30 "
     id="polygon180-2"
     style="font-size:10px;font-style:normal;font-weight:normal;fill:#ffffff;stroke:#000000;stroke-width:1;stroke-linecap:square;stroke-linejoin:round;stroke-miterlimit:0;stroke-opacity:1;stroke-dasharray:none;stroke-dashoffset:0;font-family:Arial"
     transform="translate(-8.5445329,91.506169)" />
  <path
     style="fill:none;stroke:#000000;stroke-width:1px;stroke-linecap:butt;stroke-linejoin:miter;stroke-opacity:1"
     d="m 270.5224,106.11811 106.11007,0"
     id="path4442"
     inkscape:connector-curvature="0" />
  <path
     style="font-size:12px;font-style:normal;font-weight:normal;fill:none;stroke:#000000;stroke-width:1px;stroke-linecap:butt;stroke-linejoin:miter;stroke-miterlimit:10;stroke-opacity:1;stroke-dasharray:none;stroke-dashoffset:0;font-family:Dialog"
     d="m 270.5224,160.32147 205.45756,0"
     id="path4442-2"
     inkscape:connector-curvature="0" />
</svg>
