<?xml version="1.0" encoding="UTF-8" standalone="no"?>
<svg
   xmlns:dc="http://purl.org/dc/elements/1.1/"
   xmlns:cc="http://creativecommons.org/ns#"
   xmlns:rdf="http://www.w3.org/1999/02/22-rdf-syntax-ns#"
   xmlns:svg="http://www.w3.org/2000/svg"
   xmlns="http://www.w3.org/2000/svg"
   xmlns:xlink="http://www.w3.org/1999/xlink"
   xmlns:sodipodi="http://sodipodi.sourceforge.net/DTD/sodipodi-0.dtd"
   xmlns:inkscape="http://www.inkscape.org/namespaces/inkscape"
   shape-rendering="auto"
   width="691.0661"
   text-rendering="auto"
   contentScriptType="text/ecmascript"
   color-interpolation="auto"
   color-rendering="auto"
   preserveAspectRatio="xMidYMid meet"
   font-size="12"
   viewBox="0 0 691.0661 111.80887"
   image-rendering="auto"
   stroke-miterlimit="10"
   zoomAndPan="magnify"
   version="1.0"
   contentStyleType="text/css"
   font-style="normal"
   height="111.80887"
   font-weight="normal"
   id="svg2"
   inkscape:version="0.91 r13725"
   sodipodi:docname="kieker_readerimplsuserguide-modified.svg"
   style="font-size:12px;font-style:normal;font-weight:normal;fill:#000000;fill-opacity:1;stroke:#000000;stroke-width:1;stroke-linecap:square;stroke-linejoin:miter;stroke-miterlimit:10;stroke-opacity:1;stroke-dasharray:none;stroke-dashoffset:0;font-family:Dialog">
  <g
     id="g3979"
     transform="matrix(0,-1,1,0,162.39713,437.82679)">
    <line
       transform="translate(-15.566208,-97.8607)"
       style="font-size:11px;fill:none;stroke-width:1.09290004;stroke-linecap:butt;stroke-dasharray:3, 3"
       id="line420"
       y2="134"
       y1="187"
       x2="436"
       x1="436"
       clip-path="url(#clipPath41)" />
    <polygon
       transform="translate(-15.566208,-97.8607)"
       style="font-size:11px;fill:#ffffff;stroke:none"
       id="polygon422"
       points="441,144 431,144 436,134 "
       clip-path="url(#clipPath42)" />
    <polygon
       transform="translate(-15.566208,-97.8607)"
       style="font-size:11px;fill:none;stroke-width:1.09290004;stroke-linecap:butt"
       id="polygon424"
       points="441,144 431,144 436,134 "
       clip-path="url(#clipPath42)" />
  </g>
  <metadata
     id="metadata492">
    <rdf:RDF>
      <cc:Work
         rdf:about="">
        <dc:format>image/svg+xml</dc:format>
        <dc:type
           rdf:resource="http://purl.org/dc/dcmitype/StillImage" />
        <dc:title />
      </cc:Work>
    </rdf:RDF>
  </metadata>
  <sodipodi:namedview
     pagecolor="#ffffff"
     bordercolor="#666666"
     borderopacity="1"
     objecttolerance="10"
     gridtolerance="10"
     guidetolerance="10"
     inkscape:pageopacity="0"
     inkscape:pageshadow="2"
     inkscape:window-width="1887"
     inkscape:window-height="1176"
     id="namedview490"
     showgrid="false"
     inkscape:zoom="1.9925636"
     inkscape:cx="380.87895"
     inkscape:cy="-24.241078"
     inkscape:window-x="1953"
     inkscape:window-y="24"
     inkscape:window-maximized="1"
     inkscape:current-layer="svg2"
     fit-margin-top="0"
     fit-margin-left="0"
     fit-margin-right="0"
     fit-margin-bottom="0"
     showguides="true"
     inkscape:guide-bbox="true" />
  <!--Generated by the Batik Graphics2D SVG Generator-->
  <defs
     id="genericDefs">
    <defs
       id="defs1">
      <linearGradient
         spreadMethod="pad"
         xlink:show="other"
         id="linearGradient1"
         xlink:actuate="onLoad"
         xlink:type="simple"
         y2="248"
         gradientUnits="userSpaceOnUse"
         y1="234"
         x2="269"
         x1="269">
        <stop
           id="stop9"
           offset="0%"
           stop-color="white"
           stop-opacity="1" />
        <stop
           id="stop11"
           offset="100%"
           stop-color="rgb(236,236,236)"
           stop-opacity="1" />
      </linearGradient>
      <linearGradient
         spreadMethod="pad"
         xlink:show="other"
         id="linearGradient2"
         xlink:actuate="onLoad"
         xlink:type="simple"
         y2="221"
         gradientUnits="userSpaceOnUse"
         y1="188"
         x2="269"
         x1="269">
        <stop
           id="stop14"
           offset="0%"
           stop-color="rgb(226,241,254)"
           stop-opacity="1" />
        <stop
           id="stop16"
           offset="100%"
           stop-color="rgb(188,213,234)"
           stop-opacity="1" />
      </linearGradient>
      <linearGradient
         spreadMethod="pad"
         xlink:show="other"
         id="linearGradient3"
         xlink:actuate="onLoad"
         xlink:type="simple"
         y2="134"
         gradientUnits="userSpaceOnUse"
         y1="121"
         x2="259"
         x1="259">
        <stop
           id="stop19"
           offset="0%"
           stop-color="white"
           stop-opacity="1" />
        <stop
           id="stop21"
           offset="100%"
           stop-color="rgb(236,236,236)"
           stop-opacity="1" />
      </linearGradient>
      <linearGradient
         spreadMethod="pad"
         xlink:show="other"
         id="linearGradient4"
         xlink:actuate="onLoad"
         xlink:type="simple"
         y2="95"
         gradientUnits="userSpaceOnUse"
         y1="49"
         x2="259"
         x1="259">
        <stop
           id="stop24"
           offset="0%"
           stop-color="rgb(226,241,254)"
           stop-opacity="1" />
        <stop
           id="stop26"
           offset="100%"
           stop-color="rgb(188,213,234)"
           stop-opacity="1" />
      </linearGradient>
      <linearGradient
         spreadMethod="pad"
         xlink:show="other"
         id="linearGradient5"
         xlink:actuate="onLoad"
         xlink:type="simple"
         y2="307"
         gradientUnits="userSpaceOnUse"
         y1="287"
         x2="204"
         x1="204">
        <stop
           id="stop29"
           offset="0%"
           stop-color="rgb(226,241,254)"
           stop-opacity="1" />
        <stop
           id="stop31"
           offset="100%"
           stop-color="rgb(188,213,234)"
           stop-opacity="1" />
      </linearGradient>
      <linearGradient
         spreadMethod="pad"
         xlink:show="other"
         id="linearGradient6"
         xlink:actuate="onLoad"
         xlink:type="simple"
         y2="307"
         gradientUnits="userSpaceOnUse"
         y1="287"
         x2="301"
         x1="301">
        <stop
           id="stop34"
           offset="0%"
           stop-color="rgb(226,241,254)"
           stop-opacity="1" />
        <stop
           id="stop36"
           offset="100%"
           stop-color="rgb(188,213,234)"
           stop-opacity="1" />
      </linearGradient>
      <linearGradient
         spreadMethod="pad"
         xlink:show="other"
         id="linearGradient7"
         xlink:actuate="onLoad"
         xlink:type="simple"
         y2="307"
         gradientUnits="userSpaceOnUse"
         y1="287"
         x2="567"
         x1="567">
        <stop
           id="stop39"
           offset="0%"
           stop-color="rgb(226,241,254)"
           stop-opacity="1" />
        <stop
           id="stop41"
           offset="100%"
           stop-color="rgb(188,213,234)"
           stop-opacity="1" />
      </linearGradient>
      <linearGradient
         spreadMethod="pad"
         xlink:show="other"
         id="linearGradient8"
         xlink:actuate="onLoad"
         xlink:type="simple"
         y2="190"
         gradientUnits="userSpaceOnUse"
         y1="144"
         x2="10"
         x1="10">
        <stop
           id="stop44"
           offset="0%"
           stop-color="rgb(226,241,254)"
           stop-opacity="1" />
        <stop
           id="stop46"
           offset="100%"
           stop-color="rgb(188,213,234)"
           stop-opacity="1" />
      </linearGradient>
      <linearGradient
         spreadMethod="pad"
         xlink:show="other"
         id="linearGradient9"
         xlink:actuate="onLoad"
         xlink:type="simple"
         y2="309"
         gradientUnits="userSpaceOnUse"
         y1="286"
         x2="458"
         x1="458">
        <stop
           id="stop49"
           offset="0%"
           stop-color="rgb(226,241,254)"
           stop-opacity="1" />
        <stop
           id="stop51"
           offset="100%"
           stop-color="rgb(188,213,234)"
           stop-opacity="1" />
      </linearGradient>
      <clipPath
         id="clipPath1"
         clipPathUnits="userSpaceOnUse">
        <path
           id="path54"
           d="m 267,186 367,0 0,68 -367,0 0,-68 z"
           inkscape:connector-curvature="0" />
      </clipPath>
      <clipPath
         id="clipPath2"
         clipPathUnits="userSpaceOnUse">
        <path
           id="path57"
           d="m 364,190 169,0 0,16 -169,0 0,-16 z"
           inkscape:connector-curvature="0" />
      </clipPath>
      <clipPath
         id="clipPath4"
         clipPathUnits="userSpaceOnUse">
        <path
           id="path63"
           d="m 273,220 351,0 0,16 -351,0 0,-16 z"
           inkscape:connector-curvature="0" />
      </clipPath>
      <clipPath
         id="clipPath5"
         clipPathUnits="userSpaceOnUse">
        <path
           id="path66"
           d="m 273,233 263,0 0,16 -263,0 0,-16 z"
           inkscape:connector-curvature="0" />
      </clipPath>
      <clipPath
         id="clipPath6"
         clipPathUnits="userSpaceOnUse">
        <path
           id="path69"
           d="m 268,219 362,0 0,30 -362,0 0,-30 z"
           inkscape:connector-curvature="0" />
      </clipPath>
      <clipPath
         id="clipPath7"
         clipPathUnits="userSpaceOnUse">
        <path
           id="path72"
           d="m 267,246 367,0 0,7 -367,0 0,-7 z"
           inkscape:connector-curvature="0" />
      </clipPath>
      <clipPath
         id="clipPath8"
         clipPathUnits="userSpaceOnUse">
        <path
           id="path75"
           d="m 628,186 7,0 0,64 -7,0 0,-64 z"
           inkscape:connector-curvature="0" />
      </clipPath>
      <clipPath
         id="clipPath9"
         clipPathUnits="userSpaceOnUse">
        <path
           id="path78"
           d="m 257,47 387,0 0,93 -387,0 0,-93 z"
           inkscape:connector-curvature="0" />
      </clipPath>
      <clipPath
         id="clipPath10"
         clipPathUnits="userSpaceOnUse">
        <path
           id="path81"
           d="m 415,51 67,0 0,16 -67,0 0,-16 z"
           inkscape:connector-curvature="0" />
      </clipPath>
      <clipPath
         id="clipPath11"
         clipPathUnits="userSpaceOnUse">
        <path
           id="path84"
           d="m 388,64 121,0 0,16 -121,0 0,-16 z"
           inkscape:connector-curvature="0" />
      </clipPath>
      <clipPath
         id="clipPath13"
         clipPathUnits="userSpaceOnUse">
        <path
           id="path90"
           d="m 263,94 150,0 0,16 -150,0 0,-16 z"
           inkscape:connector-curvature="0" />
      </clipPath>
      <clipPath
         id="clipPath14"
         clipPathUnits="userSpaceOnUse">
        <path
           id="path93"
           d="m 263,107 351,0 0,16 -351,0 0,-16 z"
           inkscape:connector-curvature="0" />
      </clipPath>
      <clipPath
         id="clipPath15"
         clipPathUnits="userSpaceOnUse">
        <path
           id="path96"
           d="m 263,120 115,0 0,15 -115,0 0,-15 z"
           inkscape:connector-curvature="0" />
      </clipPath>
      <clipPath
         id="clipPath16"
         clipPathUnits="userSpaceOnUse">
        <path
           id="path99"
           d="m 258,93 382,0 0,43 -382,0 0,-43 z"
           inkscape:connector-curvature="0" />
      </clipPath>
      <clipPath
         id="clipPath17"
         clipPathUnits="userSpaceOnUse">
        <path
           id="path102"
           d="m 257,133 387,0 0,6 -387,0 0,-6 z"
           inkscape:connector-curvature="0" />
      </clipPath>
      <clipPath
         id="clipPath18"
         clipPathUnits="userSpaceOnUse">
        <path
           id="path105"
           d="m 638,47 7,0 0,89 -7,0 0,-89 z"
           inkscape:connector-curvature="0" />
      </clipPath>
      <clipPath
         id="clipPath19"
         clipPathUnits="userSpaceOnUse">
        <path
           id="path108"
           d="m 202,285 89,0 0,28 -89,0 0,-28 z"
           inkscape:connector-curvature="0" />
      </clipPath>
      <clipPath
         id="clipPath20"
         clipPathUnits="userSpaceOnUse">
        <path
           id="path111"
           d="m 213,289 64,0 0,16 -64,0 0,-16 z"
           inkscape:connector-curvature="0" />
      </clipPath>
      <clipPath
         id="clipPath21"
         clipPathUnits="userSpaceOnUse">
        <path
           id="path114"
           d="m 202,305 89,0 0,7 -89,0 0,-7 z"
           inkscape:connector-curvature="0" />
      </clipPath>
      <clipPath
         id="clipPath22"
         clipPathUnits="userSpaceOnUse">
        <path
           id="path117"
           d="m 285,285 7,0 0,24 -7,0 0,-24 z"
           inkscape:connector-curvature="0" />
      </clipPath>
      <clipPath
         id="clipPath23"
         clipPathUnits="userSpaceOnUse">
        <path
           id="path120"
           d="m 299,285 145,0 0,28 -145,0 0,-28 z"
           inkscape:connector-curvature="0" />
      </clipPath>
      <clipPath
         id="clipPath24"
         clipPathUnits="userSpaceOnUse">
        <path
           id="path123"
           d="m 310,289 120,0 0,16 -120,0 0,-16 z"
           inkscape:connector-curvature="0" />
      </clipPath>
      <clipPath
         id="clipPath25"
         clipPathUnits="userSpaceOnUse">
        <path
           id="path126"
           d="m 299,305 145,0 0,7 -145,0 0,-7 z"
           inkscape:connector-curvature="0" />
      </clipPath>
      <clipPath
         id="clipPath26"
         clipPathUnits="userSpaceOnUse">
        <path
           id="path129"
           d="m 438,285 7,0 0,24 -7,0 0,-24 z"
           inkscape:connector-curvature="0" />
      </clipPath>
      <clipPath
         id="clipPath27"
         clipPathUnits="userSpaceOnUse">
        <path
           id="path132"
           d="m 565,285 96,0 0,28 -96,0 0,-28 z"
           inkscape:connector-curvature="0" />
      </clipPath>
      <clipPath
         id="clipPath28"
         clipPathUnits="userSpaceOnUse">
        <path
           id="path135"
           d="m 576,289 71,0 0,16 -71,0 0,-16 z"
           inkscape:connector-curvature="0" />
      </clipPath>
      <clipPath
         id="clipPath29"
         clipPathUnits="userSpaceOnUse">
        <path
           id="path138"
           d="m 565,305 96,0 0,7 -96,0 0,-7 z"
           inkscape:connector-curvature="0" />
      </clipPath>
      <clipPath
         id="clipPath30"
         clipPathUnits="userSpaceOnUse">
        <path
           id="path141"
           d="m 655,285 7,0 0,24 -7,0 0,-24 z"
           inkscape:connector-curvature="0" />
      </clipPath>
      <clipPath
         id="clipPath31"
         clipPathUnits="userSpaceOnUse">
        <path
           id="path144"
           d="m 8,142 203,0 0,54 -203,0 0,-54 z"
           inkscape:connector-curvature="0" />
      </clipPath>
      <clipPath
         id="clipPath32"
         clipPathUnits="userSpaceOnUse">
        <path
           id="path147"
           d="m 75,146 67,0 0,16 -67,0 0,-16 z"
           inkscape:connector-curvature="0" />
      </clipPath>
      <clipPath
         id="clipPath33"
         clipPathUnits="userSpaceOnUse">
        <path
           id="path150"
           d="m 21,159 175,0 0,16 -175,0 0,-16 z"
           inkscape:connector-curvature="0" />
      </clipPath>
      <clipPath
         id="clipPath34"
         clipPathUnits="userSpaceOnUse">
        <path
           id="path153"
           d="m 19,172 178,0 0,16 -178,0 0,-16 z"
           inkscape:connector-curvature="0" />
      </clipPath>
      <clipPath
         id="clipPath35"
         clipPathUnits="userSpaceOnUse">
        <path
           id="path156"
           d="m 8,188 203,0 0,7 -203,0 0,-7 z"
           inkscape:connector-curvature="0" />
      </clipPath>
      <clipPath
         id="clipPath36"
         clipPathUnits="userSpaceOnUse">
        <path
           id="path159"
           d="m 205,142 7,0 0,50 -7,0 0,-50 z"
           inkscape:connector-curvature="0" />
      </clipPath>
      <clipPath
         id="clipPath37"
         clipPathUnits="userSpaceOnUse">
        <path
           id="path162"
           d="m 456,284 101,0 0,31 -101,0 0,-31 z"
           inkscape:connector-curvature="0" />
      </clipPath>
      <clipPath
         id="clipPath38"
         clipPathUnits="userSpaceOnUse">
        <path
           id="path165"
           d="m 467,288 76,0 0,16 -76,0 0,-16 z"
           inkscape:connector-curvature="0" />
      </clipPath>
      <clipPath
         id="clipPath39"
         clipPathUnits="userSpaceOnUse">
        <path
           id="path168"
           d="m 456,307 101,0 0,7 -101,0 0,-7 z"
           inkscape:connector-curvature="0" />
      </clipPath>
      <clipPath
         id="clipPath40"
         clipPathUnits="userSpaceOnUse">
        <path
           id="path171"
           d="m 551,284 7,0 0,27 -7,0 0,-27 z"
           inkscape:connector-curvature="0" />
      </clipPath>
      <clipPath
         id="clipPath41"
         clipPathUnits="userSpaceOnUse">
        <path
           id="path174"
           d="m -1,-1 672,0 0,377 -672,0 0,-377 z"
           inkscape:connector-curvature="0" />
      </clipPath>
      <clipPath
         id="clipPath42"
         clipPathUnits="userSpaceOnUse">
        <path
           id="path177"
           d="m 429,133 14,0 0,14 -14,0 0,-14 z"
           inkscape:connector-curvature="0" />
      </clipPath>
      <clipPath
         id="clipPath43"
         clipPathUnits="userSpaceOnUse">
        <path
           id="path180"
           d="m 266,246 14,0 0,14 -14,0 0,-14 z"
           inkscape:connector-curvature="0" />
      </clipPath>
      <clipPath
         id="clipPath44"
         clipPathUnits="userSpaceOnUse">
        <path
           id="path183"
           d="m 381,246 14,0 0,14 -14,0 0,-14 z"
           inkscape:connector-curvature="0" />
      </clipPath>
      <clipPath
         id="clipPath45"
         clipPathUnits="userSpaceOnUse">
        <path
           id="path186"
           d="m 341,310 10,0 0,16 -10,0 0,-16 z"
           inkscape:connector-curvature="0" />
      </clipPath>
      <clipPath
         id="clipPath46"
         clipPathUnits="userSpaceOnUse">
        <path
           id="path189"
           d="m 220,310 10,0 0,16 -10,0 0,-16 z"
           inkscape:connector-curvature="0" />
      </clipPath>
      <clipPath
         id="clipPath47"
         clipPathUnits="userSpaceOnUse">
        <path
           id="path192"
           d="m 196,338 63,0 0,16 -63,0 0,-16 z"
           inkscape:connector-curvature="0" />
      </clipPath>
      <clipPath
         id="clipPath48"
         clipPathUnits="userSpaceOnUse">
        <path
           id="path195"
           d="m 326,306 14,0 0,24 -14,0 0,-24 z"
           inkscape:connector-curvature="0" />
      </clipPath>
      <clipPath
         id="clipPath49"
         clipPathUnits="userSpaceOnUse">
        <path
           id="path198"
           d="m 233,306 14,0 0,14 -14,0 0,-14 z"
           inkscape:connector-curvature="0" />
      </clipPath>
      <clipPath
         id="clipPath50"
         clipPathUnits="userSpaceOnUse">
        <path
           id="path201"
           d="m 594,246 14,0 0,14 -14,0 0,-14 z"
           inkscape:connector-curvature="0" />
      </clipPath>
      <clipPath
         id="clipPath51"
         clipPathUnits="userSpaceOnUse">
        <path
           id="path204"
           d="m 245,54 10,0 0,16 -10,0 0,-16 z"
           inkscape:connector-curvature="0" />
      </clipPath>
      <clipPath
         id="clipPath52"
         clipPathUnits="userSpaceOnUse">
        <path
           id="path207"
           d="m 191,118 9,0 0,16 -9,0 0,-16 z"
           inkscape:connector-curvature="0" />
      </clipPath>
      <clipPath
         id="clipPath53"
         clipPathUnits="userSpaceOnUse">
        <path
           id="path210"
           d="m 116,118 64,0 0,16 -64,0 0,-16 z"
           inkscape:connector-curvature="0" />
      </clipPath>
      <clipPath
         id="clipPath54"
         clipPathUnits="userSpaceOnUse">
        <path
           id="path213"
           d="m 181,132 14,0 0,14 -14,0 0,-14 z"
           inkscape:connector-curvature="0" />
      </clipPath>
      <clipPath
         id="clipPath55"
         clipPathUnits="userSpaceOnUse">
        <path
           id="path216"
           d="m 500,246 14,0 0,14 -14,0 0,-14 z"
           inkscape:connector-curvature="0" />
      </clipPath>
    </defs>
    <linearGradient
       inkscape:collect="always"
       xlink:href="#linearGradient8"
       id="linearGradient3872"
       gradientUnits="userSpaceOnUse"
       spreadMethod="pad"
       x1="10"
       y1="144"
       x2="10"
       y2="190" />
    <clipPath
       id="clipPath50-9"
       clipPathUnits="userSpaceOnUse">
      <path
         id="path201-0"
         d="m 594,246 14,0 0,14 -14,0 0,-14 z"
         inkscape:connector-curvature="0" />
    </clipPath>
    <clipPath
       id="clipPath3206"
       clipPathUnits="userSpaceOnUse">
      <path
         id="path3208"
         d="m 594,246 14,0 0,14 -14,0 0,-14 z"
         inkscape:connector-curvature="0" />
    </clipPath>
    <clipPath
       id="clipPath41-7"
       clipPathUnits="userSpaceOnUse">
      <path
         id="path174-2"
         d="m -1,-1 672,0 0,377 -672,0 0,-377 z"
         inkscape:connector-curvature="0" />
    </clipPath>
    <clipPath
       id="clipPath27-7"
       clipPathUnits="userSpaceOnUse">
      <path
         id="path132-2"
         d="m 565,285 96,0 0,28 -96,0 0,-28 z"
         inkscape:connector-curvature="0" />
    </clipPath>
    <clipPath
       id="clipPath28-9"
       clipPathUnits="userSpaceOnUse">
      <path
         id="path135-0"
         d="m 576,289 71,0 0,16 -71,0 0,-16 z"
         inkscape:connector-curvature="0" />
    </clipPath>
    <clipPath
       id="clipPath3216"
       clipPathUnits="userSpaceOnUse">
      <path
         id="path3218"
         d="m 565,285 96,0 0,28 -96,0 0,-28 z"
         inkscape:connector-curvature="0" />
    </clipPath>
    <clipPath
       id="clipPath41-7-2"
       clipPathUnits="userSpaceOnUse">
      <path
         id="path174-2-2"
         d="m -1,-1 672,0 0,377 -672,0 0,-377 z"
         inkscape:connector-curvature="0" />
    </clipPath>
    <clipPath
       id="clipPath50-9-2"
       clipPathUnits="userSpaceOnUse">
      <path
         id="path201-0-3"
         d="m 594,246 14,0 0,14 -14,0 0,-14 z"
         inkscape:connector-curvature="0" />
    </clipPath>
    <clipPath
       id="clipPath4104"
       clipPathUnits="userSpaceOnUse">
      <path
         id="path4106"
         d="m 594,246 14,0 0,14 -14,0 0,-14 z"
         inkscape:connector-curvature="0" />
    </clipPath>
    <clipPath
       id="clipPath28-9-7"
       clipPathUnits="userSpaceOnUse">
      <path
         id="path135-0-7"
         d="m 576,289 71,0 0,16 -71,0 0,-16 z"
         inkscape:connector-curvature="0" />
    </clipPath>
    <clipPath
       id="clipPath27-7-0"
       clipPathUnits="userSpaceOnUse">
      <path
         id="path132-2-1"
         d="m 565,285 96,0 0,28 -96,0 0,-28 z"
         inkscape:connector-curvature="0" />
    </clipPath>
  </defs>
  <text
     xml:space="preserve"
     x="416"
     y="63"
     clip-path="url(#clipPath10)"
     id="text264"
     style="font-size:11px;font-style:normal;font-variant:normal;font-weight:normal;font-stretch:normal;text-align:start;line-height:125%;writing-mode:lr-tb;text-anchor:start;stroke:none;font-family:Arial;-inkscape-font-specification:Arial"
     transform="translate(-342.30432,-47.291314)"
     sodipodi:linespacing="125%">«interface»</text>
  <text
     x="389"
     y="76"
     clip-path="url(#clipPath11)"
     font-weight="bold"
     xml:space="preserve"
     id="text266"
     style="font-size:11px;font-style:normal;font-variant:normal;font-weight:bold;font-stretch:normal;text-align:start;line-height:125%;writing-mode:lr-tb;text-anchor:start;stroke:none;font-family:Arial;-inkscape-font-specification:Arial Bold"
     transform="translate(-325.09582,-47.291314)"
     sodipodi:linespacing="125%">IReaderPlugin</text>
  <text
     xml:space="preserve"
     x="10.228157"
     y="41.708687"
     clip-path="none"
     id="text268"
     style="font-size:11px;font-style:normal;font-variant:normal;font-weight:normal;font-stretch:normal;text-align:start;line-height:125%;writing-mode:lr-tb;text-anchor:start;stroke:none;font-family:Arial;-inkscape-font-specification:Arial"
     sodipodi:linespacing="125%">(from kieker::analysis::plugin::reader)</text>
  <text
     xml:space="preserve"
     x="264"
     y="132"
     clip-path="url(#clipPath15)"
     id="text274"
     style="font-size:11px;font-style:normal;font-variant:normal;font-weight:normal;font-stretch:normal;text-align:start;line-height:125%;writing-mode:lr-tb;text-anchor:start;stroke:none;font-family:Arial;-inkscape-font-specification:Arial"
     transform="translate(-257.09704,-73.87606)"
     sodipodi:linespacing="125%">+ read ( ) : boolean</text>
  <line
     clip-path="url(#clipPath16)"
     x1="259"
     x2="638"
     y1="94"
     y2="94"
     id="line276"
     style="font-size:11px;fill:none;stroke-width:1.39006662;stroke-linecap:butt;stroke-miterlimit:10;stroke-dasharray:none"
     transform="matrix(0.5175219,0,0,1,-133.10017,-47.291314)" />
  <rect
     x="258"
     y="48"
     clip-path="url(#clipPath9)"
     width="380"
     height="86"
     id="rect294"
     style="font-size:11px;fill:none;stroke-width:1.6165849;stroke-linecap:butt;stroke-miterlimit:10;stroke-dasharray:none"
     transform="matrix(0.5175219,0,0,0.7393912,-133.10017,-34.890022)" />
  <rect
     x="268"
     y="187"
     clip-path="url(#clipPath1)"
     width="360"
     height="60"
     id="rect256"
     style="font-size:11px;fill:#ffffff;fill-opacity:1;stroke-width:1.07698476;stroke-linecap:butt"
     transform="matrix(1.2132931,0,0,0.8487427,-71.526527,-158.21894)" />
  <text
     xml:space="preserve"
     x="365"
     y="202"
     clip-path="url(#clipPath2)"
     id="text228"
     style="font-size:11px;font-style:normal;font-variant:normal;font-weight:bold;font-stretch:normal;text-align:start;line-height:125%;writing-mode:lr-tb;text-anchor:start;stroke:none;font-family:Arial;-inkscape-font-specification:Arial Bold"
     transform="translate(49.598362,-186.3528)"
     sodipodi:linespacing="125%">AbstractReaderPlugin</text>
  <text
     x="381.35397"
     y="28.647203"
     clip-path="none"
     font-style="normal"
     font-weight="normal"
     xml:space="preserve"
     id="text230"
     style="font-size:11px;font-style:normal;font-variant:normal;font-weight:normal;font-stretch:normal;text-align:start;line-height:125%;writing-mode:lr-tb;text-anchor:start;stroke:none;font-family:Arial;-inkscape-font-specification:Arial"
     sodipodi:linespacing="125%">(from kieker::analysis::plugin::reader)</text>
  <line
     clip-path="url(#clipPath6)"
     x1="269"
     x2="628"
     y1="220"
     y2="220"
     id="line238"
     style="font-size:11px;fill:none;stroke-width:0.99221873;stroke-linecap:butt"
     transform="matrix(1.213238,0,0,1,-71.608493,-186.3528)" />
  <g
     id="g3227"
     transform="translate(38.515404,-0.06829625)">
    <g
       transform="translate(12.072427,-115.57369)"
       id="g3344">
      <text
         x="214"
         y="301"
         clip-path="url(#clipPath20)"
         font-weight="bold"
         xml:space="preserve"
         id="text300"
         style="font-size:11px;font-style:normal;font-variant:normal;font-weight:bold;font-stretch:normal;text-align:start;line-height:125%;writing-mode:lr-tb;text-anchor:start;stroke:none;font-family:Arial;-inkscape-font-specification:Arial Bold"
         transform="translate(-4.6420898,-79.46875)"
         sodipodi:linespacing="125%">FSReader</text>
      <rect
         x="203"
         y="286"
         clip-path="url(#clipPath19)"
         width="82"
         height="20"
         id="rect318"
         style="font-size:11px;fill:none;stroke-width:1.22784615;stroke-linecap:butt"
         transform="matrix(0.79226953,0,0,1,42.217485,-79.46875)" />
    </g>
    <g
       transform="translate(-15.927573,-115.57369)"
       id="g3363">
      <line
         clip-path="url(#clipPath41)"
         x1="272"
         x2="272"
         y1="286"
         y2="248"
         id="line426"
         style="font-size:11px;fill:none;stroke-width:1.09290004;stroke-linecap:butt"
         transform="translate(-8.46875,-79.46875)" />
      <polygon
         clip-path="url(#clipPath43)"
         points="267,258 272,248 277,258 "
         id="polygon428"
         style="font-size:11px;fill:#ffffff;stroke:none"
         transform="translate(-8.46875,-79.46875)" />
      <polygon
         clip-path="url(#clipPath43)"
         points="267,258 272,248 277,258 "
         id="polygon430"
         style="font-size:11px;fill:none;stroke-width:1.09290004;stroke-linecap:butt"
         transform="translate(-8.46875,-79.46875)" />
    </g>
  </g>
  <g
     id="g3210"
     transform="translate(55.537421,-0.06829625)">
    <g
       transform="translate(-83.241132,-115.57369)"
       id="g3328">
      <text
         x="577"
         y="301"
         clip-path="url(#clipPath28)"
         font-weight="bold"
         xml:space="preserve"
         id="text348"
         style="font-style:normal;font-variant:normal;font-weight:bold;font-stretch:normal;font-size:11px;line-height:125%;font-family:Arial;-inkscape-font-specification:'Arial Bold';text-align:start;writing-mode:lr-tb;text-anchor:start;stroke:none"
         transform="translate(-111.25441,-79.46875)"
         sodipodi:linespacing="125%">JmsReader</text>
      <rect
         x="566"
         y="286"
         clip-path="url(#clipPath27)"
         width="89"
         height="20"
         id="rect366"
         style="font-size:11px;fill:none;stroke-width:1.20356643;stroke-linecap:butt"
         transform="matrix(0.82455723,0,0,1,-7.498649,-79.46875)" />
    </g>
    <g
       transform="translate(-73.741132,-115.57369)"
       id="g3348">
      <line
         clip-path="url(#clipPath41)"
         x1="601"
         x2="601"
         y1="286"
         y2="248"
         id="line462"
         style="font-size:11px;fill:none;stroke-width:1.09290004;stroke-linecap:butt"
         transform="translate(-114.60646,-79.46875)" />
      <polygon
         clip-path="url(#clipPath50)"
         points="601,248 606,258 596,258 "
         id="polygon464"
         style="font-size:11px;fill:#ffffff;stroke:none"
         transform="translate(-114.60646,-79.46875)" />
      <polygon
         clip-path="url(#clipPath50)"
         points="601,248 606,258 596,258 "
         id="polygon466"
         style="font-size:11px;fill:none;stroke-width:1.09290004;stroke-linecap:butt"
         transform="translate(-114.60646,-79.46875)" />
    </g>
  </g>
  <g
     id="g3219"
     transform="translate(47.026403,-0.06829625)">
    <g
       transform="translate(-90.082225,-115.57369)"
       id="g3336">
      <text
         x="468"
         y="300"
         clip-path="url(#clipPath38)"
         font-weight="bold"
         xml:space="preserve"
         id="text400"
         style="font-size:11px;font-style:normal;font-variant:normal;font-weight:bold;font-stretch:normal;text-align:start;line-height:125%;writing-mode:lr-tb;text-anchor:start;stroke:none;font-family:Arial;-inkscape-font-specification:Arial Bold"
         transform="translate(-80.649481,-79.46875)"
         sodipodi:linespacing="125%">PipeReader</text>
      <rect
         x="457"
         y="285"
         clip-path="url(#clipPath37)"
         width="94"
         height="23"
         id="rect418"
         style="font-size:11px;fill:none;stroke-width:1.35305119;stroke-linecap:butt"
         transform="matrix(0.72818247,0,0,0.89596737,51.101437,-49.123075)" />
    </g>
    <line
       transform="translate(-177.97682,-195.04244)"
       style="font-size:11px;fill:none;stroke-width:1.09290004;stroke-linecap:butt"
       id="line484"
       y2="248"
       y1="285"
       x2="506"
       x1="506"
       clip-path="url(#clipPath41)" />
    <polygon
       transform="translate(-177.97682,-195.04244)"
       style="font-size:11px;fill:#ffffff;stroke:none"
       id="polygon486"
       points="506,248 511,258 501,258 "
       clip-path="url(#clipPath55)" />
    <polygon
       transform="translate(-177.97682,-195.04244)"
       style="font-size:11px;fill:none;stroke-width:1.09290004;stroke-linecap:butt"
       id="polygon488"
       points="506,248 511,258 501,258 "
       clip-path="url(#clipPath55)" />
  </g>
  <g
     id="g3201"
     transform="translate(64.048411,-0.06829625)">
    <g
       transform="translate(-95.927562,-115.57369)"
       id="g3332">
      <text
         x="577"
         y="301"
         clip-path="url(#clipPath28-9)"
         font-weight="bold"
         xml:space="preserve"
         id="text348-0"
         style="font-style:normal;font-variant:normal;font-weight:bold;font-stretch:normal;font-size:11px;line-height:125%;font-family:Arial;-inkscape-font-specification:'Arial Bold';text-align:start;writing-mode:lr-tb;text-anchor:start;fill:#000000;fill-opacity:1;stroke:none"
         transform="translate(-12.890007,-79.9223)"
         sodipodi:linespacing="125%">JmxReader</text>
      <rect
         x="566"
         y="286"
         clip-path="url(#clipPath27-7)"
         width="89"
         height="20"
         id="rect366-4"
         style="font-size:11px;font-style:normal;font-weight:normal;fill:none;stroke:#000000;stroke-width:1.2275449;stroke-linecap:butt;stroke-linejoin:miter;stroke-miterlimit:10;stroke-opacity:1;stroke-dasharray:none;stroke-dashoffset:0;font-family:Dialog"
         transform="matrix(0.79265854,0,0,1,110.33991,-79.9223)" />
    </g>
    <g
       transform="translate(-86.427556,-115.57369)"
       id="g3323">
      <line
         clip-path="url(#clipPath41-7)"
         x1="601"
         x2="601"
         y1="286"
         y2="248"
         id="line462-1"
         style="font-size:11px;font-style:normal;font-weight:normal;fill:none;stroke:#000000;stroke-width:1.09290004;stroke-linecap:butt;stroke-linejoin:miter;stroke-miterlimit:10;stroke-opacity:1;stroke-dasharray:none;stroke-dashoffset:0;font-family:Dialog"
         transform="translate(-16.242057,-79.9223)" />
      <polygon
         clip-path="url(#clipPath50-9)"
         points="601,248 606,258 596,258 "
         id="polygon464-7"
         style="font-size:11px;font-style:normal;font-weight:normal;fill:#ffffff;fill-opacity:1;stroke:none;font-family:Dialog"
         transform="translate(-16.242057,-79.9223)" />
      <polygon
         clip-path="url(#clipPath50-9)"
         points="601,248 606,258 596,258 "
         id="polygon466-9"
         style="font-size:11px;font-style:normal;font-weight:normal;fill:none;stroke:#000000;stroke-width:1.09290004;stroke-linecap:butt;stroke-linejoin:miter;stroke-miterlimit:10;stroke-opacity:1;stroke-dasharray:none;stroke-dashoffset:0;font-family:Dialog"
         transform="translate(-16.242057,-79.9223)" />
    </g>
  </g>
  <text
     xml:space="preserve"
     style="font-size:20px;font-style:normal;font-variant:normal;font-weight:normal;font-stretch:normal;line-height:125%;letter-spacing:0px;word-spacing:0px;fill:#000000;fill-opacity:1;stroke:none;font-family:Serif;-inkscape-font-specification:Serif"
     x="258.87692"
     y="45.435047"
     id="text3189"
     sodipodi:linespacing="125%"><tspan
       sodipodi:role="line"
       id="tspan3191"
       x="258.87692"
       y="45.435047"
       style="font-size:11px;font-style:normal;font-variant:normal;font-weight:normal;font-stretch:normal;font-family:Arial;-inkscape-font-specification:Arial">+ AbstractReaderPlugin ( configuration : Configuration, IProjectContext projectContext )</tspan></text>
</svg>
